G04 #@! TF.GenerationSoftware,KiCad,Pcbnew,5.0.0-fee4fd1~66~ubuntu18.04.1*
G04 #@! TF.CreationDate,2018-09-29T20:43:12+02:00*
G04 #@! TF.ProjectId,attinyReflexos,617474696E795265666C65786F732E6B,rev?*
G04 #@! TF.SameCoordinates,Original*
G04 #@! TF.FileFunction,Legend,Bot*
G04 #@! TF.FilePolarity,Positive*
%FSLAX46Y46*%
G04 Gerber Fmt 4.6, Leading zero omitted, Abs format (unit mm)*
G04 Created by KiCad (PCBNEW 5.0.0-fee4fd1~66~ubuntu18.04.1) date Sat Sep 29 20:43:12 2018*
%MOMM*%
%LPD*%
G01*
G04 APERTURE LIST*
%ADD10C,0.300000*%
%ADD11C,0.120000*%
%ADD12C,0.150000*%
G04 APERTURE END LIST*
D10*
X168475714Y-98397142D02*
X168618571Y-98468571D01*
X168904285Y-98468571D01*
X169047142Y-98397142D01*
X169118571Y-98325714D01*
X169190000Y-98182857D01*
X169190000Y-97754285D01*
X169118571Y-97611428D01*
X169047142Y-97540000D01*
X168904285Y-97468571D01*
X168618571Y-97468571D01*
X168475714Y-97540000D01*
X167190000Y-98397142D02*
X167332857Y-98468571D01*
X167618571Y-98468571D01*
X167761428Y-98397142D01*
X167832857Y-98325714D01*
X167904285Y-98182857D01*
X167904285Y-97754285D01*
X167832857Y-97611428D01*
X167761428Y-97540000D01*
X167618571Y-97468571D01*
X167332857Y-97468571D01*
X167190000Y-97540000D01*
X166547142Y-97897142D02*
X165404285Y-97897142D01*
X164690000Y-98468571D02*
X164690000Y-96968571D01*
X164690000Y-97540000D02*
X164547142Y-97468571D01*
X164261428Y-97468571D01*
X164118571Y-97540000D01*
X164047142Y-97611428D01*
X163975714Y-97754285D01*
X163975714Y-98182857D01*
X164047142Y-98325714D01*
X164118571Y-98397142D01*
X164261428Y-98468571D01*
X164547142Y-98468571D01*
X164690000Y-98397142D01*
X163475714Y-97468571D02*
X163118571Y-98468571D01*
X162761428Y-97468571D02*
X163118571Y-98468571D01*
X163261428Y-98825714D01*
X163332857Y-98897142D01*
X163475714Y-98968571D01*
X162190000Y-97897142D02*
X161047142Y-97897142D01*
X160404285Y-98397142D02*
X160261428Y-98468571D01*
X159975714Y-98468571D01*
X159832857Y-98397142D01*
X159761428Y-98254285D01*
X159761428Y-98182857D01*
X159832857Y-98040000D01*
X159975714Y-97968571D01*
X160190000Y-97968571D01*
X160332857Y-97897142D01*
X160404285Y-97754285D01*
X160404285Y-97682857D01*
X160332857Y-97540000D01*
X160190000Y-97468571D01*
X159975714Y-97468571D01*
X159832857Y-97540000D01*
X158475714Y-98468571D02*
X158475714Y-97682857D01*
X158547142Y-97540000D01*
X158690000Y-97468571D01*
X158975714Y-97468571D01*
X159118571Y-97540000D01*
X158475714Y-98397142D02*
X158618571Y-98468571D01*
X158975714Y-98468571D01*
X159118571Y-98397142D01*
X159190000Y-98254285D01*
X159190000Y-98111428D01*
X159118571Y-97968571D01*
X158975714Y-97897142D01*
X158618571Y-97897142D01*
X158475714Y-97825714D01*
X157761428Y-98325714D02*
X157690000Y-98397142D01*
X157761428Y-98468571D01*
X157832857Y-98397142D01*
X157761428Y-98325714D01*
X157761428Y-98468571D01*
X157761428Y-97540000D02*
X157690000Y-97611428D01*
X157761428Y-97682857D01*
X157832857Y-97611428D01*
X157761428Y-97540000D01*
X157761428Y-97682857D01*
X156118571Y-97468571D02*
X155547142Y-97468571D01*
X155904285Y-96968571D02*
X155904285Y-98254285D01*
X155832857Y-98397142D01*
X155690000Y-98468571D01*
X155547142Y-98468571D01*
X154404285Y-97468571D02*
X154404285Y-98468571D01*
X155047142Y-97468571D02*
X155047142Y-98254285D01*
X154975714Y-98397142D01*
X154832857Y-98468571D01*
X154618571Y-98468571D01*
X154475714Y-98397142D01*
X154404285Y-98325714D01*
X153047142Y-98397142D02*
X153190000Y-98468571D01*
X153475714Y-98468571D01*
X153618571Y-98397142D01*
X153690000Y-98325714D01*
X153761428Y-98182857D01*
X153761428Y-97754285D01*
X153690000Y-97611428D01*
X153618571Y-97540000D01*
X153475714Y-97468571D01*
X153190000Y-97468571D01*
X153047142Y-97540000D01*
X152404285Y-98468571D02*
X152404285Y-96968571D01*
X151761428Y-98468571D02*
X151761428Y-97682857D01*
X151832857Y-97540000D01*
X151975714Y-97468571D01*
X152190000Y-97468571D01*
X152332857Y-97540000D01*
X152404285Y-97611428D01*
X150832857Y-98468571D02*
X150975714Y-98397142D01*
X151047142Y-98325714D01*
X151118571Y-98182857D01*
X151118571Y-97754285D01*
X151047142Y-97611428D01*
X150975714Y-97540000D01*
X150832857Y-97468571D01*
X150618571Y-97468571D01*
X150475714Y-97540000D01*
X150404285Y-97611428D01*
X150332857Y-97754285D01*
X150332857Y-98182857D01*
X150404285Y-98325714D01*
X150475714Y-98397142D01*
X150618571Y-98468571D01*
X150832857Y-98468571D01*
X148547142Y-98468571D02*
X148547142Y-97468571D01*
X148547142Y-97611428D02*
X148475714Y-97540000D01*
X148332857Y-97468571D01*
X148118571Y-97468571D01*
X147975714Y-97540000D01*
X147904285Y-97682857D01*
X147904285Y-98468571D01*
X147904285Y-97682857D02*
X147832857Y-97540000D01*
X147690000Y-97468571D01*
X147475714Y-97468571D01*
X147332857Y-97540000D01*
X147261428Y-97682857D01*
X147261428Y-98468571D01*
X145975714Y-98397142D02*
X146118571Y-98468571D01*
X146404285Y-98468571D01*
X146547142Y-98397142D01*
X146618571Y-98254285D01*
X146618571Y-97682857D01*
X146547142Y-97540000D01*
X146404285Y-97468571D01*
X146118571Y-97468571D01*
X145975714Y-97540000D01*
X145904285Y-97682857D01*
X145904285Y-97825714D01*
X146618571Y-97968571D01*
X145261428Y-97468571D02*
X145261428Y-98468571D01*
X145261428Y-97611428D02*
X145190000Y-97540000D01*
X145047142Y-97468571D01*
X144832857Y-97468571D01*
X144690000Y-97540000D01*
X144618571Y-97682857D01*
X144618571Y-98468571D01*
X143261428Y-98468571D02*
X143261428Y-96968571D01*
X143261428Y-98397142D02*
X143404285Y-98468571D01*
X143690000Y-98468571D01*
X143832857Y-98397142D01*
X143904285Y-98325714D01*
X143975714Y-98182857D01*
X143975714Y-97754285D01*
X143904285Y-97611428D01*
X143832857Y-97540000D01*
X143690000Y-97468571D01*
X143404285Y-97468571D01*
X143261428Y-97540000D01*
X141975714Y-98397142D02*
X142118571Y-98468571D01*
X142404285Y-98468571D01*
X142547142Y-98397142D01*
X142618571Y-98254285D01*
X142618571Y-97682857D01*
X142547142Y-97540000D01*
X142404285Y-97468571D01*
X142118571Y-97468571D01*
X141975714Y-97540000D01*
X141904285Y-97682857D01*
X141904285Y-97825714D01*
X142618571Y-97968571D01*
X141404285Y-97468571D02*
X140618571Y-97468571D01*
X141404285Y-98468571D01*
X140618571Y-98468571D01*
D11*
G04 #@! TO.C,BT1*
X175285671Y-111805281D02*
G75*
G03X152840000Y-108260000I-11495671J45281D01*
G01*
X152841754Y-108233616D02*
G75*
G02X152090000Y-108760000I-751754J273616D01*
G01*
X175285671Y-111714719D02*
G75*
G02X152840000Y-115260000I-11495671J-45281D01*
G01*
X152841754Y-115286384D02*
G75*
G03X152090000Y-114760000I-751754J-273616D01*
G01*
X146390000Y-114760000D02*
X152090000Y-114760000D01*
X146390000Y-108760000D02*
X146390000Y-114760000D01*
X146390000Y-108760000D02*
X152090000Y-108760000D01*
D12*
X149375714Y-115988571D02*
X149232857Y-116036190D01*
X149185238Y-116083809D01*
X149137619Y-116179047D01*
X149137619Y-116321904D01*
X149185238Y-116417142D01*
X149232857Y-116464761D01*
X149328095Y-116512380D01*
X149709047Y-116512380D01*
X149709047Y-115512380D01*
X149375714Y-115512380D01*
X149280476Y-115560000D01*
X149232857Y-115607619D01*
X149185238Y-115702857D01*
X149185238Y-115798095D01*
X149232857Y-115893333D01*
X149280476Y-115940952D01*
X149375714Y-115988571D01*
X149709047Y-115988571D01*
X148851904Y-115512380D02*
X148280476Y-115512380D01*
X148566190Y-116512380D02*
X148566190Y-115512380D01*
X147423333Y-116512380D02*
X147994761Y-116512380D01*
X147709047Y-116512380D02*
X147709047Y-115512380D01*
X147804285Y-115655238D01*
X147899523Y-115750476D01*
X147994761Y-115798095D01*
X151911428Y-111867142D02*
X150768571Y-111867142D01*
X151340000Y-112438571D02*
X151340000Y-111295714D01*
G04 #@! TD*
M02*
