G04 #@! TF.GenerationSoftware,KiCad,Pcbnew,5.0.0-fee4fd1~66~ubuntu18.04.1*
G04 #@! TF.CreationDate,2018-09-29T20:43:11+02:00*
G04 #@! TF.ProjectId,attinyReflexos,617474696E795265666C65786F732E6B,rev?*
G04 #@! TF.SameCoordinates,Original*
G04 #@! TF.FileFunction,Copper,L1,Top,Signal*
G04 #@! TF.FilePolarity,Positive*
%FSLAX46Y46*%
G04 Gerber Fmt 4.6, Leading zero omitted, Abs format (unit mm)*
G04 Created by KiCad (PCBNEW 5.0.0-fee4fd1~66~ubuntu18.04.1) date Sat Sep 29 20:43:11 2018*
%MOMM*%
%LPD*%
G01*
G04 APERTURE LIST*
G04 #@! TA.AperFunction,ComponentPad*
%ADD10C,3.000000*%
G04 #@! TD*
G04 #@! TA.AperFunction,ComponentPad*
%ADD11R,3.000000X3.000000*%
G04 #@! TD*
G04 #@! TA.AperFunction,ComponentPad*
%ADD12C,1.524000*%
G04 #@! TD*
G04 #@! TA.AperFunction,ComponentPad*
%ADD13O,2.600000X1.524000*%
G04 #@! TD*
G04 #@! TA.AperFunction,ComponentPad*
%ADD14R,1.600000X1.600000*%
G04 #@! TD*
G04 #@! TA.AperFunction,ComponentPad*
%ADD15O,1.600000X1.600000*%
G04 #@! TD*
G04 #@! TA.AperFunction,ComponentPad*
%ADD16R,1.700000X1.700000*%
G04 #@! TD*
G04 #@! TA.AperFunction,ComponentPad*
%ADD17O,1.700000X1.700000*%
G04 #@! TD*
G04 #@! TA.AperFunction,ComponentPad*
%ADD18C,1.600000*%
G04 #@! TD*
G04 #@! TA.AperFunction,ComponentPad*
%ADD19C,2.000000*%
G04 #@! TD*
G04 #@! TA.AperFunction,ComponentPad*
%ADD20R,1.800000X1.800000*%
G04 #@! TD*
G04 #@! TA.AperFunction,ComponentPad*
%ADD21C,1.800000*%
G04 #@! TD*
G04 #@! TA.AperFunction,Conductor*
%ADD22C,0.400000*%
G04 #@! TD*
G04 #@! TA.AperFunction,Conductor*
%ADD23C,0.254000*%
G04 #@! TD*
G04 APERTURE END LIST*
D10*
G04 #@! TO.P,BT1,2*
G04 #@! TO.N,GND*
X169080000Y-111760000D03*
D11*
G04 #@! TO.P,BT1,1*
G04 #@! TO.N,Net-(BT1-Pad1)*
X148590000Y-111760000D03*
G04 #@! TD*
D12*
G04 #@! TO.P,SW2,1*
G04 #@! TO.N,VCC*
X137160000Y-115570000D03*
G04 #@! TO.P,SW2,2*
G04 #@! TO.N,Net-(BT1-Pad1)*
X137160000Y-113570000D03*
G04 #@! TO.P,SW2,3*
G04 #@! TO.N,N/C*
X137160000Y-111570000D03*
D13*
G04 #@! TO.P,SW2,4*
X137160000Y-117570000D03*
G04 #@! TO.P,SW2,5*
X137160000Y-109570000D03*
G04 #@! TD*
D14*
G04 #@! TO.P,U1,1*
G04 #@! TO.N,Net-(J1-Pad2)*
X143510000Y-119380000D03*
D15*
G04 #@! TO.P,U1,5*
G04 #@! TO.N,Net-(J1-Pad3)*
X151130000Y-127000000D03*
G04 #@! TO.P,U1,2*
G04 #@! TO.N,Net-(R1-Pad1)*
X143510000Y-121920000D03*
G04 #@! TO.P,U1,6*
G04 #@! TO.N,Net-(J1-Pad4)*
X151130000Y-124460000D03*
G04 #@! TO.P,U1,3*
G04 #@! TO.N,Net-(J2-Pad3)*
X143510000Y-124460000D03*
G04 #@! TO.P,U1,7*
G04 #@! TO.N,Net-(J1-Pad5)*
X151130000Y-121920000D03*
G04 #@! TO.P,U1,4*
G04 #@! TO.N,GND*
X143510000Y-127000000D03*
G04 #@! TO.P,U1,8*
G04 #@! TO.N,VCC*
X151130000Y-119380000D03*
G04 #@! TD*
D16*
G04 #@! TO.P,J1,1*
G04 #@! TO.N,GND*
X168910000Y-121920000D03*
D17*
G04 #@! TO.P,J1,2*
G04 #@! TO.N,Net-(J1-Pad2)*
X166370000Y-121920000D03*
G04 #@! TO.P,J1,3*
G04 #@! TO.N,Net-(J1-Pad3)*
X163830000Y-121920000D03*
G04 #@! TO.P,J1,4*
G04 #@! TO.N,Net-(J1-Pad4)*
X161290000Y-121920000D03*
G04 #@! TO.P,J1,5*
G04 #@! TO.N,Net-(J1-Pad5)*
X158750000Y-121920000D03*
G04 #@! TO.P,J1,6*
G04 #@! TO.N,VCC*
X156210000Y-121920000D03*
G04 #@! TD*
D16*
G04 #@! TO.P,J2,1*
G04 #@! TO.N,GND*
X146050000Y-105410000D03*
D17*
G04 #@! TO.P,J2,2*
G04 #@! TO.N,VCC*
X146050000Y-102870000D03*
G04 #@! TO.P,J2,3*
G04 #@! TO.N,Net-(J2-Pad3)*
X146050000Y-100330000D03*
G04 #@! TD*
D18*
G04 #@! TO.P,R1,1*
G04 #@! TO.N,Net-(R1-Pad1)*
X157480000Y-114300000D03*
D15*
G04 #@! TO.P,R1,2*
G04 #@! TO.N,GND*
X165100000Y-114300000D03*
G04 #@! TD*
D18*
G04 #@! TO.P,R2,1*
G04 #@! TO.N,Net-(J1-Pad3)*
X173990000Y-106680000D03*
D15*
G04 #@! TO.P,R2,2*
G04 #@! TO.N,Net-(D1-Pad2)*
X173990000Y-99060000D03*
G04 #@! TD*
D18*
G04 #@! TO.P,R3,1*
G04 #@! TO.N,Net-(J1-Pad4)*
X170180000Y-107950000D03*
D15*
G04 #@! TO.P,R3,2*
G04 #@! TO.N,Net-(D2-Pad2)*
X170180000Y-100330000D03*
G04 #@! TD*
D18*
G04 #@! TO.P,R4,1*
G04 #@! TO.N,Net-(J1-Pad5)*
X166370000Y-109220000D03*
D15*
G04 #@! TO.P,R4,2*
G04 #@! TO.N,Net-(D3-Pad2)*
X166370000Y-101600000D03*
G04 #@! TD*
D19*
G04 #@! TO.P,SW1,2*
G04 #@! TO.N,VCC*
X160020000Y-104720000D03*
G04 #@! TO.P,SW1,1*
G04 #@! TO.N,Net-(R1-Pad1)*
X160020000Y-109220000D03*
G04 #@! TO.P,SW1,2*
G04 #@! TO.N,VCC*
X153520000Y-104720000D03*
G04 #@! TO.P,SW1,1*
G04 #@! TO.N,Net-(R1-Pad1)*
X153520000Y-109220000D03*
G04 #@! TD*
D20*
G04 #@! TO.P,D1,1*
G04 #@! TO.N,GND*
X163830000Y-95250000D03*
D21*
G04 #@! TO.P,D1,2*
G04 #@! TO.N,Net-(D1-Pad2)*
X166370000Y-95250000D03*
G04 #@! TD*
D20*
G04 #@! TO.P,D2,1*
G04 #@! TO.N,GND*
X154940000Y-95250000D03*
D21*
G04 #@! TO.P,D2,2*
G04 #@! TO.N,Net-(D2-Pad2)*
X157480000Y-95250000D03*
G04 #@! TD*
D20*
G04 #@! TO.P,D3,1*
G04 #@! TO.N,GND*
X146050000Y-95250000D03*
D21*
G04 #@! TO.P,D3,2*
G04 #@! TO.N,Net-(D3-Pad2)*
X148590000Y-95250000D03*
G04 #@! TD*
D22*
G04 #@! TO.N,VCC*
X153520000Y-104720000D02*
X150495000Y-104720000D01*
X156210000Y-106680000D02*
X154250000Y-104720000D01*
X156210000Y-110490000D02*
X156210000Y-106680000D01*
X154940000Y-111760000D02*
X156210000Y-110490000D01*
X154250000Y-104720000D02*
X153520000Y-104720000D01*
X154940000Y-120650000D02*
X154940000Y-111760000D01*
X150495000Y-104720000D02*
X150550000Y-104720000D01*
X150495000Y-104775000D02*
X150495000Y-104720000D01*
X156210000Y-121920000D02*
X154940000Y-120650000D01*
X148590000Y-102870000D02*
X150495000Y-104775000D01*
X146050000Y-102870000D02*
X148590000Y-102870000D01*
X153670000Y-119380000D02*
X154940000Y-120650000D01*
X153670000Y-119380000D02*
X151130000Y-119380000D01*
G04 #@! TO.N,Net-(D1-Pad2)*
X173990000Y-99060000D02*
X171450000Y-99060000D01*
X171450000Y-99060000D02*
X167640000Y-95250000D01*
X167640000Y-95250000D02*
X166370000Y-95250000D01*
G04 #@! TO.N,Net-(D2-Pad2)*
X170180000Y-100330000D02*
X167640000Y-97790000D01*
X160020000Y-97790000D02*
X157480000Y-95250000D01*
X167640000Y-97790000D02*
X160020000Y-97790000D01*
G04 #@! TO.N,Net-(D3-Pad2)*
X166370000Y-101600000D02*
X163830000Y-99060000D01*
X152400000Y-99060000D02*
X148590000Y-95250000D01*
X163830000Y-99060000D02*
X152400000Y-99060000D01*
G04 #@! TO.N,Net-(J1-Pad3)*
X163830000Y-121920000D02*
X166370000Y-119380000D01*
X166370000Y-119380000D02*
X171450000Y-119380000D01*
X171450000Y-119380000D02*
X173990000Y-116840000D01*
X173990000Y-116840000D02*
X173990000Y-106680000D01*
G04 #@! TO.N,Net-(J1-Pad4)*
X161290000Y-121920000D02*
X165100000Y-118110000D01*
X172720000Y-110490000D02*
X170180000Y-107950000D01*
X172720000Y-115570000D02*
X172720000Y-110490000D01*
X170180000Y-118110000D02*
X172720000Y-115570000D01*
X165100000Y-118110000D02*
X170180000Y-118110000D01*
X161290000Y-121920000D02*
X161290000Y-123190000D01*
X161290000Y-123190000D02*
X160020000Y-124460000D01*
X160020000Y-124460000D02*
X151130000Y-124460000D01*
G04 #@! TO.N,Net-(J1-Pad5)*
X158750000Y-121920000D02*
X158750000Y-116840000D01*
X158750000Y-116840000D02*
X166370000Y-109220000D01*
G04 #@! TO.N,Net-(R1-Pad1)*
X157480000Y-114300000D02*
X157480000Y-111760000D01*
X157480000Y-111760000D02*
X160020000Y-109220000D01*
X153520000Y-111910000D02*
X143510000Y-121920000D01*
X153520000Y-109220000D02*
X153520000Y-111910000D01*
G04 #@! TO.N,Net-(J2-Pad3)*
X146050000Y-100330000D02*
X143510000Y-100330000D01*
X143510000Y-100330000D02*
X140970000Y-102870000D01*
X140970000Y-121920000D02*
X143510000Y-124460000D01*
X140970000Y-102870000D02*
X140970000Y-121920000D01*
G04 #@! TD*
D23*
G04 #@! TO.N,GND*
G36*
X174617657Y-90922279D02*
X175219683Y-91110943D01*
X175771470Y-91416804D01*
X176250486Y-91827371D01*
X176637159Y-92325868D01*
X176915702Y-92891940D01*
X177076859Y-93510634D01*
X177115001Y-94006327D01*
X177115000Y-129505303D01*
X177047721Y-130167657D01*
X176859057Y-130769683D01*
X176553197Y-131321468D01*
X176142632Y-131800483D01*
X175644132Y-132187160D01*
X175078059Y-132465702D01*
X174459367Y-132626859D01*
X173963686Y-132665000D01*
X138464697Y-132665000D01*
X137802343Y-132597721D01*
X137200317Y-132409057D01*
X136648532Y-132103197D01*
X136169517Y-131692632D01*
X135782840Y-131194132D01*
X135504298Y-130628059D01*
X135343141Y-130009367D01*
X135305000Y-129513686D01*
X135305000Y-129095431D01*
X136195000Y-129095431D01*
X136195000Y-129984569D01*
X136535259Y-130806026D01*
X137163974Y-131434741D01*
X137985431Y-131775000D01*
X138874569Y-131775000D01*
X139696026Y-131434741D01*
X140324741Y-130806026D01*
X140665000Y-129984569D01*
X140665000Y-129095431D01*
X171755000Y-129095431D01*
X171755000Y-129984569D01*
X172095259Y-130806026D01*
X172723974Y-131434741D01*
X173545431Y-131775000D01*
X174434569Y-131775000D01*
X175256026Y-131434741D01*
X175884741Y-130806026D01*
X176225000Y-129984569D01*
X176225000Y-129095431D01*
X175884741Y-128273974D01*
X175256026Y-127645259D01*
X174434569Y-127305000D01*
X173545431Y-127305000D01*
X172723974Y-127645259D01*
X172095259Y-128273974D01*
X171755000Y-129095431D01*
X140665000Y-129095431D01*
X140324741Y-128273974D01*
X139696026Y-127645259D01*
X138980889Y-127349039D01*
X142118096Y-127349039D01*
X142278959Y-127737423D01*
X142654866Y-128152389D01*
X143160959Y-128391914D01*
X143383000Y-128270629D01*
X143383000Y-127127000D01*
X143637000Y-127127000D01*
X143637000Y-128270629D01*
X143859041Y-128391914D01*
X144365134Y-128152389D01*
X144741041Y-127737423D01*
X144901904Y-127349039D01*
X144779915Y-127127000D01*
X143637000Y-127127000D01*
X143383000Y-127127000D01*
X142240085Y-127127000D01*
X142118096Y-127349039D01*
X138980889Y-127349039D01*
X138874569Y-127305000D01*
X137985431Y-127305000D01*
X137163974Y-127645259D01*
X136535259Y-128273974D01*
X136195000Y-129095431D01*
X135305000Y-129095431D01*
X135305000Y-118109773D01*
X135306056Y-118115082D01*
X135614820Y-118577180D01*
X136076918Y-118885944D01*
X136484412Y-118967000D01*
X137835588Y-118967000D01*
X138243082Y-118885944D01*
X138705180Y-118577180D01*
X139013944Y-118115082D01*
X139122368Y-117570000D01*
X139013944Y-117024918D01*
X138705180Y-116562820D01*
X138357179Y-116330293D01*
X138557000Y-115847881D01*
X138557000Y-115292119D01*
X138344320Y-114778663D01*
X138135657Y-114570000D01*
X138344320Y-114361337D01*
X138557000Y-113847881D01*
X138557000Y-113292119D01*
X138344320Y-112778663D01*
X138135657Y-112570000D01*
X138344320Y-112361337D01*
X138557000Y-111847881D01*
X138557000Y-111292119D01*
X138357179Y-110809707D01*
X138705180Y-110577180D01*
X139013944Y-110115082D01*
X139122368Y-109570000D01*
X139013944Y-109024918D01*
X138705180Y-108562820D01*
X138243082Y-108254056D01*
X137835588Y-108173000D01*
X136484412Y-108173000D01*
X136076918Y-108254056D01*
X135614820Y-108562820D01*
X135306056Y-109024918D01*
X135305000Y-109030227D01*
X135305000Y-102870000D01*
X140118643Y-102870000D01*
X140135000Y-102952233D01*
X140135001Y-121837762D01*
X140118643Y-121920000D01*
X140183448Y-122245800D01*
X140183449Y-122245801D01*
X140368000Y-122522001D01*
X140437718Y-122568585D01*
X142093714Y-124224583D01*
X142046887Y-124460000D01*
X142158260Y-125019909D01*
X142475423Y-125494577D01*
X142859108Y-125750947D01*
X142654866Y-125847611D01*
X142278959Y-126262577D01*
X142118096Y-126650961D01*
X142240085Y-126873000D01*
X143383000Y-126873000D01*
X143383000Y-126853000D01*
X143637000Y-126853000D01*
X143637000Y-126873000D01*
X144779915Y-126873000D01*
X144901904Y-126650961D01*
X144741041Y-126262577D01*
X144365134Y-125847611D01*
X144160892Y-125750947D01*
X144544577Y-125494577D01*
X144861740Y-125019909D01*
X144973113Y-124460000D01*
X144861740Y-123900091D01*
X144544577Y-123425423D01*
X144192242Y-123190000D01*
X144544577Y-122954577D01*
X144861740Y-122479909D01*
X144973113Y-121920000D01*
X144926285Y-121684582D01*
X154052283Y-112558585D01*
X154105001Y-112523360D01*
X154105000Y-118666413D01*
X153995801Y-118593448D01*
X153752237Y-118545000D01*
X153752233Y-118545000D01*
X153670000Y-118528643D01*
X153587767Y-118545000D01*
X152297930Y-118545000D01*
X152164577Y-118345423D01*
X151689909Y-118028260D01*
X151271333Y-117945000D01*
X150988667Y-117945000D01*
X150570091Y-118028260D01*
X150095423Y-118345423D01*
X149778260Y-118820091D01*
X149666887Y-119380000D01*
X149778260Y-119939909D01*
X150095423Y-120414577D01*
X150447758Y-120650000D01*
X150095423Y-120885423D01*
X149778260Y-121360091D01*
X149666887Y-121920000D01*
X149778260Y-122479909D01*
X150095423Y-122954577D01*
X150447758Y-123190000D01*
X150095423Y-123425423D01*
X149778260Y-123900091D01*
X149666887Y-124460000D01*
X149778260Y-125019909D01*
X150095423Y-125494577D01*
X150447758Y-125730000D01*
X150095423Y-125965423D01*
X149778260Y-126440091D01*
X149666887Y-127000000D01*
X149778260Y-127559909D01*
X150095423Y-128034577D01*
X150570091Y-128351740D01*
X150988667Y-128435000D01*
X151271333Y-128435000D01*
X151689909Y-128351740D01*
X152164577Y-128034577D01*
X152481740Y-127559909D01*
X152593113Y-127000000D01*
X152481740Y-126440091D01*
X152164577Y-125965423D01*
X151812242Y-125730000D01*
X152164577Y-125494577D01*
X152297930Y-125295000D01*
X159937767Y-125295000D01*
X160020000Y-125311357D01*
X160102233Y-125295000D01*
X160102237Y-125295000D01*
X160345801Y-125246552D01*
X160622001Y-125062001D01*
X160668587Y-124992280D01*
X161822282Y-123838585D01*
X161892001Y-123792001D01*
X162076552Y-123515801D01*
X162125000Y-123272237D01*
X162125000Y-123272234D01*
X162141357Y-123190001D01*
X162132075Y-123143337D01*
X162360625Y-122990625D01*
X162560000Y-122692239D01*
X162759375Y-122990625D01*
X163250582Y-123318839D01*
X163683744Y-123405000D01*
X163976256Y-123405000D01*
X164409418Y-123318839D01*
X164900625Y-122990625D01*
X165100000Y-122692239D01*
X165299375Y-122990625D01*
X165790582Y-123318839D01*
X166223744Y-123405000D01*
X166516256Y-123405000D01*
X166949418Y-123318839D01*
X167440625Y-122990625D01*
X167455096Y-122968967D01*
X167521673Y-123129698D01*
X167700301Y-123308327D01*
X167933690Y-123405000D01*
X168624250Y-123405000D01*
X168783000Y-123246250D01*
X168783000Y-122047000D01*
X169037000Y-122047000D01*
X169037000Y-123246250D01*
X169195750Y-123405000D01*
X169886310Y-123405000D01*
X170119699Y-123308327D01*
X170298327Y-123129698D01*
X170395000Y-122896309D01*
X170395000Y-122205750D01*
X170236250Y-122047000D01*
X169037000Y-122047000D01*
X168783000Y-122047000D01*
X168763000Y-122047000D01*
X168763000Y-121793000D01*
X168783000Y-121793000D01*
X168783000Y-120593750D01*
X169037000Y-120593750D01*
X169037000Y-121793000D01*
X170236250Y-121793000D01*
X170395000Y-121634250D01*
X170395000Y-120943691D01*
X170298327Y-120710302D01*
X170119699Y-120531673D01*
X169886310Y-120435000D01*
X169195750Y-120435000D01*
X169037000Y-120593750D01*
X168783000Y-120593750D01*
X168624250Y-120435000D01*
X167933690Y-120435000D01*
X167700301Y-120531673D01*
X167521673Y-120710302D01*
X167455096Y-120871033D01*
X167440625Y-120849375D01*
X166949418Y-120521161D01*
X166516256Y-120435000D01*
X166495869Y-120435000D01*
X166715869Y-120215000D01*
X171367767Y-120215000D01*
X171450000Y-120231357D01*
X171532233Y-120215000D01*
X171532237Y-120215000D01*
X171775801Y-120166552D01*
X172052001Y-119982001D01*
X172098587Y-119912280D01*
X174522286Y-117488583D01*
X174592001Y-117442001D01*
X174776552Y-117165801D01*
X174825000Y-116922237D01*
X174825000Y-116922234D01*
X174841357Y-116840001D01*
X174825000Y-116757768D01*
X174825000Y-107874396D01*
X175206534Y-107492862D01*
X175425000Y-106965439D01*
X175425000Y-106394561D01*
X175206534Y-105867138D01*
X174802862Y-105463466D01*
X174275439Y-105245000D01*
X173704561Y-105245000D01*
X173177138Y-105463466D01*
X172773466Y-105867138D01*
X172555000Y-106394561D01*
X172555000Y-106965439D01*
X172773466Y-107492862D01*
X173155001Y-107874397D01*
X173155001Y-109744132D01*
X171615000Y-108204132D01*
X171615000Y-107664561D01*
X171396534Y-107137138D01*
X170992862Y-106733466D01*
X170465439Y-106515000D01*
X169894561Y-106515000D01*
X169367138Y-106733466D01*
X168963466Y-107137138D01*
X168745000Y-107664561D01*
X168745000Y-108235439D01*
X168963466Y-108762862D01*
X169367138Y-109166534D01*
X169894561Y-109385000D01*
X170434132Y-109385000D01*
X171885001Y-110835870D01*
X171885000Y-115224131D01*
X169834133Y-117275000D01*
X165182237Y-117275000D01*
X165100000Y-117258642D01*
X165017763Y-117275000D01*
X164774199Y-117323448D01*
X164497999Y-117507999D01*
X164451415Y-117577717D01*
X161567939Y-120461193D01*
X161436256Y-120435000D01*
X161143744Y-120435000D01*
X160710582Y-120521161D01*
X160219375Y-120849375D01*
X160020000Y-121147761D01*
X159820625Y-120849375D01*
X159585000Y-120691935D01*
X159585000Y-117185867D01*
X162121828Y-114649039D01*
X163708096Y-114649039D01*
X163868959Y-115037423D01*
X164244866Y-115452389D01*
X164750959Y-115691914D01*
X164973000Y-115570629D01*
X164973000Y-114427000D01*
X165227000Y-114427000D01*
X165227000Y-115570629D01*
X165449041Y-115691914D01*
X165955134Y-115452389D01*
X166331041Y-115037423D01*
X166491904Y-114649039D01*
X166369915Y-114427000D01*
X165227000Y-114427000D01*
X164973000Y-114427000D01*
X163830085Y-114427000D01*
X163708096Y-114649039D01*
X162121828Y-114649039D01*
X162819906Y-113950961D01*
X163708096Y-113950961D01*
X163830085Y-114173000D01*
X164973000Y-114173000D01*
X164973000Y-113029371D01*
X165227000Y-113029371D01*
X165227000Y-114173000D01*
X166369915Y-114173000D01*
X166491904Y-113950961D01*
X166331041Y-113562577D01*
X166069600Y-113273970D01*
X167745635Y-113273970D01*
X167905418Y-113592739D01*
X168696187Y-113902723D01*
X169545387Y-113886497D01*
X170254582Y-113592739D01*
X170414365Y-113273970D01*
X169080000Y-111939605D01*
X167745635Y-113273970D01*
X166069600Y-113273970D01*
X165955134Y-113147611D01*
X165449041Y-112908086D01*
X165227000Y-113029371D01*
X164973000Y-113029371D01*
X164750959Y-112908086D01*
X164244866Y-113147611D01*
X163868959Y-113562577D01*
X163708096Y-113950961D01*
X162819906Y-113950961D01*
X165394681Y-111376187D01*
X166937277Y-111376187D01*
X166953503Y-112225387D01*
X167247261Y-112934582D01*
X167566030Y-113094365D01*
X168900395Y-111760000D01*
X169259605Y-111760000D01*
X170593970Y-113094365D01*
X170912739Y-112934582D01*
X171222723Y-112143813D01*
X171206497Y-111294613D01*
X170912739Y-110585418D01*
X170593970Y-110425635D01*
X169259605Y-111760000D01*
X168900395Y-111760000D01*
X167566030Y-110425635D01*
X167247261Y-110585418D01*
X166937277Y-111376187D01*
X165394681Y-111376187D01*
X166115869Y-110655000D01*
X166655439Y-110655000D01*
X167182862Y-110436534D01*
X167373366Y-110246030D01*
X167745635Y-110246030D01*
X169080000Y-111580395D01*
X170414365Y-110246030D01*
X170254582Y-109927261D01*
X169463813Y-109617277D01*
X168614613Y-109633503D01*
X167905418Y-109927261D01*
X167745635Y-110246030D01*
X167373366Y-110246030D01*
X167586534Y-110032862D01*
X167805000Y-109505439D01*
X167805000Y-108934561D01*
X167586534Y-108407138D01*
X167182862Y-108003466D01*
X166655439Y-107785000D01*
X166084561Y-107785000D01*
X165557138Y-108003466D01*
X165153466Y-108407138D01*
X164935000Y-108934561D01*
X164935000Y-109474131D01*
X158217718Y-116191415D01*
X158148000Y-116237999D01*
X158101416Y-116307717D01*
X157963448Y-116514200D01*
X157898643Y-116840000D01*
X157915001Y-116922236D01*
X157915000Y-120691935D01*
X157679375Y-120849375D01*
X157480000Y-121147761D01*
X157280625Y-120849375D01*
X156789418Y-120521161D01*
X156356256Y-120435000D01*
X156063744Y-120435000D01*
X155932061Y-120461193D01*
X155775000Y-120304133D01*
X155775000Y-114014561D01*
X156045000Y-114014561D01*
X156045000Y-114585439D01*
X156263466Y-115112862D01*
X156667138Y-115516534D01*
X157194561Y-115735000D01*
X157765439Y-115735000D01*
X158292862Y-115516534D01*
X158696534Y-115112862D01*
X158915000Y-114585439D01*
X158915000Y-114014561D01*
X158696534Y-113487138D01*
X158315000Y-113105604D01*
X158315000Y-112105867D01*
X159603625Y-110817243D01*
X159694778Y-110855000D01*
X160345222Y-110855000D01*
X160946153Y-110606086D01*
X161406086Y-110146153D01*
X161655000Y-109545222D01*
X161655000Y-108894778D01*
X161406086Y-108293847D01*
X160946153Y-107833914D01*
X160345222Y-107585000D01*
X159694778Y-107585000D01*
X159093847Y-107833914D01*
X158633914Y-108293847D01*
X158385000Y-108894778D01*
X158385000Y-109545222D01*
X158422757Y-109636375D01*
X156947718Y-111111415D01*
X156878000Y-111157999D01*
X156831416Y-111227717D01*
X156693448Y-111434200D01*
X156628643Y-111760000D01*
X156645001Y-111842238D01*
X156645000Y-113105604D01*
X156263466Y-113487138D01*
X156045000Y-114014561D01*
X155775000Y-114014561D01*
X155775000Y-112105867D01*
X156742284Y-111138584D01*
X156812001Y-111092001D01*
X156996552Y-110815801D01*
X157045000Y-110572237D01*
X157045000Y-110572234D01*
X157061357Y-110490001D01*
X157045000Y-110407768D01*
X157045000Y-106762237D01*
X157061358Y-106680000D01*
X157028537Y-106515000D01*
X156996552Y-106354199D01*
X156812001Y-106077999D01*
X156742283Y-106031415D01*
X155155000Y-104444133D01*
X155155000Y-104394778D01*
X158385000Y-104394778D01*
X158385000Y-105045222D01*
X158633914Y-105646153D01*
X159093847Y-106106086D01*
X159694778Y-106355000D01*
X160345222Y-106355000D01*
X160946153Y-106106086D01*
X161406086Y-105646153D01*
X161655000Y-105045222D01*
X161655000Y-104394778D01*
X161406086Y-103793847D01*
X160946153Y-103333914D01*
X160345222Y-103085000D01*
X159694778Y-103085000D01*
X159093847Y-103333914D01*
X158633914Y-103793847D01*
X158385000Y-104394778D01*
X155155000Y-104394778D01*
X154906086Y-103793847D01*
X154446153Y-103333914D01*
X153845222Y-103085000D01*
X153194778Y-103085000D01*
X152593847Y-103333914D01*
X152133914Y-103793847D01*
X152096157Y-103885000D01*
X150785868Y-103885000D01*
X149238587Y-102337720D01*
X149192001Y-102267999D01*
X148915801Y-102083448D01*
X148672237Y-102035000D01*
X148672233Y-102035000D01*
X148590000Y-102018643D01*
X148507767Y-102035000D01*
X147278065Y-102035000D01*
X147120625Y-101799375D01*
X146822239Y-101600000D01*
X147120625Y-101400625D01*
X147448839Y-100909418D01*
X147564092Y-100330000D01*
X147448839Y-99750582D01*
X147120625Y-99259375D01*
X146629418Y-98931161D01*
X146196256Y-98845000D01*
X145903744Y-98845000D01*
X145470582Y-98931161D01*
X144979375Y-99259375D01*
X144821935Y-99495000D01*
X143592232Y-99495000D01*
X143509999Y-99478643D01*
X143427766Y-99495000D01*
X143427763Y-99495000D01*
X143184199Y-99543448D01*
X142907999Y-99727999D01*
X142861417Y-99797715D01*
X140437720Y-102221413D01*
X140367999Y-102267999D01*
X140183448Y-102544200D01*
X140135000Y-102787764D01*
X140135000Y-102787767D01*
X140118643Y-102870000D01*
X135305000Y-102870000D01*
X135305000Y-94014697D01*
X135353681Y-93535431D01*
X136195000Y-93535431D01*
X136195000Y-94424569D01*
X136535259Y-95246026D01*
X137163974Y-95874741D01*
X137985431Y-96215000D01*
X138874569Y-96215000D01*
X139696026Y-95874741D01*
X140035017Y-95535750D01*
X144515000Y-95535750D01*
X144515000Y-96276310D01*
X144611673Y-96509699D01*
X144790302Y-96688327D01*
X145023691Y-96785000D01*
X145764250Y-96785000D01*
X145923000Y-96626250D01*
X145923000Y-95377000D01*
X144673750Y-95377000D01*
X144515000Y-95535750D01*
X140035017Y-95535750D01*
X140324741Y-95246026D01*
X140665000Y-94424569D01*
X140665000Y-94223690D01*
X144515000Y-94223690D01*
X144515000Y-94964250D01*
X144673750Y-95123000D01*
X145923000Y-95123000D01*
X145923000Y-93873750D01*
X146177000Y-93873750D01*
X146177000Y-95123000D01*
X146197000Y-95123000D01*
X146197000Y-95377000D01*
X146177000Y-95377000D01*
X146177000Y-96626250D01*
X146335750Y-96785000D01*
X147076309Y-96785000D01*
X147309698Y-96688327D01*
X147488327Y-96509699D01*
X147544139Y-96374956D01*
X147720493Y-96551310D01*
X148284670Y-96785000D01*
X148895330Y-96785000D01*
X148929839Y-96770706D01*
X151751415Y-99592283D01*
X151797999Y-99662001D01*
X152074199Y-99846552D01*
X152317763Y-99895000D01*
X152400000Y-99911358D01*
X152482237Y-99895000D01*
X163484133Y-99895000D01*
X164953714Y-101364583D01*
X164906887Y-101600000D01*
X165018260Y-102159909D01*
X165335423Y-102634577D01*
X165810091Y-102951740D01*
X166228667Y-103035000D01*
X166511333Y-103035000D01*
X166929909Y-102951740D01*
X167404577Y-102634577D01*
X167721740Y-102159909D01*
X167833113Y-101600000D01*
X167721740Y-101040091D01*
X167404577Y-100565423D01*
X166929909Y-100248260D01*
X166511333Y-100165000D01*
X166228667Y-100165000D01*
X166134583Y-100183715D01*
X164575867Y-98625000D01*
X167294133Y-98625000D01*
X168763714Y-100094583D01*
X168716887Y-100330000D01*
X168828260Y-100889909D01*
X169145423Y-101364577D01*
X169620091Y-101681740D01*
X170038667Y-101765000D01*
X170321333Y-101765000D01*
X170739909Y-101681740D01*
X171214577Y-101364577D01*
X171531740Y-100889909D01*
X171643113Y-100330000D01*
X171556586Y-99895000D01*
X172822070Y-99895000D01*
X172955423Y-100094577D01*
X173430091Y-100411740D01*
X173848667Y-100495000D01*
X174131333Y-100495000D01*
X174549909Y-100411740D01*
X175024577Y-100094577D01*
X175341740Y-99619909D01*
X175453113Y-99060000D01*
X175341740Y-98500091D01*
X175024577Y-98025423D01*
X174549909Y-97708260D01*
X174131333Y-97625000D01*
X173848667Y-97625000D01*
X173430091Y-97708260D01*
X172955423Y-98025423D01*
X172822070Y-98225000D01*
X171795868Y-98225000D01*
X168288587Y-94717720D01*
X168242001Y-94647999D01*
X167965801Y-94463448D01*
X167722237Y-94415000D01*
X167722233Y-94415000D01*
X167682314Y-94407060D01*
X167671310Y-94380493D01*
X167239507Y-93948690D01*
X166675330Y-93715000D01*
X166064670Y-93715000D01*
X165500493Y-93948690D01*
X165324139Y-94125044D01*
X165268327Y-93990301D01*
X165089698Y-93811673D01*
X164856309Y-93715000D01*
X164115750Y-93715000D01*
X163957000Y-93873750D01*
X163957000Y-95123000D01*
X163977000Y-95123000D01*
X163977000Y-95377000D01*
X163957000Y-95377000D01*
X163957000Y-96626250D01*
X164115750Y-96785000D01*
X164856309Y-96785000D01*
X165089698Y-96688327D01*
X165268327Y-96509699D01*
X165324139Y-96374956D01*
X165500493Y-96551310D01*
X166064670Y-96785000D01*
X166675330Y-96785000D01*
X167239507Y-96551310D01*
X167499975Y-96290842D01*
X170104132Y-98895000D01*
X170038667Y-98895000D01*
X169944583Y-98913715D01*
X168288587Y-97257720D01*
X168242001Y-97187999D01*
X167965801Y-97003448D01*
X167722237Y-96955000D01*
X167722233Y-96955000D01*
X167640000Y-96938643D01*
X167557767Y-96955000D01*
X160365869Y-96955000D01*
X159000706Y-95589838D01*
X159015000Y-95555330D01*
X159015000Y-95535750D01*
X162295000Y-95535750D01*
X162295000Y-96276310D01*
X162391673Y-96509699D01*
X162570302Y-96688327D01*
X162803691Y-96785000D01*
X163544250Y-96785000D01*
X163703000Y-96626250D01*
X163703000Y-95377000D01*
X162453750Y-95377000D01*
X162295000Y-95535750D01*
X159015000Y-95535750D01*
X159015000Y-94944670D01*
X158781310Y-94380493D01*
X158624507Y-94223690D01*
X162295000Y-94223690D01*
X162295000Y-94964250D01*
X162453750Y-95123000D01*
X163703000Y-95123000D01*
X163703000Y-93873750D01*
X163544250Y-93715000D01*
X162803691Y-93715000D01*
X162570302Y-93811673D01*
X162391673Y-93990301D01*
X162295000Y-94223690D01*
X158624507Y-94223690D01*
X158349507Y-93948690D01*
X157785330Y-93715000D01*
X157174670Y-93715000D01*
X156610493Y-93948690D01*
X156434139Y-94125044D01*
X156378327Y-93990301D01*
X156199698Y-93811673D01*
X155966309Y-93715000D01*
X155225750Y-93715000D01*
X155067000Y-93873750D01*
X155067000Y-95123000D01*
X155087000Y-95123000D01*
X155087000Y-95377000D01*
X155067000Y-95377000D01*
X155067000Y-96626250D01*
X155225750Y-96785000D01*
X155966309Y-96785000D01*
X156199698Y-96688327D01*
X156378327Y-96509699D01*
X156434139Y-96374956D01*
X156610493Y-96551310D01*
X157174670Y-96785000D01*
X157785330Y-96785000D01*
X157819838Y-96770706D01*
X159274131Y-98225000D01*
X152745868Y-98225000D01*
X150110706Y-95589839D01*
X150125000Y-95555330D01*
X150125000Y-95535750D01*
X153405000Y-95535750D01*
X153405000Y-96276310D01*
X153501673Y-96509699D01*
X153680302Y-96688327D01*
X153913691Y-96785000D01*
X154654250Y-96785000D01*
X154813000Y-96626250D01*
X154813000Y-95377000D01*
X153563750Y-95377000D01*
X153405000Y-95535750D01*
X150125000Y-95535750D01*
X150125000Y-94944670D01*
X149891310Y-94380493D01*
X149734507Y-94223690D01*
X153405000Y-94223690D01*
X153405000Y-94964250D01*
X153563750Y-95123000D01*
X154813000Y-95123000D01*
X154813000Y-93873750D01*
X154654250Y-93715000D01*
X153913691Y-93715000D01*
X153680302Y-93811673D01*
X153501673Y-93990301D01*
X153405000Y-94223690D01*
X149734507Y-94223690D01*
X149459507Y-93948690D01*
X148895330Y-93715000D01*
X148284670Y-93715000D01*
X147720493Y-93948690D01*
X147544139Y-94125044D01*
X147488327Y-93990301D01*
X147309698Y-93811673D01*
X147076309Y-93715000D01*
X146335750Y-93715000D01*
X146177000Y-93873750D01*
X145923000Y-93873750D01*
X145764250Y-93715000D01*
X145023691Y-93715000D01*
X144790302Y-93811673D01*
X144611673Y-93990301D01*
X144515000Y-94223690D01*
X140665000Y-94223690D01*
X140665000Y-93535431D01*
X171755000Y-93535431D01*
X171755000Y-94424569D01*
X172095259Y-95246026D01*
X172723974Y-95874741D01*
X173545431Y-96215000D01*
X174434569Y-96215000D01*
X175256026Y-95874741D01*
X175884741Y-95246026D01*
X176225000Y-94424569D01*
X176225000Y-93535431D01*
X175884741Y-92713974D01*
X175256026Y-92085259D01*
X174434569Y-91745000D01*
X173545431Y-91745000D01*
X172723974Y-92085259D01*
X172095259Y-92713974D01*
X171755000Y-93535431D01*
X140665000Y-93535431D01*
X140324741Y-92713974D01*
X139696026Y-92085259D01*
X138874569Y-91745000D01*
X137985431Y-91745000D01*
X137163974Y-92085259D01*
X136535259Y-92713974D01*
X136195000Y-93535431D01*
X135353681Y-93535431D01*
X135372279Y-93352343D01*
X135560943Y-92750317D01*
X135866804Y-92198530D01*
X136277371Y-91719514D01*
X136775868Y-91332841D01*
X137341940Y-91054298D01*
X137960634Y-90893141D01*
X138456314Y-90855000D01*
X173955303Y-90855000D01*
X174617657Y-90922279D01*
X174617657Y-90922279D01*
G37*
X174617657Y-90922279D02*
X175219683Y-91110943D01*
X175771470Y-91416804D01*
X176250486Y-91827371D01*
X176637159Y-92325868D01*
X176915702Y-92891940D01*
X177076859Y-93510634D01*
X177115001Y-94006327D01*
X177115000Y-129505303D01*
X177047721Y-130167657D01*
X176859057Y-130769683D01*
X176553197Y-131321468D01*
X176142632Y-131800483D01*
X175644132Y-132187160D01*
X175078059Y-132465702D01*
X174459367Y-132626859D01*
X173963686Y-132665000D01*
X138464697Y-132665000D01*
X137802343Y-132597721D01*
X137200317Y-132409057D01*
X136648532Y-132103197D01*
X136169517Y-131692632D01*
X135782840Y-131194132D01*
X135504298Y-130628059D01*
X135343141Y-130009367D01*
X135305000Y-129513686D01*
X135305000Y-129095431D01*
X136195000Y-129095431D01*
X136195000Y-129984569D01*
X136535259Y-130806026D01*
X137163974Y-131434741D01*
X137985431Y-131775000D01*
X138874569Y-131775000D01*
X139696026Y-131434741D01*
X140324741Y-130806026D01*
X140665000Y-129984569D01*
X140665000Y-129095431D01*
X171755000Y-129095431D01*
X171755000Y-129984569D01*
X172095259Y-130806026D01*
X172723974Y-131434741D01*
X173545431Y-131775000D01*
X174434569Y-131775000D01*
X175256026Y-131434741D01*
X175884741Y-130806026D01*
X176225000Y-129984569D01*
X176225000Y-129095431D01*
X175884741Y-128273974D01*
X175256026Y-127645259D01*
X174434569Y-127305000D01*
X173545431Y-127305000D01*
X172723974Y-127645259D01*
X172095259Y-128273974D01*
X171755000Y-129095431D01*
X140665000Y-129095431D01*
X140324741Y-128273974D01*
X139696026Y-127645259D01*
X138980889Y-127349039D01*
X142118096Y-127349039D01*
X142278959Y-127737423D01*
X142654866Y-128152389D01*
X143160959Y-128391914D01*
X143383000Y-128270629D01*
X143383000Y-127127000D01*
X143637000Y-127127000D01*
X143637000Y-128270629D01*
X143859041Y-128391914D01*
X144365134Y-128152389D01*
X144741041Y-127737423D01*
X144901904Y-127349039D01*
X144779915Y-127127000D01*
X143637000Y-127127000D01*
X143383000Y-127127000D01*
X142240085Y-127127000D01*
X142118096Y-127349039D01*
X138980889Y-127349039D01*
X138874569Y-127305000D01*
X137985431Y-127305000D01*
X137163974Y-127645259D01*
X136535259Y-128273974D01*
X136195000Y-129095431D01*
X135305000Y-129095431D01*
X135305000Y-118109773D01*
X135306056Y-118115082D01*
X135614820Y-118577180D01*
X136076918Y-118885944D01*
X136484412Y-118967000D01*
X137835588Y-118967000D01*
X138243082Y-118885944D01*
X138705180Y-118577180D01*
X139013944Y-118115082D01*
X139122368Y-117570000D01*
X139013944Y-117024918D01*
X138705180Y-116562820D01*
X138357179Y-116330293D01*
X138557000Y-115847881D01*
X138557000Y-115292119D01*
X138344320Y-114778663D01*
X138135657Y-114570000D01*
X138344320Y-114361337D01*
X138557000Y-113847881D01*
X138557000Y-113292119D01*
X138344320Y-112778663D01*
X138135657Y-112570000D01*
X138344320Y-112361337D01*
X138557000Y-111847881D01*
X138557000Y-111292119D01*
X138357179Y-110809707D01*
X138705180Y-110577180D01*
X139013944Y-110115082D01*
X139122368Y-109570000D01*
X139013944Y-109024918D01*
X138705180Y-108562820D01*
X138243082Y-108254056D01*
X137835588Y-108173000D01*
X136484412Y-108173000D01*
X136076918Y-108254056D01*
X135614820Y-108562820D01*
X135306056Y-109024918D01*
X135305000Y-109030227D01*
X135305000Y-102870000D01*
X140118643Y-102870000D01*
X140135000Y-102952233D01*
X140135001Y-121837762D01*
X140118643Y-121920000D01*
X140183448Y-122245800D01*
X140183449Y-122245801D01*
X140368000Y-122522001D01*
X140437718Y-122568585D01*
X142093714Y-124224583D01*
X142046887Y-124460000D01*
X142158260Y-125019909D01*
X142475423Y-125494577D01*
X142859108Y-125750947D01*
X142654866Y-125847611D01*
X142278959Y-126262577D01*
X142118096Y-126650961D01*
X142240085Y-126873000D01*
X143383000Y-126873000D01*
X143383000Y-126853000D01*
X143637000Y-126853000D01*
X143637000Y-126873000D01*
X144779915Y-126873000D01*
X144901904Y-126650961D01*
X144741041Y-126262577D01*
X144365134Y-125847611D01*
X144160892Y-125750947D01*
X144544577Y-125494577D01*
X144861740Y-125019909D01*
X144973113Y-124460000D01*
X144861740Y-123900091D01*
X144544577Y-123425423D01*
X144192242Y-123190000D01*
X144544577Y-122954577D01*
X144861740Y-122479909D01*
X144973113Y-121920000D01*
X144926285Y-121684582D01*
X154052283Y-112558585D01*
X154105001Y-112523360D01*
X154105000Y-118666413D01*
X153995801Y-118593448D01*
X153752237Y-118545000D01*
X153752233Y-118545000D01*
X153670000Y-118528643D01*
X153587767Y-118545000D01*
X152297930Y-118545000D01*
X152164577Y-118345423D01*
X151689909Y-118028260D01*
X151271333Y-117945000D01*
X150988667Y-117945000D01*
X150570091Y-118028260D01*
X150095423Y-118345423D01*
X149778260Y-118820091D01*
X149666887Y-119380000D01*
X149778260Y-119939909D01*
X150095423Y-120414577D01*
X150447758Y-120650000D01*
X150095423Y-120885423D01*
X149778260Y-121360091D01*
X149666887Y-121920000D01*
X149778260Y-122479909D01*
X150095423Y-122954577D01*
X150447758Y-123190000D01*
X150095423Y-123425423D01*
X149778260Y-123900091D01*
X149666887Y-124460000D01*
X149778260Y-125019909D01*
X150095423Y-125494577D01*
X150447758Y-125730000D01*
X150095423Y-125965423D01*
X149778260Y-126440091D01*
X149666887Y-127000000D01*
X149778260Y-127559909D01*
X150095423Y-128034577D01*
X150570091Y-128351740D01*
X150988667Y-128435000D01*
X151271333Y-128435000D01*
X151689909Y-128351740D01*
X152164577Y-128034577D01*
X152481740Y-127559909D01*
X152593113Y-127000000D01*
X152481740Y-126440091D01*
X152164577Y-125965423D01*
X151812242Y-125730000D01*
X152164577Y-125494577D01*
X152297930Y-125295000D01*
X159937767Y-125295000D01*
X160020000Y-125311357D01*
X160102233Y-125295000D01*
X160102237Y-125295000D01*
X160345801Y-125246552D01*
X160622001Y-125062001D01*
X160668587Y-124992280D01*
X161822282Y-123838585D01*
X161892001Y-123792001D01*
X162076552Y-123515801D01*
X162125000Y-123272237D01*
X162125000Y-123272234D01*
X162141357Y-123190001D01*
X162132075Y-123143337D01*
X162360625Y-122990625D01*
X162560000Y-122692239D01*
X162759375Y-122990625D01*
X163250582Y-123318839D01*
X163683744Y-123405000D01*
X163976256Y-123405000D01*
X164409418Y-123318839D01*
X164900625Y-122990625D01*
X165100000Y-122692239D01*
X165299375Y-122990625D01*
X165790582Y-123318839D01*
X166223744Y-123405000D01*
X166516256Y-123405000D01*
X166949418Y-123318839D01*
X167440625Y-122990625D01*
X167455096Y-122968967D01*
X167521673Y-123129698D01*
X167700301Y-123308327D01*
X167933690Y-123405000D01*
X168624250Y-123405000D01*
X168783000Y-123246250D01*
X168783000Y-122047000D01*
X169037000Y-122047000D01*
X169037000Y-123246250D01*
X169195750Y-123405000D01*
X169886310Y-123405000D01*
X170119699Y-123308327D01*
X170298327Y-123129698D01*
X170395000Y-122896309D01*
X170395000Y-122205750D01*
X170236250Y-122047000D01*
X169037000Y-122047000D01*
X168783000Y-122047000D01*
X168763000Y-122047000D01*
X168763000Y-121793000D01*
X168783000Y-121793000D01*
X168783000Y-120593750D01*
X169037000Y-120593750D01*
X169037000Y-121793000D01*
X170236250Y-121793000D01*
X170395000Y-121634250D01*
X170395000Y-120943691D01*
X170298327Y-120710302D01*
X170119699Y-120531673D01*
X169886310Y-120435000D01*
X169195750Y-120435000D01*
X169037000Y-120593750D01*
X168783000Y-120593750D01*
X168624250Y-120435000D01*
X167933690Y-120435000D01*
X167700301Y-120531673D01*
X167521673Y-120710302D01*
X167455096Y-120871033D01*
X167440625Y-120849375D01*
X166949418Y-120521161D01*
X166516256Y-120435000D01*
X166495869Y-120435000D01*
X166715869Y-120215000D01*
X171367767Y-120215000D01*
X171450000Y-120231357D01*
X171532233Y-120215000D01*
X171532237Y-120215000D01*
X171775801Y-120166552D01*
X172052001Y-119982001D01*
X172098587Y-119912280D01*
X174522286Y-117488583D01*
X174592001Y-117442001D01*
X174776552Y-117165801D01*
X174825000Y-116922237D01*
X174825000Y-116922234D01*
X174841357Y-116840001D01*
X174825000Y-116757768D01*
X174825000Y-107874396D01*
X175206534Y-107492862D01*
X175425000Y-106965439D01*
X175425000Y-106394561D01*
X175206534Y-105867138D01*
X174802862Y-105463466D01*
X174275439Y-105245000D01*
X173704561Y-105245000D01*
X173177138Y-105463466D01*
X172773466Y-105867138D01*
X172555000Y-106394561D01*
X172555000Y-106965439D01*
X172773466Y-107492862D01*
X173155001Y-107874397D01*
X173155001Y-109744132D01*
X171615000Y-108204132D01*
X171615000Y-107664561D01*
X171396534Y-107137138D01*
X170992862Y-106733466D01*
X170465439Y-106515000D01*
X169894561Y-106515000D01*
X169367138Y-106733466D01*
X168963466Y-107137138D01*
X168745000Y-107664561D01*
X168745000Y-108235439D01*
X168963466Y-108762862D01*
X169367138Y-109166534D01*
X169894561Y-109385000D01*
X170434132Y-109385000D01*
X171885001Y-110835870D01*
X171885000Y-115224131D01*
X169834133Y-117275000D01*
X165182237Y-117275000D01*
X165100000Y-117258642D01*
X165017763Y-117275000D01*
X164774199Y-117323448D01*
X164497999Y-117507999D01*
X164451415Y-117577717D01*
X161567939Y-120461193D01*
X161436256Y-120435000D01*
X161143744Y-120435000D01*
X160710582Y-120521161D01*
X160219375Y-120849375D01*
X160020000Y-121147761D01*
X159820625Y-120849375D01*
X159585000Y-120691935D01*
X159585000Y-117185867D01*
X162121828Y-114649039D01*
X163708096Y-114649039D01*
X163868959Y-115037423D01*
X164244866Y-115452389D01*
X164750959Y-115691914D01*
X164973000Y-115570629D01*
X164973000Y-114427000D01*
X165227000Y-114427000D01*
X165227000Y-115570629D01*
X165449041Y-115691914D01*
X165955134Y-115452389D01*
X166331041Y-115037423D01*
X166491904Y-114649039D01*
X166369915Y-114427000D01*
X165227000Y-114427000D01*
X164973000Y-114427000D01*
X163830085Y-114427000D01*
X163708096Y-114649039D01*
X162121828Y-114649039D01*
X162819906Y-113950961D01*
X163708096Y-113950961D01*
X163830085Y-114173000D01*
X164973000Y-114173000D01*
X164973000Y-113029371D01*
X165227000Y-113029371D01*
X165227000Y-114173000D01*
X166369915Y-114173000D01*
X166491904Y-113950961D01*
X166331041Y-113562577D01*
X166069600Y-113273970D01*
X167745635Y-113273970D01*
X167905418Y-113592739D01*
X168696187Y-113902723D01*
X169545387Y-113886497D01*
X170254582Y-113592739D01*
X170414365Y-113273970D01*
X169080000Y-111939605D01*
X167745635Y-113273970D01*
X166069600Y-113273970D01*
X165955134Y-113147611D01*
X165449041Y-112908086D01*
X165227000Y-113029371D01*
X164973000Y-113029371D01*
X164750959Y-112908086D01*
X164244866Y-113147611D01*
X163868959Y-113562577D01*
X163708096Y-113950961D01*
X162819906Y-113950961D01*
X165394681Y-111376187D01*
X166937277Y-111376187D01*
X166953503Y-112225387D01*
X167247261Y-112934582D01*
X167566030Y-113094365D01*
X168900395Y-111760000D01*
X169259605Y-111760000D01*
X170593970Y-113094365D01*
X170912739Y-112934582D01*
X171222723Y-112143813D01*
X171206497Y-111294613D01*
X170912739Y-110585418D01*
X170593970Y-110425635D01*
X169259605Y-111760000D01*
X168900395Y-111760000D01*
X167566030Y-110425635D01*
X167247261Y-110585418D01*
X166937277Y-111376187D01*
X165394681Y-111376187D01*
X166115869Y-110655000D01*
X166655439Y-110655000D01*
X167182862Y-110436534D01*
X167373366Y-110246030D01*
X167745635Y-110246030D01*
X169080000Y-111580395D01*
X170414365Y-110246030D01*
X170254582Y-109927261D01*
X169463813Y-109617277D01*
X168614613Y-109633503D01*
X167905418Y-109927261D01*
X167745635Y-110246030D01*
X167373366Y-110246030D01*
X167586534Y-110032862D01*
X167805000Y-109505439D01*
X167805000Y-108934561D01*
X167586534Y-108407138D01*
X167182862Y-108003466D01*
X166655439Y-107785000D01*
X166084561Y-107785000D01*
X165557138Y-108003466D01*
X165153466Y-108407138D01*
X164935000Y-108934561D01*
X164935000Y-109474131D01*
X158217718Y-116191415D01*
X158148000Y-116237999D01*
X158101416Y-116307717D01*
X157963448Y-116514200D01*
X157898643Y-116840000D01*
X157915001Y-116922236D01*
X157915000Y-120691935D01*
X157679375Y-120849375D01*
X157480000Y-121147761D01*
X157280625Y-120849375D01*
X156789418Y-120521161D01*
X156356256Y-120435000D01*
X156063744Y-120435000D01*
X155932061Y-120461193D01*
X155775000Y-120304133D01*
X155775000Y-114014561D01*
X156045000Y-114014561D01*
X156045000Y-114585439D01*
X156263466Y-115112862D01*
X156667138Y-115516534D01*
X157194561Y-115735000D01*
X157765439Y-115735000D01*
X158292862Y-115516534D01*
X158696534Y-115112862D01*
X158915000Y-114585439D01*
X158915000Y-114014561D01*
X158696534Y-113487138D01*
X158315000Y-113105604D01*
X158315000Y-112105867D01*
X159603625Y-110817243D01*
X159694778Y-110855000D01*
X160345222Y-110855000D01*
X160946153Y-110606086D01*
X161406086Y-110146153D01*
X161655000Y-109545222D01*
X161655000Y-108894778D01*
X161406086Y-108293847D01*
X160946153Y-107833914D01*
X160345222Y-107585000D01*
X159694778Y-107585000D01*
X159093847Y-107833914D01*
X158633914Y-108293847D01*
X158385000Y-108894778D01*
X158385000Y-109545222D01*
X158422757Y-109636375D01*
X156947718Y-111111415D01*
X156878000Y-111157999D01*
X156831416Y-111227717D01*
X156693448Y-111434200D01*
X156628643Y-111760000D01*
X156645001Y-111842238D01*
X156645000Y-113105604D01*
X156263466Y-113487138D01*
X156045000Y-114014561D01*
X155775000Y-114014561D01*
X155775000Y-112105867D01*
X156742284Y-111138584D01*
X156812001Y-111092001D01*
X156996552Y-110815801D01*
X157045000Y-110572237D01*
X157045000Y-110572234D01*
X157061357Y-110490001D01*
X157045000Y-110407768D01*
X157045000Y-106762237D01*
X157061358Y-106680000D01*
X157028537Y-106515000D01*
X156996552Y-106354199D01*
X156812001Y-106077999D01*
X156742283Y-106031415D01*
X155155000Y-104444133D01*
X155155000Y-104394778D01*
X158385000Y-104394778D01*
X158385000Y-105045222D01*
X158633914Y-105646153D01*
X159093847Y-106106086D01*
X159694778Y-106355000D01*
X160345222Y-106355000D01*
X160946153Y-106106086D01*
X161406086Y-105646153D01*
X161655000Y-105045222D01*
X161655000Y-104394778D01*
X161406086Y-103793847D01*
X160946153Y-103333914D01*
X160345222Y-103085000D01*
X159694778Y-103085000D01*
X159093847Y-103333914D01*
X158633914Y-103793847D01*
X158385000Y-104394778D01*
X155155000Y-104394778D01*
X154906086Y-103793847D01*
X154446153Y-103333914D01*
X153845222Y-103085000D01*
X153194778Y-103085000D01*
X152593847Y-103333914D01*
X152133914Y-103793847D01*
X152096157Y-103885000D01*
X150785868Y-103885000D01*
X149238587Y-102337720D01*
X149192001Y-102267999D01*
X148915801Y-102083448D01*
X148672237Y-102035000D01*
X148672233Y-102035000D01*
X148590000Y-102018643D01*
X148507767Y-102035000D01*
X147278065Y-102035000D01*
X147120625Y-101799375D01*
X146822239Y-101600000D01*
X147120625Y-101400625D01*
X147448839Y-100909418D01*
X147564092Y-100330000D01*
X147448839Y-99750582D01*
X147120625Y-99259375D01*
X146629418Y-98931161D01*
X146196256Y-98845000D01*
X145903744Y-98845000D01*
X145470582Y-98931161D01*
X144979375Y-99259375D01*
X144821935Y-99495000D01*
X143592232Y-99495000D01*
X143509999Y-99478643D01*
X143427766Y-99495000D01*
X143427763Y-99495000D01*
X143184199Y-99543448D01*
X142907999Y-99727999D01*
X142861417Y-99797715D01*
X140437720Y-102221413D01*
X140367999Y-102267999D01*
X140183448Y-102544200D01*
X140135000Y-102787764D01*
X140135000Y-102787767D01*
X140118643Y-102870000D01*
X135305000Y-102870000D01*
X135305000Y-94014697D01*
X135353681Y-93535431D01*
X136195000Y-93535431D01*
X136195000Y-94424569D01*
X136535259Y-95246026D01*
X137163974Y-95874741D01*
X137985431Y-96215000D01*
X138874569Y-96215000D01*
X139696026Y-95874741D01*
X140035017Y-95535750D01*
X144515000Y-95535750D01*
X144515000Y-96276310D01*
X144611673Y-96509699D01*
X144790302Y-96688327D01*
X145023691Y-96785000D01*
X145764250Y-96785000D01*
X145923000Y-96626250D01*
X145923000Y-95377000D01*
X144673750Y-95377000D01*
X144515000Y-95535750D01*
X140035017Y-95535750D01*
X140324741Y-95246026D01*
X140665000Y-94424569D01*
X140665000Y-94223690D01*
X144515000Y-94223690D01*
X144515000Y-94964250D01*
X144673750Y-95123000D01*
X145923000Y-95123000D01*
X145923000Y-93873750D01*
X146177000Y-93873750D01*
X146177000Y-95123000D01*
X146197000Y-95123000D01*
X146197000Y-95377000D01*
X146177000Y-95377000D01*
X146177000Y-96626250D01*
X146335750Y-96785000D01*
X147076309Y-96785000D01*
X147309698Y-96688327D01*
X147488327Y-96509699D01*
X147544139Y-96374956D01*
X147720493Y-96551310D01*
X148284670Y-96785000D01*
X148895330Y-96785000D01*
X148929839Y-96770706D01*
X151751415Y-99592283D01*
X151797999Y-99662001D01*
X152074199Y-99846552D01*
X152317763Y-99895000D01*
X152400000Y-99911358D01*
X152482237Y-99895000D01*
X163484133Y-99895000D01*
X164953714Y-101364583D01*
X164906887Y-101600000D01*
X165018260Y-102159909D01*
X165335423Y-102634577D01*
X165810091Y-102951740D01*
X166228667Y-103035000D01*
X166511333Y-103035000D01*
X166929909Y-102951740D01*
X167404577Y-102634577D01*
X167721740Y-102159909D01*
X167833113Y-101600000D01*
X167721740Y-101040091D01*
X167404577Y-100565423D01*
X166929909Y-100248260D01*
X166511333Y-100165000D01*
X166228667Y-100165000D01*
X166134583Y-100183715D01*
X164575867Y-98625000D01*
X167294133Y-98625000D01*
X168763714Y-100094583D01*
X168716887Y-100330000D01*
X168828260Y-100889909D01*
X169145423Y-101364577D01*
X169620091Y-101681740D01*
X170038667Y-101765000D01*
X170321333Y-101765000D01*
X170739909Y-101681740D01*
X171214577Y-101364577D01*
X171531740Y-100889909D01*
X171643113Y-100330000D01*
X171556586Y-99895000D01*
X172822070Y-99895000D01*
X172955423Y-100094577D01*
X173430091Y-100411740D01*
X173848667Y-100495000D01*
X174131333Y-100495000D01*
X174549909Y-100411740D01*
X175024577Y-100094577D01*
X175341740Y-99619909D01*
X175453113Y-99060000D01*
X175341740Y-98500091D01*
X175024577Y-98025423D01*
X174549909Y-97708260D01*
X174131333Y-97625000D01*
X173848667Y-97625000D01*
X173430091Y-97708260D01*
X172955423Y-98025423D01*
X172822070Y-98225000D01*
X171795868Y-98225000D01*
X168288587Y-94717720D01*
X168242001Y-94647999D01*
X167965801Y-94463448D01*
X167722237Y-94415000D01*
X167722233Y-94415000D01*
X167682314Y-94407060D01*
X167671310Y-94380493D01*
X167239507Y-93948690D01*
X166675330Y-93715000D01*
X166064670Y-93715000D01*
X165500493Y-93948690D01*
X165324139Y-94125044D01*
X165268327Y-93990301D01*
X165089698Y-93811673D01*
X164856309Y-93715000D01*
X164115750Y-93715000D01*
X163957000Y-93873750D01*
X163957000Y-95123000D01*
X163977000Y-95123000D01*
X163977000Y-95377000D01*
X163957000Y-95377000D01*
X163957000Y-96626250D01*
X164115750Y-96785000D01*
X164856309Y-96785000D01*
X165089698Y-96688327D01*
X165268327Y-96509699D01*
X165324139Y-96374956D01*
X165500493Y-96551310D01*
X166064670Y-96785000D01*
X166675330Y-96785000D01*
X167239507Y-96551310D01*
X167499975Y-96290842D01*
X170104132Y-98895000D01*
X170038667Y-98895000D01*
X169944583Y-98913715D01*
X168288587Y-97257720D01*
X168242001Y-97187999D01*
X167965801Y-97003448D01*
X167722237Y-96955000D01*
X167722233Y-96955000D01*
X167640000Y-96938643D01*
X167557767Y-96955000D01*
X160365869Y-96955000D01*
X159000706Y-95589838D01*
X159015000Y-95555330D01*
X159015000Y-95535750D01*
X162295000Y-95535750D01*
X162295000Y-96276310D01*
X162391673Y-96509699D01*
X162570302Y-96688327D01*
X162803691Y-96785000D01*
X163544250Y-96785000D01*
X163703000Y-96626250D01*
X163703000Y-95377000D01*
X162453750Y-95377000D01*
X162295000Y-95535750D01*
X159015000Y-95535750D01*
X159015000Y-94944670D01*
X158781310Y-94380493D01*
X158624507Y-94223690D01*
X162295000Y-94223690D01*
X162295000Y-94964250D01*
X162453750Y-95123000D01*
X163703000Y-95123000D01*
X163703000Y-93873750D01*
X163544250Y-93715000D01*
X162803691Y-93715000D01*
X162570302Y-93811673D01*
X162391673Y-93990301D01*
X162295000Y-94223690D01*
X158624507Y-94223690D01*
X158349507Y-93948690D01*
X157785330Y-93715000D01*
X157174670Y-93715000D01*
X156610493Y-93948690D01*
X156434139Y-94125044D01*
X156378327Y-93990301D01*
X156199698Y-93811673D01*
X155966309Y-93715000D01*
X155225750Y-93715000D01*
X155067000Y-93873750D01*
X155067000Y-95123000D01*
X155087000Y-95123000D01*
X155087000Y-95377000D01*
X155067000Y-95377000D01*
X155067000Y-96626250D01*
X155225750Y-96785000D01*
X155966309Y-96785000D01*
X156199698Y-96688327D01*
X156378327Y-96509699D01*
X156434139Y-96374956D01*
X156610493Y-96551310D01*
X157174670Y-96785000D01*
X157785330Y-96785000D01*
X157819838Y-96770706D01*
X159274131Y-98225000D01*
X152745868Y-98225000D01*
X150110706Y-95589839D01*
X150125000Y-95555330D01*
X150125000Y-95535750D01*
X153405000Y-95535750D01*
X153405000Y-96276310D01*
X153501673Y-96509699D01*
X153680302Y-96688327D01*
X153913691Y-96785000D01*
X154654250Y-96785000D01*
X154813000Y-96626250D01*
X154813000Y-95377000D01*
X153563750Y-95377000D01*
X153405000Y-95535750D01*
X150125000Y-95535750D01*
X150125000Y-94944670D01*
X149891310Y-94380493D01*
X149734507Y-94223690D01*
X153405000Y-94223690D01*
X153405000Y-94964250D01*
X153563750Y-95123000D01*
X154813000Y-95123000D01*
X154813000Y-93873750D01*
X154654250Y-93715000D01*
X153913691Y-93715000D01*
X153680302Y-93811673D01*
X153501673Y-93990301D01*
X153405000Y-94223690D01*
X149734507Y-94223690D01*
X149459507Y-93948690D01*
X148895330Y-93715000D01*
X148284670Y-93715000D01*
X147720493Y-93948690D01*
X147544139Y-94125044D01*
X147488327Y-93990301D01*
X147309698Y-93811673D01*
X147076309Y-93715000D01*
X146335750Y-93715000D01*
X146177000Y-93873750D01*
X145923000Y-93873750D01*
X145764250Y-93715000D01*
X145023691Y-93715000D01*
X144790302Y-93811673D01*
X144611673Y-93990301D01*
X144515000Y-94223690D01*
X140665000Y-94223690D01*
X140665000Y-93535431D01*
X171755000Y-93535431D01*
X171755000Y-94424569D01*
X172095259Y-95246026D01*
X172723974Y-95874741D01*
X173545431Y-96215000D01*
X174434569Y-96215000D01*
X175256026Y-95874741D01*
X175884741Y-95246026D01*
X176225000Y-94424569D01*
X176225000Y-93535431D01*
X175884741Y-92713974D01*
X175256026Y-92085259D01*
X174434569Y-91745000D01*
X173545431Y-91745000D01*
X172723974Y-92085259D01*
X172095259Y-92713974D01*
X171755000Y-93535431D01*
X140665000Y-93535431D01*
X140324741Y-92713974D01*
X139696026Y-92085259D01*
X138874569Y-91745000D01*
X137985431Y-91745000D01*
X137163974Y-92085259D01*
X136535259Y-92713974D01*
X136195000Y-93535431D01*
X135353681Y-93535431D01*
X135372279Y-93352343D01*
X135560943Y-92750317D01*
X135866804Y-92198530D01*
X136277371Y-91719514D01*
X136775868Y-91332841D01*
X137341940Y-91054298D01*
X137960634Y-90893141D01*
X138456314Y-90855000D01*
X173955303Y-90855000D01*
X174617657Y-90922279D01*
G36*
X144979375Y-101400625D02*
X145277761Y-101600000D01*
X144979375Y-101799375D01*
X144651161Y-102290582D01*
X144535908Y-102870000D01*
X144651161Y-103449418D01*
X144979375Y-103940625D01*
X145001033Y-103955096D01*
X144840302Y-104021673D01*
X144661673Y-104200301D01*
X144565000Y-104433690D01*
X144565000Y-105124250D01*
X144723750Y-105283000D01*
X145923000Y-105283000D01*
X145923000Y-105263000D01*
X146177000Y-105263000D01*
X146177000Y-105283000D01*
X147376250Y-105283000D01*
X147535000Y-105124250D01*
X147535000Y-104433690D01*
X147438327Y-104200301D01*
X147259698Y-104021673D01*
X147098967Y-103955096D01*
X147120625Y-103940625D01*
X147278065Y-103705000D01*
X148244133Y-103705000D01*
X149846415Y-105307283D01*
X149892999Y-105377001D01*
X150022403Y-105463466D01*
X150169199Y-105561552D01*
X150495000Y-105626358D01*
X150820800Y-105561552D01*
X150830606Y-105555000D01*
X152096157Y-105555000D01*
X152133914Y-105646153D01*
X152593847Y-106106086D01*
X153194778Y-106355000D01*
X153845222Y-106355000D01*
X154446153Y-106106086D01*
X154450686Y-106101553D01*
X155375001Y-107025869D01*
X155375000Y-110144132D01*
X154407718Y-111111415D01*
X154355000Y-111146640D01*
X154355000Y-110643843D01*
X154446153Y-110606086D01*
X154906086Y-110146153D01*
X155155000Y-109545222D01*
X155155000Y-108894778D01*
X154906086Y-108293847D01*
X154446153Y-107833914D01*
X153845222Y-107585000D01*
X153194778Y-107585000D01*
X152593847Y-107833914D01*
X152133914Y-108293847D01*
X151885000Y-108894778D01*
X151885000Y-109545222D01*
X152133914Y-110146153D01*
X152593847Y-110606086D01*
X152685001Y-110643843D01*
X152685001Y-111564131D01*
X150581007Y-113668126D01*
X150688157Y-113507765D01*
X150737440Y-113260000D01*
X150737440Y-110260000D01*
X150688157Y-110012235D01*
X150547809Y-109802191D01*
X150337765Y-109661843D01*
X150090000Y-109612560D01*
X147090000Y-109612560D01*
X146842235Y-109661843D01*
X146632191Y-109802191D01*
X146491843Y-110012235D01*
X146442560Y-110260000D01*
X146442560Y-113260000D01*
X146491843Y-113507765D01*
X146632191Y-113717809D01*
X146842235Y-113858157D01*
X147090000Y-113907440D01*
X150090000Y-113907440D01*
X150337765Y-113858157D01*
X150498126Y-113751007D01*
X144957440Y-119291693D01*
X144957440Y-118580000D01*
X144908157Y-118332235D01*
X144767809Y-118122191D01*
X144557765Y-117981843D01*
X144310000Y-117932560D01*
X142710000Y-117932560D01*
X142462235Y-117981843D01*
X142252191Y-118122191D01*
X142111843Y-118332235D01*
X142062560Y-118580000D01*
X142062560Y-120180000D01*
X142111843Y-120427765D01*
X142252191Y-120637809D01*
X142462235Y-120778157D01*
X142596106Y-120804785D01*
X142475423Y-120885423D01*
X142158260Y-121360091D01*
X142064138Y-121833271D01*
X141805000Y-121574133D01*
X141805000Y-105695750D01*
X144565000Y-105695750D01*
X144565000Y-106386310D01*
X144661673Y-106619699D01*
X144840302Y-106798327D01*
X145073691Y-106895000D01*
X145764250Y-106895000D01*
X145923000Y-106736250D01*
X145923000Y-105537000D01*
X146177000Y-105537000D01*
X146177000Y-106736250D01*
X146335750Y-106895000D01*
X147026309Y-106895000D01*
X147259698Y-106798327D01*
X147438327Y-106619699D01*
X147535000Y-106386310D01*
X147535000Y-105695750D01*
X147376250Y-105537000D01*
X146177000Y-105537000D01*
X145923000Y-105537000D01*
X144723750Y-105537000D01*
X144565000Y-105695750D01*
X141805000Y-105695750D01*
X141805000Y-103215867D01*
X143855869Y-101165000D01*
X144821935Y-101165000D01*
X144979375Y-101400625D01*
X144979375Y-101400625D01*
G37*
X144979375Y-101400625D02*
X145277761Y-101600000D01*
X144979375Y-101799375D01*
X144651161Y-102290582D01*
X144535908Y-102870000D01*
X144651161Y-103449418D01*
X144979375Y-103940625D01*
X145001033Y-103955096D01*
X144840302Y-104021673D01*
X144661673Y-104200301D01*
X144565000Y-104433690D01*
X144565000Y-105124250D01*
X144723750Y-105283000D01*
X145923000Y-105283000D01*
X145923000Y-105263000D01*
X146177000Y-105263000D01*
X146177000Y-105283000D01*
X147376250Y-105283000D01*
X147535000Y-105124250D01*
X147535000Y-104433690D01*
X147438327Y-104200301D01*
X147259698Y-104021673D01*
X147098967Y-103955096D01*
X147120625Y-103940625D01*
X147278065Y-103705000D01*
X148244133Y-103705000D01*
X149846415Y-105307283D01*
X149892999Y-105377001D01*
X150022403Y-105463466D01*
X150169199Y-105561552D01*
X150495000Y-105626358D01*
X150820800Y-105561552D01*
X150830606Y-105555000D01*
X152096157Y-105555000D01*
X152133914Y-105646153D01*
X152593847Y-106106086D01*
X153194778Y-106355000D01*
X153845222Y-106355000D01*
X154446153Y-106106086D01*
X154450686Y-106101553D01*
X155375001Y-107025869D01*
X155375000Y-110144132D01*
X154407718Y-111111415D01*
X154355000Y-111146640D01*
X154355000Y-110643843D01*
X154446153Y-110606086D01*
X154906086Y-110146153D01*
X155155000Y-109545222D01*
X155155000Y-108894778D01*
X154906086Y-108293847D01*
X154446153Y-107833914D01*
X153845222Y-107585000D01*
X153194778Y-107585000D01*
X152593847Y-107833914D01*
X152133914Y-108293847D01*
X151885000Y-108894778D01*
X151885000Y-109545222D01*
X152133914Y-110146153D01*
X152593847Y-110606086D01*
X152685001Y-110643843D01*
X152685001Y-111564131D01*
X150581007Y-113668126D01*
X150688157Y-113507765D01*
X150737440Y-113260000D01*
X150737440Y-110260000D01*
X150688157Y-110012235D01*
X150547809Y-109802191D01*
X150337765Y-109661843D01*
X150090000Y-109612560D01*
X147090000Y-109612560D01*
X146842235Y-109661843D01*
X146632191Y-109802191D01*
X146491843Y-110012235D01*
X146442560Y-110260000D01*
X146442560Y-113260000D01*
X146491843Y-113507765D01*
X146632191Y-113717809D01*
X146842235Y-113858157D01*
X147090000Y-113907440D01*
X150090000Y-113907440D01*
X150337765Y-113858157D01*
X150498126Y-113751007D01*
X144957440Y-119291693D01*
X144957440Y-118580000D01*
X144908157Y-118332235D01*
X144767809Y-118122191D01*
X144557765Y-117981843D01*
X144310000Y-117932560D01*
X142710000Y-117932560D01*
X142462235Y-117981843D01*
X142252191Y-118122191D01*
X142111843Y-118332235D01*
X142062560Y-118580000D01*
X142062560Y-120180000D01*
X142111843Y-120427765D01*
X142252191Y-120637809D01*
X142462235Y-120778157D01*
X142596106Y-120804785D01*
X142475423Y-120885423D01*
X142158260Y-121360091D01*
X142064138Y-121833271D01*
X141805000Y-121574133D01*
X141805000Y-105695750D01*
X144565000Y-105695750D01*
X144565000Y-106386310D01*
X144661673Y-106619699D01*
X144840302Y-106798327D01*
X145073691Y-106895000D01*
X145764250Y-106895000D01*
X145923000Y-106736250D01*
X145923000Y-105537000D01*
X146177000Y-105537000D01*
X146177000Y-106736250D01*
X146335750Y-106895000D01*
X147026309Y-106895000D01*
X147259698Y-106798327D01*
X147438327Y-106619699D01*
X147535000Y-106386310D01*
X147535000Y-105695750D01*
X147376250Y-105537000D01*
X146177000Y-105537000D01*
X145923000Y-105537000D01*
X144723750Y-105537000D01*
X144565000Y-105695750D01*
X141805000Y-105695750D01*
X141805000Y-103215867D01*
X143855869Y-101165000D01*
X144821935Y-101165000D01*
X144979375Y-101400625D01*
G04 #@! TD*
M02*
