M48
;DRILL file {KiCad 5.0.0-fee4fd1~66~ubuntu18.04.1} date Sat Sep 29 20:43:16 2018
;FORMAT={-:-/ absolute / inch / decimal}
FMAT,2
INCH,TZ
T1C0.0300
T2C0.0315
T3C0.0354
T4C0.0394
T5C0.0433
T6C0.0591
%
G90
G05
M72
T1
X5.4Y-4.3925
X5.4Y-4.4713
X5.4Y-4.55
T2
X6.7Y-3.95
X6.7Y-4.25
X5.65Y-4.7
X5.65Y-4.8
X5.65Y-4.9
X5.65Y-5.
X5.95Y-4.7
X5.95Y-4.8
X5.95Y-4.9
X5.95Y-5.
X6.85Y-3.9
X6.85Y-4.2
X6.2Y-4.5
X6.5Y-4.5
X6.55Y-4.
X6.55Y-4.3
T3
X6.1Y-3.75
X6.2Y-3.75
X5.75Y-3.75
X5.85Y-3.75
X6.45Y-3.75
X6.55Y-3.75
T4
X5.75Y-3.95
X5.75Y-4.05
X5.75Y-4.15
X6.15Y-4.8
X6.25Y-4.8
X6.35Y-4.8
X6.45Y-4.8
X6.55Y-4.8
X6.65Y-4.8
T5
X6.0441Y-4.1228
X6.0441Y-4.3
X6.3Y-4.1228
X6.3Y-4.3
T6
X5.85Y-4.4
X6.6567Y-4.4
T1
X5.3894Y-4.3138G85X5.4106Y-4.3138
G05
X5.3894Y-4.6287G85X5.4106Y-4.6287
G05
T0
M30
