G04 #@! TF.GenerationSoftware,KiCad,Pcbnew,5.0.0-fee4fd1~66~ubuntu18.04.1*
G04 #@! TF.CreationDate,2018-09-29T20:43:12+02:00*
G04 #@! TF.ProjectId,attinyReflexos,617474696E795265666C65786F732E6B,rev?*
G04 #@! TF.SameCoordinates,Original*
G04 #@! TF.FileFunction,Soldermask,Top*
G04 #@! TF.FilePolarity,Negative*
%FSLAX46Y46*%
G04 Gerber Fmt 4.6, Leading zero omitted, Abs format (unit mm)*
G04 Created by KiCad (PCBNEW 5.0.0-fee4fd1~66~ubuntu18.04.1) date Sat Sep 29 20:43:12 2018*
%MOMM*%
%LPD*%
G01*
G04 APERTURE LIST*
%ADD10C,3.000000*%
%ADD11R,3.000000X3.000000*%
%ADD12C,1.524000*%
%ADD13O,2.600000X1.524000*%
%ADD14R,1.600000X1.600000*%
%ADD15O,1.600000X1.600000*%
%ADD16R,1.700000X1.700000*%
%ADD17O,1.700000X1.700000*%
%ADD18C,3.200000*%
%ADD19C,1.600000*%
%ADD20C,2.000000*%
%ADD21R,1.800000X1.800000*%
%ADD22C,1.800000*%
G04 APERTURE END LIST*
D10*
G04 #@! TO.C,BT1*
X169080000Y-111760000D03*
D11*
X148590000Y-111760000D03*
G04 #@! TD*
D12*
G04 #@! TO.C,SW2*
X137160000Y-115570000D03*
X137160000Y-113570000D03*
X137160000Y-111570000D03*
D13*
X137160000Y-117570000D03*
X137160000Y-109570000D03*
G04 #@! TD*
D14*
G04 #@! TO.C,U1*
X143510000Y-119380000D03*
D15*
X151130000Y-127000000D03*
X143510000Y-121920000D03*
X151130000Y-124460000D03*
X143510000Y-124460000D03*
X151130000Y-121920000D03*
X143510000Y-127000000D03*
X151130000Y-119380000D03*
G04 #@! TD*
D16*
G04 #@! TO.C,J1*
X168910000Y-121920000D03*
D17*
X166370000Y-121920000D03*
X163830000Y-121920000D03*
X161290000Y-121920000D03*
X158750000Y-121920000D03*
X156210000Y-121920000D03*
G04 #@! TD*
D18*
G04 #@! TO.C,REF\002A\002A*
X138430000Y-93980000D03*
G04 #@! TD*
G04 #@! TO.C,REF\002A\002A*
X173990000Y-93980000D03*
G04 #@! TD*
G04 #@! TO.C,REF\002A\002A*
X173990000Y-129540000D03*
G04 #@! TD*
G04 #@! TO.C,REF\002A\002A*
X138430000Y-129540000D03*
G04 #@! TD*
D16*
G04 #@! TO.C,J2*
X146050000Y-105410000D03*
D17*
X146050000Y-102870000D03*
X146050000Y-100330000D03*
G04 #@! TD*
D19*
G04 #@! TO.C,R1*
X157480000Y-114300000D03*
D15*
X165100000Y-114300000D03*
G04 #@! TD*
D19*
G04 #@! TO.C,R2*
X173990000Y-106680000D03*
D15*
X173990000Y-99060000D03*
G04 #@! TD*
D19*
G04 #@! TO.C,R3*
X170180000Y-107950000D03*
D15*
X170180000Y-100330000D03*
G04 #@! TD*
D19*
G04 #@! TO.C,R4*
X166370000Y-109220000D03*
D15*
X166370000Y-101600000D03*
G04 #@! TD*
D20*
G04 #@! TO.C,SW1*
X160020000Y-104720000D03*
X160020000Y-109220000D03*
X153520000Y-104720000D03*
X153520000Y-109220000D03*
G04 #@! TD*
D21*
G04 #@! TO.C,D1*
X163830000Y-95250000D03*
D22*
X166370000Y-95250000D03*
G04 #@! TD*
D21*
G04 #@! TO.C,D2*
X154940000Y-95250000D03*
D22*
X157480000Y-95250000D03*
G04 #@! TD*
D21*
G04 #@! TO.C,D3*
X146050000Y-95250000D03*
D22*
X148590000Y-95250000D03*
G04 #@! TD*
M02*
