G04 #@! TF.GenerationSoftware,KiCad,Pcbnew,5.0.0-fee4fd1~66~ubuntu18.04.1*
G04 #@! TF.CreationDate,2018-09-29T20:43:12+02:00*
G04 #@! TF.ProjectId,attinyReflexos,617474696E795265666C65786F732E6B,rev?*
G04 #@! TF.SameCoordinates,Original*
G04 #@! TF.FileFunction,Legend,Top*
G04 #@! TF.FilePolarity,Positive*
%FSLAX46Y46*%
G04 Gerber Fmt 4.6, Leading zero omitted, Abs format (unit mm)*
G04 Created by KiCad (PCBNEW 5.0.0-fee4fd1~66~ubuntu18.04.1) date Sat Sep 29 20:43:12 2018*
%MOMM*%
%LPD*%
G01*
G04 APERTURE LIST*
%ADD10C,0.300000*%
%ADD11C,0.150000*%
%ADD12C,0.120000*%
G04 APERTURE END LIST*
D10*
X143697142Y-130488571D02*
X143697142Y-131988571D01*
X143697142Y-131417142D02*
X143554285Y-131488571D01*
X143268571Y-131488571D01*
X143125714Y-131417142D01*
X143054285Y-131345714D01*
X142982857Y-131202857D01*
X142982857Y-130774285D01*
X143054285Y-130631428D01*
X143125714Y-130560000D01*
X143268571Y-130488571D01*
X143554285Y-130488571D01*
X143697142Y-130560000D01*
X145054285Y-130488571D02*
X145054285Y-131488571D01*
X144411428Y-130488571D02*
X144411428Y-131274285D01*
X144482857Y-131417142D01*
X144625714Y-131488571D01*
X144840000Y-131488571D01*
X144982857Y-131417142D01*
X145054285Y-131345714D01*
X145768571Y-131488571D02*
X145768571Y-130488571D01*
X145768571Y-129988571D02*
X145697142Y-130060000D01*
X145768571Y-130131428D01*
X145840000Y-130060000D01*
X145768571Y-129988571D01*
X145768571Y-130131428D01*
X147125714Y-131417142D02*
X146982857Y-131488571D01*
X146697142Y-131488571D01*
X146554285Y-131417142D01*
X146482857Y-131345714D01*
X146411428Y-131202857D01*
X146411428Y-130774285D01*
X146482857Y-130631428D01*
X146554285Y-130560000D01*
X146697142Y-130488571D01*
X146982857Y-130488571D01*
X147125714Y-130560000D01*
X147768571Y-131488571D02*
X147768571Y-129988571D01*
X147911428Y-130917142D02*
X148340000Y-131488571D01*
X148340000Y-130488571D02*
X147768571Y-131060000D01*
X148840000Y-130488571D02*
X149197142Y-131488571D01*
X149554285Y-130488571D02*
X149197142Y-131488571D01*
X149054285Y-131845714D01*
X148982857Y-131917142D01*
X148840000Y-131988571D01*
X151554285Y-129988571D02*
X151697142Y-129988571D01*
X151840000Y-130060000D01*
X151911428Y-130131428D01*
X151982857Y-130274285D01*
X152054285Y-130560000D01*
X152054285Y-130917142D01*
X151982857Y-131202857D01*
X151911428Y-131345714D01*
X151840000Y-131417142D01*
X151697142Y-131488571D01*
X151554285Y-131488571D01*
X151411428Y-131417142D01*
X151340000Y-131345714D01*
X151268571Y-131202857D01*
X151197142Y-130917142D01*
X151197142Y-130560000D01*
X151268571Y-130274285D01*
X151340000Y-130131428D01*
X151411428Y-130060000D01*
X151554285Y-129988571D01*
X152697142Y-131345714D02*
X152768571Y-131417142D01*
X152697142Y-131488571D01*
X152625714Y-131417142D01*
X152697142Y-131345714D01*
X152697142Y-131488571D01*
X153268571Y-129988571D02*
X154197142Y-129988571D01*
X153697142Y-130560000D01*
X153911428Y-130560000D01*
X154054285Y-130631428D01*
X154125714Y-130702857D01*
X154197142Y-130845714D01*
X154197142Y-131202857D01*
X154125714Y-131345714D01*
X154054285Y-131417142D01*
X153911428Y-131488571D01*
X153482857Y-131488571D01*
X153340000Y-131417142D01*
X153268571Y-131345714D01*
D11*
G04 #@! TO.C,SW2*
X139460000Y-117870000D02*
X134860000Y-117870000D01*
X134860000Y-117870000D02*
X134860000Y-109270000D01*
X134860000Y-109270000D02*
X139460000Y-109270000D01*
X139460000Y-109270000D02*
X139460000Y-117870000D01*
D12*
G04 #@! TO.C,U1*
X148320000Y-118050000D02*
G75*
G02X146320000Y-118050000I-1000000J0D01*
G01*
X146320000Y-118050000D02*
X144670000Y-118050000D01*
X144670000Y-118050000D02*
X144670000Y-128330000D01*
X144670000Y-128330000D02*
X149970000Y-128330000D01*
X149970000Y-128330000D02*
X149970000Y-118050000D01*
X149970000Y-118050000D02*
X148320000Y-118050000D01*
G04 #@! TO.C,J1*
X170240000Y-123360000D02*
X154880000Y-123360000D01*
X154880000Y-123360000D02*
X154880000Y-126020000D01*
X154880000Y-126020000D02*
X170240000Y-126020000D01*
X170240000Y-126020000D02*
X170240000Y-123360000D01*
X169290000Y-126020000D02*
X169290000Y-132020000D01*
X169290000Y-132020000D02*
X168530000Y-132020000D01*
X168530000Y-132020000D02*
X168530000Y-126020000D01*
X169230000Y-126020000D02*
X169230000Y-132020000D01*
X169110000Y-126020000D02*
X169110000Y-132020000D01*
X168990000Y-126020000D02*
X168990000Y-132020000D01*
X168870000Y-126020000D02*
X168870000Y-132020000D01*
X168750000Y-126020000D02*
X168750000Y-132020000D01*
X168630000Y-126020000D02*
X168630000Y-132020000D01*
X169290000Y-123030000D02*
X169290000Y-123360000D01*
X168530000Y-123030000D02*
X168530000Y-123360000D01*
X167640000Y-123360000D02*
X167640000Y-126020000D01*
X166750000Y-126020000D02*
X166750000Y-132020000D01*
X166750000Y-132020000D02*
X165990000Y-132020000D01*
X165990000Y-132020000D02*
X165990000Y-126020000D01*
X166750000Y-122962929D02*
X166750000Y-123360000D01*
X165990000Y-122962929D02*
X165990000Y-123360000D01*
X165100000Y-123360000D02*
X165100000Y-126020000D01*
X164210000Y-126020000D02*
X164210000Y-132020000D01*
X164210000Y-132020000D02*
X163450000Y-132020000D01*
X163450000Y-132020000D02*
X163450000Y-126020000D01*
X164210000Y-122962929D02*
X164210000Y-123360000D01*
X163450000Y-122962929D02*
X163450000Y-123360000D01*
X162560000Y-123360000D02*
X162560000Y-126020000D01*
X161670000Y-126020000D02*
X161670000Y-132020000D01*
X161670000Y-132020000D02*
X160910000Y-132020000D01*
X160910000Y-132020000D02*
X160910000Y-126020000D01*
X161670000Y-122962929D02*
X161670000Y-123360000D01*
X160910000Y-122962929D02*
X160910000Y-123360000D01*
X160020000Y-123360000D02*
X160020000Y-126020000D01*
X159130000Y-126020000D02*
X159130000Y-132020000D01*
X159130000Y-132020000D02*
X158370000Y-132020000D01*
X158370000Y-132020000D02*
X158370000Y-126020000D01*
X159130000Y-122962929D02*
X159130000Y-123360000D01*
X158370000Y-122962929D02*
X158370000Y-123360000D01*
X157480000Y-123360000D02*
X157480000Y-126020000D01*
X156590000Y-126020000D02*
X156590000Y-132020000D01*
X156590000Y-132020000D02*
X155830000Y-132020000D01*
X155830000Y-132020000D02*
X155830000Y-126020000D01*
X156590000Y-122962929D02*
X156590000Y-123360000D01*
X155830000Y-122962929D02*
X155830000Y-123360000D01*
X168910000Y-120650000D02*
X170180000Y-120650000D01*
X170180000Y-120650000D02*
X170180000Y-121920000D01*
G04 #@! TO.C,J2*
X144610000Y-106740000D02*
X144610000Y-99000000D01*
X144610000Y-99000000D02*
X141950000Y-99000000D01*
X141950000Y-99000000D02*
X141950000Y-106740000D01*
X141950000Y-106740000D02*
X144610000Y-106740000D01*
X141950000Y-105790000D02*
X135950000Y-105790000D01*
X135950000Y-105790000D02*
X135950000Y-105030000D01*
X135950000Y-105030000D02*
X141950000Y-105030000D01*
X141950000Y-105730000D02*
X135950000Y-105730000D01*
X141950000Y-105610000D02*
X135950000Y-105610000D01*
X141950000Y-105490000D02*
X135950000Y-105490000D01*
X141950000Y-105370000D02*
X135950000Y-105370000D01*
X141950000Y-105250000D02*
X135950000Y-105250000D01*
X141950000Y-105130000D02*
X135950000Y-105130000D01*
X144940000Y-105790000D02*
X144610000Y-105790000D01*
X144940000Y-105030000D02*
X144610000Y-105030000D01*
X144610000Y-104140000D02*
X141950000Y-104140000D01*
X141950000Y-103250000D02*
X135950000Y-103250000D01*
X135950000Y-103250000D02*
X135950000Y-102490000D01*
X135950000Y-102490000D02*
X141950000Y-102490000D01*
X145007071Y-103250000D02*
X144610000Y-103250000D01*
X145007071Y-102490000D02*
X144610000Y-102490000D01*
X144610000Y-101600000D02*
X141950000Y-101600000D01*
X141950000Y-100710000D02*
X135950000Y-100710000D01*
X135950000Y-100710000D02*
X135950000Y-99950000D01*
X135950000Y-99950000D02*
X141950000Y-99950000D01*
X145007071Y-100710000D02*
X144610000Y-100710000D01*
X145007071Y-99950000D02*
X144610000Y-99950000D01*
X147320000Y-105410000D02*
X147320000Y-106680000D01*
X147320000Y-106680000D02*
X146050000Y-106680000D01*
G04 #@! TO.C,R1*
X158080000Y-113320000D02*
X158080000Y-112990000D01*
X158080000Y-112990000D02*
X164500000Y-112990000D01*
X164500000Y-112990000D02*
X164500000Y-113320000D01*
X158080000Y-115280000D02*
X158080000Y-115610000D01*
X158080000Y-115610000D02*
X164500000Y-115610000D01*
X164500000Y-115610000D02*
X164500000Y-115280000D01*
G04 #@! TO.C,R2*
X173010000Y-106080000D02*
X172680000Y-106080000D01*
X172680000Y-106080000D02*
X172680000Y-99660000D01*
X172680000Y-99660000D02*
X173010000Y-99660000D01*
X174970000Y-106080000D02*
X175300000Y-106080000D01*
X175300000Y-106080000D02*
X175300000Y-99660000D01*
X175300000Y-99660000D02*
X174970000Y-99660000D01*
G04 #@! TO.C,R3*
X169200000Y-107350000D02*
X168870000Y-107350000D01*
X168870000Y-107350000D02*
X168870000Y-100930000D01*
X168870000Y-100930000D02*
X169200000Y-100930000D01*
X171160000Y-107350000D02*
X171490000Y-107350000D01*
X171490000Y-107350000D02*
X171490000Y-100930000D01*
X171490000Y-100930000D02*
X171160000Y-100930000D01*
G04 #@! TO.C,R4*
X165390000Y-108620000D02*
X165060000Y-108620000D01*
X165060000Y-108620000D02*
X165060000Y-102200000D01*
X165060000Y-102200000D02*
X165390000Y-102200000D01*
X167350000Y-108620000D02*
X167680000Y-108620000D01*
X167680000Y-108620000D02*
X167680000Y-102200000D01*
X167680000Y-102200000D02*
X167350000Y-102200000D01*
G04 #@! TO.C,SW1*
X159020000Y-103720000D02*
X154520000Y-103720000D01*
X160270000Y-107720000D02*
X160270000Y-106220000D01*
X154520000Y-110220000D02*
X159020000Y-110220000D01*
X153270000Y-106220000D02*
X153270000Y-107720000D01*
G04 #@! TO.C,D1*
X166772335Y-94171392D02*
G75*
G03X163540000Y-94014484I-1672335J-1078608D01*
G01*
X166772335Y-96328608D02*
G75*
G02X163540000Y-96485516I-1672335J1078608D01*
G01*
X166141130Y-94170163D02*
G75*
G03X164059039Y-94170000I-1041130J-1079837D01*
G01*
X166141130Y-96329837D02*
G75*
G02X164059039Y-96330000I-1041130J1079837D01*
G01*
X163540000Y-94014000D02*
X163540000Y-94170000D01*
X163540000Y-96330000D02*
X163540000Y-96486000D01*
G04 #@! TO.C,D2*
X157882335Y-94171392D02*
G75*
G03X154650000Y-94014484I-1672335J-1078608D01*
G01*
X157882335Y-96328608D02*
G75*
G02X154650000Y-96485516I-1672335J1078608D01*
G01*
X157251130Y-94170163D02*
G75*
G03X155169039Y-94170000I-1041130J-1079837D01*
G01*
X157251130Y-96329837D02*
G75*
G02X155169039Y-96330000I-1041130J1079837D01*
G01*
X154650000Y-94014000D02*
X154650000Y-94170000D01*
X154650000Y-96330000D02*
X154650000Y-96486000D01*
G04 #@! TO.C,D3*
X148992335Y-94171392D02*
G75*
G03X145760000Y-94014484I-1672335J-1078608D01*
G01*
X148992335Y-96328608D02*
G75*
G02X145760000Y-96485516I-1672335J1078608D01*
G01*
X148361130Y-94170163D02*
G75*
G03X146279039Y-94170000I-1041130J-1079837D01*
G01*
X148361130Y-96329837D02*
G75*
G02X146279039Y-96330000I-1041130J1079837D01*
G01*
X145760000Y-94014000D02*
X145760000Y-94170000D01*
X145760000Y-96330000D02*
X145760000Y-96486000D01*
G04 #@! TO.C,SW2*
D11*
X142564761Y-116903333D02*
X142612380Y-116760476D01*
X142612380Y-116522380D01*
X142564761Y-116427142D01*
X142517142Y-116379523D01*
X142421904Y-116331904D01*
X142326666Y-116331904D01*
X142231428Y-116379523D01*
X142183809Y-116427142D01*
X142136190Y-116522380D01*
X142088571Y-116712857D01*
X142040952Y-116808095D01*
X141993333Y-116855714D01*
X141898095Y-116903333D01*
X141802857Y-116903333D01*
X141707619Y-116855714D01*
X141660000Y-116808095D01*
X141612380Y-116712857D01*
X141612380Y-116474761D01*
X141660000Y-116331904D01*
X141612380Y-115998571D02*
X142612380Y-115760476D01*
X141898095Y-115570000D01*
X142612380Y-115379523D01*
X141612380Y-115141428D01*
X141707619Y-114808095D02*
X141660000Y-114760476D01*
X141612380Y-114665238D01*
X141612380Y-114427142D01*
X141660000Y-114331904D01*
X141707619Y-114284285D01*
X141802857Y-114236666D01*
X141898095Y-114236666D01*
X142040952Y-114284285D01*
X142612380Y-114855714D01*
X142612380Y-114236666D01*
G04 #@! TO.C,U1*
X146558095Y-116502380D02*
X146558095Y-117311904D01*
X146605714Y-117407142D01*
X146653333Y-117454761D01*
X146748571Y-117502380D01*
X146939047Y-117502380D01*
X147034285Y-117454761D01*
X147081904Y-117407142D01*
X147129523Y-117311904D01*
X147129523Y-116502380D01*
X148129523Y-117502380D02*
X147558095Y-117502380D01*
X147843809Y-117502380D02*
X147843809Y-116502380D01*
X147748571Y-116645238D01*
X147653333Y-116740476D01*
X147558095Y-116788095D01*
G04 #@! TO.C,J1*
X170632380Y-126638333D02*
X171346666Y-126638333D01*
X171489523Y-126685952D01*
X171584761Y-126781190D01*
X171632380Y-126924047D01*
X171632380Y-127019285D01*
X171632380Y-125638333D02*
X171632380Y-126209761D01*
X171632380Y-125924047D02*
X170632380Y-125924047D01*
X170775238Y-126019285D01*
X170870476Y-126114523D01*
X170918095Y-126209761D01*
G04 #@! TO.C,REF\002A\002A*
X137096666Y-90232380D02*
X136763333Y-89756190D01*
X136525238Y-90232380D02*
X136525238Y-89232380D01*
X136906190Y-89232380D01*
X137001428Y-89280000D01*
X137049047Y-89327619D01*
X137096666Y-89422857D01*
X137096666Y-89565714D01*
X137049047Y-89660952D01*
X137001428Y-89708571D01*
X136906190Y-89756190D01*
X136525238Y-89756190D01*
X137525238Y-89708571D02*
X137858571Y-89708571D01*
X138001428Y-90232380D02*
X137525238Y-90232380D01*
X137525238Y-89232380D01*
X138001428Y-89232380D01*
X138763333Y-89708571D02*
X138430000Y-89708571D01*
X138430000Y-90232380D02*
X138430000Y-89232380D01*
X138906190Y-89232380D01*
X139430000Y-89232380D02*
X139430000Y-89470476D01*
X139191904Y-89375238D02*
X139430000Y-89470476D01*
X139668095Y-89375238D01*
X139287142Y-89660952D02*
X139430000Y-89470476D01*
X139572857Y-89660952D01*
X140191904Y-89232380D02*
X140191904Y-89470476D01*
X139953809Y-89375238D02*
X140191904Y-89470476D01*
X140430000Y-89375238D01*
X140049047Y-89660952D02*
X140191904Y-89470476D01*
X140334761Y-89660952D01*
X172656666Y-90232380D02*
X172323333Y-89756190D01*
X172085238Y-90232380D02*
X172085238Y-89232380D01*
X172466190Y-89232380D01*
X172561428Y-89280000D01*
X172609047Y-89327619D01*
X172656666Y-89422857D01*
X172656666Y-89565714D01*
X172609047Y-89660952D01*
X172561428Y-89708571D01*
X172466190Y-89756190D01*
X172085238Y-89756190D01*
X173085238Y-89708571D02*
X173418571Y-89708571D01*
X173561428Y-90232380D02*
X173085238Y-90232380D01*
X173085238Y-89232380D01*
X173561428Y-89232380D01*
X174323333Y-89708571D02*
X173990000Y-89708571D01*
X173990000Y-90232380D02*
X173990000Y-89232380D01*
X174466190Y-89232380D01*
X174990000Y-89232380D02*
X174990000Y-89470476D01*
X174751904Y-89375238D02*
X174990000Y-89470476D01*
X175228095Y-89375238D01*
X174847142Y-89660952D02*
X174990000Y-89470476D01*
X175132857Y-89660952D01*
X175751904Y-89232380D02*
X175751904Y-89470476D01*
X175513809Y-89375238D02*
X175751904Y-89470476D01*
X175990000Y-89375238D01*
X175609047Y-89660952D02*
X175751904Y-89470476D01*
X175894761Y-89660952D01*
X172656666Y-125792380D02*
X172323333Y-125316190D01*
X172085238Y-125792380D02*
X172085238Y-124792380D01*
X172466190Y-124792380D01*
X172561428Y-124840000D01*
X172609047Y-124887619D01*
X172656666Y-124982857D01*
X172656666Y-125125714D01*
X172609047Y-125220952D01*
X172561428Y-125268571D01*
X172466190Y-125316190D01*
X172085238Y-125316190D01*
X173085238Y-125268571D02*
X173418571Y-125268571D01*
X173561428Y-125792380D02*
X173085238Y-125792380D01*
X173085238Y-124792380D01*
X173561428Y-124792380D01*
X174323333Y-125268571D02*
X173990000Y-125268571D01*
X173990000Y-125792380D02*
X173990000Y-124792380D01*
X174466190Y-124792380D01*
X174990000Y-124792380D02*
X174990000Y-125030476D01*
X174751904Y-124935238D02*
X174990000Y-125030476D01*
X175228095Y-124935238D01*
X174847142Y-125220952D02*
X174990000Y-125030476D01*
X175132857Y-125220952D01*
X175751904Y-124792380D02*
X175751904Y-125030476D01*
X175513809Y-124935238D02*
X175751904Y-125030476D01*
X175990000Y-124935238D01*
X175609047Y-125220952D02*
X175751904Y-125030476D01*
X175894761Y-125220952D01*
X137096666Y-125792380D02*
X136763333Y-125316190D01*
X136525238Y-125792380D02*
X136525238Y-124792380D01*
X136906190Y-124792380D01*
X137001428Y-124840000D01*
X137049047Y-124887619D01*
X137096666Y-124982857D01*
X137096666Y-125125714D01*
X137049047Y-125220952D01*
X137001428Y-125268571D01*
X136906190Y-125316190D01*
X136525238Y-125316190D01*
X137525238Y-125268571D02*
X137858571Y-125268571D01*
X138001428Y-125792380D02*
X137525238Y-125792380D01*
X137525238Y-124792380D01*
X138001428Y-124792380D01*
X138763333Y-125268571D02*
X138430000Y-125268571D01*
X138430000Y-125792380D02*
X138430000Y-124792380D01*
X138906190Y-124792380D01*
X139430000Y-124792380D02*
X139430000Y-125030476D01*
X139191904Y-124935238D02*
X139430000Y-125030476D01*
X139668095Y-124935238D01*
X139287142Y-125220952D02*
X139430000Y-125030476D01*
X139572857Y-125220952D01*
X140191904Y-124792380D02*
X140191904Y-125030476D01*
X139953809Y-124935238D02*
X140191904Y-125030476D01*
X140430000Y-124935238D01*
X140049047Y-125220952D02*
X140191904Y-125030476D01*
X140334761Y-125220952D01*
G04 #@! TO.C,J2*
X141331666Y-107132380D02*
X141331666Y-107846666D01*
X141284047Y-107989523D01*
X141188809Y-108084761D01*
X141045952Y-108132380D01*
X140950714Y-108132380D01*
X141760238Y-107227619D02*
X141807857Y-107180000D01*
X141903095Y-107132380D01*
X142141190Y-107132380D01*
X142236428Y-107180000D01*
X142284047Y-107227619D01*
X142331666Y-107322857D01*
X142331666Y-107418095D01*
X142284047Y-107560952D01*
X141712619Y-108132380D01*
X142331666Y-108132380D01*
G04 #@! TO.C,R1*
X161123333Y-112442380D02*
X160790000Y-111966190D01*
X160551904Y-112442380D02*
X160551904Y-111442380D01*
X160932857Y-111442380D01*
X161028095Y-111490000D01*
X161075714Y-111537619D01*
X161123333Y-111632857D01*
X161123333Y-111775714D01*
X161075714Y-111870952D01*
X161028095Y-111918571D01*
X160932857Y-111966190D01*
X160551904Y-111966190D01*
X162075714Y-112442380D02*
X161504285Y-112442380D01*
X161790000Y-112442380D02*
X161790000Y-111442380D01*
X161694761Y-111585238D01*
X161599523Y-111680476D01*
X161504285Y-111728095D01*
G04 #@! TO.C,R2*
X172132380Y-103036666D02*
X171656190Y-103370000D01*
X172132380Y-103608095D02*
X171132380Y-103608095D01*
X171132380Y-103227142D01*
X171180000Y-103131904D01*
X171227619Y-103084285D01*
X171322857Y-103036666D01*
X171465714Y-103036666D01*
X171560952Y-103084285D01*
X171608571Y-103131904D01*
X171656190Y-103227142D01*
X171656190Y-103608095D01*
X171227619Y-102655714D02*
X171180000Y-102608095D01*
X171132380Y-102512857D01*
X171132380Y-102274761D01*
X171180000Y-102179523D01*
X171227619Y-102131904D01*
X171322857Y-102084285D01*
X171418095Y-102084285D01*
X171560952Y-102131904D01*
X172132380Y-102703333D01*
X172132380Y-102084285D01*
G04 #@! TO.C,R3*
X168322380Y-104306666D02*
X167846190Y-104640000D01*
X168322380Y-104878095D02*
X167322380Y-104878095D01*
X167322380Y-104497142D01*
X167370000Y-104401904D01*
X167417619Y-104354285D01*
X167512857Y-104306666D01*
X167655714Y-104306666D01*
X167750952Y-104354285D01*
X167798571Y-104401904D01*
X167846190Y-104497142D01*
X167846190Y-104878095D01*
X167322380Y-103973333D02*
X167322380Y-103354285D01*
X167703333Y-103687619D01*
X167703333Y-103544761D01*
X167750952Y-103449523D01*
X167798571Y-103401904D01*
X167893809Y-103354285D01*
X168131904Y-103354285D01*
X168227142Y-103401904D01*
X168274761Y-103449523D01*
X168322380Y-103544761D01*
X168322380Y-103830476D01*
X168274761Y-103925714D01*
X168227142Y-103973333D01*
G04 #@! TO.C,R4*
X164512380Y-105576666D02*
X164036190Y-105910000D01*
X164512380Y-106148095D02*
X163512380Y-106148095D01*
X163512380Y-105767142D01*
X163560000Y-105671904D01*
X163607619Y-105624285D01*
X163702857Y-105576666D01*
X163845714Y-105576666D01*
X163940952Y-105624285D01*
X163988571Y-105671904D01*
X164036190Y-105767142D01*
X164036190Y-106148095D01*
X163845714Y-104719523D02*
X164512380Y-104719523D01*
X163464761Y-104957619D02*
X164179047Y-105195714D01*
X164179047Y-104576666D01*
G04 #@! TO.C,SW1*
X155436666Y-111624761D02*
X155579523Y-111672380D01*
X155817619Y-111672380D01*
X155912857Y-111624761D01*
X155960476Y-111577142D01*
X156008095Y-111481904D01*
X156008095Y-111386666D01*
X155960476Y-111291428D01*
X155912857Y-111243809D01*
X155817619Y-111196190D01*
X155627142Y-111148571D01*
X155531904Y-111100952D01*
X155484285Y-111053333D01*
X155436666Y-110958095D01*
X155436666Y-110862857D01*
X155484285Y-110767619D01*
X155531904Y-110720000D01*
X155627142Y-110672380D01*
X155865238Y-110672380D01*
X156008095Y-110720000D01*
X156341428Y-110672380D02*
X156579523Y-111672380D01*
X156770000Y-110958095D01*
X156960476Y-111672380D01*
X157198571Y-110672380D01*
X158103333Y-111672380D02*
X157531904Y-111672380D01*
X157817619Y-111672380D02*
X157817619Y-110672380D01*
X157722380Y-110815238D01*
X157627142Y-110910476D01*
X157531904Y-110958095D01*
G04 #@! TO.C,D1*
X164361904Y-92742380D02*
X164361904Y-91742380D01*
X164600000Y-91742380D01*
X164742857Y-91790000D01*
X164838095Y-91885238D01*
X164885714Y-91980476D01*
X164933333Y-92170952D01*
X164933333Y-92313809D01*
X164885714Y-92504285D01*
X164838095Y-92599523D01*
X164742857Y-92694761D01*
X164600000Y-92742380D01*
X164361904Y-92742380D01*
X165885714Y-92742380D02*
X165314285Y-92742380D01*
X165600000Y-92742380D02*
X165600000Y-91742380D01*
X165504761Y-91885238D01*
X165409523Y-91980476D01*
X165314285Y-92028095D01*
G04 #@! TO.C,D2*
X155471904Y-92742380D02*
X155471904Y-91742380D01*
X155710000Y-91742380D01*
X155852857Y-91790000D01*
X155948095Y-91885238D01*
X155995714Y-91980476D01*
X156043333Y-92170952D01*
X156043333Y-92313809D01*
X155995714Y-92504285D01*
X155948095Y-92599523D01*
X155852857Y-92694761D01*
X155710000Y-92742380D01*
X155471904Y-92742380D01*
X156424285Y-91837619D02*
X156471904Y-91790000D01*
X156567142Y-91742380D01*
X156805238Y-91742380D01*
X156900476Y-91790000D01*
X156948095Y-91837619D01*
X156995714Y-91932857D01*
X156995714Y-92028095D01*
X156948095Y-92170952D01*
X156376666Y-92742380D01*
X156995714Y-92742380D01*
G04 #@! TO.C,D3*
X146581904Y-92742380D02*
X146581904Y-91742380D01*
X146820000Y-91742380D01*
X146962857Y-91790000D01*
X147058095Y-91885238D01*
X147105714Y-91980476D01*
X147153333Y-92170952D01*
X147153333Y-92313809D01*
X147105714Y-92504285D01*
X147058095Y-92599523D01*
X146962857Y-92694761D01*
X146820000Y-92742380D01*
X146581904Y-92742380D01*
X147486666Y-91742380D02*
X148105714Y-91742380D01*
X147772380Y-92123333D01*
X147915238Y-92123333D01*
X148010476Y-92170952D01*
X148058095Y-92218571D01*
X148105714Y-92313809D01*
X148105714Y-92551904D01*
X148058095Y-92647142D01*
X148010476Y-92694761D01*
X147915238Y-92742380D01*
X147629523Y-92742380D01*
X147534285Y-92694761D01*
X147486666Y-92647142D01*
G04 #@! TD*
M02*
