solid OpenSCAD_Model
  facet normal 0.996917 0.0784592 0
    outer loop
      vertex 7 0 1
      vertex 6.91382 1.09504 0
      vertex 6.91382 1.09504 1
    endloop
  endfacet
  facet normal 0.996917 0.0784592 0
    outer loop
      vertex 6.91382 1.09504 0
      vertex 7 0 1
      vertex 7 0 0
    endloop
  endfacet
  facet normal -0.996917 0.0784592 0
    outer loop
      vertex -7 0 0
      vertex -6.91382 1.09504 1
      vertex -6.91382 1.09504 0
    endloop
  endfacet
  facet normal -0.996917 0.0784592 0
    outer loop
      vertex -6.91382 1.09504 1
      vertex -7 0 0
      vertex -7 0 1
    endloop
  endfacet
  facet normal 0.0784592 0.996917 -0
    outer loop
      vertex 1.09504 6.91382 0
      vertex 0 7 1
      vertex 1.09504 6.91382 1
    endloop
  endfacet
  facet normal 0.0784592 0.996917 0
    outer loop
      vertex 0 7 1
      vertex 1.09504 6.91382 0
      vertex 0 7 0
    endloop
  endfacet
  facet normal -0.0784592 -0.996917 0
    outer loop
      vertex -1.09504 -6.91382 0
      vertex 0 -7 1
      vertex -1.09504 -6.91382 1
    endloop
  endfacet
  facet normal -0.0784592 -0.996917 -0
    outer loop
      vertex 0 -7 1
      vertex -1.09504 -6.91382 0
      vertex 0 -7 0
    endloop
  endfacet
  facet normal -0.760406 -0.649448 0
    outer loop
      vertex -4.94975 -4.94975 0
      vertex -5.66312 -4.1145 1
      vertex -5.66312 -4.1145 0
    endloop
  endfacet
  facet normal -0.760406 -0.649448 0
    outer loop
      vertex -5.66312 -4.1145 1
      vertex -4.94975 -4.94975 0
      vertex -4.94975 -4.94975 1
    endloop
  endfacet
  facet normal 0.760406 0.649448 0
    outer loop
      vertex 5.66312 4.1145 1
      vertex 4.94975 4.94975 0
      vertex 4.94975 4.94975 1
    endloop
  endfacet
  facet normal 0.760406 0.649448 0
    outer loop
      vertex 4.94975 4.94975 0
      vertex 5.66312 4.1145 1
      vertex 5.66312 4.1145 0
    endloop
  endfacet
  facet normal -0.649448 0.760406 0
    outer loop
      vertex -4.1145 5.66312 0
      vertex -4.94975 4.94975 1
      vertex -4.1145 5.66312 1
    endloop
  endfacet
  facet normal -0.649448 0.760406 0
    outer loop
      vertex -4.94975 4.94975 1
      vertex -4.1145 5.66312 0
      vertex -4.94975 4.94975 0
    endloop
  endfacet
  facet normal -0.233445 0.97237 0
    outer loop
      vertex -1.09504 6.91382 0
      vertex -2.16312 6.6574 1
      vertex -1.09504 6.91382 1
    endloop
  endfacet
  facet normal -0.233445 0.97237 0
    outer loop
      vertex -2.16312 6.6574 1
      vertex -1.09504 6.91382 0
      vertex -2.16312 6.6574 0
    endloop
  endfacet
  facet normal 0 0 -1
    outer loop
      vertex 6.91382 -1.09504 0
      vertex 6.91382 1.09504 0
      vertex 7 0 0
    endloop
  endfacet
  facet normal 0 0 -1
    outer loop
      vertex 6.6574 -2.16312 0
      vertex 6.91382 1.09504 0
      vertex 6.91382 -1.09504 0
    endloop
  endfacet
  facet normal 0 0 -1
    outer loop
      vertex 6.6574 -2.16312 0
      vertex 6.6574 2.16312 0
      vertex 6.91382 1.09504 0
    endloop
  endfacet
  facet normal 0 0 -1
    outer loop
      vertex 6.23705 -3.17793 0
      vertex 6.6574 2.16312 0
      vertex 6.6574 -2.16312 0
    endloop
  endfacet
  facet normal 0 0 -1
    outer loop
      vertex 6.23705 -3.17793 0
      vertex 6.23705 3.17793 0
      vertex 6.6574 2.16312 0
    endloop
  endfacet
  facet normal 0 0 -1
    outer loop
      vertex 5.66312 -4.1145 0
      vertex 6.23705 3.17793 0
      vertex 6.23705 -3.17793 0
    endloop
  endfacet
  facet normal 0 0 -1
    outer loop
      vertex 5.66312 -4.1145 0
      vertex 5.66312 4.1145 0
      vertex 6.23705 3.17793 0
    endloop
  endfacet
  facet normal 0 0 -1
    outer loop
      vertex 4.94975 -4.94975 0
      vertex 5.66312 4.1145 0
      vertex 5.66312 -4.1145 0
    endloop
  endfacet
  facet normal 0 0 -1
    outer loop
      vertex 4.94975 -4.94975 0
      vertex 4.94975 4.94975 0
      vertex 5.66312 4.1145 0
    endloop
  endfacet
  facet normal 0 0 -1
    outer loop
      vertex 4.1145 -5.66312 0
      vertex 4.94975 4.94975 0
      vertex 4.94975 -4.94975 0
    endloop
  endfacet
  facet normal 0 0 -1
    outer loop
      vertex 4.1145 -5.66312 0
      vertex 4.1145 5.66312 0
      vertex 4.94975 4.94975 0
    endloop
  endfacet
  facet normal 0 0 -1
    outer loop
      vertex 3.17793 -6.23705 0
      vertex 4.1145 5.66312 0
      vertex 4.1145 -5.66312 0
    endloop
  endfacet
  facet normal 0 0 -1
    outer loop
      vertex 3.17793 -6.23705 0
      vertex 3.17793 6.23705 0
      vertex 4.1145 5.66312 0
    endloop
  endfacet
  facet normal 0 0 -1
    outer loop
      vertex 2.16312 -6.6574 0
      vertex 3.17793 6.23705 0
      vertex 3.17793 -6.23705 0
    endloop
  endfacet
  facet normal 0 0 -1
    outer loop
      vertex 2.16312 -6.6574 0
      vertex 2.16312 6.6574 0
      vertex 3.17793 6.23705 0
    endloop
  endfacet
  facet normal 0 0 -1
    outer loop
      vertex 1.09504 -6.91382 0
      vertex 2.16312 6.6574 0
      vertex 2.16312 -6.6574 0
    endloop
  endfacet
  facet normal 0 0 -1
    outer loop
      vertex 1.09504 -6.91382 0
      vertex 1.09504 6.91382 0
      vertex 2.16312 6.6574 0
    endloop
  endfacet
  facet normal 0 0 -1
    outer loop
      vertex 0 -7 0
      vertex 1.09504 6.91382 0
      vertex 1.09504 -6.91382 0
    endloop
  endfacet
  facet normal 0 0 -1
    outer loop
      vertex 0 -7 0
      vertex 0 7 0
      vertex 1.09504 6.91382 0
    endloop
  endfacet
  facet normal 0 0 -1
    outer loop
      vertex -1.09504 -6.91382 0
      vertex 0 7 0
      vertex 0 -7 0
    endloop
  endfacet
  facet normal 0 0 -1
    outer loop
      vertex -1.09504 -6.91382 0
      vertex -1.09504 6.91382 0
      vertex 0 7 0
    endloop
  endfacet
  facet normal 0 0 -1
    outer loop
      vertex -2.16312 -6.6574 0
      vertex -1.09504 6.91382 0
      vertex -1.09504 -6.91382 0
    endloop
  endfacet
  facet normal 0 0 -1
    outer loop
      vertex -2.16312 -6.6574 0
      vertex -2.16312 6.6574 0
      vertex -1.09504 6.91382 0
    endloop
  endfacet
  facet normal 0 0 -1
    outer loop
      vertex -3.17793 -6.23705 0
      vertex -2.16312 6.6574 0
      vertex -2.16312 -6.6574 0
    endloop
  endfacet
  facet normal 0 0 -1
    outer loop
      vertex -3.17793 -6.23705 0
      vertex -3.17793 6.23705 0
      vertex -2.16312 6.6574 0
    endloop
  endfacet
  facet normal 0 0 -1
    outer loop
      vertex -4.1145 -5.66312 0
      vertex -3.17793 6.23705 0
      vertex -3.17793 -6.23705 0
    endloop
  endfacet
  facet normal 0 0 -1
    outer loop
      vertex -4.1145 -5.66312 0
      vertex -4.1145 5.66312 0
      vertex -3.17793 6.23705 0
    endloop
  endfacet
  facet normal 0 0 -1
    outer loop
      vertex -4.94975 -4.94975 0
      vertex -4.1145 5.66312 0
      vertex -4.1145 -5.66312 0
    endloop
  endfacet
  facet normal 0 0 -1
    outer loop
      vertex -4.94975 -4.94975 0
      vertex -4.94975 4.94975 0
      vertex -4.1145 5.66312 0
    endloop
  endfacet
  facet normal 0 0 -1
    outer loop
      vertex -5.66312 -4.1145 0
      vertex -4.94975 4.94975 0
      vertex -4.94975 -4.94975 0
    endloop
  endfacet
  facet normal 0 0 -1
    outer loop
      vertex -5.66312 -4.1145 0
      vertex -5.66312 4.1145 0
      vertex -4.94975 4.94975 0
    endloop
  endfacet
  facet normal 0 0 -1
    outer loop
      vertex -6.23705 -3.17793 0
      vertex -5.66312 4.1145 0
      vertex -5.66312 -4.1145 0
    endloop
  endfacet
  facet normal 0 0 -1
    outer loop
      vertex -6.23705 -3.17793 0
      vertex -6.23705 3.17793 0
      vertex -5.66312 4.1145 0
    endloop
  endfacet
  facet normal 0 0 -1
    outer loop
      vertex -6.6574 -2.16312 0
      vertex -6.23705 3.17793 0
      vertex -6.23705 -3.17793 0
    endloop
  endfacet
  facet normal 0 0 -1
    outer loop
      vertex -6.6574 -2.16312 0
      vertex -6.6574 2.16312 0
      vertex -6.23705 3.17793 0
    endloop
  endfacet
  facet normal 0 0 -1
    outer loop
      vertex -6.91382 -1.09504 0
      vertex -6.6574 2.16312 0
      vertex -6.6574 -2.16312 0
    endloop
  endfacet
  facet normal 0 0 -1
    outer loop
      vertex -6.91382 -1.09504 0
      vertex -6.91382 1.09504 0
      vertex -6.6574 2.16312 0
    endloop
  endfacet
  facet normal 0 -0 -1
    outer loop
      vertex -6.91382 1.09504 0
      vertex -6.91382 -1.09504 0
      vertex -7 0 0
    endloop
  endfacet
  facet normal 0.923879 0.382684 0
    outer loop
      vertex 6.6574 2.16312 1
      vertex 6.23705 3.17793 0
      vertex 6.23705 3.17793 1
    endloop
  endfacet
  facet normal 0.923879 0.382684 0
    outer loop
      vertex 6.23705 3.17793 0
      vertex 6.6574 2.16312 1
      vertex 6.6574 2.16312 0
    endloop
  endfacet
  facet normal 0.97237 0.233445 0
    outer loop
      vertex 6.91382 1.09504 1
      vertex 6.6574 2.16312 0
      vertex 6.6574 2.16312 1
    endloop
  endfacet
  facet normal 0.97237 0.233445 0
    outer loop
      vertex 6.6574 2.16312 0
      vertex 6.91382 1.09504 1
      vertex 6.91382 1.09504 0
    endloop
  endfacet
  facet normal 0.85264 0.522499 0
    outer loop
      vertex 6.23705 3.17793 1
      vertex 5.66312 4.1145 0
      vertex 5.66312 4.1145 1
    endloop
  endfacet
  facet normal 0.85264 0.522499 0
    outer loop
      vertex 5.66312 4.1145 0
      vertex 6.23705 3.17793 1
      vertex 6.23705 3.17793 0
    endloop
  endfacet
  facet normal 0.382684 0.923879 -0
    outer loop
      vertex 3.17793 6.23705 0
      vertex 2.16312 6.6574 1
      vertex 3.17793 6.23705 1
    endloop
  endfacet
  facet normal 0.382684 0.923879 0
    outer loop
      vertex 2.16312 6.6574 1
      vertex 3.17793 6.23705 0
      vertex 2.16312 6.6574 0
    endloop
  endfacet
  facet normal 0.233445 0.97237 -0
    outer loop
      vertex 2.16312 6.6574 0
      vertex 1.09504 6.91382 1
      vertex 2.16312 6.6574 1
    endloop
  endfacet
  facet normal 0.233445 0.97237 0
    outer loop
      vertex 1.09504 6.91382 1
      vertex 2.16312 6.6574 0
      vertex 1.09504 6.91382 0
    endloop
  endfacet
  facet normal 0.522499 0.85264 -0
    outer loop
      vertex 4.1145 5.66312 0
      vertex 3.17793 6.23705 1
      vertex 4.1145 5.66312 1
    endloop
  endfacet
  facet normal 0.522499 0.85264 0
    outer loop
      vertex 3.17793 6.23705 1
      vertex 4.1145 5.66312 0
      vertex 3.17793 6.23705 0
    endloop
  endfacet
  facet normal -0.923879 0.382684 0
    outer loop
      vertex -6.6574 2.16312 0
      vertex -6.23705 3.17793 1
      vertex -6.23705 3.17793 0
    endloop
  endfacet
  facet normal -0.923879 0.382684 0
    outer loop
      vertex -6.23705 3.17793 1
      vertex -6.6574 2.16312 0
      vertex -6.6574 2.16312 1
    endloop
  endfacet
  facet normal -0.97237 0.233445 0
    outer loop
      vertex -6.91382 1.09504 0
      vertex -6.6574 2.16312 1
      vertex -6.6574 2.16312 0
    endloop
  endfacet
  facet normal -0.97237 0.233445 0
    outer loop
      vertex -6.6574 2.16312 1
      vertex -6.91382 1.09504 0
      vertex -6.91382 1.09504 1
    endloop
  endfacet
  facet normal 0 0 1
    outer loop
      vertex 5 0 1
      vertex 7 0 1
      vertex 6.91382 1.09504 1
    endloop
  endfacet
  facet normal 0 0 1
    outer loop
      vertex 4.93844 0.782172 1
      vertex 6.91382 1.09504 1
      vertex 6.6574 2.16312 1
    endloop
  endfacet
  facet normal 0 0 1
    outer loop
      vertex 7 0 1
      vertex 5 0 1
      vertex 6.91382 -1.09504 1
    endloop
  endfacet
  facet normal 0 0 1
    outer loop
      vertex 4.75528 1.54508 1
      vertex 6.6574 2.16312 1
      vertex 6.23705 3.17793 1
    endloop
  endfacet
  facet normal -0 0 1
    outer loop
      vertex 4.93844 -0.782172 1
      vertex 6.91382 -1.09504 1
      vertex 5 0 1
    endloop
  endfacet
  facet normal 0 0 1
    outer loop
      vertex 4.45503 2.26995 1
      vertex 6.23705 3.17793 1
      vertex 5.66312 4.1145 1
    endloop
  endfacet
  facet normal 0 0 1
    outer loop
      vertex 6.91382 -1.09504 1
      vertex 4.93844 -0.782172 1
      vertex 6.6574 -2.16312 1
    endloop
  endfacet
  facet normal -0 0 1
    outer loop
      vertex 4.75528 -1.54508 1
      vertex 6.6574 -2.16312 1
      vertex 4.93844 -0.782172 1
    endloop
  endfacet
  facet normal 0 0 1
    outer loop
      vertex 4.04508 2.93893 1
      vertex 5.66312 4.1145 1
      vertex 4.94975 4.94975 1
    endloop
  endfacet
  facet normal 0 0 1
    outer loop
      vertex 6.91382 1.09504 1
      vertex 4.93844 0.782172 1
      vertex 5 0 1
    endloop
  endfacet
  facet normal 0 0 1
    outer loop
      vertex 6.6574 2.16312 1
      vertex 4.75528 1.54508 1
      vertex 4.93844 0.782172 1
    endloop
  endfacet
  facet normal 0 0 1
    outer loop
      vertex 6.23705 3.17793 1
      vertex 4.45503 2.26995 1
      vertex 4.75528 1.54508 1
    endloop
  endfacet
  facet normal 0 0 1
    outer loop
      vertex 3.53553 3.53553 1
      vertex 4.94975 4.94975 1
      vertex 4.1145 5.66312 1
    endloop
  endfacet
  facet normal 0 0 1
    outer loop
      vertex 5.66312 4.1145 1
      vertex 4.04508 2.93893 1
      vertex 4.45503 2.26995 1
    endloop
  endfacet
  facet normal 0 0 1
    outer loop
      vertex 4.94975 4.94975 1
      vertex 3.53553 3.53553 1
      vertex 4.04508 2.93893 1
    endloop
  endfacet
  facet normal 0 0 1
    outer loop
      vertex 2.93893 4.04508 1
      vertex 4.1145 5.66312 1
      vertex 3.17793 6.23705 1
    endloop
  endfacet
  facet normal 0 0 1
    outer loop
      vertex 4.1145 5.66312 1
      vertex 2.93893 4.04508 1
      vertex 3.53553 3.53553 1
    endloop
  endfacet
  facet normal 0 0 1
    outer loop
      vertex 3.17793 6.23705 1
      vertex 2.26995 4.45503 1
      vertex 2.93893 4.04508 1
    endloop
  endfacet
  facet normal 0 0 1
    outer loop
      vertex 2.16312 6.6574 1
      vertex 2.26995 4.45503 1
      vertex 3.17793 6.23705 1
    endloop
  endfacet
  facet normal 0 0 1
    outer loop
      vertex 2.16312 6.6574 1
      vertex 1.54508 4.75528 1
      vertex 2.26995 4.45503 1
    endloop
  endfacet
  facet normal 0 0 1
    outer loop
      vertex 1.09504 6.91382 1
      vertex 1.54508 4.75528 1
      vertex 2.16312 6.6574 1
    endloop
  endfacet
  facet normal 0 0 1
    outer loop
      vertex 1.09504 6.91382 1
      vertex 0.782172 4.93844 1
      vertex 1.54508 4.75528 1
    endloop
  endfacet
  facet normal 0 0 1
    outer loop
      vertex 0 7 1
      vertex 0.782172 4.93844 1
      vertex 1.09504 6.91382 1
    endloop
  endfacet
  facet normal 0 0 1
    outer loop
      vertex 0 7 1
      vertex 0 5 1
      vertex 0.782172 4.93844 1
    endloop
  endfacet
  facet normal 0 0 1
    outer loop
      vertex 0 7 1
      vertex -0.782172 4.93844 1
      vertex 0 5 1
    endloop
  endfacet
  facet normal -0 0 1
    outer loop
      vertex -1.09504 6.91382 1
      vertex -0.782172 4.93844 1
      vertex 0 7 1
    endloop
  endfacet
  facet normal 0 0 1
    outer loop
      vertex -1.09504 6.91382 1
      vertex -1.54508 4.75528 1
      vertex -0.782172 4.93844 1
    endloop
  endfacet
  facet normal -0 0 1
    outer loop
      vertex -2.16312 6.6574 1
      vertex -1.54508 4.75528 1
      vertex -1.09504 6.91382 1
    endloop
  endfacet
  facet normal 0 0 1
    outer loop
      vertex -2.16312 6.6574 1
      vertex -2.26995 4.45503 1
      vertex -1.54508 4.75528 1
    endloop
  endfacet
  facet normal -0 0 1
    outer loop
      vertex -3.17793 6.23705 1
      vertex -2.26995 4.45503 1
      vertex -2.16312 6.6574 1
    endloop
  endfacet
  facet normal 0 0 1
    outer loop
      vertex -2.26995 4.45503 1
      vertex -3.17793 6.23705 1
      vertex -2.93893 4.04508 1
    endloop
  endfacet
  facet normal -0 0 1
    outer loop
      vertex -4.1145 5.66312 1
      vertex -2.93893 4.04508 1
      vertex -3.17793 6.23705 1
    endloop
  endfacet
  facet normal 0 0 1
    outer loop
      vertex -2.93893 4.04508 1
      vertex -4.1145 5.66312 1
      vertex -3.53553 3.53553 1
    endloop
  endfacet
  facet normal -0 0 1
    outer loop
      vertex -4.94975 4.94975 1
      vertex -3.53553 3.53553 1
      vertex -4.1145 5.66312 1
    endloop
  endfacet
  facet normal 0 0 1
    outer loop
      vertex -3.53553 3.53553 1
      vertex -4.94975 4.94975 1
      vertex -4.04508 2.93893 1
    endloop
  endfacet
  facet normal -0 0 1
    outer loop
      vertex -5.66312 4.1145 1
      vertex -4.04508 2.93893 1
      vertex -4.94975 4.94975 1
    endloop
  endfacet
  facet normal 0 0 1
    outer loop
      vertex -4.04508 2.93893 1
      vertex -5.66312 4.1145 1
      vertex -4.45503 2.26995 1
    endloop
  endfacet
  facet normal -0 0 1
    outer loop
      vertex -6.23705 3.17793 1
      vertex -4.45503 2.26995 1
      vertex -5.66312 4.1145 1
    endloop
  endfacet
  facet normal 0 0 1
    outer loop
      vertex -4.45503 2.26995 1
      vertex -6.23705 3.17793 1
      vertex -4.75528 1.54508 1
    endloop
  endfacet
  facet normal -0 0 1
    outer loop
      vertex -6.6574 2.16312 1
      vertex -4.75528 1.54508 1
      vertex -6.23705 3.17793 1
    endloop
  endfacet
  facet normal 0 0 1
    outer loop
      vertex 6.6574 -2.16312 1
      vertex 4.75528 -1.54508 1
      vertex 6.23705 -3.17793 1
    endloop
  endfacet
  facet normal -0 0 1
    outer loop
      vertex 4.45503 -2.26995 1
      vertex 6.23705 -3.17793 1
      vertex 4.75528 -1.54508 1
    endloop
  endfacet
  facet normal 0 0 1
    outer loop
      vertex 6.23705 -3.17793 1
      vertex 4.45503 -2.26995 1
      vertex 5.66312 -4.1145 1
    endloop
  endfacet
  facet normal -0 0 1
    outer loop
      vertex 4.04508 -2.93893 1
      vertex 5.66312 -4.1145 1
      vertex 4.45503 -2.26995 1
    endloop
  endfacet
  facet normal 0 0 1
    outer loop
      vertex 5.66312 -4.1145 1
      vertex 4.04508 -2.93893 1
      vertex 4.94975 -4.94975 1
    endloop
  endfacet
  facet normal -0 0 1
    outer loop
      vertex 3.53553 -3.53553 1
      vertex 4.94975 -4.94975 1
      vertex 4.04508 -2.93893 1
    endloop
  endfacet
  facet normal 0 0 1
    outer loop
      vertex 4.94975 -4.94975 1
      vertex 3.53553 -3.53553 1
      vertex 4.1145 -5.66312 1
    endloop
  endfacet
  facet normal -0 0 1
    outer loop
      vertex 2.93893 -4.04508 1
      vertex 4.1145 -5.66312 1
      vertex 3.53553 -3.53553 1
    endloop
  endfacet
  facet normal 0 0 1
    outer loop
      vertex 4.1145 -5.66312 1
      vertex 2.93893 -4.04508 1
      vertex 3.17793 -6.23705 1
    endloop
  endfacet
  facet normal -0 0 1
    outer loop
      vertex 2.26995 -4.45503 1
      vertex 3.17793 -6.23705 1
      vertex 2.93893 -4.04508 1
    endloop
  endfacet
  facet normal 0 0 1
    outer loop
      vertex 2.26995 -4.45503 1
      vertex 2.16312 -6.6574 1
      vertex 3.17793 -6.23705 1
    endloop
  endfacet
  facet normal -0 0 1
    outer loop
      vertex 1.54508 -4.75528 1
      vertex 2.16312 -6.6574 1
      vertex 2.26995 -4.45503 1
    endloop
  endfacet
  facet normal 0 0 1
    outer loop
      vertex 1.54508 -4.75528 1
      vertex 1.09504 -6.91382 1
      vertex 2.16312 -6.6574 1
    endloop
  endfacet
  facet normal -0 0 1
    outer loop
      vertex 0.782172 -4.93844 1
      vertex 1.09504 -6.91382 1
      vertex 1.54508 -4.75528 1
    endloop
  endfacet
  facet normal -0 0 1
    outer loop
      vertex 0 -5 1
      vertex 1.09504 -6.91382 1
      vertex 0.782172 -4.93844 1
    endloop
  endfacet
  facet normal 0 0 1
    outer loop
      vertex 0 -5 1
      vertex 0 -7 1
      vertex 1.09504 -6.91382 1
    endloop
  endfacet
  facet normal 0 0 1
    outer loop
      vertex -0.782172 -4.93844 1
      vertex 0 -7 1
      vertex 0 -5 1
    endloop
  endfacet
  facet normal 0 0 1
    outer loop
      vertex -0.782172 -4.93844 1
      vertex -1.09504 -6.91382 1
      vertex 0 -7 1
    endloop
  endfacet
  facet normal 0 0 1
    outer loop
      vertex -1.54508 -4.75528 1
      vertex -1.09504 -6.91382 1
      vertex -0.782172 -4.93844 1
    endloop
  endfacet
  facet normal 0 0 1
    outer loop
      vertex -1.54508 -4.75528 1
      vertex -2.16312 -6.6574 1
      vertex -1.09504 -6.91382 1
    endloop
  endfacet
  facet normal 0 0 1
    outer loop
      vertex -2.26995 -4.45503 1
      vertex -2.16312 -6.6574 1
      vertex -1.54508 -4.75528 1
    endloop
  endfacet
  facet normal 0 0 1
    outer loop
      vertex -3.17793 -6.23705 1
      vertex -2.26995 -4.45503 1
      vertex -2.93893 -4.04508 1
    endloop
  endfacet
  facet normal 0 0 1
    outer loop
      vertex -2.26995 -4.45503 1
      vertex -3.17793 -6.23705 1
      vertex -2.16312 -6.6574 1
    endloop
  endfacet
  facet normal 0 0 1
    outer loop
      vertex -4.1145 -5.66312 1
      vertex -2.93893 -4.04508 1
      vertex -3.53553 -3.53553 1
    endloop
  endfacet
  facet normal 0 0 1
    outer loop
      vertex -4.94975 -4.94975 1
      vertex -3.53553 -3.53553 1
      vertex -4.04508 -2.93893 1
    endloop
  endfacet
  facet normal 0 0 1
    outer loop
      vertex -2.93893 -4.04508 1
      vertex -4.1145 -5.66312 1
      vertex -3.17793 -6.23705 1
    endloop
  endfacet
  facet normal 0 0 1
    outer loop
      vertex -5.66312 -4.1145 1
      vertex -4.04508 -2.93893 1
      vertex -4.45503 -2.26995 1
    endloop
  endfacet
  facet normal 0 0 1
    outer loop
      vertex -6.23705 -3.17793 1
      vertex -4.45503 -2.26995 1
      vertex -4.75528 -1.54508 1
    endloop
  endfacet
  facet normal 0 0 1
    outer loop
      vertex -6.6574 -2.16312 1
      vertex -4.75528 -1.54508 1
      vertex -4.93844 -0.782172 1
    endloop
  endfacet
  facet normal 0 0 1
    outer loop
      vertex -3.53553 -3.53553 1
      vertex -4.94975 -4.94975 1
      vertex -4.1145 -5.66312 1
    endloop
  endfacet
  facet normal 0 0 1
    outer loop
      vertex -6.91382 -1.09504 1
      vertex -4.93844 -0.782172 1
      vertex -5 0 1
    endloop
  endfacet
  facet normal 0 0 1
    outer loop
      vertex -4.75528 1.54508 1
      vertex -6.6574 2.16312 1
      vertex -4.93844 0.782172 1
    endloop
  endfacet
  facet normal 0 0 1
    outer loop
      vertex -4.04508 -2.93893 1
      vertex -5.66312 -4.1145 1
      vertex -4.94975 -4.94975 1
    endloop
  endfacet
  facet normal -0 0 1
    outer loop
      vertex -6.91382 1.09504 1
      vertex -4.93844 0.782172 1
      vertex -6.6574 2.16312 1
    endloop
  endfacet
  facet normal 0 0 1
    outer loop
      vertex -4.45503 -2.26995 1
      vertex -6.23705 -3.17793 1
      vertex -5.66312 -4.1145 1
    endloop
  endfacet
  facet normal 0 0 1
    outer loop
      vertex -4.93844 0.782172 1
      vertex -6.91382 1.09504 1
      vertex -5 0 1
    endloop
  endfacet
  facet normal 0 0 1
    outer loop
      vertex -4.75528 -1.54508 1
      vertex -6.6574 -2.16312 1
      vertex -6.23705 -3.17793 1
    endloop
  endfacet
  facet normal 0 0 1
    outer loop
      vertex -7 0 1
      vertex -5 0 1
      vertex -6.91382 1.09504 1
    endloop
  endfacet
  facet normal 0 0 1
    outer loop
      vertex -4.93844 -0.782172 1
      vertex -6.91382 -1.09504 1
      vertex -6.6574 -2.16312 1
    endloop
  endfacet
  facet normal 0 0 1
    outer loop
      vertex -5 0 1
      vertex -7 0 1
      vertex -6.91382 -1.09504 1
    endloop
  endfacet
  facet normal -0.382684 0.923879 0
    outer loop
      vertex -2.16312 6.6574 0
      vertex -3.17793 6.23705 1
      vertex -2.16312 6.6574 1
    endloop
  endfacet
  facet normal -0.382684 0.923879 0
    outer loop
      vertex -3.17793 6.23705 1
      vertex -2.16312 6.6574 0
      vertex -3.17793 6.23705 0
    endloop
  endfacet
  facet normal -0.0784592 0.996917 0
    outer loop
      vertex 0 7 0
      vertex -1.09504 6.91382 1
      vertex 0 7 1
    endloop
  endfacet
  facet normal -0.0784592 0.996917 0
    outer loop
      vertex -1.09504 6.91382 1
      vertex 0 7 0
      vertex -1.09504 6.91382 0
    endloop
  endfacet
  facet normal 0.0784592 -0.996917 0
    outer loop
      vertex 0 -7 0
      vertex 1.09504 -6.91382 1
      vertex 0 -7 1
    endloop
  endfacet
  facet normal 0.0784592 -0.996917 0
    outer loop
      vertex 1.09504 -6.91382 1
      vertex 0 -7 0
      vertex 1.09504 -6.91382 0
    endloop
  endfacet
  facet normal 0.382684 -0.923879 0
    outer loop
      vertex 2.16312 -6.6574 0
      vertex 3.17793 -6.23705 1
      vertex 2.16312 -6.6574 1
    endloop
  endfacet
  facet normal 0.382684 -0.923879 0
    outer loop
      vertex 3.17793 -6.23705 1
      vertex 2.16312 -6.6574 0
      vertex 3.17793 -6.23705 0
    endloop
  endfacet
  facet normal 0.97237 -0.233445 0
    outer loop
      vertex 6.6574 -2.16312 1
      vertex 6.91382 -1.09504 0
      vertex 6.91382 -1.09504 1
    endloop
  endfacet
  facet normal 0.97237 -0.233445 0
    outer loop
      vertex 6.91382 -1.09504 0
      vertex 6.6574 -2.16312 1
      vertex 6.6574 -2.16312 0
    endloop
  endfacet
  facet normal -0.233445 -0.97237 0
    outer loop
      vertex -2.16312 -6.6574 0
      vertex -1.09504 -6.91382 1
      vertex -2.16312 -6.6574 1
    endloop
  endfacet
  facet normal -0.233445 -0.97237 -0
    outer loop
      vertex -1.09504 -6.91382 1
      vertex -2.16312 -6.6574 0
      vertex -1.09504 -6.91382 0
    endloop
  endfacet
  facet normal -0.923879 -0.382684 0
    outer loop
      vertex -6.23705 -3.17793 0
      vertex -6.6574 -2.16312 1
      vertex -6.6574 -2.16312 0
    endloop
  endfacet
  facet normal -0.923879 -0.382684 0
    outer loop
      vertex -6.6574 -2.16312 1
      vertex -6.23705 -3.17793 0
      vertex -6.23705 -3.17793 1
    endloop
  endfacet
  facet normal -0.996917 -0.0784592 0
    outer loop
      vertex -6.91382 -1.09504 0
      vertex -7 0 1
      vertex -7 0 0
    endloop
  endfacet
  facet normal -0.996917 -0.0784592 0
    outer loop
      vertex -7 0 1
      vertex -6.91382 -1.09504 0
      vertex -6.91382 -1.09504 1
    endloop
  endfacet
  facet normal 0.649448 0.760406 -0
    outer loop
      vertex 4.94975 4.94975 0
      vertex 4.1145 5.66312 1
      vertex 4.94975 4.94975 1
    endloop
  endfacet
  facet normal 0.649448 0.760406 0
    outer loop
      vertex 4.1145 5.66312 1
      vertex 4.94975 4.94975 0
      vertex 4.1145 5.66312 0
    endloop
  endfacet
  facet normal -0.85264 0.522499 0
    outer loop
      vertex -6.23705 3.17793 0
      vertex -5.66312 4.1145 1
      vertex -5.66312 4.1145 0
    endloop
  endfacet
  facet normal -0.85264 0.522499 0
    outer loop
      vertex -5.66312 4.1145 1
      vertex -6.23705 3.17793 0
      vertex -6.23705 3.17793 1
    endloop
  endfacet
  facet normal -0.760406 0.649448 0
    outer loop
      vertex -5.66312 4.1145 0
      vertex -4.94975 4.94975 1
      vertex -4.94975 4.94975 0
    endloop
  endfacet
  facet normal -0.760406 0.649448 0
    outer loop
      vertex -4.94975 4.94975 1
      vertex -5.66312 4.1145 0
      vertex -5.66312 4.1145 1
    endloop
  endfacet
  facet normal -0.522499 0.85264 0
    outer loop
      vertex -3.17793 6.23705 0
      vertex -4.1145 5.66312 1
      vertex -3.17793 6.23705 1
    endloop
  endfacet
  facet normal -0.522499 0.85264 0
    outer loop
      vertex -4.1145 5.66312 1
      vertex -3.17793 6.23705 0
      vertex -4.1145 5.66312 0
    endloop
  endfacet
  facet normal 0.233445 -0.97237 0
    outer loop
      vertex 1.09504 -6.91382 0
      vertex 2.16312 -6.6574 1
      vertex 1.09504 -6.91382 1
    endloop
  endfacet
  facet normal 0.233445 -0.97237 0
    outer loop
      vertex 2.16312 -6.6574 1
      vertex 1.09504 -6.91382 0
      vertex 2.16312 -6.6574 0
    endloop
  endfacet
  facet normal 0.522499 -0.85264 0
    outer loop
      vertex 3.17793 -6.23705 0
      vertex 4.1145 -5.66312 1
      vertex 3.17793 -6.23705 1
    endloop
  endfacet
  facet normal 0.522499 -0.85264 0
    outer loop
      vertex 4.1145 -5.66312 1
      vertex 3.17793 -6.23705 0
      vertex 4.1145 -5.66312 0
    endloop
  endfacet
  facet normal 0.760406 -0.649448 0
    outer loop
      vertex 4.94975 -4.94975 1
      vertex 5.66312 -4.1145 0
      vertex 5.66312 -4.1145 1
    endloop
  endfacet
  facet normal 0.760406 -0.649448 0
    outer loop
      vertex 5.66312 -4.1145 0
      vertex 4.94975 -4.94975 1
      vertex 4.94975 -4.94975 0
    endloop
  endfacet
  facet normal 0.923879 -0.382684 0
    outer loop
      vertex 6.23705 -3.17793 1
      vertex 6.6574 -2.16312 0
      vertex 6.6574 -2.16312 1
    endloop
  endfacet
  facet normal 0.923879 -0.382684 0
    outer loop
      vertex 6.6574 -2.16312 0
      vertex 6.23705 -3.17793 1
      vertex 6.23705 -3.17793 0
    endloop
  endfacet
  facet normal 0.996917 -0.0784592 0
    outer loop
      vertex 6.91382 -1.09504 1
      vertex 7 0 0
      vertex 7 0 1
    endloop
  endfacet
  facet normal 0.996917 -0.0784592 0
    outer loop
      vertex 7 0 0
      vertex 6.91382 -1.09504 1
      vertex 6.91382 -1.09504 0
    endloop
  endfacet
  facet normal -0.649448 -0.760406 0
    outer loop
      vertex -4.94975 -4.94975 0
      vertex -4.1145 -5.66312 1
      vertex -4.94975 -4.94975 1
    endloop
  endfacet
  facet normal -0.649448 -0.760406 -0
    outer loop
      vertex -4.1145 -5.66312 1
      vertex -4.94975 -4.94975 0
      vertex -4.1145 -5.66312 0
    endloop
  endfacet
  facet normal -0.382684 -0.923879 0
    outer loop
      vertex -3.17793 -6.23705 0
      vertex -2.16312 -6.6574 1
      vertex -3.17793 -6.23705 1
    endloop
  endfacet
  facet normal -0.382684 -0.923879 -0
    outer loop
      vertex -2.16312 -6.6574 1
      vertex -3.17793 -6.23705 0
      vertex -2.16312 -6.6574 0
    endloop
  endfacet
  facet normal -0.85264 -0.522499 0
    outer loop
      vertex -5.66312 -4.1145 0
      vertex -6.23705 -3.17793 1
      vertex -6.23705 -3.17793 0
    endloop
  endfacet
  facet normal -0.85264 -0.522499 0
    outer loop
      vertex -6.23705 -3.17793 1
      vertex -5.66312 -4.1145 0
      vertex -5.66312 -4.1145 1
    endloop
  endfacet
  facet normal -0.97237 -0.233445 0
    outer loop
      vertex -6.6574 -2.16312 0
      vertex -6.91382 -1.09504 1
      vertex -6.91382 -1.09504 0
    endloop
  endfacet
  facet normal -0.97237 -0.233445 0
    outer loop
      vertex -6.91382 -1.09504 1
      vertex -6.6574 -2.16312 0
      vertex -6.6574 -2.16312 1
    endloop
  endfacet
  facet normal 0.649448 -0.760406 0
    outer loop
      vertex 4.1145 -5.66312 0
      vertex 4.94975 -4.94975 1
      vertex 4.1145 -5.66312 1
    endloop
  endfacet
  facet normal 0.649448 -0.760406 0
    outer loop
      vertex 4.94975 -4.94975 1
      vertex 4.1145 -5.66312 0
      vertex 4.94975 -4.94975 0
    endloop
  endfacet
  facet normal 0.85264 -0.522499 0
    outer loop
      vertex 5.66312 -4.1145 1
      vertex 6.23705 -3.17793 0
      vertex 6.23705 -3.17793 1
    endloop
  endfacet
  facet normal 0.85264 -0.522499 0
    outer loop
      vertex 6.23705 -3.17793 0
      vertex 5.66312 -4.1145 1
      vertex 5.66312 -4.1145 0
    endloop
  endfacet
  facet normal -0.522499 -0.85264 0
    outer loop
      vertex -4.1145 -5.66312 0
      vertex -3.17793 -6.23705 1
      vertex -4.1145 -5.66312 1
    endloop
  endfacet
  facet normal -0.522499 -0.85264 -0
    outer loop
      vertex -3.17793 -6.23705 1
      vertex -4.1145 -5.66312 0
      vertex -3.17793 -6.23705 0
    endloop
  endfacet
  facet normal 0.996917 0.0784596 0
    outer loop
      vertex 5 0 10
      vertex 4.93844 0.782172 1
      vertex 4.93844 0.782172 10
    endloop
  endfacet
  facet normal 0.996917 0.0784596 0
    outer loop
      vertex 4.93844 0.782172 1
      vertex 5 0 10
      vertex 5 0 1
    endloop
  endfacet
  facet normal -0.996917 0.0784596 0
    outer loop
      vertex -5 0 1
      vertex -4.93844 0.782172 10
      vertex -4.93844 0.782172 1
    endloop
  endfacet
  facet normal -0.996917 0.0784596 0
    outer loop
      vertex -4.93844 0.782172 10
      vertex -5 0 1
      vertex -5 0 10
    endloop
  endfacet
  facet normal 0.0784596 0.996917 -0
    outer loop
      vertex 0.782172 4.93844 1
      vertex 0 5 10
      vertex 0.782172 4.93844 10
    endloop
  endfacet
  facet normal 0.0784596 0.996917 0
    outer loop
      vertex 0 5 10
      vertex 0.782172 4.93844 1
      vertex 0 5 1
    endloop
  endfacet
  facet normal -0.760406 -0.649448 0
    outer loop
      vertex -3.53553 -3.53553 1
      vertex -4.04508 -2.93893 10
      vertex -4.04508 -2.93893 1
    endloop
  endfacet
  facet normal -0.760406 -0.649448 0
    outer loop
      vertex -4.04508 -2.93893 10
      vertex -3.53553 -3.53553 1
      vertex -3.53553 -3.53553 10
    endloop
  endfacet
  facet normal 0.760406 0.649448 0
    outer loop
      vertex 4.04508 2.93893 10
      vertex 3.53553 3.53553 1
      vertex 3.53553 3.53553 10
    endloop
  endfacet
  facet normal 0.760406 0.649448 0
    outer loop
      vertex 3.53553 3.53553 1
      vertex 4.04508 2.93893 10
      vertex 4.04508 2.93893 1
    endloop
  endfacet
  facet normal -0.649448 0.760406 0
    outer loop
      vertex -2.93893 4.04508 1
      vertex -3.53553 3.53553 10
      vertex -2.93893 4.04508 10
    endloop
  endfacet
  facet normal -0.649448 0.760406 0
    outer loop
      vertex -3.53553 3.53553 10
      vertex -2.93893 4.04508 1
      vertex -3.53553 3.53553 1
    endloop
  endfacet
  facet normal -0.233445 0.97237 0
    outer loop
      vertex -0.782172 4.93844 1
      vertex -1.54508 4.75528 10
      vertex -0.782172 4.93844 10
    endloop
  endfacet
  facet normal -0.233445 0.97237 0
    outer loop
      vertex -1.54508 4.75528 10
      vertex -0.782172 4.93844 1
      vertex -1.54508 4.75528 1
    endloop
  endfacet
  facet normal 0.760406 -0.649448 0
    outer loop
      vertex 3.53553 -3.53553 10
      vertex 4.04508 -2.93893 1
      vertex 4.04508 -2.93893 10
    endloop
  endfacet
  facet normal 0.760406 -0.649448 0
    outer loop
      vertex 4.04508 -2.93893 1
      vertex 3.53553 -3.53553 10
      vertex 3.53553 -3.53553 1
    endloop
  endfacet
  facet normal 0.923879 0.382684 0
    outer loop
      vertex 4.75528 1.54508 10
      vertex 4.45503 2.26995 1
      vertex 4.45503 2.26995 10
    endloop
  endfacet
  facet normal 0.923879 0.382684 0
    outer loop
      vertex 4.45503 2.26995 1
      vertex 4.75528 1.54508 10
      vertex 4.75528 1.54508 1
    endloop
  endfacet
  facet normal 0.97237 0.233445 0
    outer loop
      vertex 4.93844 0.782172 10
      vertex 4.75528 1.54508 1
      vertex 4.75528 1.54508 10
    endloop
  endfacet
  facet normal 0.97237 0.233445 0
    outer loop
      vertex 4.75528 1.54508 1
      vertex 4.93844 0.782172 10
      vertex 4.93844 0.782172 1
    endloop
  endfacet
  facet normal 0.85264 0.522498 0
    outer loop
      vertex 4.45503 2.26995 10
      vertex 4.04508 2.93893 1
      vertex 4.04508 2.93893 10
    endloop
  endfacet
  facet normal 0.85264 0.522498 0
    outer loop
      vertex 4.04508 2.93893 1
      vertex 4.45503 2.26995 10
      vertex 4.45503 2.26995 1
    endloop
  endfacet
  facet normal 0.382684 0.923879 -0
    outer loop
      vertex 2.26995 4.45503 1
      vertex 1.54508 4.75528 10
      vertex 2.26995 4.45503 10
    endloop
  endfacet
  facet normal 0.382684 0.923879 0
    outer loop
      vertex 1.54508 4.75528 10
      vertex 2.26995 4.45503 1
      vertex 1.54508 4.75528 1
    endloop
  endfacet
  facet normal 0.233445 0.97237 -0
    outer loop
      vertex 1.54508 4.75528 1
      vertex 0.782172 4.93844 10
      vertex 1.54508 4.75528 10
    endloop
  endfacet
  facet normal 0.233445 0.97237 0
    outer loop
      vertex 0.782172 4.93844 10
      vertex 1.54508 4.75528 1
      vertex 0.782172 4.93844 1
    endloop
  endfacet
  facet normal 0.649448 0.760406 -0
    outer loop
      vertex 3.53553 3.53553 1
      vertex 2.93893 4.04508 10
      vertex 3.53553 3.53553 10
    endloop
  endfacet
  facet normal 0.649448 0.760406 0
    outer loop
      vertex 2.93893 4.04508 10
      vertex 3.53553 3.53553 1
      vertex 2.93893 4.04508 1
    endloop
  endfacet
  facet normal -0.923879 0.382684 0
    outer loop
      vertex -4.75528 1.54508 1
      vertex -4.45503 2.26995 10
      vertex -4.45503 2.26995 1
    endloop
  endfacet
  facet normal -0.923879 0.382684 0
    outer loop
      vertex -4.45503 2.26995 10
      vertex -4.75528 1.54508 1
      vertex -4.75528 1.54508 10
    endloop
  endfacet
  facet normal -0.760406 0.649448 0
    outer loop
      vertex -4.04508 2.93893 1
      vertex -3.53553 3.53553 10
      vertex -3.53553 3.53553 1
    endloop
  endfacet
  facet normal -0.760406 0.649448 0
    outer loop
      vertex -3.53553 3.53553 10
      vertex -4.04508 2.93893 1
      vertex -4.04508 2.93893 10
    endloop
  endfacet
  facet normal -0.97237 0.233445 0
    outer loop
      vertex -4.93844 0.782172 1
      vertex -4.75528 1.54508 10
      vertex -4.75528 1.54508 1
    endloop
  endfacet
  facet normal -0.97237 0.233445 0
    outer loop
      vertex -4.75528 1.54508 10
      vertex -4.93844 0.782172 1
      vertex -4.93844 0.782172 10
    endloop
  endfacet
  facet normal 0 0 1
    outer loop
      vertex 4.93844 0.782172 10
      vertex 4.93844 -0.782172 10
      vertex 5 0 10
    endloop
  endfacet
  facet normal 0 0 1
    outer loop
      vertex 4.75528 1.54508 10
      vertex 4.93844 -0.782172 10
      vertex 4.93844 0.782172 10
    endloop
  endfacet
  facet normal 0 0 1
    outer loop
      vertex 4.75528 1.54508 10
      vertex 4.75528 -1.54508 10
      vertex 4.93844 -0.782172 10
    endloop
  endfacet
  facet normal 0 0 1
    outer loop
      vertex 4.45503 2.26995 10
      vertex 4.75528 -1.54508 10
      vertex 4.75528 1.54508 10
    endloop
  endfacet
  facet normal 0 0 1
    outer loop
      vertex 4.45503 2.26995 10
      vertex 4.45503 -2.26995 10
      vertex 4.75528 -1.54508 10
    endloop
  endfacet
  facet normal 0 0 1
    outer loop
      vertex 4.04508 2.93893 10
      vertex 4.45503 -2.26995 10
      vertex 4.45503 2.26995 10
    endloop
  endfacet
  facet normal 0 0 1
    outer loop
      vertex 4.04508 2.93893 10
      vertex 4.04508 -2.93893 10
      vertex 4.45503 -2.26995 10
    endloop
  endfacet
  facet normal 0 0 1
    outer loop
      vertex 3.53553 3.53553 10
      vertex 4.04508 -2.93893 10
      vertex 4.04508 2.93893 10
    endloop
  endfacet
  facet normal 0 0 1
    outer loop
      vertex 3.53553 3.53553 10
      vertex 3.53553 -3.53553 10
      vertex 4.04508 -2.93893 10
    endloop
  endfacet
  facet normal 0 0 1
    outer loop
      vertex 2.93893 4.04508 10
      vertex 3.53553 -3.53553 10
      vertex 3.53553 3.53553 10
    endloop
  endfacet
  facet normal 0 0 1
    outer loop
      vertex 2.93893 4.04508 10
      vertex 2.93893 -4.04508 10
      vertex 3.53553 -3.53553 10
    endloop
  endfacet
  facet normal 0 0 1
    outer loop
      vertex 2.26995 4.45503 10
      vertex 2.93893 -4.04508 10
      vertex 2.93893 4.04508 10
    endloop
  endfacet
  facet normal 0 0 1
    outer loop
      vertex 2.26995 4.45503 10
      vertex 2.26995 -4.45503 10
      vertex 2.93893 -4.04508 10
    endloop
  endfacet
  facet normal 0 0 1
    outer loop
      vertex 1.54508 4.75528 10
      vertex 2.26995 -4.45503 10
      vertex 2.26995 4.45503 10
    endloop
  endfacet
  facet normal 0 0 1
    outer loop
      vertex 1.54508 4.75528 10
      vertex 1.54508 -4.75528 10
      vertex 2.26995 -4.45503 10
    endloop
  endfacet
  facet normal 0 0 1
    outer loop
      vertex 0.782172 4.93844 10
      vertex 1.54508 -4.75528 10
      vertex 1.54508 4.75528 10
    endloop
  endfacet
  facet normal 0 0 1
    outer loop
      vertex 0.782172 4.93844 10
      vertex 0.782172 -4.93844 10
      vertex 1.54508 -4.75528 10
    endloop
  endfacet
  facet normal 0 0 1
    outer loop
      vertex 0 5 10
      vertex 0.782172 -4.93844 10
      vertex 0.782172 4.93844 10
    endloop
  endfacet
  facet normal 0 0 1
    outer loop
      vertex 0 5 10
      vertex 0 -5 10
      vertex 0.782172 -4.93844 10
    endloop
  endfacet
  facet normal -0 0 1
    outer loop
      vertex -0.782172 4.93844 10
      vertex 0 -5 10
      vertex 0 5 10
    endloop
  endfacet
  facet normal 0 0 1
    outer loop
      vertex -0.782172 4.93844 10
      vertex -0.782172 -4.93844 10
      vertex 0 -5 10
    endloop
  endfacet
  facet normal -0 0 1
    outer loop
      vertex -1.54508 4.75528 10
      vertex -0.782172 -4.93844 10
      vertex -0.782172 4.93844 10
    endloop
  endfacet
  facet normal 0 0 1
    outer loop
      vertex -1.54508 4.75528 10
      vertex -1.54508 -4.75528 10
      vertex -0.782172 -4.93844 10
    endloop
  endfacet
  facet normal -0 0 1
    outer loop
      vertex -2.26995 4.45503 10
      vertex -1.54508 -4.75528 10
      vertex -1.54508 4.75528 10
    endloop
  endfacet
  facet normal 0 0 1
    outer loop
      vertex -2.26995 4.45503 10
      vertex -2.26995 -4.45503 10
      vertex -1.54508 -4.75528 10
    endloop
  endfacet
  facet normal -0 0 1
    outer loop
      vertex -2.93893 4.04508 10
      vertex -2.26995 -4.45503 10
      vertex -2.26995 4.45503 10
    endloop
  endfacet
  facet normal 0 0 1
    outer loop
      vertex -2.93893 4.04508 10
      vertex -2.93893 -4.04508 10
      vertex -2.26995 -4.45503 10
    endloop
  endfacet
  facet normal -0 0 1
    outer loop
      vertex -3.53553 3.53553 10
      vertex -2.93893 -4.04508 10
      vertex -2.93893 4.04508 10
    endloop
  endfacet
  facet normal 0 0 1
    outer loop
      vertex -3.53553 3.53553 10
      vertex -3.53553 -3.53553 10
      vertex -2.93893 -4.04508 10
    endloop
  endfacet
  facet normal -0 0 1
    outer loop
      vertex -4.04508 2.93893 10
      vertex -3.53553 -3.53553 10
      vertex -3.53553 3.53553 10
    endloop
  endfacet
  facet normal 0 0 1
    outer loop
      vertex -4.04508 2.93893 10
      vertex -4.04508 -2.93893 10
      vertex -3.53553 -3.53553 10
    endloop
  endfacet
  facet normal -0 0 1
    outer loop
      vertex -4.45503 2.26995 10
      vertex -4.04508 -2.93893 10
      vertex -4.04508 2.93893 10
    endloop
  endfacet
  facet normal 0 0 1
    outer loop
      vertex -4.45503 2.26995 10
      vertex -4.45503 -2.26995 10
      vertex -4.04508 -2.93893 10
    endloop
  endfacet
  facet normal -0 0 1
    outer loop
      vertex -4.75528 1.54508 10
      vertex -4.45503 -2.26995 10
      vertex -4.45503 2.26995 10
    endloop
  endfacet
  facet normal 0 0 1
    outer loop
      vertex -4.75528 1.54508 10
      vertex -4.75528 -1.54508 10
      vertex -4.45503 -2.26995 10
    endloop
  endfacet
  facet normal -0 0 1
    outer loop
      vertex -4.93844 0.782172 10
      vertex -4.75528 -1.54508 10
      vertex -4.75528 1.54508 10
    endloop
  endfacet
  facet normal 0 0 1
    outer loop
      vertex -4.93844 0.782172 10
      vertex -4.93844 -0.782172 10
      vertex -4.75528 -1.54508 10
    endloop
  endfacet
  facet normal 0 -0 1
    outer loop
      vertex -4.93844 -0.782172 10
      vertex -4.93844 0.782172 10
      vertex -5 0 10
    endloop
  endfacet
  facet normal -0.0784596 0.996917 0
    outer loop
      vertex 0 5 1
      vertex -0.782172 4.93844 10
      vertex 0 5 10
    endloop
  endfacet
  facet normal -0.0784596 0.996917 0
    outer loop
      vertex -0.782172 4.93844 10
      vertex 0 5 1
      vertex -0.782172 4.93844 1
    endloop
  endfacet
  facet normal 0.0784596 -0.996917 0
    outer loop
      vertex 0 -5 1
      vertex 0.782172 -4.93844 10
      vertex 0 -5 10
    endloop
  endfacet
  facet normal 0.0784596 -0.996917 0
    outer loop
      vertex 0.782172 -4.93844 10
      vertex 0 -5 1
      vertex 0.782172 -4.93844 1
    endloop
  endfacet
  facet normal -0.382684 -0.923879 0
    outer loop
      vertex -2.26995 -4.45503 1
      vertex -1.54508 -4.75528 10
      vertex -2.26995 -4.45503 10
    endloop
  endfacet
  facet normal -0.382684 -0.923879 -0
    outer loop
      vertex -1.54508 -4.75528 10
      vertex -2.26995 -4.45503 1
      vertex -1.54508 -4.75528 1
    endloop
  endfacet
  facet normal -0.649448 -0.760406 0
    outer loop
      vertex -3.53553 -3.53553 1
      vertex -2.93893 -4.04508 10
      vertex -3.53553 -3.53553 10
    endloop
  endfacet
  facet normal -0.649448 -0.760406 -0
    outer loop
      vertex -2.93893 -4.04508 10
      vertex -3.53553 -3.53553 1
      vertex -2.93893 -4.04508 1
    endloop
  endfacet
  facet normal -0.233445 -0.97237 0
    outer loop
      vertex -1.54508 -4.75528 1
      vertex -0.782172 -4.93844 10
      vertex -1.54508 -4.75528 10
    endloop
  endfacet
  facet normal -0.233445 -0.97237 -0
    outer loop
      vertex -0.782172 -4.93844 10
      vertex -1.54508 -4.75528 1
      vertex -0.782172 -4.93844 1
    endloop
  endfacet
  facet normal -0.996917 -0.0784596 0
    outer loop
      vertex -4.93844 -0.782172 1
      vertex -5 0 10
      vertex -5 0 1
    endloop
  endfacet
  facet normal -0.996917 -0.0784596 0
    outer loop
      vertex -5 0 10
      vertex -4.93844 -0.782172 1
      vertex -4.93844 -0.782172 10
    endloop
  endfacet
  facet normal 0.522498 0.85264 -0
    outer loop
      vertex 2.93893 4.04508 1
      vertex 2.26995 4.45503 10
      vertex 2.93893 4.04508 10
    endloop
  endfacet
  facet normal 0.522498 0.85264 0
    outer loop
      vertex 2.26995 4.45503 10
      vertex 2.93893 4.04508 1
      vertex 2.26995 4.45503 1
    endloop
  endfacet
  facet normal -0.85264 0.522498 0
    outer loop
      vertex -4.45503 2.26995 1
      vertex -4.04508 2.93893 10
      vertex -4.04508 2.93893 1
    endloop
  endfacet
  facet normal -0.85264 0.522498 0
    outer loop
      vertex -4.04508 2.93893 10
      vertex -4.45503 2.26995 1
      vertex -4.45503 2.26995 10
    endloop
  endfacet
  facet normal -0.382684 0.923879 0
    outer loop
      vertex -1.54508 4.75528 1
      vertex -2.26995 4.45503 10
      vertex -1.54508 4.75528 10
    endloop
  endfacet
  facet normal -0.382684 0.923879 0
    outer loop
      vertex -2.26995 4.45503 10
      vertex -1.54508 4.75528 1
      vertex -2.26995 4.45503 1
    endloop
  endfacet
  facet normal -0.522498 0.85264 0
    outer loop
      vertex -2.26995 4.45503 1
      vertex -2.93893 4.04508 10
      vertex -2.26995 4.45503 10
    endloop
  endfacet
  facet normal -0.522498 0.85264 0
    outer loop
      vertex -2.93893 4.04508 10
      vertex -2.26995 4.45503 1
      vertex -2.93893 4.04508 1
    endloop
  endfacet
  facet normal 0.996917 -0.0784596 0
    outer loop
      vertex 4.93844 -0.782172 10
      vertex 5 0 1
      vertex 5 0 10
    endloop
  endfacet
  facet normal 0.996917 -0.0784596 0
    outer loop
      vertex 5 0 1
      vertex 4.93844 -0.782172 10
      vertex 4.93844 -0.782172 1
    endloop
  endfacet
  facet normal 0.233445 -0.97237 0
    outer loop
      vertex 0.782172 -4.93844 1
      vertex 1.54508 -4.75528 10
      vertex 0.782172 -4.93844 10
    endloop
  endfacet
  facet normal 0.233445 -0.97237 0
    outer loop
      vertex 1.54508 -4.75528 10
      vertex 0.782172 -4.93844 1
      vertex 1.54508 -4.75528 1
    endloop
  endfacet
  facet normal 0.649448 -0.760406 0
    outer loop
      vertex 2.93893 -4.04508 1
      vertex 3.53553 -3.53553 10
      vertex 2.93893 -4.04508 10
    endloop
  endfacet
  facet normal 0.649448 -0.760406 0
    outer loop
      vertex 3.53553 -3.53553 10
      vertex 2.93893 -4.04508 1
      vertex 3.53553 -3.53553 1
    endloop
  endfacet
  facet normal 0.382684 -0.923879 0
    outer loop
      vertex 1.54508 -4.75528 1
      vertex 2.26995 -4.45503 10
      vertex 1.54508 -4.75528 10
    endloop
  endfacet
  facet normal 0.382684 -0.923879 0
    outer loop
      vertex 2.26995 -4.45503 10
      vertex 1.54508 -4.75528 1
      vertex 2.26995 -4.45503 1
    endloop
  endfacet
  facet normal 0.97237 -0.233445 0
    outer loop
      vertex 4.75528 -1.54508 10
      vertex 4.93844 -0.782172 1
      vertex 4.93844 -0.782172 10
    endloop
  endfacet
  facet normal 0.97237 -0.233445 0
    outer loop
      vertex 4.93844 -0.782172 1
      vertex 4.75528 -1.54508 10
      vertex 4.75528 -1.54508 1
    endloop
  endfacet
  facet normal -0.522498 -0.85264 0
    outer loop
      vertex -2.93893 -4.04508 1
      vertex -2.26995 -4.45503 10
      vertex -2.93893 -4.04508 10
    endloop
  endfacet
  facet normal -0.522498 -0.85264 -0
    outer loop
      vertex -2.26995 -4.45503 10
      vertex -2.93893 -4.04508 1
      vertex -2.26995 -4.45503 1
    endloop
  endfacet
  facet normal -0.0784596 -0.996917 0
    outer loop
      vertex -0.782172 -4.93844 1
      vertex 0 -5 10
      vertex -0.782172 -4.93844 10
    endloop
  endfacet
  facet normal -0.0784596 -0.996917 -0
    outer loop
      vertex 0 -5 10
      vertex -0.782172 -4.93844 1
      vertex 0 -5 1
    endloop
  endfacet
  facet normal -0.923879 -0.382684 0
    outer loop
      vertex -4.45503 -2.26995 1
      vertex -4.75528 -1.54508 10
      vertex -4.75528 -1.54508 1
    endloop
  endfacet
  facet normal -0.923879 -0.382684 0
    outer loop
      vertex -4.75528 -1.54508 10
      vertex -4.45503 -2.26995 1
      vertex -4.45503 -2.26995 10
    endloop
  endfacet
  facet normal -0.97237 -0.233445 0
    outer loop
      vertex -4.75528 -1.54508 1
      vertex -4.93844 -0.782172 10
      vertex -4.93844 -0.782172 1
    endloop
  endfacet
  facet normal -0.97237 -0.233445 0
    outer loop
      vertex -4.93844 -0.782172 10
      vertex -4.75528 -1.54508 1
      vertex -4.75528 -1.54508 10
    endloop
  endfacet
  facet normal 0.522498 -0.85264 0
    outer loop
      vertex 2.26995 -4.45503 1
      vertex 2.93893 -4.04508 10
      vertex 2.26995 -4.45503 10
    endloop
  endfacet
  facet normal 0.522498 -0.85264 0
    outer loop
      vertex 2.93893 -4.04508 10
      vertex 2.26995 -4.45503 1
      vertex 2.93893 -4.04508 1
    endloop
  endfacet
  facet normal 0.85264 -0.522498 0
    outer loop
      vertex 4.04508 -2.93893 10
      vertex 4.45503 -2.26995 1
      vertex 4.45503 -2.26995 10
    endloop
  endfacet
  facet normal 0.85264 -0.522498 0
    outer loop
      vertex 4.45503 -2.26995 1
      vertex 4.04508 -2.93893 10
      vertex 4.04508 -2.93893 1
    endloop
  endfacet
  facet normal -0.85264 -0.522498 0
    outer loop
      vertex -4.04508 -2.93893 1
      vertex -4.45503 -2.26995 10
      vertex -4.45503 -2.26995 1
    endloop
  endfacet
  facet normal -0.85264 -0.522498 0
    outer loop
      vertex -4.45503 -2.26995 10
      vertex -4.04508 -2.93893 1
      vertex -4.04508 -2.93893 10
    endloop
  endfacet
  facet normal 0.923879 -0.382684 0
    outer loop
      vertex 4.45503 -2.26995 10
      vertex 4.75528 -1.54508 1
      vertex 4.75528 -1.54508 10
    endloop
  endfacet
  facet normal 0.923879 -0.382684 0
    outer loop
      vertex 4.75528 -1.54508 1
      vertex 4.45503 -2.26995 10
      vertex 4.45503 -2.26995 1
    endloop
  endfacet
endsolid OpenSCAD_Model
