G04 #@! TF.FileFunction,Copper,L2,Bot,Signal*
%FSLAX46Y46*%
G04 Gerber Fmt 4.6, Leading zero omitted, Abs format (unit mm)*
G04 Created by KiCad (PCBNEW 4.0.7-e2-6376~58~ubuntu17.04.1) date Wed May 23 19:48:23 2018*
%MOMM*%
%LPD*%
G01*
G04 APERTURE LIST*
%ADD10C,0.100000*%
%ADD11C,3.000000*%
%ADD12R,3.000000X3.000000*%
%ADD13R,1.600000X1.600000*%
%ADD14C,1.600000*%
%ADD15R,1.800000X1.800000*%
%ADD16C,1.800000*%
%ADD17R,1.700000X1.700000*%
%ADD18O,1.700000X1.700000*%
%ADD19O,1.600000X1.600000*%
%ADD20C,2.000000*%
%ADD21C,1.524000*%
%ADD22C,4.064000*%
%ADD23C,0.600000*%
%ADD24C,0.250000*%
%ADD25C,0.254000*%
G04 APERTURE END LIST*
D10*
D11*
X156210000Y-106510000D03*
D12*
X156210000Y-127000000D03*
D13*
X165100000Y-121920000D03*
D14*
X165100000Y-124420000D03*
D15*
X144780000Y-95250000D03*
D16*
X147320000Y-95250000D03*
D15*
X154940000Y-95250000D03*
D16*
X157480000Y-95250000D03*
D15*
X165100000Y-95250000D03*
D16*
X167640000Y-95250000D03*
D17*
X146050000Y-124460000D03*
D18*
X146050000Y-121920000D03*
X146050000Y-119380000D03*
X146050000Y-116840000D03*
X146050000Y-114300000D03*
X146050000Y-111760000D03*
D14*
X158750000Y-121920000D03*
D19*
X151130000Y-121920000D03*
D14*
X139700000Y-102870000D03*
D19*
X147320000Y-102870000D03*
D14*
X152400000Y-102870000D03*
D19*
X160020000Y-102870000D03*
D14*
X165100000Y-102870000D03*
D19*
X172720000Y-102870000D03*
D20*
X152400000Y-116260000D03*
X152400000Y-111760000D03*
X158900000Y-116260000D03*
X158900000Y-111760000D03*
D21*
X170180000Y-121920000D03*
X170180000Y-124460000D03*
X170180000Y-127000000D03*
D13*
X165100000Y-116840000D03*
D19*
X172720000Y-109220000D03*
X167640000Y-116840000D03*
X170180000Y-109220000D03*
X170180000Y-116840000D03*
X167640000Y-109220000D03*
X172720000Y-116840000D03*
X165100000Y-109220000D03*
D22*
X138430000Y-93980000D03*
X138430000Y-129540000D03*
X173990000Y-129540000D03*
X173990000Y-93980000D03*
D23*
X162560000Y-113030000D03*
X163830000Y-119380000D03*
X148590000Y-114300000D03*
D24*
X165100000Y-110490000D02*
X165100000Y-109220000D01*
X162560000Y-113030000D02*
X165100000Y-110490000D01*
X147320000Y-121920000D02*
X146050000Y-121920000D01*
X149860000Y-124460000D02*
X147320000Y-121920000D01*
X158750000Y-124460000D02*
X149860000Y-124460000D01*
X163830000Y-119380000D02*
X158750000Y-124460000D01*
X149860000Y-105410000D02*
X152400000Y-102870000D01*
X149860000Y-113030000D02*
X149860000Y-105410000D01*
X148590000Y-114300000D02*
X149860000Y-113030000D01*
D25*
G36*
X171323464Y-93447173D02*
X171322538Y-94508172D01*
X171727709Y-95488761D01*
X172477293Y-96239655D01*
X173457173Y-96646536D01*
X174518172Y-96647462D01*
X175498761Y-96242291D01*
X176249655Y-95492707D01*
X176403000Y-95123411D01*
X176403000Y-128395983D01*
X176252291Y-128031239D01*
X175502707Y-127280345D01*
X174522827Y-126873464D01*
X173461828Y-126872538D01*
X172481239Y-127277709D01*
X171730345Y-128027293D01*
X171323464Y-129007173D01*
X171323110Y-129413000D01*
X141097112Y-129413000D01*
X141097462Y-129011828D01*
X140692291Y-128031239D01*
X139942707Y-127280345D01*
X138962827Y-126873464D01*
X137901828Y-126872538D01*
X137287000Y-127126580D01*
X137287000Y-124745750D01*
X144565000Y-124745750D01*
X144565000Y-125436310D01*
X144661673Y-125669699D01*
X144840302Y-125848327D01*
X145073691Y-125945000D01*
X145764250Y-125945000D01*
X145923000Y-125786250D01*
X145923000Y-124587000D01*
X146177000Y-124587000D01*
X146177000Y-125786250D01*
X146335750Y-125945000D01*
X147026309Y-125945000D01*
X147259698Y-125848327D01*
X147438327Y-125669699D01*
X147535000Y-125436310D01*
X147535000Y-124745750D01*
X147376250Y-124587000D01*
X146177000Y-124587000D01*
X145923000Y-124587000D01*
X144723750Y-124587000D01*
X144565000Y-124745750D01*
X137287000Y-124745750D01*
X137287000Y-111760000D01*
X144535907Y-111760000D01*
X144648946Y-112328285D01*
X144970853Y-112810054D01*
X145300026Y-113030000D01*
X144970853Y-113249946D01*
X144648946Y-113731715D01*
X144535907Y-114300000D01*
X144648946Y-114868285D01*
X144970853Y-115350054D01*
X145300026Y-115570000D01*
X144970853Y-115789946D01*
X144648946Y-116271715D01*
X144535907Y-116840000D01*
X144648946Y-117408285D01*
X144970853Y-117890054D01*
X145300026Y-118110000D01*
X144970853Y-118329946D01*
X144648946Y-118811715D01*
X144535907Y-119380000D01*
X144648946Y-119948285D01*
X144970853Y-120430054D01*
X145300026Y-120650000D01*
X144970853Y-120869946D01*
X144648946Y-121351715D01*
X144535907Y-121920000D01*
X144648946Y-122488285D01*
X144970853Y-122970054D01*
X145014777Y-122999403D01*
X144840302Y-123071673D01*
X144661673Y-123250301D01*
X144565000Y-123483690D01*
X144565000Y-124174250D01*
X144723750Y-124333000D01*
X145923000Y-124333000D01*
X145923000Y-124313000D01*
X146177000Y-124313000D01*
X146177000Y-124333000D01*
X147376250Y-124333000D01*
X147535000Y-124174250D01*
X147535000Y-123483690D01*
X147438327Y-123250301D01*
X147259698Y-123071673D01*
X147085223Y-122999403D01*
X147129147Y-122970054D01*
X147195679Y-122870481D01*
X149322599Y-124997401D01*
X149569160Y-125162148D01*
X149617414Y-125171746D01*
X149860000Y-125220000D01*
X154132776Y-125220000D01*
X154113569Y-125248110D01*
X154062560Y-125500000D01*
X154062560Y-128500000D01*
X154106838Y-128735317D01*
X154245910Y-128951441D01*
X154458110Y-129096431D01*
X154710000Y-129147440D01*
X157710000Y-129147440D01*
X157945317Y-129103162D01*
X158161441Y-128964090D01*
X158306431Y-128751890D01*
X158357440Y-128500000D01*
X158357440Y-125500000D01*
X158343845Y-125427745D01*
X164271861Y-125427745D01*
X164345995Y-125673864D01*
X164883223Y-125866965D01*
X165453454Y-125839778D01*
X165854005Y-125673864D01*
X165928139Y-125427745D01*
X165100000Y-124599605D01*
X164271861Y-125427745D01*
X158343845Y-125427745D01*
X158313162Y-125264683D01*
X158284409Y-125220000D01*
X158750000Y-125220000D01*
X159040839Y-125162148D01*
X159287401Y-124997401D01*
X160081579Y-124203223D01*
X163653035Y-124203223D01*
X163680222Y-124773454D01*
X163846136Y-125174005D01*
X164092255Y-125248139D01*
X164920395Y-124420000D01*
X165279605Y-124420000D01*
X166107745Y-125248139D01*
X166353864Y-125174005D01*
X166546965Y-124636777D01*
X166519778Y-124066546D01*
X166353864Y-123665995D01*
X166107745Y-123591861D01*
X165279605Y-124420000D01*
X164920395Y-124420000D01*
X164092255Y-123591861D01*
X163846136Y-123665995D01*
X163653035Y-124203223D01*
X160081579Y-124203223D01*
X163164802Y-121120000D01*
X163652560Y-121120000D01*
X163652560Y-122720000D01*
X163696838Y-122955317D01*
X163835910Y-123171441D01*
X164048110Y-123316431D01*
X164286201Y-123364646D01*
X164271861Y-123412255D01*
X165100000Y-124240395D01*
X165928139Y-123412255D01*
X165913855Y-123364833D01*
X166135317Y-123323162D01*
X166351441Y-123184090D01*
X166496431Y-122971890D01*
X166547440Y-122720000D01*
X166547440Y-122196661D01*
X168782758Y-122196661D01*
X168994990Y-122710303D01*
X169387630Y-123103629D01*
X169595512Y-123189949D01*
X169389697Y-123274990D01*
X168996371Y-123667630D01*
X168783243Y-124180900D01*
X168782758Y-124736661D01*
X168994990Y-125250303D01*
X169387630Y-125643629D01*
X169595512Y-125729949D01*
X169389697Y-125814990D01*
X168996371Y-126207630D01*
X168783243Y-126720900D01*
X168782758Y-127276661D01*
X168994990Y-127790303D01*
X169387630Y-128183629D01*
X169900900Y-128396757D01*
X170456661Y-128397242D01*
X170970303Y-128185010D01*
X171363629Y-127792370D01*
X171576757Y-127279100D01*
X171577242Y-126723339D01*
X171365010Y-126209697D01*
X170972370Y-125816371D01*
X170764488Y-125730051D01*
X170970303Y-125645010D01*
X171363629Y-125252370D01*
X171576757Y-124739100D01*
X171577242Y-124183339D01*
X171365010Y-123669697D01*
X170972370Y-123276371D01*
X170764488Y-123190051D01*
X170970303Y-123105010D01*
X171363629Y-122712370D01*
X171576757Y-122199100D01*
X171577242Y-121643339D01*
X171365010Y-121129697D01*
X170972370Y-120736371D01*
X170459100Y-120523243D01*
X169903339Y-120522758D01*
X169389697Y-120734990D01*
X168996371Y-121127630D01*
X168783243Y-121640900D01*
X168782758Y-122196661D01*
X166547440Y-122196661D01*
X166547440Y-121120000D01*
X166503162Y-120884683D01*
X166364090Y-120668559D01*
X166151890Y-120523569D01*
X165900000Y-120472560D01*
X164300000Y-120472560D01*
X164064683Y-120516838D01*
X163848559Y-120655910D01*
X163703569Y-120868110D01*
X163652560Y-121120000D01*
X163164802Y-121120000D01*
X163969680Y-120315122D01*
X164015167Y-120315162D01*
X164358943Y-120173117D01*
X164622192Y-119910327D01*
X164764838Y-119566799D01*
X164765162Y-119194833D01*
X164623117Y-118851057D01*
X164360327Y-118587808D01*
X164016799Y-118445162D01*
X163644833Y-118444838D01*
X163301057Y-118586883D01*
X163037808Y-118849673D01*
X162895162Y-119193201D01*
X162895121Y-119240077D01*
X160184974Y-121950224D01*
X160185248Y-121635813D01*
X159967243Y-121108200D01*
X159563923Y-120704176D01*
X159036691Y-120485250D01*
X158465813Y-120484752D01*
X157938200Y-120702757D01*
X157534176Y-121106077D01*
X157315250Y-121633309D01*
X157314752Y-122204187D01*
X157532757Y-122731800D01*
X157936077Y-123135824D01*
X158463309Y-123354750D01*
X158780172Y-123355026D01*
X158435198Y-123700000D01*
X150174802Y-123700000D01*
X148743841Y-122269039D01*
X149738096Y-122269039D01*
X149898959Y-122657423D01*
X150274866Y-123072389D01*
X150780959Y-123311914D01*
X151003000Y-123190629D01*
X151003000Y-122047000D01*
X151257000Y-122047000D01*
X151257000Y-123190629D01*
X151479041Y-123311914D01*
X151985134Y-123072389D01*
X152361041Y-122657423D01*
X152521904Y-122269039D01*
X152399915Y-122047000D01*
X151257000Y-122047000D01*
X151003000Y-122047000D01*
X149860085Y-122047000D01*
X149738096Y-122269039D01*
X148743841Y-122269039D01*
X148045763Y-121570961D01*
X149738096Y-121570961D01*
X149860085Y-121793000D01*
X151003000Y-121793000D01*
X151003000Y-120649371D01*
X151257000Y-120649371D01*
X151257000Y-121793000D01*
X152399915Y-121793000D01*
X152521904Y-121570961D01*
X152361041Y-121182577D01*
X151985134Y-120767611D01*
X151479041Y-120528086D01*
X151257000Y-120649371D01*
X151003000Y-120649371D01*
X150780959Y-120528086D01*
X150274866Y-120767611D01*
X149898959Y-121182577D01*
X149738096Y-121570961D01*
X148045763Y-121570961D01*
X147857401Y-121382599D01*
X147610839Y-121217852D01*
X147323407Y-121160678D01*
X147129147Y-120869946D01*
X146799974Y-120650000D01*
X147129147Y-120430054D01*
X147451054Y-119948285D01*
X147564093Y-119380000D01*
X147451054Y-118811715D01*
X147129147Y-118329946D01*
X146799974Y-118110000D01*
X147129147Y-117890054D01*
X147451054Y-117408285D01*
X147564093Y-116840000D01*
X147513131Y-116583795D01*
X150764716Y-116583795D01*
X151013106Y-117184943D01*
X151472637Y-117645278D01*
X152073352Y-117894716D01*
X152723795Y-117895284D01*
X153324943Y-117646894D01*
X153785278Y-117187363D01*
X154034716Y-116586648D01*
X154034718Y-116583795D01*
X157264716Y-116583795D01*
X157513106Y-117184943D01*
X157972637Y-117645278D01*
X158573352Y-117894716D01*
X159223795Y-117895284D01*
X159824943Y-117646894D01*
X160285278Y-117187363D01*
X160534716Y-116586648D01*
X160535193Y-116040000D01*
X163652560Y-116040000D01*
X163652560Y-117640000D01*
X163696838Y-117875317D01*
X163835910Y-118091441D01*
X164048110Y-118236431D01*
X164300000Y-118287440D01*
X165900000Y-118287440D01*
X166135317Y-118243162D01*
X166351441Y-118104090D01*
X166496431Y-117891890D01*
X166527815Y-117736911D01*
X166625302Y-117882811D01*
X167090849Y-118193880D01*
X167640000Y-118303113D01*
X168189151Y-118193880D01*
X168654698Y-117882811D01*
X168910000Y-117500725D01*
X169165302Y-117882811D01*
X169630849Y-118193880D01*
X170180000Y-118303113D01*
X170729151Y-118193880D01*
X171194698Y-117882811D01*
X171464986Y-117478297D01*
X171567611Y-117695134D01*
X171982577Y-118071041D01*
X172370961Y-118231904D01*
X172593000Y-118109915D01*
X172593000Y-116967000D01*
X172847000Y-116967000D01*
X172847000Y-118109915D01*
X173069039Y-118231904D01*
X173457423Y-118071041D01*
X173872389Y-117695134D01*
X174111914Y-117189041D01*
X173990629Y-116967000D01*
X172847000Y-116967000D01*
X172593000Y-116967000D01*
X172573000Y-116967000D01*
X172573000Y-116713000D01*
X172593000Y-116713000D01*
X172593000Y-115570085D01*
X172847000Y-115570085D01*
X172847000Y-116713000D01*
X173990629Y-116713000D01*
X174111914Y-116490959D01*
X173872389Y-115984866D01*
X173457423Y-115608959D01*
X173069039Y-115448096D01*
X172847000Y-115570085D01*
X172593000Y-115570085D01*
X172370961Y-115448096D01*
X171982577Y-115608959D01*
X171567611Y-115984866D01*
X171464986Y-116201703D01*
X171194698Y-115797189D01*
X170729151Y-115486120D01*
X170180000Y-115376887D01*
X169630849Y-115486120D01*
X169165302Y-115797189D01*
X168910000Y-116179275D01*
X168654698Y-115797189D01*
X168189151Y-115486120D01*
X167640000Y-115376887D01*
X167090849Y-115486120D01*
X166625302Y-115797189D01*
X166528899Y-115941465D01*
X166503162Y-115804683D01*
X166364090Y-115588559D01*
X166151890Y-115443569D01*
X165900000Y-115392560D01*
X164300000Y-115392560D01*
X164064683Y-115436838D01*
X163848559Y-115575910D01*
X163703569Y-115788110D01*
X163652560Y-116040000D01*
X160535193Y-116040000D01*
X160535284Y-115936205D01*
X160286894Y-115335057D01*
X159827363Y-114874722D01*
X159226648Y-114625284D01*
X158576205Y-114624716D01*
X157975057Y-114873106D01*
X157514722Y-115332637D01*
X157265284Y-115933352D01*
X157264716Y-116583795D01*
X154034718Y-116583795D01*
X154035284Y-115936205D01*
X153786894Y-115335057D01*
X153327363Y-114874722D01*
X152726648Y-114625284D01*
X152076205Y-114624716D01*
X151475057Y-114873106D01*
X151014722Y-115332637D01*
X150765284Y-115933352D01*
X150764716Y-116583795D01*
X147513131Y-116583795D01*
X147451054Y-116271715D01*
X147129147Y-115789946D01*
X146799974Y-115570000D01*
X147129147Y-115350054D01*
X147451054Y-114868285D01*
X147527260Y-114485167D01*
X147654838Y-114485167D01*
X147796883Y-114828943D01*
X148059673Y-115092192D01*
X148403201Y-115234838D01*
X148775167Y-115235162D01*
X149118943Y-115093117D01*
X149382192Y-114830327D01*
X149524838Y-114486799D01*
X149524879Y-114439923D01*
X150397401Y-113567401D01*
X150562148Y-113320840D01*
X150620000Y-113030000D01*
X150620000Y-112083795D01*
X150764716Y-112083795D01*
X151013106Y-112684943D01*
X151472637Y-113145278D01*
X152073352Y-113394716D01*
X152723795Y-113395284D01*
X153324943Y-113146894D01*
X153785278Y-112687363D01*
X154034716Y-112086648D01*
X154034718Y-112083795D01*
X157264716Y-112083795D01*
X157513106Y-112684943D01*
X157972637Y-113145278D01*
X158573352Y-113394716D01*
X159223795Y-113395284D01*
X159659710Y-113215167D01*
X161624838Y-113215167D01*
X161766883Y-113558943D01*
X162029673Y-113822192D01*
X162373201Y-113964838D01*
X162745167Y-113965162D01*
X163088943Y-113823117D01*
X163352192Y-113560327D01*
X163494838Y-113216799D01*
X163494879Y-113169923D01*
X165637401Y-111027401D01*
X165802148Y-110780840D01*
X165821587Y-110683113D01*
X165860000Y-110490000D01*
X165860000Y-110432995D01*
X166114698Y-110262811D01*
X166370000Y-109880725D01*
X166625302Y-110262811D01*
X167090849Y-110573880D01*
X167640000Y-110683113D01*
X168189151Y-110573880D01*
X168654698Y-110262811D01*
X168910000Y-109880725D01*
X169165302Y-110262811D01*
X169630849Y-110573880D01*
X170180000Y-110683113D01*
X170729151Y-110573880D01*
X171194698Y-110262811D01*
X171450000Y-109880725D01*
X171705302Y-110262811D01*
X172170849Y-110573880D01*
X172720000Y-110683113D01*
X173269151Y-110573880D01*
X173734698Y-110262811D01*
X174045767Y-109797264D01*
X174155000Y-109248113D01*
X174155000Y-109191887D01*
X174045767Y-108642736D01*
X173734698Y-108177189D01*
X173269151Y-107866120D01*
X172720000Y-107756887D01*
X172170849Y-107866120D01*
X171705302Y-108177189D01*
X171450000Y-108559275D01*
X171194698Y-108177189D01*
X170729151Y-107866120D01*
X170180000Y-107756887D01*
X169630849Y-107866120D01*
X169165302Y-108177189D01*
X168910000Y-108559275D01*
X168654698Y-108177189D01*
X168189151Y-107866120D01*
X167640000Y-107756887D01*
X167090849Y-107866120D01*
X166625302Y-108177189D01*
X166370000Y-108559275D01*
X166114698Y-108177189D01*
X165649151Y-107866120D01*
X165100000Y-107756887D01*
X164550849Y-107866120D01*
X164085302Y-108177189D01*
X163774233Y-108642736D01*
X163665000Y-109191887D01*
X163665000Y-109248113D01*
X163774233Y-109797264D01*
X164085302Y-110262811D01*
X164185462Y-110329736D01*
X162420320Y-112094878D01*
X162374833Y-112094838D01*
X162031057Y-112236883D01*
X161767808Y-112499673D01*
X161625162Y-112843201D01*
X161624838Y-113215167D01*
X159659710Y-113215167D01*
X159824943Y-113146894D01*
X160285278Y-112687363D01*
X160534716Y-112086648D01*
X160535284Y-111436205D01*
X160286894Y-110835057D01*
X159827363Y-110374722D01*
X159226648Y-110125284D01*
X158576205Y-110124716D01*
X157975057Y-110373106D01*
X157514722Y-110832637D01*
X157265284Y-111433352D01*
X157264716Y-112083795D01*
X154034718Y-112083795D01*
X154035284Y-111436205D01*
X153786894Y-110835057D01*
X153327363Y-110374722D01*
X152726648Y-110125284D01*
X152076205Y-110124716D01*
X151475057Y-110373106D01*
X151014722Y-110832637D01*
X150765284Y-111433352D01*
X150764716Y-112083795D01*
X150620000Y-112083795D01*
X150620000Y-108023970D01*
X154875635Y-108023970D01*
X155035418Y-108342739D01*
X155826187Y-108652723D01*
X156675387Y-108636497D01*
X157384582Y-108342739D01*
X157544365Y-108023970D01*
X156210000Y-106689605D01*
X154875635Y-108023970D01*
X150620000Y-108023970D01*
X150620000Y-106126187D01*
X154067277Y-106126187D01*
X154083503Y-106975387D01*
X154377261Y-107684582D01*
X154696030Y-107844365D01*
X156030395Y-106510000D01*
X156389605Y-106510000D01*
X157723970Y-107844365D01*
X158042739Y-107684582D01*
X158352723Y-106893813D01*
X158336497Y-106044613D01*
X158042739Y-105335418D01*
X157723970Y-105175635D01*
X156389605Y-106510000D01*
X156030395Y-106510000D01*
X154696030Y-105175635D01*
X154377261Y-105335418D01*
X154067277Y-106126187D01*
X150620000Y-106126187D01*
X150620000Y-105724802D01*
X151348772Y-104996030D01*
X154875635Y-104996030D01*
X156210000Y-106330395D01*
X157544365Y-104996030D01*
X157384582Y-104677261D01*
X156593813Y-104367277D01*
X155744613Y-104383503D01*
X155035418Y-104677261D01*
X154875635Y-104996030D01*
X151348772Y-104996030D01*
X152061546Y-104283256D01*
X152113309Y-104304750D01*
X152684187Y-104305248D01*
X153211800Y-104087243D01*
X153615824Y-103683923D01*
X153834750Y-103156691D01*
X153835000Y-102870000D01*
X158556887Y-102870000D01*
X158666120Y-103419151D01*
X158977189Y-103884698D01*
X159442736Y-104195767D01*
X159991887Y-104305000D01*
X160048113Y-104305000D01*
X160597264Y-104195767D01*
X161062811Y-103884698D01*
X161373880Y-103419151D01*
X161426584Y-103154187D01*
X163664752Y-103154187D01*
X163882757Y-103681800D01*
X164286077Y-104085824D01*
X164813309Y-104304750D01*
X165384187Y-104305248D01*
X165911800Y-104087243D01*
X166315824Y-103683923D01*
X166534750Y-103156691D01*
X166535000Y-102870000D01*
X171256887Y-102870000D01*
X171366120Y-103419151D01*
X171677189Y-103884698D01*
X172142736Y-104195767D01*
X172691887Y-104305000D01*
X172748113Y-104305000D01*
X173297264Y-104195767D01*
X173762811Y-103884698D01*
X174073880Y-103419151D01*
X174183113Y-102870000D01*
X174073880Y-102320849D01*
X173762811Y-101855302D01*
X173297264Y-101544233D01*
X172748113Y-101435000D01*
X172691887Y-101435000D01*
X172142736Y-101544233D01*
X171677189Y-101855302D01*
X171366120Y-102320849D01*
X171256887Y-102870000D01*
X166535000Y-102870000D01*
X166535248Y-102585813D01*
X166317243Y-102058200D01*
X165913923Y-101654176D01*
X165386691Y-101435250D01*
X164815813Y-101434752D01*
X164288200Y-101652757D01*
X163884176Y-102056077D01*
X163665250Y-102583309D01*
X163664752Y-103154187D01*
X161426584Y-103154187D01*
X161483113Y-102870000D01*
X161373880Y-102320849D01*
X161062811Y-101855302D01*
X160597264Y-101544233D01*
X160048113Y-101435000D01*
X159991887Y-101435000D01*
X159442736Y-101544233D01*
X158977189Y-101855302D01*
X158666120Y-102320849D01*
X158556887Y-102870000D01*
X153835000Y-102870000D01*
X153835248Y-102585813D01*
X153617243Y-102058200D01*
X153213923Y-101654176D01*
X152686691Y-101435250D01*
X152115813Y-101434752D01*
X151588200Y-101652757D01*
X151184176Y-102056077D01*
X150965250Y-102583309D01*
X150964752Y-103154187D01*
X150987049Y-103208149D01*
X149322599Y-104872599D01*
X149157852Y-105119161D01*
X149100000Y-105410000D01*
X149100000Y-112715198D01*
X148450320Y-113364878D01*
X148404833Y-113364838D01*
X148061057Y-113506883D01*
X147797808Y-113769673D01*
X147655162Y-114113201D01*
X147654838Y-114485167D01*
X147527260Y-114485167D01*
X147564093Y-114300000D01*
X147451054Y-113731715D01*
X147129147Y-113249946D01*
X146799974Y-113030000D01*
X147129147Y-112810054D01*
X147451054Y-112328285D01*
X147564093Y-111760000D01*
X147451054Y-111191715D01*
X147129147Y-110709946D01*
X146647378Y-110388039D01*
X146079093Y-110275000D01*
X146020907Y-110275000D01*
X145452622Y-110388039D01*
X144970853Y-110709946D01*
X144648946Y-111191715D01*
X144535907Y-111760000D01*
X137287000Y-111760000D01*
X137287000Y-103154187D01*
X138264752Y-103154187D01*
X138482757Y-103681800D01*
X138886077Y-104085824D01*
X139413309Y-104304750D01*
X139984187Y-104305248D01*
X140511800Y-104087243D01*
X140915824Y-103683923D01*
X141134750Y-103156691D01*
X141135000Y-102870000D01*
X145856887Y-102870000D01*
X145966120Y-103419151D01*
X146277189Y-103884698D01*
X146742736Y-104195767D01*
X147291887Y-104305000D01*
X147348113Y-104305000D01*
X147897264Y-104195767D01*
X148362811Y-103884698D01*
X148673880Y-103419151D01*
X148783113Y-102870000D01*
X148673880Y-102320849D01*
X148362811Y-101855302D01*
X147897264Y-101544233D01*
X147348113Y-101435000D01*
X147291887Y-101435000D01*
X146742736Y-101544233D01*
X146277189Y-101855302D01*
X145966120Y-102320849D01*
X145856887Y-102870000D01*
X141135000Y-102870000D01*
X141135248Y-102585813D01*
X140917243Y-102058200D01*
X140513923Y-101654176D01*
X139986691Y-101435250D01*
X139415813Y-101434752D01*
X138888200Y-101652757D01*
X138484176Y-102056077D01*
X138265250Y-102583309D01*
X138264752Y-103154187D01*
X137287000Y-103154187D01*
X137287000Y-96393170D01*
X137897173Y-96646536D01*
X138958172Y-96647462D01*
X139938761Y-96242291D01*
X140646536Y-95535750D01*
X143245000Y-95535750D01*
X143245000Y-96276310D01*
X143341673Y-96509699D01*
X143520302Y-96688327D01*
X143753691Y-96785000D01*
X144494250Y-96785000D01*
X144653000Y-96626250D01*
X144653000Y-95377000D01*
X143403750Y-95377000D01*
X143245000Y-95535750D01*
X140646536Y-95535750D01*
X140689655Y-95492707D01*
X141096536Y-94512827D01*
X141096788Y-94223690D01*
X143245000Y-94223690D01*
X143245000Y-94964250D01*
X143403750Y-95123000D01*
X144653000Y-95123000D01*
X144653000Y-93873750D01*
X144907000Y-93873750D01*
X144907000Y-95123000D01*
X144927000Y-95123000D01*
X144927000Y-95377000D01*
X144907000Y-95377000D01*
X144907000Y-96626250D01*
X145065750Y-96785000D01*
X145806309Y-96785000D01*
X146039698Y-96688327D01*
X146218327Y-96509699D01*
X146274119Y-96375006D01*
X146449357Y-96550551D01*
X147013330Y-96784733D01*
X147623991Y-96785265D01*
X148188371Y-96552068D01*
X148620551Y-96120643D01*
X148854733Y-95556670D01*
X148854751Y-95535750D01*
X153405000Y-95535750D01*
X153405000Y-96276310D01*
X153501673Y-96509699D01*
X153680302Y-96688327D01*
X153913691Y-96785000D01*
X154654250Y-96785000D01*
X154813000Y-96626250D01*
X154813000Y-95377000D01*
X153563750Y-95377000D01*
X153405000Y-95535750D01*
X148854751Y-95535750D01*
X148855265Y-94946009D01*
X148622068Y-94381629D01*
X148464405Y-94223690D01*
X153405000Y-94223690D01*
X153405000Y-94964250D01*
X153563750Y-95123000D01*
X154813000Y-95123000D01*
X154813000Y-93873750D01*
X155067000Y-93873750D01*
X155067000Y-95123000D01*
X155087000Y-95123000D01*
X155087000Y-95377000D01*
X155067000Y-95377000D01*
X155067000Y-96626250D01*
X155225750Y-96785000D01*
X155966309Y-96785000D01*
X156199698Y-96688327D01*
X156378327Y-96509699D01*
X156434119Y-96375006D01*
X156609357Y-96550551D01*
X157173330Y-96784733D01*
X157783991Y-96785265D01*
X158348371Y-96552068D01*
X158780551Y-96120643D01*
X159014733Y-95556670D01*
X159014751Y-95535750D01*
X163565000Y-95535750D01*
X163565000Y-96276310D01*
X163661673Y-96509699D01*
X163840302Y-96688327D01*
X164073691Y-96785000D01*
X164814250Y-96785000D01*
X164973000Y-96626250D01*
X164973000Y-95377000D01*
X163723750Y-95377000D01*
X163565000Y-95535750D01*
X159014751Y-95535750D01*
X159015265Y-94946009D01*
X158782068Y-94381629D01*
X158624405Y-94223690D01*
X163565000Y-94223690D01*
X163565000Y-94964250D01*
X163723750Y-95123000D01*
X164973000Y-95123000D01*
X164973000Y-93873750D01*
X165227000Y-93873750D01*
X165227000Y-95123000D01*
X165247000Y-95123000D01*
X165247000Y-95377000D01*
X165227000Y-95377000D01*
X165227000Y-96626250D01*
X165385750Y-96785000D01*
X166126309Y-96785000D01*
X166359698Y-96688327D01*
X166538327Y-96509699D01*
X166594119Y-96375006D01*
X166769357Y-96550551D01*
X167333330Y-96784733D01*
X167943991Y-96785265D01*
X168508371Y-96552068D01*
X168940551Y-96120643D01*
X169174733Y-95556670D01*
X169175265Y-94946009D01*
X168942068Y-94381629D01*
X168510643Y-93949449D01*
X167946670Y-93715267D01*
X167336009Y-93714735D01*
X166771629Y-93947932D01*
X166594159Y-94125092D01*
X166538327Y-93990301D01*
X166359698Y-93811673D01*
X166126309Y-93715000D01*
X165385750Y-93715000D01*
X165227000Y-93873750D01*
X164973000Y-93873750D01*
X164814250Y-93715000D01*
X164073691Y-93715000D01*
X163840302Y-93811673D01*
X163661673Y-93990301D01*
X163565000Y-94223690D01*
X158624405Y-94223690D01*
X158350643Y-93949449D01*
X157786670Y-93715267D01*
X157176009Y-93714735D01*
X156611629Y-93947932D01*
X156434159Y-94125092D01*
X156378327Y-93990301D01*
X156199698Y-93811673D01*
X155966309Y-93715000D01*
X155225750Y-93715000D01*
X155067000Y-93873750D01*
X154813000Y-93873750D01*
X154654250Y-93715000D01*
X153913691Y-93715000D01*
X153680302Y-93811673D01*
X153501673Y-93990301D01*
X153405000Y-94223690D01*
X148464405Y-94223690D01*
X148190643Y-93949449D01*
X147626670Y-93715267D01*
X147016009Y-93714735D01*
X146451629Y-93947932D01*
X146274159Y-94125092D01*
X146218327Y-93990301D01*
X146039698Y-93811673D01*
X145806309Y-93715000D01*
X145065750Y-93715000D01*
X144907000Y-93873750D01*
X144653000Y-93873750D01*
X144494250Y-93715000D01*
X143753691Y-93715000D01*
X143520302Y-93811673D01*
X143341673Y-93990301D01*
X143245000Y-94223690D01*
X141096788Y-94223690D01*
X141097462Y-93451828D01*
X140843420Y-92837000D01*
X171576830Y-92837000D01*
X171323464Y-93447173D01*
X171323464Y-93447173D01*
G37*
X171323464Y-93447173D02*
X171322538Y-94508172D01*
X171727709Y-95488761D01*
X172477293Y-96239655D01*
X173457173Y-96646536D01*
X174518172Y-96647462D01*
X175498761Y-96242291D01*
X176249655Y-95492707D01*
X176403000Y-95123411D01*
X176403000Y-128395983D01*
X176252291Y-128031239D01*
X175502707Y-127280345D01*
X174522827Y-126873464D01*
X173461828Y-126872538D01*
X172481239Y-127277709D01*
X171730345Y-128027293D01*
X171323464Y-129007173D01*
X171323110Y-129413000D01*
X141097112Y-129413000D01*
X141097462Y-129011828D01*
X140692291Y-128031239D01*
X139942707Y-127280345D01*
X138962827Y-126873464D01*
X137901828Y-126872538D01*
X137287000Y-127126580D01*
X137287000Y-124745750D01*
X144565000Y-124745750D01*
X144565000Y-125436310D01*
X144661673Y-125669699D01*
X144840302Y-125848327D01*
X145073691Y-125945000D01*
X145764250Y-125945000D01*
X145923000Y-125786250D01*
X145923000Y-124587000D01*
X146177000Y-124587000D01*
X146177000Y-125786250D01*
X146335750Y-125945000D01*
X147026309Y-125945000D01*
X147259698Y-125848327D01*
X147438327Y-125669699D01*
X147535000Y-125436310D01*
X147535000Y-124745750D01*
X147376250Y-124587000D01*
X146177000Y-124587000D01*
X145923000Y-124587000D01*
X144723750Y-124587000D01*
X144565000Y-124745750D01*
X137287000Y-124745750D01*
X137287000Y-111760000D01*
X144535907Y-111760000D01*
X144648946Y-112328285D01*
X144970853Y-112810054D01*
X145300026Y-113030000D01*
X144970853Y-113249946D01*
X144648946Y-113731715D01*
X144535907Y-114300000D01*
X144648946Y-114868285D01*
X144970853Y-115350054D01*
X145300026Y-115570000D01*
X144970853Y-115789946D01*
X144648946Y-116271715D01*
X144535907Y-116840000D01*
X144648946Y-117408285D01*
X144970853Y-117890054D01*
X145300026Y-118110000D01*
X144970853Y-118329946D01*
X144648946Y-118811715D01*
X144535907Y-119380000D01*
X144648946Y-119948285D01*
X144970853Y-120430054D01*
X145300026Y-120650000D01*
X144970853Y-120869946D01*
X144648946Y-121351715D01*
X144535907Y-121920000D01*
X144648946Y-122488285D01*
X144970853Y-122970054D01*
X145014777Y-122999403D01*
X144840302Y-123071673D01*
X144661673Y-123250301D01*
X144565000Y-123483690D01*
X144565000Y-124174250D01*
X144723750Y-124333000D01*
X145923000Y-124333000D01*
X145923000Y-124313000D01*
X146177000Y-124313000D01*
X146177000Y-124333000D01*
X147376250Y-124333000D01*
X147535000Y-124174250D01*
X147535000Y-123483690D01*
X147438327Y-123250301D01*
X147259698Y-123071673D01*
X147085223Y-122999403D01*
X147129147Y-122970054D01*
X147195679Y-122870481D01*
X149322599Y-124997401D01*
X149569160Y-125162148D01*
X149617414Y-125171746D01*
X149860000Y-125220000D01*
X154132776Y-125220000D01*
X154113569Y-125248110D01*
X154062560Y-125500000D01*
X154062560Y-128500000D01*
X154106838Y-128735317D01*
X154245910Y-128951441D01*
X154458110Y-129096431D01*
X154710000Y-129147440D01*
X157710000Y-129147440D01*
X157945317Y-129103162D01*
X158161441Y-128964090D01*
X158306431Y-128751890D01*
X158357440Y-128500000D01*
X158357440Y-125500000D01*
X158343845Y-125427745D01*
X164271861Y-125427745D01*
X164345995Y-125673864D01*
X164883223Y-125866965D01*
X165453454Y-125839778D01*
X165854005Y-125673864D01*
X165928139Y-125427745D01*
X165100000Y-124599605D01*
X164271861Y-125427745D01*
X158343845Y-125427745D01*
X158313162Y-125264683D01*
X158284409Y-125220000D01*
X158750000Y-125220000D01*
X159040839Y-125162148D01*
X159287401Y-124997401D01*
X160081579Y-124203223D01*
X163653035Y-124203223D01*
X163680222Y-124773454D01*
X163846136Y-125174005D01*
X164092255Y-125248139D01*
X164920395Y-124420000D01*
X165279605Y-124420000D01*
X166107745Y-125248139D01*
X166353864Y-125174005D01*
X166546965Y-124636777D01*
X166519778Y-124066546D01*
X166353864Y-123665995D01*
X166107745Y-123591861D01*
X165279605Y-124420000D01*
X164920395Y-124420000D01*
X164092255Y-123591861D01*
X163846136Y-123665995D01*
X163653035Y-124203223D01*
X160081579Y-124203223D01*
X163164802Y-121120000D01*
X163652560Y-121120000D01*
X163652560Y-122720000D01*
X163696838Y-122955317D01*
X163835910Y-123171441D01*
X164048110Y-123316431D01*
X164286201Y-123364646D01*
X164271861Y-123412255D01*
X165100000Y-124240395D01*
X165928139Y-123412255D01*
X165913855Y-123364833D01*
X166135317Y-123323162D01*
X166351441Y-123184090D01*
X166496431Y-122971890D01*
X166547440Y-122720000D01*
X166547440Y-122196661D01*
X168782758Y-122196661D01*
X168994990Y-122710303D01*
X169387630Y-123103629D01*
X169595512Y-123189949D01*
X169389697Y-123274990D01*
X168996371Y-123667630D01*
X168783243Y-124180900D01*
X168782758Y-124736661D01*
X168994990Y-125250303D01*
X169387630Y-125643629D01*
X169595512Y-125729949D01*
X169389697Y-125814990D01*
X168996371Y-126207630D01*
X168783243Y-126720900D01*
X168782758Y-127276661D01*
X168994990Y-127790303D01*
X169387630Y-128183629D01*
X169900900Y-128396757D01*
X170456661Y-128397242D01*
X170970303Y-128185010D01*
X171363629Y-127792370D01*
X171576757Y-127279100D01*
X171577242Y-126723339D01*
X171365010Y-126209697D01*
X170972370Y-125816371D01*
X170764488Y-125730051D01*
X170970303Y-125645010D01*
X171363629Y-125252370D01*
X171576757Y-124739100D01*
X171577242Y-124183339D01*
X171365010Y-123669697D01*
X170972370Y-123276371D01*
X170764488Y-123190051D01*
X170970303Y-123105010D01*
X171363629Y-122712370D01*
X171576757Y-122199100D01*
X171577242Y-121643339D01*
X171365010Y-121129697D01*
X170972370Y-120736371D01*
X170459100Y-120523243D01*
X169903339Y-120522758D01*
X169389697Y-120734990D01*
X168996371Y-121127630D01*
X168783243Y-121640900D01*
X168782758Y-122196661D01*
X166547440Y-122196661D01*
X166547440Y-121120000D01*
X166503162Y-120884683D01*
X166364090Y-120668559D01*
X166151890Y-120523569D01*
X165900000Y-120472560D01*
X164300000Y-120472560D01*
X164064683Y-120516838D01*
X163848559Y-120655910D01*
X163703569Y-120868110D01*
X163652560Y-121120000D01*
X163164802Y-121120000D01*
X163969680Y-120315122D01*
X164015167Y-120315162D01*
X164358943Y-120173117D01*
X164622192Y-119910327D01*
X164764838Y-119566799D01*
X164765162Y-119194833D01*
X164623117Y-118851057D01*
X164360327Y-118587808D01*
X164016799Y-118445162D01*
X163644833Y-118444838D01*
X163301057Y-118586883D01*
X163037808Y-118849673D01*
X162895162Y-119193201D01*
X162895121Y-119240077D01*
X160184974Y-121950224D01*
X160185248Y-121635813D01*
X159967243Y-121108200D01*
X159563923Y-120704176D01*
X159036691Y-120485250D01*
X158465813Y-120484752D01*
X157938200Y-120702757D01*
X157534176Y-121106077D01*
X157315250Y-121633309D01*
X157314752Y-122204187D01*
X157532757Y-122731800D01*
X157936077Y-123135824D01*
X158463309Y-123354750D01*
X158780172Y-123355026D01*
X158435198Y-123700000D01*
X150174802Y-123700000D01*
X148743841Y-122269039D01*
X149738096Y-122269039D01*
X149898959Y-122657423D01*
X150274866Y-123072389D01*
X150780959Y-123311914D01*
X151003000Y-123190629D01*
X151003000Y-122047000D01*
X151257000Y-122047000D01*
X151257000Y-123190629D01*
X151479041Y-123311914D01*
X151985134Y-123072389D01*
X152361041Y-122657423D01*
X152521904Y-122269039D01*
X152399915Y-122047000D01*
X151257000Y-122047000D01*
X151003000Y-122047000D01*
X149860085Y-122047000D01*
X149738096Y-122269039D01*
X148743841Y-122269039D01*
X148045763Y-121570961D01*
X149738096Y-121570961D01*
X149860085Y-121793000D01*
X151003000Y-121793000D01*
X151003000Y-120649371D01*
X151257000Y-120649371D01*
X151257000Y-121793000D01*
X152399915Y-121793000D01*
X152521904Y-121570961D01*
X152361041Y-121182577D01*
X151985134Y-120767611D01*
X151479041Y-120528086D01*
X151257000Y-120649371D01*
X151003000Y-120649371D01*
X150780959Y-120528086D01*
X150274866Y-120767611D01*
X149898959Y-121182577D01*
X149738096Y-121570961D01*
X148045763Y-121570961D01*
X147857401Y-121382599D01*
X147610839Y-121217852D01*
X147323407Y-121160678D01*
X147129147Y-120869946D01*
X146799974Y-120650000D01*
X147129147Y-120430054D01*
X147451054Y-119948285D01*
X147564093Y-119380000D01*
X147451054Y-118811715D01*
X147129147Y-118329946D01*
X146799974Y-118110000D01*
X147129147Y-117890054D01*
X147451054Y-117408285D01*
X147564093Y-116840000D01*
X147513131Y-116583795D01*
X150764716Y-116583795D01*
X151013106Y-117184943D01*
X151472637Y-117645278D01*
X152073352Y-117894716D01*
X152723795Y-117895284D01*
X153324943Y-117646894D01*
X153785278Y-117187363D01*
X154034716Y-116586648D01*
X154034718Y-116583795D01*
X157264716Y-116583795D01*
X157513106Y-117184943D01*
X157972637Y-117645278D01*
X158573352Y-117894716D01*
X159223795Y-117895284D01*
X159824943Y-117646894D01*
X160285278Y-117187363D01*
X160534716Y-116586648D01*
X160535193Y-116040000D01*
X163652560Y-116040000D01*
X163652560Y-117640000D01*
X163696838Y-117875317D01*
X163835910Y-118091441D01*
X164048110Y-118236431D01*
X164300000Y-118287440D01*
X165900000Y-118287440D01*
X166135317Y-118243162D01*
X166351441Y-118104090D01*
X166496431Y-117891890D01*
X166527815Y-117736911D01*
X166625302Y-117882811D01*
X167090849Y-118193880D01*
X167640000Y-118303113D01*
X168189151Y-118193880D01*
X168654698Y-117882811D01*
X168910000Y-117500725D01*
X169165302Y-117882811D01*
X169630849Y-118193880D01*
X170180000Y-118303113D01*
X170729151Y-118193880D01*
X171194698Y-117882811D01*
X171464986Y-117478297D01*
X171567611Y-117695134D01*
X171982577Y-118071041D01*
X172370961Y-118231904D01*
X172593000Y-118109915D01*
X172593000Y-116967000D01*
X172847000Y-116967000D01*
X172847000Y-118109915D01*
X173069039Y-118231904D01*
X173457423Y-118071041D01*
X173872389Y-117695134D01*
X174111914Y-117189041D01*
X173990629Y-116967000D01*
X172847000Y-116967000D01*
X172593000Y-116967000D01*
X172573000Y-116967000D01*
X172573000Y-116713000D01*
X172593000Y-116713000D01*
X172593000Y-115570085D01*
X172847000Y-115570085D01*
X172847000Y-116713000D01*
X173990629Y-116713000D01*
X174111914Y-116490959D01*
X173872389Y-115984866D01*
X173457423Y-115608959D01*
X173069039Y-115448096D01*
X172847000Y-115570085D01*
X172593000Y-115570085D01*
X172370961Y-115448096D01*
X171982577Y-115608959D01*
X171567611Y-115984866D01*
X171464986Y-116201703D01*
X171194698Y-115797189D01*
X170729151Y-115486120D01*
X170180000Y-115376887D01*
X169630849Y-115486120D01*
X169165302Y-115797189D01*
X168910000Y-116179275D01*
X168654698Y-115797189D01*
X168189151Y-115486120D01*
X167640000Y-115376887D01*
X167090849Y-115486120D01*
X166625302Y-115797189D01*
X166528899Y-115941465D01*
X166503162Y-115804683D01*
X166364090Y-115588559D01*
X166151890Y-115443569D01*
X165900000Y-115392560D01*
X164300000Y-115392560D01*
X164064683Y-115436838D01*
X163848559Y-115575910D01*
X163703569Y-115788110D01*
X163652560Y-116040000D01*
X160535193Y-116040000D01*
X160535284Y-115936205D01*
X160286894Y-115335057D01*
X159827363Y-114874722D01*
X159226648Y-114625284D01*
X158576205Y-114624716D01*
X157975057Y-114873106D01*
X157514722Y-115332637D01*
X157265284Y-115933352D01*
X157264716Y-116583795D01*
X154034718Y-116583795D01*
X154035284Y-115936205D01*
X153786894Y-115335057D01*
X153327363Y-114874722D01*
X152726648Y-114625284D01*
X152076205Y-114624716D01*
X151475057Y-114873106D01*
X151014722Y-115332637D01*
X150765284Y-115933352D01*
X150764716Y-116583795D01*
X147513131Y-116583795D01*
X147451054Y-116271715D01*
X147129147Y-115789946D01*
X146799974Y-115570000D01*
X147129147Y-115350054D01*
X147451054Y-114868285D01*
X147527260Y-114485167D01*
X147654838Y-114485167D01*
X147796883Y-114828943D01*
X148059673Y-115092192D01*
X148403201Y-115234838D01*
X148775167Y-115235162D01*
X149118943Y-115093117D01*
X149382192Y-114830327D01*
X149524838Y-114486799D01*
X149524879Y-114439923D01*
X150397401Y-113567401D01*
X150562148Y-113320840D01*
X150620000Y-113030000D01*
X150620000Y-112083795D01*
X150764716Y-112083795D01*
X151013106Y-112684943D01*
X151472637Y-113145278D01*
X152073352Y-113394716D01*
X152723795Y-113395284D01*
X153324943Y-113146894D01*
X153785278Y-112687363D01*
X154034716Y-112086648D01*
X154034718Y-112083795D01*
X157264716Y-112083795D01*
X157513106Y-112684943D01*
X157972637Y-113145278D01*
X158573352Y-113394716D01*
X159223795Y-113395284D01*
X159659710Y-113215167D01*
X161624838Y-113215167D01*
X161766883Y-113558943D01*
X162029673Y-113822192D01*
X162373201Y-113964838D01*
X162745167Y-113965162D01*
X163088943Y-113823117D01*
X163352192Y-113560327D01*
X163494838Y-113216799D01*
X163494879Y-113169923D01*
X165637401Y-111027401D01*
X165802148Y-110780840D01*
X165821587Y-110683113D01*
X165860000Y-110490000D01*
X165860000Y-110432995D01*
X166114698Y-110262811D01*
X166370000Y-109880725D01*
X166625302Y-110262811D01*
X167090849Y-110573880D01*
X167640000Y-110683113D01*
X168189151Y-110573880D01*
X168654698Y-110262811D01*
X168910000Y-109880725D01*
X169165302Y-110262811D01*
X169630849Y-110573880D01*
X170180000Y-110683113D01*
X170729151Y-110573880D01*
X171194698Y-110262811D01*
X171450000Y-109880725D01*
X171705302Y-110262811D01*
X172170849Y-110573880D01*
X172720000Y-110683113D01*
X173269151Y-110573880D01*
X173734698Y-110262811D01*
X174045767Y-109797264D01*
X174155000Y-109248113D01*
X174155000Y-109191887D01*
X174045767Y-108642736D01*
X173734698Y-108177189D01*
X173269151Y-107866120D01*
X172720000Y-107756887D01*
X172170849Y-107866120D01*
X171705302Y-108177189D01*
X171450000Y-108559275D01*
X171194698Y-108177189D01*
X170729151Y-107866120D01*
X170180000Y-107756887D01*
X169630849Y-107866120D01*
X169165302Y-108177189D01*
X168910000Y-108559275D01*
X168654698Y-108177189D01*
X168189151Y-107866120D01*
X167640000Y-107756887D01*
X167090849Y-107866120D01*
X166625302Y-108177189D01*
X166370000Y-108559275D01*
X166114698Y-108177189D01*
X165649151Y-107866120D01*
X165100000Y-107756887D01*
X164550849Y-107866120D01*
X164085302Y-108177189D01*
X163774233Y-108642736D01*
X163665000Y-109191887D01*
X163665000Y-109248113D01*
X163774233Y-109797264D01*
X164085302Y-110262811D01*
X164185462Y-110329736D01*
X162420320Y-112094878D01*
X162374833Y-112094838D01*
X162031057Y-112236883D01*
X161767808Y-112499673D01*
X161625162Y-112843201D01*
X161624838Y-113215167D01*
X159659710Y-113215167D01*
X159824943Y-113146894D01*
X160285278Y-112687363D01*
X160534716Y-112086648D01*
X160535284Y-111436205D01*
X160286894Y-110835057D01*
X159827363Y-110374722D01*
X159226648Y-110125284D01*
X158576205Y-110124716D01*
X157975057Y-110373106D01*
X157514722Y-110832637D01*
X157265284Y-111433352D01*
X157264716Y-112083795D01*
X154034718Y-112083795D01*
X154035284Y-111436205D01*
X153786894Y-110835057D01*
X153327363Y-110374722D01*
X152726648Y-110125284D01*
X152076205Y-110124716D01*
X151475057Y-110373106D01*
X151014722Y-110832637D01*
X150765284Y-111433352D01*
X150764716Y-112083795D01*
X150620000Y-112083795D01*
X150620000Y-108023970D01*
X154875635Y-108023970D01*
X155035418Y-108342739D01*
X155826187Y-108652723D01*
X156675387Y-108636497D01*
X157384582Y-108342739D01*
X157544365Y-108023970D01*
X156210000Y-106689605D01*
X154875635Y-108023970D01*
X150620000Y-108023970D01*
X150620000Y-106126187D01*
X154067277Y-106126187D01*
X154083503Y-106975387D01*
X154377261Y-107684582D01*
X154696030Y-107844365D01*
X156030395Y-106510000D01*
X156389605Y-106510000D01*
X157723970Y-107844365D01*
X158042739Y-107684582D01*
X158352723Y-106893813D01*
X158336497Y-106044613D01*
X158042739Y-105335418D01*
X157723970Y-105175635D01*
X156389605Y-106510000D01*
X156030395Y-106510000D01*
X154696030Y-105175635D01*
X154377261Y-105335418D01*
X154067277Y-106126187D01*
X150620000Y-106126187D01*
X150620000Y-105724802D01*
X151348772Y-104996030D01*
X154875635Y-104996030D01*
X156210000Y-106330395D01*
X157544365Y-104996030D01*
X157384582Y-104677261D01*
X156593813Y-104367277D01*
X155744613Y-104383503D01*
X155035418Y-104677261D01*
X154875635Y-104996030D01*
X151348772Y-104996030D01*
X152061546Y-104283256D01*
X152113309Y-104304750D01*
X152684187Y-104305248D01*
X153211800Y-104087243D01*
X153615824Y-103683923D01*
X153834750Y-103156691D01*
X153835000Y-102870000D01*
X158556887Y-102870000D01*
X158666120Y-103419151D01*
X158977189Y-103884698D01*
X159442736Y-104195767D01*
X159991887Y-104305000D01*
X160048113Y-104305000D01*
X160597264Y-104195767D01*
X161062811Y-103884698D01*
X161373880Y-103419151D01*
X161426584Y-103154187D01*
X163664752Y-103154187D01*
X163882757Y-103681800D01*
X164286077Y-104085824D01*
X164813309Y-104304750D01*
X165384187Y-104305248D01*
X165911800Y-104087243D01*
X166315824Y-103683923D01*
X166534750Y-103156691D01*
X166535000Y-102870000D01*
X171256887Y-102870000D01*
X171366120Y-103419151D01*
X171677189Y-103884698D01*
X172142736Y-104195767D01*
X172691887Y-104305000D01*
X172748113Y-104305000D01*
X173297264Y-104195767D01*
X173762811Y-103884698D01*
X174073880Y-103419151D01*
X174183113Y-102870000D01*
X174073880Y-102320849D01*
X173762811Y-101855302D01*
X173297264Y-101544233D01*
X172748113Y-101435000D01*
X172691887Y-101435000D01*
X172142736Y-101544233D01*
X171677189Y-101855302D01*
X171366120Y-102320849D01*
X171256887Y-102870000D01*
X166535000Y-102870000D01*
X166535248Y-102585813D01*
X166317243Y-102058200D01*
X165913923Y-101654176D01*
X165386691Y-101435250D01*
X164815813Y-101434752D01*
X164288200Y-101652757D01*
X163884176Y-102056077D01*
X163665250Y-102583309D01*
X163664752Y-103154187D01*
X161426584Y-103154187D01*
X161483113Y-102870000D01*
X161373880Y-102320849D01*
X161062811Y-101855302D01*
X160597264Y-101544233D01*
X160048113Y-101435000D01*
X159991887Y-101435000D01*
X159442736Y-101544233D01*
X158977189Y-101855302D01*
X158666120Y-102320849D01*
X158556887Y-102870000D01*
X153835000Y-102870000D01*
X153835248Y-102585813D01*
X153617243Y-102058200D01*
X153213923Y-101654176D01*
X152686691Y-101435250D01*
X152115813Y-101434752D01*
X151588200Y-101652757D01*
X151184176Y-102056077D01*
X150965250Y-102583309D01*
X150964752Y-103154187D01*
X150987049Y-103208149D01*
X149322599Y-104872599D01*
X149157852Y-105119161D01*
X149100000Y-105410000D01*
X149100000Y-112715198D01*
X148450320Y-113364878D01*
X148404833Y-113364838D01*
X148061057Y-113506883D01*
X147797808Y-113769673D01*
X147655162Y-114113201D01*
X147654838Y-114485167D01*
X147527260Y-114485167D01*
X147564093Y-114300000D01*
X147451054Y-113731715D01*
X147129147Y-113249946D01*
X146799974Y-113030000D01*
X147129147Y-112810054D01*
X147451054Y-112328285D01*
X147564093Y-111760000D01*
X147451054Y-111191715D01*
X147129147Y-110709946D01*
X146647378Y-110388039D01*
X146079093Y-110275000D01*
X146020907Y-110275000D01*
X145452622Y-110388039D01*
X144970853Y-110709946D01*
X144648946Y-111191715D01*
X144535907Y-111760000D01*
X137287000Y-111760000D01*
X137287000Y-103154187D01*
X138264752Y-103154187D01*
X138482757Y-103681800D01*
X138886077Y-104085824D01*
X139413309Y-104304750D01*
X139984187Y-104305248D01*
X140511800Y-104087243D01*
X140915824Y-103683923D01*
X141134750Y-103156691D01*
X141135000Y-102870000D01*
X145856887Y-102870000D01*
X145966120Y-103419151D01*
X146277189Y-103884698D01*
X146742736Y-104195767D01*
X147291887Y-104305000D01*
X147348113Y-104305000D01*
X147897264Y-104195767D01*
X148362811Y-103884698D01*
X148673880Y-103419151D01*
X148783113Y-102870000D01*
X148673880Y-102320849D01*
X148362811Y-101855302D01*
X147897264Y-101544233D01*
X147348113Y-101435000D01*
X147291887Y-101435000D01*
X146742736Y-101544233D01*
X146277189Y-101855302D01*
X145966120Y-102320849D01*
X145856887Y-102870000D01*
X141135000Y-102870000D01*
X141135248Y-102585813D01*
X140917243Y-102058200D01*
X140513923Y-101654176D01*
X139986691Y-101435250D01*
X139415813Y-101434752D01*
X138888200Y-101652757D01*
X138484176Y-102056077D01*
X138265250Y-102583309D01*
X138264752Y-103154187D01*
X137287000Y-103154187D01*
X137287000Y-96393170D01*
X137897173Y-96646536D01*
X138958172Y-96647462D01*
X139938761Y-96242291D01*
X140646536Y-95535750D01*
X143245000Y-95535750D01*
X143245000Y-96276310D01*
X143341673Y-96509699D01*
X143520302Y-96688327D01*
X143753691Y-96785000D01*
X144494250Y-96785000D01*
X144653000Y-96626250D01*
X144653000Y-95377000D01*
X143403750Y-95377000D01*
X143245000Y-95535750D01*
X140646536Y-95535750D01*
X140689655Y-95492707D01*
X141096536Y-94512827D01*
X141096788Y-94223690D01*
X143245000Y-94223690D01*
X143245000Y-94964250D01*
X143403750Y-95123000D01*
X144653000Y-95123000D01*
X144653000Y-93873750D01*
X144907000Y-93873750D01*
X144907000Y-95123000D01*
X144927000Y-95123000D01*
X144927000Y-95377000D01*
X144907000Y-95377000D01*
X144907000Y-96626250D01*
X145065750Y-96785000D01*
X145806309Y-96785000D01*
X146039698Y-96688327D01*
X146218327Y-96509699D01*
X146274119Y-96375006D01*
X146449357Y-96550551D01*
X147013330Y-96784733D01*
X147623991Y-96785265D01*
X148188371Y-96552068D01*
X148620551Y-96120643D01*
X148854733Y-95556670D01*
X148854751Y-95535750D01*
X153405000Y-95535750D01*
X153405000Y-96276310D01*
X153501673Y-96509699D01*
X153680302Y-96688327D01*
X153913691Y-96785000D01*
X154654250Y-96785000D01*
X154813000Y-96626250D01*
X154813000Y-95377000D01*
X153563750Y-95377000D01*
X153405000Y-95535750D01*
X148854751Y-95535750D01*
X148855265Y-94946009D01*
X148622068Y-94381629D01*
X148464405Y-94223690D01*
X153405000Y-94223690D01*
X153405000Y-94964250D01*
X153563750Y-95123000D01*
X154813000Y-95123000D01*
X154813000Y-93873750D01*
X155067000Y-93873750D01*
X155067000Y-95123000D01*
X155087000Y-95123000D01*
X155087000Y-95377000D01*
X155067000Y-95377000D01*
X155067000Y-96626250D01*
X155225750Y-96785000D01*
X155966309Y-96785000D01*
X156199698Y-96688327D01*
X156378327Y-96509699D01*
X156434119Y-96375006D01*
X156609357Y-96550551D01*
X157173330Y-96784733D01*
X157783991Y-96785265D01*
X158348371Y-96552068D01*
X158780551Y-96120643D01*
X159014733Y-95556670D01*
X159014751Y-95535750D01*
X163565000Y-95535750D01*
X163565000Y-96276310D01*
X163661673Y-96509699D01*
X163840302Y-96688327D01*
X164073691Y-96785000D01*
X164814250Y-96785000D01*
X164973000Y-96626250D01*
X164973000Y-95377000D01*
X163723750Y-95377000D01*
X163565000Y-95535750D01*
X159014751Y-95535750D01*
X159015265Y-94946009D01*
X158782068Y-94381629D01*
X158624405Y-94223690D01*
X163565000Y-94223690D01*
X163565000Y-94964250D01*
X163723750Y-95123000D01*
X164973000Y-95123000D01*
X164973000Y-93873750D01*
X165227000Y-93873750D01*
X165227000Y-95123000D01*
X165247000Y-95123000D01*
X165247000Y-95377000D01*
X165227000Y-95377000D01*
X165227000Y-96626250D01*
X165385750Y-96785000D01*
X166126309Y-96785000D01*
X166359698Y-96688327D01*
X166538327Y-96509699D01*
X166594119Y-96375006D01*
X166769357Y-96550551D01*
X167333330Y-96784733D01*
X167943991Y-96785265D01*
X168508371Y-96552068D01*
X168940551Y-96120643D01*
X169174733Y-95556670D01*
X169175265Y-94946009D01*
X168942068Y-94381629D01*
X168510643Y-93949449D01*
X167946670Y-93715267D01*
X167336009Y-93714735D01*
X166771629Y-93947932D01*
X166594159Y-94125092D01*
X166538327Y-93990301D01*
X166359698Y-93811673D01*
X166126309Y-93715000D01*
X165385750Y-93715000D01*
X165227000Y-93873750D01*
X164973000Y-93873750D01*
X164814250Y-93715000D01*
X164073691Y-93715000D01*
X163840302Y-93811673D01*
X163661673Y-93990301D01*
X163565000Y-94223690D01*
X158624405Y-94223690D01*
X158350643Y-93949449D01*
X157786670Y-93715267D01*
X157176009Y-93714735D01*
X156611629Y-93947932D01*
X156434159Y-94125092D01*
X156378327Y-93990301D01*
X156199698Y-93811673D01*
X155966309Y-93715000D01*
X155225750Y-93715000D01*
X155067000Y-93873750D01*
X154813000Y-93873750D01*
X154654250Y-93715000D01*
X153913691Y-93715000D01*
X153680302Y-93811673D01*
X153501673Y-93990301D01*
X153405000Y-94223690D01*
X148464405Y-94223690D01*
X148190643Y-93949449D01*
X147626670Y-93715267D01*
X147016009Y-93714735D01*
X146451629Y-93947932D01*
X146274159Y-94125092D01*
X146218327Y-93990301D01*
X146039698Y-93811673D01*
X145806309Y-93715000D01*
X145065750Y-93715000D01*
X144907000Y-93873750D01*
X144653000Y-93873750D01*
X144494250Y-93715000D01*
X143753691Y-93715000D01*
X143520302Y-93811673D01*
X143341673Y-93990301D01*
X143245000Y-94223690D01*
X141096788Y-94223690D01*
X141097462Y-93451828D01*
X140843420Y-92837000D01*
X171576830Y-92837000D01*
X171323464Y-93447173D01*
M02*
