G04 #@! TF.FileFunction,Legend,Top*
%FSLAX46Y46*%
G04 Gerber Fmt 4.6, Leading zero omitted, Abs format (unit mm)*
G04 Created by KiCad (PCBNEW 4.0.7-e2-6376~58~ubuntu17.04.1) date Thu Jun  7 00:03:39 2018*
%MOMM*%
%LPD*%
G01*
G04 APERTURE LIST*
%ADD10C,0.100000*%
%ADD11C,0.300000*%
%ADD12C,0.120000*%
%ADD13C,0.150000*%
G04 APERTURE END LIST*
D10*
D11*
X143697143Y-130488571D02*
X143697143Y-131988571D01*
X143697143Y-131417143D02*
X143554286Y-131488571D01*
X143268572Y-131488571D01*
X143125714Y-131417143D01*
X143054286Y-131345714D01*
X142982857Y-131202857D01*
X142982857Y-130774286D01*
X143054286Y-130631429D01*
X143125714Y-130560000D01*
X143268572Y-130488571D01*
X143554286Y-130488571D01*
X143697143Y-130560000D01*
X145054286Y-130488571D02*
X145054286Y-131488571D01*
X144411429Y-130488571D02*
X144411429Y-131274286D01*
X144482857Y-131417143D01*
X144625715Y-131488571D01*
X144840000Y-131488571D01*
X144982857Y-131417143D01*
X145054286Y-131345714D01*
X145768572Y-131488571D02*
X145768572Y-130488571D01*
X145768572Y-129988571D02*
X145697143Y-130060000D01*
X145768572Y-130131429D01*
X145840000Y-130060000D01*
X145768572Y-129988571D01*
X145768572Y-130131429D01*
X147125715Y-131417143D02*
X146982858Y-131488571D01*
X146697144Y-131488571D01*
X146554286Y-131417143D01*
X146482858Y-131345714D01*
X146411429Y-131202857D01*
X146411429Y-130774286D01*
X146482858Y-130631429D01*
X146554286Y-130560000D01*
X146697144Y-130488571D01*
X146982858Y-130488571D01*
X147125715Y-130560000D01*
X147768572Y-131488571D02*
X147768572Y-129988571D01*
X147911429Y-130917143D02*
X148340000Y-131488571D01*
X148340000Y-130488571D02*
X147768572Y-131060000D01*
X148840001Y-130488571D02*
X149197144Y-131488571D01*
X149554286Y-130488571D02*
X149197144Y-131488571D01*
X149054286Y-131845714D01*
X148982858Y-131917143D01*
X148840001Y-131988571D01*
X151554286Y-129988571D02*
X151697143Y-129988571D01*
X151840000Y-130060000D01*
X151911429Y-130131429D01*
X151982858Y-130274286D01*
X152054286Y-130560000D01*
X152054286Y-130917143D01*
X151982858Y-131202857D01*
X151911429Y-131345714D01*
X151840000Y-131417143D01*
X151697143Y-131488571D01*
X151554286Y-131488571D01*
X151411429Y-131417143D01*
X151340000Y-131345714D01*
X151268572Y-131202857D01*
X151197143Y-130917143D01*
X151197143Y-130560000D01*
X151268572Y-130274286D01*
X151340000Y-130131429D01*
X151411429Y-130060000D01*
X151554286Y-129988571D01*
X152697143Y-131345714D02*
X152768571Y-131417143D01*
X152697143Y-131488571D01*
X152625714Y-131417143D01*
X152697143Y-131345714D01*
X152697143Y-131488571D01*
X153340000Y-130131429D02*
X153411429Y-130060000D01*
X153554286Y-129988571D01*
X153911429Y-129988571D01*
X154054286Y-130060000D01*
X154125715Y-130131429D01*
X154197143Y-130274286D01*
X154197143Y-130417143D01*
X154125715Y-130631429D01*
X153268572Y-131488571D01*
X154197143Y-131488571D01*
D12*
X139640000Y-119650000D02*
G75*
G02X139640000Y-121650000I0J-1000000D01*
G01*
X139640000Y-121650000D02*
X139640000Y-123300000D01*
X139640000Y-123300000D02*
X149920000Y-123300000D01*
X149920000Y-123300000D02*
X149920000Y-118000000D01*
X149920000Y-118000000D02*
X139640000Y-118000000D01*
X139640000Y-118000000D02*
X139640000Y-119650000D01*
X138520277Y-101854278D02*
G75*
G03X138520000Y-106465580I1179723J-2305722D01*
G01*
X140879723Y-101854278D02*
G75*
G02X140880000Y-106465580I-1179723J-2305722D01*
G01*
X140879723Y-101854278D02*
G75*
G03X138520000Y-101854420I-1179723J-2305722D01*
G01*
X137150000Y-104160000D02*
X142250000Y-104160000D01*
X137150000Y-104120000D02*
X142250000Y-104120000D01*
X137151000Y-104080000D02*
X142249000Y-104080000D01*
X137152000Y-104040000D02*
X142248000Y-104040000D01*
X137154000Y-104000000D02*
X142246000Y-104000000D01*
X137157000Y-103960000D02*
X142243000Y-103960000D01*
X137161000Y-103920000D02*
X142239000Y-103920000D01*
X137165000Y-103880000D02*
X138720000Y-103880000D01*
X140680000Y-103880000D02*
X142235000Y-103880000D01*
X137169000Y-103840000D02*
X138720000Y-103840000D01*
X140680000Y-103840000D02*
X142231000Y-103840000D01*
X137175000Y-103800000D02*
X138720000Y-103800000D01*
X140680000Y-103800000D02*
X142225000Y-103800000D01*
X137181000Y-103760000D02*
X138720000Y-103760000D01*
X140680000Y-103760000D02*
X142219000Y-103760000D01*
X137187000Y-103720000D02*
X138720000Y-103720000D01*
X140680000Y-103720000D02*
X142213000Y-103720000D01*
X137194000Y-103680000D02*
X138720000Y-103680000D01*
X140680000Y-103680000D02*
X142206000Y-103680000D01*
X137202000Y-103640000D02*
X138720000Y-103640000D01*
X140680000Y-103640000D02*
X142198000Y-103640000D01*
X137211000Y-103600000D02*
X138720000Y-103600000D01*
X140680000Y-103600000D02*
X142189000Y-103600000D01*
X137220000Y-103560000D02*
X138720000Y-103560000D01*
X140680000Y-103560000D02*
X142180000Y-103560000D01*
X137230000Y-103520000D02*
X138720000Y-103520000D01*
X140680000Y-103520000D02*
X142170000Y-103520000D01*
X137240000Y-103480000D02*
X138720000Y-103480000D01*
X140680000Y-103480000D02*
X142160000Y-103480000D01*
X137252000Y-103439000D02*
X138720000Y-103439000D01*
X140680000Y-103439000D02*
X142148000Y-103439000D01*
X137264000Y-103399000D02*
X138720000Y-103399000D01*
X140680000Y-103399000D02*
X142136000Y-103399000D01*
X137276000Y-103359000D02*
X138720000Y-103359000D01*
X140680000Y-103359000D02*
X142124000Y-103359000D01*
X137290000Y-103319000D02*
X138720000Y-103319000D01*
X140680000Y-103319000D02*
X142110000Y-103319000D01*
X137304000Y-103279000D02*
X138720000Y-103279000D01*
X140680000Y-103279000D02*
X142096000Y-103279000D01*
X137318000Y-103239000D02*
X138720000Y-103239000D01*
X140680000Y-103239000D02*
X142082000Y-103239000D01*
X137334000Y-103199000D02*
X138720000Y-103199000D01*
X140680000Y-103199000D02*
X142066000Y-103199000D01*
X137350000Y-103159000D02*
X138720000Y-103159000D01*
X140680000Y-103159000D02*
X142050000Y-103159000D01*
X137367000Y-103119000D02*
X138720000Y-103119000D01*
X140680000Y-103119000D02*
X142033000Y-103119000D01*
X137385000Y-103079000D02*
X138720000Y-103079000D01*
X140680000Y-103079000D02*
X142015000Y-103079000D01*
X137404000Y-103039000D02*
X138720000Y-103039000D01*
X140680000Y-103039000D02*
X141996000Y-103039000D01*
X137424000Y-102999000D02*
X138720000Y-102999000D01*
X140680000Y-102999000D02*
X141976000Y-102999000D01*
X137444000Y-102959000D02*
X138720000Y-102959000D01*
X140680000Y-102959000D02*
X141956000Y-102959000D01*
X137466000Y-102919000D02*
X138720000Y-102919000D01*
X140680000Y-102919000D02*
X141934000Y-102919000D01*
X137488000Y-102879000D02*
X138720000Y-102879000D01*
X140680000Y-102879000D02*
X141912000Y-102879000D01*
X137511000Y-102839000D02*
X138720000Y-102839000D01*
X140680000Y-102839000D02*
X141889000Y-102839000D01*
X137535000Y-102799000D02*
X138720000Y-102799000D01*
X140680000Y-102799000D02*
X141865000Y-102799000D01*
X137560000Y-102759000D02*
X138720000Y-102759000D01*
X140680000Y-102759000D02*
X141840000Y-102759000D01*
X137587000Y-102719000D02*
X138720000Y-102719000D01*
X140680000Y-102719000D02*
X141813000Y-102719000D01*
X137614000Y-102679000D02*
X138720000Y-102679000D01*
X140680000Y-102679000D02*
X141786000Y-102679000D01*
X137642000Y-102639000D02*
X138720000Y-102639000D01*
X140680000Y-102639000D02*
X141758000Y-102639000D01*
X137672000Y-102599000D02*
X138720000Y-102599000D01*
X140680000Y-102599000D02*
X141728000Y-102599000D01*
X137703000Y-102559000D02*
X138720000Y-102559000D01*
X140680000Y-102559000D02*
X141697000Y-102559000D01*
X137735000Y-102519000D02*
X138720000Y-102519000D01*
X140680000Y-102519000D02*
X141665000Y-102519000D01*
X137768000Y-102479000D02*
X138720000Y-102479000D01*
X140680000Y-102479000D02*
X141632000Y-102479000D01*
X137803000Y-102439000D02*
X138720000Y-102439000D01*
X140680000Y-102439000D02*
X141597000Y-102439000D01*
X137839000Y-102399000D02*
X138720000Y-102399000D01*
X140680000Y-102399000D02*
X141561000Y-102399000D01*
X137877000Y-102359000D02*
X138720000Y-102359000D01*
X140680000Y-102359000D02*
X141523000Y-102359000D01*
X137917000Y-102319000D02*
X138720000Y-102319000D01*
X140680000Y-102319000D02*
X141483000Y-102319000D01*
X137958000Y-102279000D02*
X138720000Y-102279000D01*
X140680000Y-102279000D02*
X141442000Y-102279000D01*
X138001000Y-102239000D02*
X138720000Y-102239000D01*
X140680000Y-102239000D02*
X141399000Y-102239000D01*
X138046000Y-102199000D02*
X138720000Y-102199000D01*
X140680000Y-102199000D02*
X141354000Y-102199000D01*
X138094000Y-102159000D02*
X138720000Y-102159000D01*
X140680000Y-102159000D02*
X141306000Y-102159000D01*
X138144000Y-102119000D02*
X138720000Y-102119000D01*
X140680000Y-102119000D02*
X141256000Y-102119000D01*
X138196000Y-102079000D02*
X138720000Y-102079000D01*
X140680000Y-102079000D02*
X141204000Y-102079000D01*
X138252000Y-102039000D02*
X138720000Y-102039000D01*
X140680000Y-102039000D02*
X141148000Y-102039000D01*
X138310000Y-101999000D02*
X138720000Y-101999000D01*
X140680000Y-101999000D02*
X141090000Y-101999000D01*
X138373000Y-101959000D02*
X138720000Y-101959000D01*
X140680000Y-101959000D02*
X141027000Y-101959000D01*
X138439000Y-101919000D02*
X140961000Y-101919000D01*
X138511000Y-101879000D02*
X140889000Y-101879000D01*
X138588000Y-101839000D02*
X140812000Y-101839000D01*
X138672000Y-101799000D02*
X140728000Y-101799000D01*
X138766000Y-101759000D02*
X140634000Y-101759000D01*
X138871000Y-101719000D02*
X140529000Y-101719000D01*
X138993000Y-101679000D02*
X140407000Y-101679000D01*
X139141000Y-101639000D02*
X140259000Y-101639000D01*
X139346000Y-101599000D02*
X140054000Y-101599000D01*
X139700000Y-107610000D02*
X139700000Y-106410000D01*
X139050000Y-107010000D02*
X140350000Y-107010000D01*
X168090000Y-95250462D02*
G75*
G03X162540000Y-93705170I-2990000J462D01*
G01*
X168090000Y-95249538D02*
G75*
G02X162540000Y-96794830I-2990000J-462D01*
G01*
X167600000Y-95250000D02*
G75*
G03X167600000Y-95250000I-2500000J0D01*
G01*
X162540000Y-93705000D02*
X162540000Y-96795000D01*
X159200000Y-95250462D02*
G75*
G03X153650000Y-93705170I-2990000J462D01*
G01*
X159200000Y-95249538D02*
G75*
G02X153650000Y-96794830I-2990000J-462D01*
G01*
X158710000Y-95250000D02*
G75*
G03X158710000Y-95250000I-2500000J0D01*
G01*
X153650000Y-93705000D02*
X153650000Y-96795000D01*
X150310000Y-95250462D02*
G75*
G03X144760000Y-93705170I-2990000J462D01*
G01*
X150310000Y-95249538D02*
G75*
G02X144760000Y-96794830I-2990000J-462D01*
G01*
X149820000Y-95250000D02*
G75*
G03X149820000Y-95250000I-2500000J0D01*
G01*
X144760000Y-93705000D02*
X144760000Y-96795000D01*
X170240000Y-123360000D02*
X154880000Y-123360000D01*
X154880000Y-123360000D02*
X154880000Y-126020000D01*
X154880000Y-126020000D02*
X170240000Y-126020000D01*
X170240000Y-126020000D02*
X170240000Y-123360000D01*
X169290000Y-126020000D02*
X169290000Y-132020000D01*
X169290000Y-132020000D02*
X168530000Y-132020000D01*
X168530000Y-132020000D02*
X168530000Y-126020000D01*
X169230000Y-126020000D02*
X169230000Y-132020000D01*
X169110000Y-126020000D02*
X169110000Y-132020000D01*
X168990000Y-126020000D02*
X168990000Y-132020000D01*
X168870000Y-126020000D02*
X168870000Y-132020000D01*
X168750000Y-126020000D02*
X168750000Y-132020000D01*
X168630000Y-126020000D02*
X168630000Y-132020000D01*
X169290000Y-123030000D02*
X169290000Y-123360000D01*
X168530000Y-123030000D02*
X168530000Y-123360000D01*
X167640000Y-123360000D02*
X167640000Y-126020000D01*
X166750000Y-126020000D02*
X166750000Y-132020000D01*
X166750000Y-132020000D02*
X165990000Y-132020000D01*
X165990000Y-132020000D02*
X165990000Y-126020000D01*
X166750000Y-122962929D02*
X166750000Y-123360000D01*
X165990000Y-122962929D02*
X165990000Y-123360000D01*
X165100000Y-123360000D02*
X165100000Y-126020000D01*
X164210000Y-126020000D02*
X164210000Y-132020000D01*
X164210000Y-132020000D02*
X163450000Y-132020000D01*
X163450000Y-132020000D02*
X163450000Y-126020000D01*
X164210000Y-122962929D02*
X164210000Y-123360000D01*
X163450000Y-122962929D02*
X163450000Y-123360000D01*
X162560000Y-123360000D02*
X162560000Y-126020000D01*
X161670000Y-126020000D02*
X161670000Y-132020000D01*
X161670000Y-132020000D02*
X160910000Y-132020000D01*
X160910000Y-132020000D02*
X160910000Y-126020000D01*
X161670000Y-122962929D02*
X161670000Y-123360000D01*
X160910000Y-122962929D02*
X160910000Y-123360000D01*
X160020000Y-123360000D02*
X160020000Y-126020000D01*
X159130000Y-126020000D02*
X159130000Y-132020000D01*
X159130000Y-132020000D02*
X158370000Y-132020000D01*
X158370000Y-132020000D02*
X158370000Y-126020000D01*
X159130000Y-122962929D02*
X159130000Y-123360000D01*
X158370000Y-122962929D02*
X158370000Y-123360000D01*
X157480000Y-123360000D02*
X157480000Y-126020000D01*
X156590000Y-126020000D02*
X156590000Y-132020000D01*
X156590000Y-132020000D02*
X155830000Y-132020000D01*
X155830000Y-132020000D02*
X155830000Y-126020000D01*
X156590000Y-122962929D02*
X156590000Y-123360000D01*
X155830000Y-122962929D02*
X155830000Y-123360000D01*
X168910000Y-120650000D02*
X170180000Y-120650000D01*
X170180000Y-120650000D02*
X170180000Y-121920000D01*
X158080000Y-115860000D02*
X158080000Y-115530000D01*
X158080000Y-115530000D02*
X164500000Y-115530000D01*
X164500000Y-115530000D02*
X164500000Y-115860000D01*
X158080000Y-117820000D02*
X158080000Y-118150000D01*
X158080000Y-118150000D02*
X164500000Y-118150000D01*
X164500000Y-118150000D02*
X164500000Y-117820000D01*
X173010000Y-106080000D02*
X172680000Y-106080000D01*
X172680000Y-106080000D02*
X172680000Y-99660000D01*
X172680000Y-99660000D02*
X173010000Y-99660000D01*
X174970000Y-106080000D02*
X175300000Y-106080000D01*
X175300000Y-106080000D02*
X175300000Y-99660000D01*
X175300000Y-99660000D02*
X174970000Y-99660000D01*
X169200000Y-107350000D02*
X168870000Y-107350000D01*
X168870000Y-107350000D02*
X168870000Y-100930000D01*
X168870000Y-100930000D02*
X169200000Y-100930000D01*
X171160000Y-107350000D02*
X171490000Y-107350000D01*
X171490000Y-107350000D02*
X171490000Y-100930000D01*
X171490000Y-100930000D02*
X171160000Y-100930000D01*
X165390000Y-108620000D02*
X165060000Y-108620000D01*
X165060000Y-108620000D02*
X165060000Y-102200000D01*
X165060000Y-102200000D02*
X165390000Y-102200000D01*
X167350000Y-108620000D02*
X167680000Y-108620000D01*
X167680000Y-108620000D02*
X167680000Y-102200000D01*
X167680000Y-102200000D02*
X167350000Y-102200000D01*
X159020000Y-103720000D02*
X154520000Y-103720000D01*
X160270000Y-107720000D02*
X160270000Y-106220000D01*
X154520000Y-110220000D02*
X159020000Y-110220000D01*
X153270000Y-106220000D02*
X153270000Y-107720000D01*
D13*
X146050000Y-111760000D02*
X138430000Y-111760000D01*
X138430000Y-111760000D02*
X138430000Y-109220000D01*
X138430000Y-109220000D02*
X146050000Y-109220000D01*
X146050000Y-109220000D02*
X146050000Y-111760000D01*
D12*
X140716000Y-93980000D02*
G75*
G03X140716000Y-93980000I-2286000J0D01*
G01*
X140716000Y-129540000D02*
G75*
G03X140716000Y-129540000I-2286000J0D01*
G01*
X176276000Y-129540000D02*
G75*
G03X176276000Y-129540000I-2286000J0D01*
G01*
X176276000Y-93980000D02*
G75*
G03X176276000Y-93980000I-2286000J0D01*
G01*
D13*
X138092381Y-121411905D02*
X138901905Y-121411905D01*
X138997143Y-121364286D01*
X139044762Y-121316667D01*
X139092381Y-121221429D01*
X139092381Y-121030952D01*
X139044762Y-120935714D01*
X138997143Y-120888095D01*
X138901905Y-120840476D01*
X138092381Y-120840476D01*
X139092381Y-119840476D02*
X139092381Y-120411905D01*
X139092381Y-120126191D02*
X138092381Y-120126191D01*
X138235238Y-120221429D01*
X138330476Y-120316667D01*
X138378095Y-120411905D01*
X141327143Y-100496666D02*
X141374762Y-100544285D01*
X141422381Y-100687142D01*
X141422381Y-100782380D01*
X141374762Y-100925238D01*
X141279524Y-101020476D01*
X141184286Y-101068095D01*
X140993810Y-101115714D01*
X140850952Y-101115714D01*
X140660476Y-101068095D01*
X140565238Y-101020476D01*
X140470000Y-100925238D01*
X140422381Y-100782380D01*
X140422381Y-100687142D01*
X140470000Y-100544285D01*
X140517619Y-100496666D01*
X141422381Y-99544285D02*
X141422381Y-100115714D01*
X141422381Y-99830000D02*
X140422381Y-99830000D01*
X140565238Y-99925238D01*
X140660476Y-100020476D01*
X140708095Y-100115714D01*
X164361905Y-91742381D02*
X164361905Y-90742381D01*
X164600000Y-90742381D01*
X164742858Y-90790000D01*
X164838096Y-90885238D01*
X164885715Y-90980476D01*
X164933334Y-91170952D01*
X164933334Y-91313810D01*
X164885715Y-91504286D01*
X164838096Y-91599524D01*
X164742858Y-91694762D01*
X164600000Y-91742381D01*
X164361905Y-91742381D01*
X165885715Y-91742381D02*
X165314286Y-91742381D01*
X165600000Y-91742381D02*
X165600000Y-90742381D01*
X165504762Y-90885238D01*
X165409524Y-90980476D01*
X165314286Y-91028095D01*
X155471905Y-91742381D02*
X155471905Y-90742381D01*
X155710000Y-90742381D01*
X155852858Y-90790000D01*
X155948096Y-90885238D01*
X155995715Y-90980476D01*
X156043334Y-91170952D01*
X156043334Y-91313810D01*
X155995715Y-91504286D01*
X155948096Y-91599524D01*
X155852858Y-91694762D01*
X155710000Y-91742381D01*
X155471905Y-91742381D01*
X156424286Y-90837619D02*
X156471905Y-90790000D01*
X156567143Y-90742381D01*
X156805239Y-90742381D01*
X156900477Y-90790000D01*
X156948096Y-90837619D01*
X156995715Y-90932857D01*
X156995715Y-91028095D01*
X156948096Y-91170952D01*
X156376667Y-91742381D01*
X156995715Y-91742381D01*
X146581905Y-91742381D02*
X146581905Y-90742381D01*
X146820000Y-90742381D01*
X146962858Y-90790000D01*
X147058096Y-90885238D01*
X147105715Y-90980476D01*
X147153334Y-91170952D01*
X147153334Y-91313810D01*
X147105715Y-91504286D01*
X147058096Y-91599524D01*
X146962858Y-91694762D01*
X146820000Y-91742381D01*
X146581905Y-91742381D01*
X147486667Y-90742381D02*
X148105715Y-90742381D01*
X147772381Y-91123333D01*
X147915239Y-91123333D01*
X148010477Y-91170952D01*
X148058096Y-91218571D01*
X148105715Y-91313810D01*
X148105715Y-91551905D01*
X148058096Y-91647143D01*
X148010477Y-91694762D01*
X147915239Y-91742381D01*
X147629524Y-91742381D01*
X147534286Y-91694762D01*
X147486667Y-91647143D01*
X170632381Y-126638333D02*
X171346667Y-126638333D01*
X171489524Y-126685953D01*
X171584762Y-126781191D01*
X171632381Y-126924048D01*
X171632381Y-127019286D01*
X171632381Y-125638333D02*
X171632381Y-126209762D01*
X171632381Y-125924048D02*
X170632381Y-125924048D01*
X170775238Y-126019286D01*
X170870476Y-126114524D01*
X170918095Y-126209762D01*
X161123334Y-114982381D02*
X160790000Y-114506190D01*
X160551905Y-114982381D02*
X160551905Y-113982381D01*
X160932858Y-113982381D01*
X161028096Y-114030000D01*
X161075715Y-114077619D01*
X161123334Y-114172857D01*
X161123334Y-114315714D01*
X161075715Y-114410952D01*
X161028096Y-114458571D01*
X160932858Y-114506190D01*
X160551905Y-114506190D01*
X162075715Y-114982381D02*
X161504286Y-114982381D01*
X161790000Y-114982381D02*
X161790000Y-113982381D01*
X161694762Y-114125238D01*
X161599524Y-114220476D01*
X161504286Y-114268095D01*
X172132381Y-103036666D02*
X171656190Y-103370000D01*
X172132381Y-103608095D02*
X171132381Y-103608095D01*
X171132381Y-103227142D01*
X171180000Y-103131904D01*
X171227619Y-103084285D01*
X171322857Y-103036666D01*
X171465714Y-103036666D01*
X171560952Y-103084285D01*
X171608571Y-103131904D01*
X171656190Y-103227142D01*
X171656190Y-103608095D01*
X171227619Y-102655714D02*
X171180000Y-102608095D01*
X171132381Y-102512857D01*
X171132381Y-102274761D01*
X171180000Y-102179523D01*
X171227619Y-102131904D01*
X171322857Y-102084285D01*
X171418095Y-102084285D01*
X171560952Y-102131904D01*
X172132381Y-102703333D01*
X172132381Y-102084285D01*
X168322381Y-104306666D02*
X167846190Y-104640000D01*
X168322381Y-104878095D02*
X167322381Y-104878095D01*
X167322381Y-104497142D01*
X167370000Y-104401904D01*
X167417619Y-104354285D01*
X167512857Y-104306666D01*
X167655714Y-104306666D01*
X167750952Y-104354285D01*
X167798571Y-104401904D01*
X167846190Y-104497142D01*
X167846190Y-104878095D01*
X167322381Y-103973333D02*
X167322381Y-103354285D01*
X167703333Y-103687619D01*
X167703333Y-103544761D01*
X167750952Y-103449523D01*
X167798571Y-103401904D01*
X167893810Y-103354285D01*
X168131905Y-103354285D01*
X168227143Y-103401904D01*
X168274762Y-103449523D01*
X168322381Y-103544761D01*
X168322381Y-103830476D01*
X168274762Y-103925714D01*
X168227143Y-103973333D01*
X164512381Y-105576666D02*
X164036190Y-105910000D01*
X164512381Y-106148095D02*
X163512381Y-106148095D01*
X163512381Y-105767142D01*
X163560000Y-105671904D01*
X163607619Y-105624285D01*
X163702857Y-105576666D01*
X163845714Y-105576666D01*
X163940952Y-105624285D01*
X163988571Y-105671904D01*
X164036190Y-105767142D01*
X164036190Y-106148095D01*
X163845714Y-104719523D02*
X164512381Y-104719523D01*
X163464762Y-104957619D02*
X164179048Y-105195714D01*
X164179048Y-104576666D01*
X155436667Y-111624762D02*
X155579524Y-111672381D01*
X155817620Y-111672381D01*
X155912858Y-111624762D01*
X155960477Y-111577143D01*
X156008096Y-111481905D01*
X156008096Y-111386667D01*
X155960477Y-111291429D01*
X155912858Y-111243810D01*
X155817620Y-111196190D01*
X155627143Y-111148571D01*
X155531905Y-111100952D01*
X155484286Y-111053333D01*
X155436667Y-110958095D01*
X155436667Y-110862857D01*
X155484286Y-110767619D01*
X155531905Y-110720000D01*
X155627143Y-110672381D01*
X155865239Y-110672381D01*
X156008096Y-110720000D01*
X156341429Y-110672381D02*
X156579524Y-111672381D01*
X156770001Y-110958095D01*
X156960477Y-111672381D01*
X157198572Y-110672381D01*
X158103334Y-111672381D02*
X157531905Y-111672381D01*
X157817619Y-111672381D02*
X157817619Y-110672381D01*
X157722381Y-110815238D01*
X157627143Y-110910476D01*
X157531905Y-110958095D01*
X143446667Y-113434762D02*
X143589524Y-113482381D01*
X143827620Y-113482381D01*
X143922858Y-113434762D01*
X143970477Y-113387143D01*
X144018096Y-113291905D01*
X144018096Y-113196667D01*
X143970477Y-113101429D01*
X143922858Y-113053810D01*
X143827620Y-113006190D01*
X143637143Y-112958571D01*
X143541905Y-112910952D01*
X143494286Y-112863333D01*
X143446667Y-112768095D01*
X143446667Y-112672857D01*
X143494286Y-112577619D01*
X143541905Y-112530000D01*
X143637143Y-112482381D01*
X143875239Y-112482381D01*
X144018096Y-112530000D01*
X144351429Y-112482381D02*
X144589524Y-113482381D01*
X144780001Y-112768095D01*
X144970477Y-113482381D01*
X145208572Y-112482381D01*
X145541905Y-112577619D02*
X145589524Y-112530000D01*
X145684762Y-112482381D01*
X145922858Y-112482381D01*
X146018096Y-112530000D01*
X146065715Y-112577619D01*
X146113334Y-112672857D01*
X146113334Y-112768095D01*
X146065715Y-112910952D01*
X145494286Y-113482381D01*
X146113334Y-113482381D01*
M02*
