G04 #@! TF.FileFunction,Legend,Bot*
%FSLAX46Y46*%
G04 Gerber Fmt 4.6, Leading zero omitted, Abs format (unit mm)*
G04 Created by KiCad (PCBNEW 4.0.7-e2-6376~58~ubuntu17.04.1) date Wed May 23 19:48:23 2018*
%MOMM*%
%LPD*%
G01*
G04 APERTURE LIST*
%ADD10C,0.100000*%
%ADD11C,0.300000*%
%ADD12C,0.120000*%
%ADD13C,0.150000*%
G04 APERTURE END LIST*
D10*
D11*
X169745714Y-99667143D02*
X169888571Y-99738571D01*
X170174285Y-99738571D01*
X170317143Y-99667143D01*
X170388571Y-99595714D01*
X170460000Y-99452857D01*
X170460000Y-99024286D01*
X170388571Y-98881429D01*
X170317143Y-98810000D01*
X170174285Y-98738571D01*
X169888571Y-98738571D01*
X169745714Y-98810000D01*
X168460000Y-99667143D02*
X168602857Y-99738571D01*
X168888571Y-99738571D01*
X169031429Y-99667143D01*
X169102857Y-99595714D01*
X169174286Y-99452857D01*
X169174286Y-99024286D01*
X169102857Y-98881429D01*
X169031429Y-98810000D01*
X168888571Y-98738571D01*
X168602857Y-98738571D01*
X168460000Y-98810000D01*
X167817143Y-99167143D02*
X166674286Y-99167143D01*
X165960000Y-99738571D02*
X165960000Y-98238571D01*
X165960000Y-98810000D02*
X165817143Y-98738571D01*
X165531429Y-98738571D01*
X165388572Y-98810000D01*
X165317143Y-98881429D01*
X165245714Y-99024286D01*
X165245714Y-99452857D01*
X165317143Y-99595714D01*
X165388572Y-99667143D01*
X165531429Y-99738571D01*
X165817143Y-99738571D01*
X165960000Y-99667143D01*
X164745714Y-98738571D02*
X164388571Y-99738571D01*
X164031429Y-98738571D02*
X164388571Y-99738571D01*
X164531429Y-100095714D01*
X164602857Y-100167143D01*
X164745714Y-100238571D01*
X163460000Y-99167143D02*
X162317143Y-99167143D01*
X161674286Y-99667143D02*
X161531429Y-99738571D01*
X161245714Y-99738571D01*
X161102857Y-99667143D01*
X161031429Y-99524286D01*
X161031429Y-99452857D01*
X161102857Y-99310000D01*
X161245714Y-99238571D01*
X161460000Y-99238571D01*
X161602857Y-99167143D01*
X161674286Y-99024286D01*
X161674286Y-98952857D01*
X161602857Y-98810000D01*
X161460000Y-98738571D01*
X161245714Y-98738571D01*
X161102857Y-98810000D01*
X159745714Y-99738571D02*
X159745714Y-98952857D01*
X159817143Y-98810000D01*
X159960000Y-98738571D01*
X160245714Y-98738571D01*
X160388571Y-98810000D01*
X159745714Y-99667143D02*
X159888571Y-99738571D01*
X160245714Y-99738571D01*
X160388571Y-99667143D01*
X160460000Y-99524286D01*
X160460000Y-99381429D01*
X160388571Y-99238571D01*
X160245714Y-99167143D01*
X159888571Y-99167143D01*
X159745714Y-99095714D01*
X159031428Y-99595714D02*
X158960000Y-99667143D01*
X159031428Y-99738571D01*
X159102857Y-99667143D01*
X159031428Y-99595714D01*
X159031428Y-99738571D01*
X159031428Y-98810000D02*
X158960000Y-98881429D01*
X159031428Y-98952857D01*
X159102857Y-98881429D01*
X159031428Y-98810000D01*
X159031428Y-98952857D01*
X157388571Y-98738571D02*
X156817142Y-98738571D01*
X157174285Y-98238571D02*
X157174285Y-99524286D01*
X157102857Y-99667143D01*
X156959999Y-99738571D01*
X156817142Y-99738571D01*
X155674285Y-98738571D02*
X155674285Y-99738571D01*
X156317142Y-98738571D02*
X156317142Y-99524286D01*
X156245714Y-99667143D01*
X156102856Y-99738571D01*
X155888571Y-99738571D01*
X155745714Y-99667143D01*
X155674285Y-99595714D01*
X154317142Y-99667143D02*
X154459999Y-99738571D01*
X154745713Y-99738571D01*
X154888571Y-99667143D01*
X154959999Y-99595714D01*
X155031428Y-99452857D01*
X155031428Y-99024286D01*
X154959999Y-98881429D01*
X154888571Y-98810000D01*
X154745713Y-98738571D01*
X154459999Y-98738571D01*
X154317142Y-98810000D01*
X153674285Y-99738571D02*
X153674285Y-98238571D01*
X153031428Y-99738571D02*
X153031428Y-98952857D01*
X153102857Y-98810000D01*
X153245714Y-98738571D01*
X153459999Y-98738571D01*
X153602857Y-98810000D01*
X153674285Y-98881429D01*
X152102856Y-99738571D02*
X152245714Y-99667143D01*
X152317142Y-99595714D01*
X152388571Y-99452857D01*
X152388571Y-99024286D01*
X152317142Y-98881429D01*
X152245714Y-98810000D01*
X152102856Y-98738571D01*
X151888571Y-98738571D01*
X151745714Y-98810000D01*
X151674285Y-98881429D01*
X151602856Y-99024286D01*
X151602856Y-99452857D01*
X151674285Y-99595714D01*
X151745714Y-99667143D01*
X151888571Y-99738571D01*
X152102856Y-99738571D01*
X149817142Y-99738571D02*
X149817142Y-98738571D01*
X149817142Y-98881429D02*
X149745714Y-98810000D01*
X149602856Y-98738571D01*
X149388571Y-98738571D01*
X149245714Y-98810000D01*
X149174285Y-98952857D01*
X149174285Y-99738571D01*
X149174285Y-98952857D02*
X149102856Y-98810000D01*
X148959999Y-98738571D01*
X148745714Y-98738571D01*
X148602856Y-98810000D01*
X148531428Y-98952857D01*
X148531428Y-99738571D01*
X147245714Y-99667143D02*
X147388571Y-99738571D01*
X147674285Y-99738571D01*
X147817142Y-99667143D01*
X147888571Y-99524286D01*
X147888571Y-98952857D01*
X147817142Y-98810000D01*
X147674285Y-98738571D01*
X147388571Y-98738571D01*
X147245714Y-98810000D01*
X147174285Y-98952857D01*
X147174285Y-99095714D01*
X147888571Y-99238571D01*
X146531428Y-98738571D02*
X146531428Y-99738571D01*
X146531428Y-98881429D02*
X146460000Y-98810000D01*
X146317142Y-98738571D01*
X146102857Y-98738571D01*
X145960000Y-98810000D01*
X145888571Y-98952857D01*
X145888571Y-99738571D01*
X144531428Y-99738571D02*
X144531428Y-98238571D01*
X144531428Y-99667143D02*
X144674285Y-99738571D01*
X144959999Y-99738571D01*
X145102857Y-99667143D01*
X145174285Y-99595714D01*
X145245714Y-99452857D01*
X145245714Y-99024286D01*
X145174285Y-98881429D01*
X145102857Y-98810000D01*
X144959999Y-98738571D01*
X144674285Y-98738571D01*
X144531428Y-98810000D01*
X143245714Y-99667143D02*
X143388571Y-99738571D01*
X143674285Y-99738571D01*
X143817142Y-99667143D01*
X143888571Y-99524286D01*
X143888571Y-98952857D01*
X143817142Y-98810000D01*
X143674285Y-98738571D01*
X143388571Y-98738571D01*
X143245714Y-98810000D01*
X143174285Y-98952857D01*
X143174285Y-99095714D01*
X143888571Y-99238571D01*
X142674285Y-98738571D02*
X141888571Y-98738571D01*
X142674285Y-99738571D01*
X141888571Y-99738571D01*
D12*
X156255281Y-100304329D02*
G75*
G03X152710000Y-122750000I-45281J-11495671D01*
G01*
X152683616Y-122748246D02*
G75*
G02X153210000Y-123500000I-273616J-751754D01*
G01*
X156164719Y-100304329D02*
G75*
G02X159710000Y-122750000I45281J-11495671D01*
G01*
X159736384Y-122748246D02*
G75*
G03X159210000Y-123500000I273616J-751754D01*
G01*
X159210000Y-129200000D02*
X159210000Y-123500000D01*
X153210000Y-129200000D02*
X159210000Y-129200000D01*
X153210000Y-129200000D02*
X153210000Y-123500000D01*
D13*
X160438571Y-126214286D02*
X160486190Y-126357143D01*
X160533810Y-126404762D01*
X160629048Y-126452381D01*
X160771905Y-126452381D01*
X160867143Y-126404762D01*
X160914762Y-126357143D01*
X160962381Y-126261905D01*
X160962381Y-125880952D01*
X159962381Y-125880952D01*
X159962381Y-126214286D01*
X160010000Y-126309524D01*
X160057619Y-126357143D01*
X160152857Y-126404762D01*
X160248095Y-126404762D01*
X160343333Y-126357143D01*
X160390952Y-126309524D01*
X160438571Y-126214286D01*
X160438571Y-125880952D01*
X159962381Y-126738095D02*
X159962381Y-127309524D01*
X160962381Y-127023809D02*
X159962381Y-127023809D01*
X160962381Y-128166667D02*
X160962381Y-127595238D01*
X160962381Y-127880952D02*
X159962381Y-127880952D01*
X160105238Y-127785714D01*
X160200476Y-127690476D01*
X160248095Y-127595238D01*
X156317143Y-123678572D02*
X156317143Y-124821429D01*
X156888571Y-124250000D02*
X155745714Y-124250000D01*
M02*
