G04 #@! TF.FileFunction,Legend,Top*
%FSLAX46Y46*%
G04 Gerber Fmt 4.6, Leading zero omitted, Abs format (unit mm)*
G04 Created by KiCad (PCBNEW 4.0.7-e2-6376~61~ubuntu18.04.1) date Mon Jul  2 18:50:52 2018*
%MOMM*%
%LPD*%
G01*
G04 APERTURE LIST*
%ADD10C,0.100000*%
%ADD11C,0.300000*%
%ADD12C,0.120000*%
%ADD13C,0.150000*%
G04 APERTURE END LIST*
D10*
D11*
X143697143Y-130488571D02*
X143697143Y-131988571D01*
X143697143Y-131417143D02*
X143554286Y-131488571D01*
X143268572Y-131488571D01*
X143125714Y-131417143D01*
X143054286Y-131345714D01*
X142982857Y-131202857D01*
X142982857Y-130774286D01*
X143054286Y-130631429D01*
X143125714Y-130560000D01*
X143268572Y-130488571D01*
X143554286Y-130488571D01*
X143697143Y-130560000D01*
X145054286Y-130488571D02*
X145054286Y-131488571D01*
X144411429Y-130488571D02*
X144411429Y-131274286D01*
X144482857Y-131417143D01*
X144625715Y-131488571D01*
X144840000Y-131488571D01*
X144982857Y-131417143D01*
X145054286Y-131345714D01*
X145768572Y-131488571D02*
X145768572Y-130488571D01*
X145768572Y-129988571D02*
X145697143Y-130060000D01*
X145768572Y-130131429D01*
X145840000Y-130060000D01*
X145768572Y-129988571D01*
X145768572Y-130131429D01*
X147125715Y-131417143D02*
X146982858Y-131488571D01*
X146697144Y-131488571D01*
X146554286Y-131417143D01*
X146482858Y-131345714D01*
X146411429Y-131202857D01*
X146411429Y-130774286D01*
X146482858Y-130631429D01*
X146554286Y-130560000D01*
X146697144Y-130488571D01*
X146982858Y-130488571D01*
X147125715Y-130560000D01*
X147768572Y-131488571D02*
X147768572Y-129988571D01*
X147911429Y-130917143D02*
X148340000Y-131488571D01*
X148340000Y-130488571D02*
X147768572Y-131060000D01*
X148840001Y-130488571D02*
X149197144Y-131488571D01*
X149554286Y-130488571D02*
X149197144Y-131488571D01*
X149054286Y-131845714D01*
X148982858Y-131917143D01*
X148840001Y-131988571D01*
X151554286Y-129988571D02*
X151697143Y-129988571D01*
X151840000Y-130060000D01*
X151911429Y-130131429D01*
X151982858Y-130274286D01*
X152054286Y-130560000D01*
X152054286Y-130917143D01*
X151982858Y-131202857D01*
X151911429Y-131345714D01*
X151840000Y-131417143D01*
X151697143Y-131488571D01*
X151554286Y-131488571D01*
X151411429Y-131417143D01*
X151340000Y-131345714D01*
X151268572Y-131202857D01*
X151197143Y-130917143D01*
X151197143Y-130560000D01*
X151268572Y-130274286D01*
X151340000Y-130131429D01*
X151411429Y-130060000D01*
X151554286Y-129988571D01*
X152697143Y-131345714D02*
X152768571Y-131417143D01*
X152697143Y-131488571D01*
X152625714Y-131417143D01*
X152697143Y-131345714D01*
X152697143Y-131488571D01*
X153340000Y-130131429D02*
X153411429Y-130060000D01*
X153554286Y-129988571D01*
X153911429Y-129988571D01*
X154054286Y-130060000D01*
X154125715Y-130131429D01*
X154197143Y-130274286D01*
X154197143Y-130417143D01*
X154125715Y-130631429D01*
X153268572Y-131488571D01*
X154197143Y-131488571D01*
D12*
X139640000Y-119650000D02*
G75*
G02X139640000Y-121650000I0J-1000000D01*
G01*
X139640000Y-121650000D02*
X139640000Y-123300000D01*
X139640000Y-123300000D02*
X149920000Y-123300000D01*
X149920000Y-123300000D02*
X149920000Y-118000000D01*
X149920000Y-118000000D02*
X139640000Y-118000000D01*
X139640000Y-118000000D02*
X139640000Y-119650000D01*
X168090000Y-95250462D02*
G75*
G03X162540000Y-93705170I-2990000J462D01*
G01*
X168090000Y-95249538D02*
G75*
G02X162540000Y-96794830I-2990000J-462D01*
G01*
X167600000Y-95250000D02*
G75*
G03X167600000Y-95250000I-2500000J0D01*
G01*
X162540000Y-93705000D02*
X162540000Y-96795000D01*
X159200000Y-95250462D02*
G75*
G03X153650000Y-93705170I-2990000J462D01*
G01*
X159200000Y-95249538D02*
G75*
G02X153650000Y-96794830I-2990000J-462D01*
G01*
X158710000Y-95250000D02*
G75*
G03X158710000Y-95250000I-2500000J0D01*
G01*
X153650000Y-93705000D02*
X153650000Y-96795000D01*
X150310000Y-95250462D02*
G75*
G03X144760000Y-93705170I-2990000J462D01*
G01*
X150310000Y-95249538D02*
G75*
G02X144760000Y-96794830I-2990000J-462D01*
G01*
X149820000Y-95250000D02*
G75*
G03X149820000Y-95250000I-2500000J0D01*
G01*
X144760000Y-93705000D02*
X144760000Y-96795000D01*
X170240000Y-123360000D02*
X154880000Y-123360000D01*
X154880000Y-123360000D02*
X154880000Y-126020000D01*
X154880000Y-126020000D02*
X170240000Y-126020000D01*
X170240000Y-126020000D02*
X170240000Y-123360000D01*
X169290000Y-126020000D02*
X169290000Y-132020000D01*
X169290000Y-132020000D02*
X168530000Y-132020000D01*
X168530000Y-132020000D02*
X168530000Y-126020000D01*
X169230000Y-126020000D02*
X169230000Y-132020000D01*
X169110000Y-126020000D02*
X169110000Y-132020000D01*
X168990000Y-126020000D02*
X168990000Y-132020000D01*
X168870000Y-126020000D02*
X168870000Y-132020000D01*
X168750000Y-126020000D02*
X168750000Y-132020000D01*
X168630000Y-126020000D02*
X168630000Y-132020000D01*
X169290000Y-123030000D02*
X169290000Y-123360000D01*
X168530000Y-123030000D02*
X168530000Y-123360000D01*
X167640000Y-123360000D02*
X167640000Y-126020000D01*
X166750000Y-126020000D02*
X166750000Y-132020000D01*
X166750000Y-132020000D02*
X165990000Y-132020000D01*
X165990000Y-132020000D02*
X165990000Y-126020000D01*
X166750000Y-122962929D02*
X166750000Y-123360000D01*
X165990000Y-122962929D02*
X165990000Y-123360000D01*
X165100000Y-123360000D02*
X165100000Y-126020000D01*
X164210000Y-126020000D02*
X164210000Y-132020000D01*
X164210000Y-132020000D02*
X163450000Y-132020000D01*
X163450000Y-132020000D02*
X163450000Y-126020000D01*
X164210000Y-122962929D02*
X164210000Y-123360000D01*
X163450000Y-122962929D02*
X163450000Y-123360000D01*
X162560000Y-123360000D02*
X162560000Y-126020000D01*
X161670000Y-126020000D02*
X161670000Y-132020000D01*
X161670000Y-132020000D02*
X160910000Y-132020000D01*
X160910000Y-132020000D02*
X160910000Y-126020000D01*
X161670000Y-122962929D02*
X161670000Y-123360000D01*
X160910000Y-122962929D02*
X160910000Y-123360000D01*
X160020000Y-123360000D02*
X160020000Y-126020000D01*
X159130000Y-126020000D02*
X159130000Y-132020000D01*
X159130000Y-132020000D02*
X158370000Y-132020000D01*
X158370000Y-132020000D02*
X158370000Y-126020000D01*
X159130000Y-122962929D02*
X159130000Y-123360000D01*
X158370000Y-122962929D02*
X158370000Y-123360000D01*
X157480000Y-123360000D02*
X157480000Y-126020000D01*
X156590000Y-126020000D02*
X156590000Y-132020000D01*
X156590000Y-132020000D02*
X155830000Y-132020000D01*
X155830000Y-132020000D02*
X155830000Y-126020000D01*
X156590000Y-122962929D02*
X156590000Y-123360000D01*
X155830000Y-122962929D02*
X155830000Y-123360000D01*
X168910000Y-120650000D02*
X170180000Y-120650000D01*
X170180000Y-120650000D02*
X170180000Y-121920000D01*
X158080000Y-113320000D02*
X158080000Y-112990000D01*
X158080000Y-112990000D02*
X164500000Y-112990000D01*
X164500000Y-112990000D02*
X164500000Y-113320000D01*
X158080000Y-115280000D02*
X158080000Y-115610000D01*
X158080000Y-115610000D02*
X164500000Y-115610000D01*
X164500000Y-115610000D02*
X164500000Y-115280000D01*
X173010000Y-106080000D02*
X172680000Y-106080000D01*
X172680000Y-106080000D02*
X172680000Y-99660000D01*
X172680000Y-99660000D02*
X173010000Y-99660000D01*
X174970000Y-106080000D02*
X175300000Y-106080000D01*
X175300000Y-106080000D02*
X175300000Y-99660000D01*
X175300000Y-99660000D02*
X174970000Y-99660000D01*
X169200000Y-107350000D02*
X168870000Y-107350000D01*
X168870000Y-107350000D02*
X168870000Y-100930000D01*
X168870000Y-100930000D02*
X169200000Y-100930000D01*
X171160000Y-107350000D02*
X171490000Y-107350000D01*
X171490000Y-107350000D02*
X171490000Y-100930000D01*
X171490000Y-100930000D02*
X171160000Y-100930000D01*
X165390000Y-108620000D02*
X165060000Y-108620000D01*
X165060000Y-108620000D02*
X165060000Y-102200000D01*
X165060000Y-102200000D02*
X165390000Y-102200000D01*
X167350000Y-108620000D02*
X167680000Y-108620000D01*
X167680000Y-108620000D02*
X167680000Y-102200000D01*
X167680000Y-102200000D02*
X167350000Y-102200000D01*
X159020000Y-103720000D02*
X154520000Y-103720000D01*
X160270000Y-107720000D02*
X160270000Y-106220000D01*
X154520000Y-110220000D02*
X159020000Y-110220000D01*
X153270000Y-106220000D02*
X153270000Y-107720000D01*
D13*
X146050000Y-111760000D02*
X138430000Y-111760000D01*
X138430000Y-111760000D02*
X138430000Y-109220000D01*
X138430000Y-109220000D02*
X146050000Y-109220000D01*
X146050000Y-109220000D02*
X146050000Y-111760000D01*
D12*
X144610000Y-106740000D02*
X144610000Y-99000000D01*
X144610000Y-99000000D02*
X141950000Y-99000000D01*
X141950000Y-99000000D02*
X141950000Y-106740000D01*
X141950000Y-106740000D02*
X144610000Y-106740000D01*
X141950000Y-105790000D02*
X135950000Y-105790000D01*
X135950000Y-105790000D02*
X135950000Y-105030000D01*
X135950000Y-105030000D02*
X141950000Y-105030000D01*
X141950000Y-105730000D02*
X135950000Y-105730000D01*
X141950000Y-105610000D02*
X135950000Y-105610000D01*
X141950000Y-105490000D02*
X135950000Y-105490000D01*
X141950000Y-105370000D02*
X135950000Y-105370000D01*
X141950000Y-105250000D02*
X135950000Y-105250000D01*
X141950000Y-105130000D02*
X135950000Y-105130000D01*
X144940000Y-105790000D02*
X144610000Y-105790000D01*
X144940000Y-105030000D02*
X144610000Y-105030000D01*
X144610000Y-104140000D02*
X141950000Y-104140000D01*
X141950000Y-103250000D02*
X135950000Y-103250000D01*
X135950000Y-103250000D02*
X135950000Y-102490000D01*
X135950000Y-102490000D02*
X141950000Y-102490000D01*
X145007071Y-103250000D02*
X144610000Y-103250000D01*
X145007071Y-102490000D02*
X144610000Y-102490000D01*
X144610000Y-101600000D02*
X141950000Y-101600000D01*
X141950000Y-100710000D02*
X135950000Y-100710000D01*
X135950000Y-100710000D02*
X135950000Y-99950000D01*
X135950000Y-99950000D02*
X141950000Y-99950000D01*
X145007071Y-100710000D02*
X144610000Y-100710000D01*
X145007071Y-99950000D02*
X144610000Y-99950000D01*
X147320000Y-105410000D02*
X147320000Y-106680000D01*
X147320000Y-106680000D02*
X146050000Y-106680000D01*
D13*
X138092381Y-121411905D02*
X138901905Y-121411905D01*
X138997143Y-121364286D01*
X139044762Y-121316667D01*
X139092381Y-121221429D01*
X139092381Y-121030952D01*
X139044762Y-120935714D01*
X138997143Y-120888095D01*
X138901905Y-120840476D01*
X138092381Y-120840476D01*
X139092381Y-119840476D02*
X139092381Y-120411905D01*
X139092381Y-120126191D02*
X138092381Y-120126191D01*
X138235238Y-120221429D01*
X138330476Y-120316667D01*
X138378095Y-120411905D01*
X164361905Y-91742381D02*
X164361905Y-90742381D01*
X164600000Y-90742381D01*
X164742858Y-90790000D01*
X164838096Y-90885238D01*
X164885715Y-90980476D01*
X164933334Y-91170952D01*
X164933334Y-91313810D01*
X164885715Y-91504286D01*
X164838096Y-91599524D01*
X164742858Y-91694762D01*
X164600000Y-91742381D01*
X164361905Y-91742381D01*
X165885715Y-91742381D02*
X165314286Y-91742381D01*
X165600000Y-91742381D02*
X165600000Y-90742381D01*
X165504762Y-90885238D01*
X165409524Y-90980476D01*
X165314286Y-91028095D01*
X155471905Y-91742381D02*
X155471905Y-90742381D01*
X155710000Y-90742381D01*
X155852858Y-90790000D01*
X155948096Y-90885238D01*
X155995715Y-90980476D01*
X156043334Y-91170952D01*
X156043334Y-91313810D01*
X155995715Y-91504286D01*
X155948096Y-91599524D01*
X155852858Y-91694762D01*
X155710000Y-91742381D01*
X155471905Y-91742381D01*
X156424286Y-90837619D02*
X156471905Y-90790000D01*
X156567143Y-90742381D01*
X156805239Y-90742381D01*
X156900477Y-90790000D01*
X156948096Y-90837619D01*
X156995715Y-90932857D01*
X156995715Y-91028095D01*
X156948096Y-91170952D01*
X156376667Y-91742381D01*
X156995715Y-91742381D01*
X146581905Y-91742381D02*
X146581905Y-90742381D01*
X146820000Y-90742381D01*
X146962858Y-90790000D01*
X147058096Y-90885238D01*
X147105715Y-90980476D01*
X147153334Y-91170952D01*
X147153334Y-91313810D01*
X147105715Y-91504286D01*
X147058096Y-91599524D01*
X146962858Y-91694762D01*
X146820000Y-91742381D01*
X146581905Y-91742381D01*
X147486667Y-90742381D02*
X148105715Y-90742381D01*
X147772381Y-91123333D01*
X147915239Y-91123333D01*
X148010477Y-91170952D01*
X148058096Y-91218571D01*
X148105715Y-91313810D01*
X148105715Y-91551905D01*
X148058096Y-91647143D01*
X148010477Y-91694762D01*
X147915239Y-91742381D01*
X147629524Y-91742381D01*
X147534286Y-91694762D01*
X147486667Y-91647143D01*
X170632381Y-126638333D02*
X171346667Y-126638333D01*
X171489524Y-126685953D01*
X171584762Y-126781191D01*
X171632381Y-126924048D01*
X171632381Y-127019286D01*
X171632381Y-125638333D02*
X171632381Y-126209762D01*
X171632381Y-125924048D02*
X170632381Y-125924048D01*
X170775238Y-126019286D01*
X170870476Y-126114524D01*
X170918095Y-126209762D01*
X161123334Y-112442381D02*
X160790000Y-111966190D01*
X160551905Y-112442381D02*
X160551905Y-111442381D01*
X160932858Y-111442381D01*
X161028096Y-111490000D01*
X161075715Y-111537619D01*
X161123334Y-111632857D01*
X161123334Y-111775714D01*
X161075715Y-111870952D01*
X161028096Y-111918571D01*
X160932858Y-111966190D01*
X160551905Y-111966190D01*
X162075715Y-112442381D02*
X161504286Y-112442381D01*
X161790000Y-112442381D02*
X161790000Y-111442381D01*
X161694762Y-111585238D01*
X161599524Y-111680476D01*
X161504286Y-111728095D01*
X172132381Y-103036666D02*
X171656190Y-103370000D01*
X172132381Y-103608095D02*
X171132381Y-103608095D01*
X171132381Y-103227142D01*
X171180000Y-103131904D01*
X171227619Y-103084285D01*
X171322857Y-103036666D01*
X171465714Y-103036666D01*
X171560952Y-103084285D01*
X171608571Y-103131904D01*
X171656190Y-103227142D01*
X171656190Y-103608095D01*
X171227619Y-102655714D02*
X171180000Y-102608095D01*
X171132381Y-102512857D01*
X171132381Y-102274761D01*
X171180000Y-102179523D01*
X171227619Y-102131904D01*
X171322857Y-102084285D01*
X171418095Y-102084285D01*
X171560952Y-102131904D01*
X172132381Y-102703333D01*
X172132381Y-102084285D01*
X168322381Y-104306666D02*
X167846190Y-104640000D01*
X168322381Y-104878095D02*
X167322381Y-104878095D01*
X167322381Y-104497142D01*
X167370000Y-104401904D01*
X167417619Y-104354285D01*
X167512857Y-104306666D01*
X167655714Y-104306666D01*
X167750952Y-104354285D01*
X167798571Y-104401904D01*
X167846190Y-104497142D01*
X167846190Y-104878095D01*
X167322381Y-103973333D02*
X167322381Y-103354285D01*
X167703333Y-103687619D01*
X167703333Y-103544761D01*
X167750952Y-103449523D01*
X167798571Y-103401904D01*
X167893810Y-103354285D01*
X168131905Y-103354285D01*
X168227143Y-103401904D01*
X168274762Y-103449523D01*
X168322381Y-103544761D01*
X168322381Y-103830476D01*
X168274762Y-103925714D01*
X168227143Y-103973333D01*
X164512381Y-105576666D02*
X164036190Y-105910000D01*
X164512381Y-106148095D02*
X163512381Y-106148095D01*
X163512381Y-105767142D01*
X163560000Y-105671904D01*
X163607619Y-105624285D01*
X163702857Y-105576666D01*
X163845714Y-105576666D01*
X163940952Y-105624285D01*
X163988571Y-105671904D01*
X164036190Y-105767142D01*
X164036190Y-106148095D01*
X163845714Y-104719523D02*
X164512381Y-104719523D01*
X163464762Y-104957619D02*
X164179048Y-105195714D01*
X164179048Y-104576666D01*
X155436667Y-111624762D02*
X155579524Y-111672381D01*
X155817620Y-111672381D01*
X155912858Y-111624762D01*
X155960477Y-111577143D01*
X156008096Y-111481905D01*
X156008096Y-111386667D01*
X155960477Y-111291429D01*
X155912858Y-111243810D01*
X155817620Y-111196190D01*
X155627143Y-111148571D01*
X155531905Y-111100952D01*
X155484286Y-111053333D01*
X155436667Y-110958095D01*
X155436667Y-110862857D01*
X155484286Y-110767619D01*
X155531905Y-110720000D01*
X155627143Y-110672381D01*
X155865239Y-110672381D01*
X156008096Y-110720000D01*
X156341429Y-110672381D02*
X156579524Y-111672381D01*
X156770001Y-110958095D01*
X156960477Y-111672381D01*
X157198572Y-110672381D01*
X158103334Y-111672381D02*
X157531905Y-111672381D01*
X157817619Y-111672381D02*
X157817619Y-110672381D01*
X157722381Y-110815238D01*
X157627143Y-110910476D01*
X157531905Y-110958095D01*
X143446667Y-113434762D02*
X143589524Y-113482381D01*
X143827620Y-113482381D01*
X143922858Y-113434762D01*
X143970477Y-113387143D01*
X144018096Y-113291905D01*
X144018096Y-113196667D01*
X143970477Y-113101429D01*
X143922858Y-113053810D01*
X143827620Y-113006190D01*
X143637143Y-112958571D01*
X143541905Y-112910952D01*
X143494286Y-112863333D01*
X143446667Y-112768095D01*
X143446667Y-112672857D01*
X143494286Y-112577619D01*
X143541905Y-112530000D01*
X143637143Y-112482381D01*
X143875239Y-112482381D01*
X144018096Y-112530000D01*
X144351429Y-112482381D02*
X144589524Y-113482381D01*
X144780001Y-112768095D01*
X144970477Y-113482381D01*
X145208572Y-112482381D01*
X145541905Y-112577619D02*
X145589524Y-112530000D01*
X145684762Y-112482381D01*
X145922858Y-112482381D01*
X146018096Y-112530000D01*
X146065715Y-112577619D01*
X146113334Y-112672857D01*
X146113334Y-112768095D01*
X146065715Y-112910952D01*
X145494286Y-113482381D01*
X146113334Y-113482381D01*
X137096667Y-90232381D02*
X136763333Y-89756190D01*
X136525238Y-90232381D02*
X136525238Y-89232381D01*
X136906191Y-89232381D01*
X137001429Y-89280000D01*
X137049048Y-89327619D01*
X137096667Y-89422857D01*
X137096667Y-89565714D01*
X137049048Y-89660952D01*
X137001429Y-89708571D01*
X136906191Y-89756190D01*
X136525238Y-89756190D01*
X137525238Y-89708571D02*
X137858572Y-89708571D01*
X138001429Y-90232381D02*
X137525238Y-90232381D01*
X137525238Y-89232381D01*
X138001429Y-89232381D01*
X138763334Y-89708571D02*
X138430000Y-89708571D01*
X138430000Y-90232381D02*
X138430000Y-89232381D01*
X138906191Y-89232381D01*
X139430000Y-89232381D02*
X139430000Y-89470476D01*
X139191905Y-89375238D02*
X139430000Y-89470476D01*
X139668096Y-89375238D01*
X139287143Y-89660952D02*
X139430000Y-89470476D01*
X139572858Y-89660952D01*
X140191905Y-89232381D02*
X140191905Y-89470476D01*
X139953810Y-89375238D02*
X140191905Y-89470476D01*
X140430001Y-89375238D01*
X140049048Y-89660952D02*
X140191905Y-89470476D01*
X140334763Y-89660952D01*
X172656667Y-90232381D02*
X172323333Y-89756190D01*
X172085238Y-90232381D02*
X172085238Y-89232381D01*
X172466191Y-89232381D01*
X172561429Y-89280000D01*
X172609048Y-89327619D01*
X172656667Y-89422857D01*
X172656667Y-89565714D01*
X172609048Y-89660952D01*
X172561429Y-89708571D01*
X172466191Y-89756190D01*
X172085238Y-89756190D01*
X173085238Y-89708571D02*
X173418572Y-89708571D01*
X173561429Y-90232381D02*
X173085238Y-90232381D01*
X173085238Y-89232381D01*
X173561429Y-89232381D01*
X174323334Y-89708571D02*
X173990000Y-89708571D01*
X173990000Y-90232381D02*
X173990000Y-89232381D01*
X174466191Y-89232381D01*
X174990000Y-89232381D02*
X174990000Y-89470476D01*
X174751905Y-89375238D02*
X174990000Y-89470476D01*
X175228096Y-89375238D01*
X174847143Y-89660952D02*
X174990000Y-89470476D01*
X175132858Y-89660952D01*
X175751905Y-89232381D02*
X175751905Y-89470476D01*
X175513810Y-89375238D02*
X175751905Y-89470476D01*
X175990001Y-89375238D01*
X175609048Y-89660952D02*
X175751905Y-89470476D01*
X175894763Y-89660952D01*
X172656667Y-125792381D02*
X172323333Y-125316190D01*
X172085238Y-125792381D02*
X172085238Y-124792381D01*
X172466191Y-124792381D01*
X172561429Y-124840000D01*
X172609048Y-124887619D01*
X172656667Y-124982857D01*
X172656667Y-125125714D01*
X172609048Y-125220952D01*
X172561429Y-125268571D01*
X172466191Y-125316190D01*
X172085238Y-125316190D01*
X173085238Y-125268571D02*
X173418572Y-125268571D01*
X173561429Y-125792381D02*
X173085238Y-125792381D01*
X173085238Y-124792381D01*
X173561429Y-124792381D01*
X174323334Y-125268571D02*
X173990000Y-125268571D01*
X173990000Y-125792381D02*
X173990000Y-124792381D01*
X174466191Y-124792381D01*
X174990000Y-124792381D02*
X174990000Y-125030476D01*
X174751905Y-124935238D02*
X174990000Y-125030476D01*
X175228096Y-124935238D01*
X174847143Y-125220952D02*
X174990000Y-125030476D01*
X175132858Y-125220952D01*
X175751905Y-124792381D02*
X175751905Y-125030476D01*
X175513810Y-124935238D02*
X175751905Y-125030476D01*
X175990001Y-124935238D01*
X175609048Y-125220952D02*
X175751905Y-125030476D01*
X175894763Y-125220952D01*
X137096667Y-125792381D02*
X136763333Y-125316190D01*
X136525238Y-125792381D02*
X136525238Y-124792381D01*
X136906191Y-124792381D01*
X137001429Y-124840000D01*
X137049048Y-124887619D01*
X137096667Y-124982857D01*
X137096667Y-125125714D01*
X137049048Y-125220952D01*
X137001429Y-125268571D01*
X136906191Y-125316190D01*
X136525238Y-125316190D01*
X137525238Y-125268571D02*
X137858572Y-125268571D01*
X138001429Y-125792381D02*
X137525238Y-125792381D01*
X137525238Y-124792381D01*
X138001429Y-124792381D01*
X138763334Y-125268571D02*
X138430000Y-125268571D01*
X138430000Y-125792381D02*
X138430000Y-124792381D01*
X138906191Y-124792381D01*
X139430000Y-124792381D02*
X139430000Y-125030476D01*
X139191905Y-124935238D02*
X139430000Y-125030476D01*
X139668096Y-124935238D01*
X139287143Y-125220952D02*
X139430000Y-125030476D01*
X139572858Y-125220952D01*
X140191905Y-124792381D02*
X140191905Y-125030476D01*
X139953810Y-124935238D02*
X140191905Y-125030476D01*
X140430001Y-124935238D01*
X140049048Y-125220952D02*
X140191905Y-125030476D01*
X140334763Y-125220952D01*
X141331667Y-107132381D02*
X141331667Y-107846667D01*
X141284047Y-107989524D01*
X141188809Y-108084762D01*
X141045952Y-108132381D01*
X140950714Y-108132381D01*
X141760238Y-107227619D02*
X141807857Y-107180000D01*
X141903095Y-107132381D01*
X142141191Y-107132381D01*
X142236429Y-107180000D01*
X142284048Y-107227619D01*
X142331667Y-107322857D01*
X142331667Y-107418095D01*
X142284048Y-107560952D01*
X141712619Y-108132381D01*
X142331667Y-108132381D01*
M02*
