G04 #@! TF.FileFunction,Copper,L2,Bot,Signal*
%FSLAX46Y46*%
G04 Gerber Fmt 4.6, Leading zero omitted, Abs format (unit mm)*
G04 Created by KiCad (PCBNEW 4.0.7-e2-6376~58~ubuntu17.04.1) date Thu Jun  7 00:03:39 2018*
%MOMM*%
%LPD*%
G01*
G04 APERTURE LIST*
%ADD10C,0.100000*%
%ADD11C,3.000000*%
%ADD12R,3.000000X3.000000*%
%ADD13R,1.600000X1.600000*%
%ADD14O,1.600000X1.600000*%
%ADD15C,1.600000*%
%ADD16R,1.800000X1.800000*%
%ADD17C,1.800000*%
%ADD18R,1.700000X1.700000*%
%ADD19O,1.700000X1.700000*%
%ADD20C,2.000000*%
%ADD21C,1.524000*%
%ADD22C,4.064000*%
%ADD23C,0.250000*%
%ADD24C,0.254000*%
G04 APERTURE END LIST*
D10*
D11*
X169080000Y-111760000D03*
D12*
X148590000Y-111760000D03*
D13*
X140970000Y-124460000D03*
D14*
X148590000Y-116840000D03*
X143510000Y-124460000D03*
X146050000Y-116840000D03*
X146050000Y-124460000D03*
X143510000Y-116840000D03*
X148590000Y-124460000D03*
X140970000Y-116840000D03*
D13*
X139700000Y-105410000D03*
D15*
X139700000Y-102910000D03*
D16*
X163830000Y-95250000D03*
D17*
X166370000Y-95250000D03*
D16*
X154940000Y-95250000D03*
D17*
X157480000Y-95250000D03*
D16*
X146050000Y-95250000D03*
D17*
X148590000Y-95250000D03*
D18*
X168910000Y-121920000D03*
D19*
X166370000Y-121920000D03*
X163830000Y-121920000D03*
X161290000Y-121920000D03*
X158750000Y-121920000D03*
X156210000Y-121920000D03*
D15*
X157480000Y-116840000D03*
D14*
X165100000Y-116840000D03*
D15*
X173990000Y-106680000D03*
D14*
X173990000Y-99060000D03*
D15*
X170180000Y-107950000D03*
D14*
X170180000Y-100330000D03*
D15*
X166370000Y-109220000D03*
D14*
X166370000Y-101600000D03*
D20*
X160020000Y-104720000D03*
X160020000Y-109220000D03*
X153520000Y-104720000D03*
X153520000Y-109220000D03*
D21*
X144780000Y-110490000D03*
X142240000Y-110490000D03*
X139700000Y-110490000D03*
D22*
X138430000Y-93980000D03*
X138430000Y-129540000D03*
X173990000Y-129540000D03*
X173990000Y-93980000D03*
D23*
X148590000Y-111760000D02*
X148590000Y-113030000D01*
X148590000Y-113030000D02*
X147320000Y-114300000D01*
X147320000Y-114300000D02*
X143510000Y-114300000D01*
X143510000Y-114300000D02*
X142240000Y-113030000D01*
X142240000Y-113030000D02*
X142240000Y-110490000D01*
X148590000Y-116840000D02*
X151130000Y-119380000D01*
X161290000Y-119380000D02*
X163830000Y-121920000D01*
X151130000Y-119380000D02*
X161290000Y-119380000D01*
X146050000Y-116840000D02*
X149860000Y-120650000D01*
X160020000Y-120650000D02*
X161290000Y-121920000D01*
X149860000Y-120650000D02*
X160020000Y-120650000D01*
X143510000Y-116840000D02*
X148590000Y-121920000D01*
X156210000Y-124460000D02*
X158750000Y-121920000D01*
X154940000Y-124460000D02*
X156210000Y-124460000D01*
X152400000Y-121920000D02*
X154940000Y-124460000D01*
X148590000Y-121920000D02*
X152400000Y-121920000D01*
D24*
G36*
X175180749Y-91105275D02*
X176190219Y-91779781D01*
X176864725Y-92789249D01*
X177115000Y-94047466D01*
X177115000Y-129472534D01*
X176864725Y-130730751D01*
X176190219Y-131740219D01*
X175180749Y-132414725D01*
X173922533Y-132665000D01*
X138497466Y-132665000D01*
X137239249Y-132414725D01*
X136229781Y-131740219D01*
X135555275Y-130730749D01*
X135423481Y-130068172D01*
X135762538Y-130068172D01*
X136167709Y-131048761D01*
X136917293Y-131799655D01*
X137897173Y-132206536D01*
X138958172Y-132207462D01*
X139938761Y-131802291D01*
X140689655Y-131052707D01*
X141096536Y-130072827D01*
X141096540Y-130068172D01*
X171322538Y-130068172D01*
X171727709Y-131048761D01*
X172477293Y-131799655D01*
X173457173Y-132206536D01*
X174518172Y-132207462D01*
X175498761Y-131802291D01*
X176249655Y-131052707D01*
X176656536Y-130072827D01*
X176657462Y-129011828D01*
X176252291Y-128031239D01*
X175502707Y-127280345D01*
X174522827Y-126873464D01*
X173461828Y-126872538D01*
X172481239Y-127277709D01*
X171730345Y-128027293D01*
X171323464Y-129007173D01*
X171322538Y-130068172D01*
X141096540Y-130068172D01*
X141097462Y-129011828D01*
X140692291Y-128031239D01*
X139942707Y-127280345D01*
X138962827Y-126873464D01*
X137901828Y-126872538D01*
X136921239Y-127277709D01*
X136170345Y-128027293D01*
X135763464Y-129007173D01*
X135762538Y-130068172D01*
X135423481Y-130068172D01*
X135305000Y-129472533D01*
X135305000Y-123660000D01*
X139522560Y-123660000D01*
X139522560Y-125260000D01*
X139566838Y-125495317D01*
X139705910Y-125711441D01*
X139918110Y-125856431D01*
X140170000Y-125907440D01*
X141770000Y-125907440D01*
X142005317Y-125863162D01*
X142221441Y-125724090D01*
X142366431Y-125511890D01*
X142397815Y-125356911D01*
X142495302Y-125502811D01*
X142960849Y-125813880D01*
X143510000Y-125923113D01*
X144059151Y-125813880D01*
X144524698Y-125502811D01*
X144780000Y-125120725D01*
X145035302Y-125502811D01*
X145500849Y-125813880D01*
X146050000Y-125923113D01*
X146599151Y-125813880D01*
X147064698Y-125502811D01*
X147334986Y-125098297D01*
X147437611Y-125315134D01*
X147852577Y-125691041D01*
X148240961Y-125851904D01*
X148463000Y-125729915D01*
X148463000Y-124587000D01*
X148717000Y-124587000D01*
X148717000Y-125729915D01*
X148939039Y-125851904D01*
X149327423Y-125691041D01*
X149742389Y-125315134D01*
X149981914Y-124809041D01*
X149860629Y-124587000D01*
X148717000Y-124587000D01*
X148463000Y-124587000D01*
X148443000Y-124587000D01*
X148443000Y-124333000D01*
X148463000Y-124333000D01*
X148463000Y-123190085D01*
X148717000Y-123190085D01*
X148717000Y-124333000D01*
X149860629Y-124333000D01*
X149981914Y-124110959D01*
X149742389Y-123604866D01*
X149327423Y-123228959D01*
X148939039Y-123068096D01*
X148717000Y-123190085D01*
X148463000Y-123190085D01*
X148240961Y-123068096D01*
X147852577Y-123228959D01*
X147437611Y-123604866D01*
X147334986Y-123821703D01*
X147064698Y-123417189D01*
X146599151Y-123106120D01*
X146050000Y-122996887D01*
X145500849Y-123106120D01*
X145035302Y-123417189D01*
X144780000Y-123799275D01*
X144524698Y-123417189D01*
X144059151Y-123106120D01*
X143510000Y-122996887D01*
X142960849Y-123106120D01*
X142495302Y-123417189D01*
X142398899Y-123561465D01*
X142373162Y-123424683D01*
X142234090Y-123208559D01*
X142021890Y-123063569D01*
X141770000Y-123012560D01*
X140170000Y-123012560D01*
X139934683Y-123056838D01*
X139718559Y-123195910D01*
X139573569Y-123408110D01*
X139522560Y-123660000D01*
X135305000Y-123660000D01*
X135305000Y-116811887D01*
X139535000Y-116811887D01*
X139535000Y-116868113D01*
X139644233Y-117417264D01*
X139955302Y-117882811D01*
X140420849Y-118193880D01*
X140970000Y-118303113D01*
X141519151Y-118193880D01*
X141984698Y-117882811D01*
X142240000Y-117500725D01*
X142495302Y-117882811D01*
X142960849Y-118193880D01*
X143510000Y-118303113D01*
X143833886Y-118238688D01*
X148052599Y-122457401D01*
X148299161Y-122622148D01*
X148590000Y-122680000D01*
X152085198Y-122680000D01*
X154402599Y-124997401D01*
X154649160Y-125162148D01*
X154697414Y-125171746D01*
X154940000Y-125220000D01*
X156210000Y-125220000D01*
X156500839Y-125162148D01*
X156747401Y-124997401D01*
X158383592Y-123361210D01*
X158750000Y-123434093D01*
X159318285Y-123321054D01*
X159800054Y-122999147D01*
X160020000Y-122669974D01*
X160239946Y-122999147D01*
X160721715Y-123321054D01*
X161290000Y-123434093D01*
X161858285Y-123321054D01*
X162340054Y-122999147D01*
X162560000Y-122669974D01*
X162779946Y-122999147D01*
X163261715Y-123321054D01*
X163830000Y-123434093D01*
X164398285Y-123321054D01*
X164880054Y-122999147D01*
X165100000Y-122669974D01*
X165319946Y-122999147D01*
X165801715Y-123321054D01*
X166370000Y-123434093D01*
X166938285Y-123321054D01*
X167420054Y-122999147D01*
X167449403Y-122955223D01*
X167521673Y-123129698D01*
X167700301Y-123308327D01*
X167933690Y-123405000D01*
X168624250Y-123405000D01*
X168783000Y-123246250D01*
X168783000Y-122047000D01*
X169037000Y-122047000D01*
X169037000Y-123246250D01*
X169195750Y-123405000D01*
X169886310Y-123405000D01*
X170119699Y-123308327D01*
X170298327Y-123129698D01*
X170395000Y-122896309D01*
X170395000Y-122205750D01*
X170236250Y-122047000D01*
X169037000Y-122047000D01*
X168783000Y-122047000D01*
X168763000Y-122047000D01*
X168763000Y-121793000D01*
X168783000Y-121793000D01*
X168783000Y-120593750D01*
X169037000Y-120593750D01*
X169037000Y-121793000D01*
X170236250Y-121793000D01*
X170395000Y-121634250D01*
X170395000Y-120943691D01*
X170298327Y-120710302D01*
X170119699Y-120531673D01*
X169886310Y-120435000D01*
X169195750Y-120435000D01*
X169037000Y-120593750D01*
X168783000Y-120593750D01*
X168624250Y-120435000D01*
X167933690Y-120435000D01*
X167700301Y-120531673D01*
X167521673Y-120710302D01*
X167449403Y-120884777D01*
X167420054Y-120840853D01*
X166938285Y-120518946D01*
X166370000Y-120405907D01*
X165801715Y-120518946D01*
X165319946Y-120840853D01*
X165100000Y-121170026D01*
X164880054Y-120840853D01*
X164398285Y-120518946D01*
X163830000Y-120405907D01*
X163463592Y-120478790D01*
X161827401Y-118842599D01*
X161580839Y-118677852D01*
X161290000Y-118620000D01*
X151444802Y-118620000D01*
X149969904Y-117145102D01*
X149974064Y-117124187D01*
X156044752Y-117124187D01*
X156262757Y-117651800D01*
X156666077Y-118055824D01*
X157193309Y-118274750D01*
X157764187Y-118275248D01*
X158291800Y-118057243D01*
X158695824Y-117653923D01*
X158888860Y-117189039D01*
X163708096Y-117189039D01*
X163868959Y-117577423D01*
X164244866Y-117992389D01*
X164750959Y-118231914D01*
X164973000Y-118110629D01*
X164973000Y-116967000D01*
X165227000Y-116967000D01*
X165227000Y-118110629D01*
X165449041Y-118231914D01*
X165955134Y-117992389D01*
X166331041Y-117577423D01*
X166491904Y-117189039D01*
X166369915Y-116967000D01*
X165227000Y-116967000D01*
X164973000Y-116967000D01*
X163830085Y-116967000D01*
X163708096Y-117189039D01*
X158888860Y-117189039D01*
X158914750Y-117126691D01*
X158915248Y-116555813D01*
X158888452Y-116490961D01*
X163708096Y-116490961D01*
X163830085Y-116713000D01*
X164973000Y-116713000D01*
X164973000Y-115569371D01*
X165227000Y-115569371D01*
X165227000Y-116713000D01*
X166369915Y-116713000D01*
X166491904Y-116490961D01*
X166331041Y-116102577D01*
X165955134Y-115687611D01*
X165449041Y-115448086D01*
X165227000Y-115569371D01*
X164973000Y-115569371D01*
X164750959Y-115448086D01*
X164244866Y-115687611D01*
X163868959Y-116102577D01*
X163708096Y-116490961D01*
X158888452Y-116490961D01*
X158697243Y-116028200D01*
X158293923Y-115624176D01*
X157766691Y-115405250D01*
X157195813Y-115404752D01*
X156668200Y-115622757D01*
X156264176Y-116026077D01*
X156045250Y-116553309D01*
X156044752Y-117124187D01*
X149974064Y-117124187D01*
X150025000Y-116868113D01*
X150025000Y-116811887D01*
X149915767Y-116262736D01*
X149604698Y-115797189D01*
X149139151Y-115486120D01*
X148590000Y-115376887D01*
X148040849Y-115486120D01*
X147575302Y-115797189D01*
X147320000Y-116179275D01*
X147064698Y-115797189D01*
X146599151Y-115486120D01*
X146050000Y-115376887D01*
X145500849Y-115486120D01*
X145035302Y-115797189D01*
X144780000Y-116179275D01*
X144524698Y-115797189D01*
X144059151Y-115486120D01*
X143510000Y-115376887D01*
X142960849Y-115486120D01*
X142495302Y-115797189D01*
X142240000Y-116179275D01*
X141984698Y-115797189D01*
X141519151Y-115486120D01*
X140970000Y-115376887D01*
X140420849Y-115486120D01*
X139955302Y-115797189D01*
X139644233Y-116262736D01*
X139535000Y-116811887D01*
X135305000Y-116811887D01*
X135305000Y-110766661D01*
X138302758Y-110766661D01*
X138514990Y-111280303D01*
X138907630Y-111673629D01*
X139420900Y-111886757D01*
X139976661Y-111887242D01*
X140490303Y-111675010D01*
X140883629Y-111282370D01*
X140969949Y-111074488D01*
X141054990Y-111280303D01*
X141447630Y-111673629D01*
X141480000Y-111687070D01*
X141480000Y-113030000D01*
X141537852Y-113320839D01*
X141702599Y-113567401D01*
X142972599Y-114837401D01*
X143219160Y-115002148D01*
X143510000Y-115060000D01*
X147320000Y-115060000D01*
X147610839Y-115002148D01*
X147857401Y-114837401D01*
X148787362Y-113907440D01*
X150090000Y-113907440D01*
X150325317Y-113863162D01*
X150541441Y-113724090D01*
X150686431Y-113511890D01*
X150734611Y-113273970D01*
X167745635Y-113273970D01*
X167905418Y-113592739D01*
X168696187Y-113902723D01*
X169545387Y-113886497D01*
X170254582Y-113592739D01*
X170414365Y-113273970D01*
X169080000Y-111939605D01*
X167745635Y-113273970D01*
X150734611Y-113273970D01*
X150737440Y-113260000D01*
X150737440Y-111376187D01*
X166937277Y-111376187D01*
X166953503Y-112225387D01*
X167247261Y-112934582D01*
X167566030Y-113094365D01*
X168900395Y-111760000D01*
X169259605Y-111760000D01*
X170593970Y-113094365D01*
X170912739Y-112934582D01*
X171222723Y-112143813D01*
X171206497Y-111294613D01*
X170912739Y-110585418D01*
X170593970Y-110425635D01*
X169259605Y-111760000D01*
X168900395Y-111760000D01*
X167566030Y-110425635D01*
X167247261Y-110585418D01*
X166937277Y-111376187D01*
X150737440Y-111376187D01*
X150737440Y-110260000D01*
X150693162Y-110024683D01*
X150554090Y-109808559D01*
X150341890Y-109663569D01*
X150090000Y-109612560D01*
X147090000Y-109612560D01*
X146854683Y-109656838D01*
X146638559Y-109795910D01*
X146493569Y-110008110D01*
X146442560Y-110260000D01*
X146442560Y-113260000D01*
X146486838Y-113495317D01*
X146515591Y-113540000D01*
X143824802Y-113540000D01*
X143000000Y-112715198D01*
X143000000Y-111687531D01*
X143030303Y-111675010D01*
X143423629Y-111282370D01*
X143509949Y-111074488D01*
X143594990Y-111280303D01*
X143987630Y-111673629D01*
X144500900Y-111886757D01*
X145056661Y-111887242D01*
X145570303Y-111675010D01*
X145963629Y-111282370D01*
X146176757Y-110769100D01*
X146177242Y-110213339D01*
X145965010Y-109699697D01*
X145809380Y-109543795D01*
X151884716Y-109543795D01*
X152133106Y-110144943D01*
X152592637Y-110605278D01*
X153193352Y-110854716D01*
X153843795Y-110855284D01*
X154444943Y-110606894D01*
X154905278Y-110147363D01*
X155154716Y-109546648D01*
X155154718Y-109543795D01*
X158384716Y-109543795D01*
X158633106Y-110144943D01*
X159092637Y-110605278D01*
X159693352Y-110854716D01*
X160343795Y-110855284D01*
X160944943Y-110606894D01*
X161405278Y-110147363D01*
X161654716Y-109546648D01*
X161654753Y-109504187D01*
X164934752Y-109504187D01*
X165152757Y-110031800D01*
X165556077Y-110435824D01*
X166083309Y-110654750D01*
X166654187Y-110655248D01*
X167181800Y-110437243D01*
X167373346Y-110246030D01*
X167745635Y-110246030D01*
X169080000Y-111580395D01*
X170414365Y-110246030D01*
X170254582Y-109927261D01*
X169463813Y-109617277D01*
X168614613Y-109633503D01*
X167905418Y-109927261D01*
X167745635Y-110246030D01*
X167373346Y-110246030D01*
X167585824Y-110033923D01*
X167804750Y-109506691D01*
X167805248Y-108935813D01*
X167587243Y-108408200D01*
X167413534Y-108234187D01*
X168744752Y-108234187D01*
X168962757Y-108761800D01*
X169366077Y-109165824D01*
X169893309Y-109384750D01*
X170464187Y-109385248D01*
X170991800Y-109167243D01*
X171395824Y-108763923D01*
X171614750Y-108236691D01*
X171615248Y-107665813D01*
X171397243Y-107138200D01*
X171223534Y-106964187D01*
X172554752Y-106964187D01*
X172772757Y-107491800D01*
X173176077Y-107895824D01*
X173703309Y-108114750D01*
X174274187Y-108115248D01*
X174801800Y-107897243D01*
X175205824Y-107493923D01*
X175424750Y-106966691D01*
X175425248Y-106395813D01*
X175207243Y-105868200D01*
X174803923Y-105464176D01*
X174276691Y-105245250D01*
X173705813Y-105244752D01*
X173178200Y-105462757D01*
X172774176Y-105866077D01*
X172555250Y-106393309D01*
X172554752Y-106964187D01*
X171223534Y-106964187D01*
X170993923Y-106734176D01*
X170466691Y-106515250D01*
X169895813Y-106514752D01*
X169368200Y-106732757D01*
X168964176Y-107136077D01*
X168745250Y-107663309D01*
X168744752Y-108234187D01*
X167413534Y-108234187D01*
X167183923Y-108004176D01*
X166656691Y-107785250D01*
X166085813Y-107784752D01*
X165558200Y-108002757D01*
X165154176Y-108406077D01*
X164935250Y-108933309D01*
X164934752Y-109504187D01*
X161654753Y-109504187D01*
X161655284Y-108896205D01*
X161406894Y-108295057D01*
X160947363Y-107834722D01*
X160346648Y-107585284D01*
X159696205Y-107584716D01*
X159095057Y-107833106D01*
X158634722Y-108292637D01*
X158385284Y-108893352D01*
X158384716Y-109543795D01*
X155154718Y-109543795D01*
X155155284Y-108896205D01*
X154906894Y-108295057D01*
X154447363Y-107834722D01*
X153846648Y-107585284D01*
X153196205Y-107584716D01*
X152595057Y-107833106D01*
X152134722Y-108292637D01*
X151885284Y-108893352D01*
X151884716Y-109543795D01*
X145809380Y-109543795D01*
X145572370Y-109306371D01*
X145059100Y-109093243D01*
X144503339Y-109092758D01*
X143989697Y-109304990D01*
X143596371Y-109697630D01*
X143510051Y-109905512D01*
X143425010Y-109699697D01*
X143032370Y-109306371D01*
X142519100Y-109093243D01*
X141963339Y-109092758D01*
X141449697Y-109304990D01*
X141056371Y-109697630D01*
X140970051Y-109905512D01*
X140885010Y-109699697D01*
X140492370Y-109306371D01*
X139979100Y-109093243D01*
X139423339Y-109092758D01*
X138909697Y-109304990D01*
X138516371Y-109697630D01*
X138303243Y-110210900D01*
X138302758Y-110766661D01*
X135305000Y-110766661D01*
X135305000Y-104610000D01*
X138252560Y-104610000D01*
X138252560Y-106210000D01*
X138296838Y-106445317D01*
X138435910Y-106661441D01*
X138648110Y-106806431D01*
X138900000Y-106857440D01*
X140500000Y-106857440D01*
X140735317Y-106813162D01*
X140951441Y-106674090D01*
X141096431Y-106461890D01*
X141147440Y-106210000D01*
X141147440Y-105043795D01*
X151884716Y-105043795D01*
X152133106Y-105644943D01*
X152592637Y-106105278D01*
X153193352Y-106354716D01*
X153843795Y-106355284D01*
X154444943Y-106106894D01*
X154905278Y-105647363D01*
X155154716Y-105046648D01*
X155154718Y-105043795D01*
X158384716Y-105043795D01*
X158633106Y-105644943D01*
X159092637Y-106105278D01*
X159693352Y-106354716D01*
X160343795Y-106355284D01*
X160944943Y-106106894D01*
X161405278Y-105647363D01*
X161654716Y-105046648D01*
X161655284Y-104396205D01*
X161406894Y-103795057D01*
X160947363Y-103334722D01*
X160346648Y-103085284D01*
X159696205Y-103084716D01*
X159095057Y-103333106D01*
X158634722Y-103792637D01*
X158385284Y-104393352D01*
X158384716Y-105043795D01*
X155154718Y-105043795D01*
X155155284Y-104396205D01*
X154906894Y-103795057D01*
X154447363Y-103334722D01*
X153846648Y-103085284D01*
X153196205Y-103084716D01*
X152595057Y-103333106D01*
X152134722Y-103792637D01*
X151885284Y-104393352D01*
X151884716Y-105043795D01*
X141147440Y-105043795D01*
X141147440Y-104610000D01*
X141103162Y-104374683D01*
X140964090Y-104158559D01*
X140751890Y-104013569D01*
X140513799Y-103965354D01*
X140528139Y-103917745D01*
X139700000Y-103089605D01*
X138871861Y-103917745D01*
X138886145Y-103965167D01*
X138664683Y-104006838D01*
X138448559Y-104145910D01*
X138303569Y-104358110D01*
X138252560Y-104610000D01*
X135305000Y-104610000D01*
X135305000Y-102693223D01*
X138253035Y-102693223D01*
X138280222Y-103263454D01*
X138446136Y-103664005D01*
X138692255Y-103738139D01*
X139520395Y-102910000D01*
X139879605Y-102910000D01*
X140707745Y-103738139D01*
X140953864Y-103664005D01*
X141146965Y-103126777D01*
X141119778Y-102556546D01*
X140953864Y-102155995D01*
X140707745Y-102081861D01*
X139879605Y-102910000D01*
X139520395Y-102910000D01*
X138692255Y-102081861D01*
X138446136Y-102155995D01*
X138253035Y-102693223D01*
X135305000Y-102693223D01*
X135305000Y-101902255D01*
X138871861Y-101902255D01*
X139700000Y-102730395D01*
X140528139Y-101902255D01*
X140454005Y-101656136D01*
X140219616Y-101571887D01*
X164935000Y-101571887D01*
X164935000Y-101628113D01*
X165044233Y-102177264D01*
X165355302Y-102642811D01*
X165820849Y-102953880D01*
X166370000Y-103063113D01*
X166919151Y-102953880D01*
X167384698Y-102642811D01*
X167695767Y-102177264D01*
X167805000Y-101628113D01*
X167805000Y-101571887D01*
X167695767Y-101022736D01*
X167384698Y-100557189D01*
X167002613Y-100301887D01*
X168745000Y-100301887D01*
X168745000Y-100358113D01*
X168854233Y-100907264D01*
X169165302Y-101372811D01*
X169630849Y-101683880D01*
X170180000Y-101793113D01*
X170729151Y-101683880D01*
X171194698Y-101372811D01*
X171505767Y-100907264D01*
X171615000Y-100358113D01*
X171615000Y-100301887D01*
X171505767Y-99752736D01*
X171194698Y-99287189D01*
X170812613Y-99031887D01*
X172555000Y-99031887D01*
X172555000Y-99088113D01*
X172664233Y-99637264D01*
X172975302Y-100102811D01*
X173440849Y-100413880D01*
X173990000Y-100523113D01*
X174539151Y-100413880D01*
X175004698Y-100102811D01*
X175315767Y-99637264D01*
X175425000Y-99088113D01*
X175425000Y-99031887D01*
X175315767Y-98482736D01*
X175004698Y-98017189D01*
X174539151Y-97706120D01*
X173990000Y-97596887D01*
X173440849Y-97706120D01*
X172975302Y-98017189D01*
X172664233Y-98482736D01*
X172555000Y-99031887D01*
X170812613Y-99031887D01*
X170729151Y-98976120D01*
X170180000Y-98866887D01*
X169630849Y-98976120D01*
X169165302Y-99287189D01*
X168854233Y-99752736D01*
X168745000Y-100301887D01*
X167002613Y-100301887D01*
X166919151Y-100246120D01*
X166370000Y-100136887D01*
X165820849Y-100246120D01*
X165355302Y-100557189D01*
X165044233Y-101022736D01*
X164935000Y-101571887D01*
X140219616Y-101571887D01*
X139916777Y-101463035D01*
X139346546Y-101490222D01*
X138945995Y-101656136D01*
X138871861Y-101902255D01*
X135305000Y-101902255D01*
X135305000Y-94508172D01*
X135762538Y-94508172D01*
X136167709Y-95488761D01*
X136917293Y-96239655D01*
X137897173Y-96646536D01*
X138958172Y-96647462D01*
X139938761Y-96242291D01*
X140646536Y-95535750D01*
X144515000Y-95535750D01*
X144515000Y-96276310D01*
X144611673Y-96509699D01*
X144790302Y-96688327D01*
X145023691Y-96785000D01*
X145764250Y-96785000D01*
X145923000Y-96626250D01*
X145923000Y-95377000D01*
X144673750Y-95377000D01*
X144515000Y-95535750D01*
X140646536Y-95535750D01*
X140689655Y-95492707D01*
X141096536Y-94512827D01*
X141096788Y-94223690D01*
X144515000Y-94223690D01*
X144515000Y-94964250D01*
X144673750Y-95123000D01*
X145923000Y-95123000D01*
X145923000Y-93873750D01*
X146177000Y-93873750D01*
X146177000Y-95123000D01*
X146197000Y-95123000D01*
X146197000Y-95377000D01*
X146177000Y-95377000D01*
X146177000Y-96626250D01*
X146335750Y-96785000D01*
X147076309Y-96785000D01*
X147309698Y-96688327D01*
X147488327Y-96509699D01*
X147544119Y-96375006D01*
X147719357Y-96550551D01*
X148283330Y-96784733D01*
X148893991Y-96785265D01*
X149458371Y-96552068D01*
X149890551Y-96120643D01*
X150124733Y-95556670D01*
X150124751Y-95535750D01*
X153405000Y-95535750D01*
X153405000Y-96276310D01*
X153501673Y-96509699D01*
X153680302Y-96688327D01*
X153913691Y-96785000D01*
X154654250Y-96785000D01*
X154813000Y-96626250D01*
X154813000Y-95377000D01*
X153563750Y-95377000D01*
X153405000Y-95535750D01*
X150124751Y-95535750D01*
X150125265Y-94946009D01*
X149892068Y-94381629D01*
X149734405Y-94223690D01*
X153405000Y-94223690D01*
X153405000Y-94964250D01*
X153563750Y-95123000D01*
X154813000Y-95123000D01*
X154813000Y-93873750D01*
X155067000Y-93873750D01*
X155067000Y-95123000D01*
X155087000Y-95123000D01*
X155087000Y-95377000D01*
X155067000Y-95377000D01*
X155067000Y-96626250D01*
X155225750Y-96785000D01*
X155966309Y-96785000D01*
X156199698Y-96688327D01*
X156378327Y-96509699D01*
X156434119Y-96375006D01*
X156609357Y-96550551D01*
X157173330Y-96784733D01*
X157783991Y-96785265D01*
X158348371Y-96552068D01*
X158780551Y-96120643D01*
X159014733Y-95556670D01*
X159014751Y-95535750D01*
X162295000Y-95535750D01*
X162295000Y-96276310D01*
X162391673Y-96509699D01*
X162570302Y-96688327D01*
X162803691Y-96785000D01*
X163544250Y-96785000D01*
X163703000Y-96626250D01*
X163703000Y-95377000D01*
X162453750Y-95377000D01*
X162295000Y-95535750D01*
X159014751Y-95535750D01*
X159015265Y-94946009D01*
X158782068Y-94381629D01*
X158624405Y-94223690D01*
X162295000Y-94223690D01*
X162295000Y-94964250D01*
X162453750Y-95123000D01*
X163703000Y-95123000D01*
X163703000Y-93873750D01*
X163957000Y-93873750D01*
X163957000Y-95123000D01*
X163977000Y-95123000D01*
X163977000Y-95377000D01*
X163957000Y-95377000D01*
X163957000Y-96626250D01*
X164115750Y-96785000D01*
X164856309Y-96785000D01*
X165089698Y-96688327D01*
X165268327Y-96509699D01*
X165324119Y-96375006D01*
X165499357Y-96550551D01*
X166063330Y-96784733D01*
X166673991Y-96785265D01*
X167238371Y-96552068D01*
X167670551Y-96120643D01*
X167904733Y-95556670D01*
X167905265Y-94946009D01*
X167724355Y-94508172D01*
X171322538Y-94508172D01*
X171727709Y-95488761D01*
X172477293Y-96239655D01*
X173457173Y-96646536D01*
X174518172Y-96647462D01*
X175498761Y-96242291D01*
X176249655Y-95492707D01*
X176656536Y-94512827D01*
X176657462Y-93451828D01*
X176252291Y-92471239D01*
X175502707Y-91720345D01*
X174522827Y-91313464D01*
X173461828Y-91312538D01*
X172481239Y-91717709D01*
X171730345Y-92467293D01*
X171323464Y-93447173D01*
X171322538Y-94508172D01*
X167724355Y-94508172D01*
X167672068Y-94381629D01*
X167240643Y-93949449D01*
X166676670Y-93715267D01*
X166066009Y-93714735D01*
X165501629Y-93947932D01*
X165324159Y-94125092D01*
X165268327Y-93990301D01*
X165089698Y-93811673D01*
X164856309Y-93715000D01*
X164115750Y-93715000D01*
X163957000Y-93873750D01*
X163703000Y-93873750D01*
X163544250Y-93715000D01*
X162803691Y-93715000D01*
X162570302Y-93811673D01*
X162391673Y-93990301D01*
X162295000Y-94223690D01*
X158624405Y-94223690D01*
X158350643Y-93949449D01*
X157786670Y-93715267D01*
X157176009Y-93714735D01*
X156611629Y-93947932D01*
X156434159Y-94125092D01*
X156378327Y-93990301D01*
X156199698Y-93811673D01*
X155966309Y-93715000D01*
X155225750Y-93715000D01*
X155067000Y-93873750D01*
X154813000Y-93873750D01*
X154654250Y-93715000D01*
X153913691Y-93715000D01*
X153680302Y-93811673D01*
X153501673Y-93990301D01*
X153405000Y-94223690D01*
X149734405Y-94223690D01*
X149460643Y-93949449D01*
X148896670Y-93715267D01*
X148286009Y-93714735D01*
X147721629Y-93947932D01*
X147544159Y-94125092D01*
X147488327Y-93990301D01*
X147309698Y-93811673D01*
X147076309Y-93715000D01*
X146335750Y-93715000D01*
X146177000Y-93873750D01*
X145923000Y-93873750D01*
X145764250Y-93715000D01*
X145023691Y-93715000D01*
X144790302Y-93811673D01*
X144611673Y-93990301D01*
X144515000Y-94223690D01*
X141096788Y-94223690D01*
X141097462Y-93451828D01*
X140692291Y-92471239D01*
X139942707Y-91720345D01*
X138962827Y-91313464D01*
X137901828Y-91312538D01*
X136921239Y-91717709D01*
X136170345Y-92467293D01*
X135763464Y-93447173D01*
X135762538Y-94508172D01*
X135305000Y-94508172D01*
X135305000Y-94047467D01*
X135555275Y-92789251D01*
X136229781Y-91779781D01*
X137239249Y-91105275D01*
X138497466Y-90855000D01*
X173922533Y-90855000D01*
X175180749Y-91105275D01*
X175180749Y-91105275D01*
G37*
X175180749Y-91105275D02*
X176190219Y-91779781D01*
X176864725Y-92789249D01*
X177115000Y-94047466D01*
X177115000Y-129472534D01*
X176864725Y-130730751D01*
X176190219Y-131740219D01*
X175180749Y-132414725D01*
X173922533Y-132665000D01*
X138497466Y-132665000D01*
X137239249Y-132414725D01*
X136229781Y-131740219D01*
X135555275Y-130730749D01*
X135423481Y-130068172D01*
X135762538Y-130068172D01*
X136167709Y-131048761D01*
X136917293Y-131799655D01*
X137897173Y-132206536D01*
X138958172Y-132207462D01*
X139938761Y-131802291D01*
X140689655Y-131052707D01*
X141096536Y-130072827D01*
X141096540Y-130068172D01*
X171322538Y-130068172D01*
X171727709Y-131048761D01*
X172477293Y-131799655D01*
X173457173Y-132206536D01*
X174518172Y-132207462D01*
X175498761Y-131802291D01*
X176249655Y-131052707D01*
X176656536Y-130072827D01*
X176657462Y-129011828D01*
X176252291Y-128031239D01*
X175502707Y-127280345D01*
X174522827Y-126873464D01*
X173461828Y-126872538D01*
X172481239Y-127277709D01*
X171730345Y-128027293D01*
X171323464Y-129007173D01*
X171322538Y-130068172D01*
X141096540Y-130068172D01*
X141097462Y-129011828D01*
X140692291Y-128031239D01*
X139942707Y-127280345D01*
X138962827Y-126873464D01*
X137901828Y-126872538D01*
X136921239Y-127277709D01*
X136170345Y-128027293D01*
X135763464Y-129007173D01*
X135762538Y-130068172D01*
X135423481Y-130068172D01*
X135305000Y-129472533D01*
X135305000Y-123660000D01*
X139522560Y-123660000D01*
X139522560Y-125260000D01*
X139566838Y-125495317D01*
X139705910Y-125711441D01*
X139918110Y-125856431D01*
X140170000Y-125907440D01*
X141770000Y-125907440D01*
X142005317Y-125863162D01*
X142221441Y-125724090D01*
X142366431Y-125511890D01*
X142397815Y-125356911D01*
X142495302Y-125502811D01*
X142960849Y-125813880D01*
X143510000Y-125923113D01*
X144059151Y-125813880D01*
X144524698Y-125502811D01*
X144780000Y-125120725D01*
X145035302Y-125502811D01*
X145500849Y-125813880D01*
X146050000Y-125923113D01*
X146599151Y-125813880D01*
X147064698Y-125502811D01*
X147334986Y-125098297D01*
X147437611Y-125315134D01*
X147852577Y-125691041D01*
X148240961Y-125851904D01*
X148463000Y-125729915D01*
X148463000Y-124587000D01*
X148717000Y-124587000D01*
X148717000Y-125729915D01*
X148939039Y-125851904D01*
X149327423Y-125691041D01*
X149742389Y-125315134D01*
X149981914Y-124809041D01*
X149860629Y-124587000D01*
X148717000Y-124587000D01*
X148463000Y-124587000D01*
X148443000Y-124587000D01*
X148443000Y-124333000D01*
X148463000Y-124333000D01*
X148463000Y-123190085D01*
X148717000Y-123190085D01*
X148717000Y-124333000D01*
X149860629Y-124333000D01*
X149981914Y-124110959D01*
X149742389Y-123604866D01*
X149327423Y-123228959D01*
X148939039Y-123068096D01*
X148717000Y-123190085D01*
X148463000Y-123190085D01*
X148240961Y-123068096D01*
X147852577Y-123228959D01*
X147437611Y-123604866D01*
X147334986Y-123821703D01*
X147064698Y-123417189D01*
X146599151Y-123106120D01*
X146050000Y-122996887D01*
X145500849Y-123106120D01*
X145035302Y-123417189D01*
X144780000Y-123799275D01*
X144524698Y-123417189D01*
X144059151Y-123106120D01*
X143510000Y-122996887D01*
X142960849Y-123106120D01*
X142495302Y-123417189D01*
X142398899Y-123561465D01*
X142373162Y-123424683D01*
X142234090Y-123208559D01*
X142021890Y-123063569D01*
X141770000Y-123012560D01*
X140170000Y-123012560D01*
X139934683Y-123056838D01*
X139718559Y-123195910D01*
X139573569Y-123408110D01*
X139522560Y-123660000D01*
X135305000Y-123660000D01*
X135305000Y-116811887D01*
X139535000Y-116811887D01*
X139535000Y-116868113D01*
X139644233Y-117417264D01*
X139955302Y-117882811D01*
X140420849Y-118193880D01*
X140970000Y-118303113D01*
X141519151Y-118193880D01*
X141984698Y-117882811D01*
X142240000Y-117500725D01*
X142495302Y-117882811D01*
X142960849Y-118193880D01*
X143510000Y-118303113D01*
X143833886Y-118238688D01*
X148052599Y-122457401D01*
X148299161Y-122622148D01*
X148590000Y-122680000D01*
X152085198Y-122680000D01*
X154402599Y-124997401D01*
X154649160Y-125162148D01*
X154697414Y-125171746D01*
X154940000Y-125220000D01*
X156210000Y-125220000D01*
X156500839Y-125162148D01*
X156747401Y-124997401D01*
X158383592Y-123361210D01*
X158750000Y-123434093D01*
X159318285Y-123321054D01*
X159800054Y-122999147D01*
X160020000Y-122669974D01*
X160239946Y-122999147D01*
X160721715Y-123321054D01*
X161290000Y-123434093D01*
X161858285Y-123321054D01*
X162340054Y-122999147D01*
X162560000Y-122669974D01*
X162779946Y-122999147D01*
X163261715Y-123321054D01*
X163830000Y-123434093D01*
X164398285Y-123321054D01*
X164880054Y-122999147D01*
X165100000Y-122669974D01*
X165319946Y-122999147D01*
X165801715Y-123321054D01*
X166370000Y-123434093D01*
X166938285Y-123321054D01*
X167420054Y-122999147D01*
X167449403Y-122955223D01*
X167521673Y-123129698D01*
X167700301Y-123308327D01*
X167933690Y-123405000D01*
X168624250Y-123405000D01*
X168783000Y-123246250D01*
X168783000Y-122047000D01*
X169037000Y-122047000D01*
X169037000Y-123246250D01*
X169195750Y-123405000D01*
X169886310Y-123405000D01*
X170119699Y-123308327D01*
X170298327Y-123129698D01*
X170395000Y-122896309D01*
X170395000Y-122205750D01*
X170236250Y-122047000D01*
X169037000Y-122047000D01*
X168783000Y-122047000D01*
X168763000Y-122047000D01*
X168763000Y-121793000D01*
X168783000Y-121793000D01*
X168783000Y-120593750D01*
X169037000Y-120593750D01*
X169037000Y-121793000D01*
X170236250Y-121793000D01*
X170395000Y-121634250D01*
X170395000Y-120943691D01*
X170298327Y-120710302D01*
X170119699Y-120531673D01*
X169886310Y-120435000D01*
X169195750Y-120435000D01*
X169037000Y-120593750D01*
X168783000Y-120593750D01*
X168624250Y-120435000D01*
X167933690Y-120435000D01*
X167700301Y-120531673D01*
X167521673Y-120710302D01*
X167449403Y-120884777D01*
X167420054Y-120840853D01*
X166938285Y-120518946D01*
X166370000Y-120405907D01*
X165801715Y-120518946D01*
X165319946Y-120840853D01*
X165100000Y-121170026D01*
X164880054Y-120840853D01*
X164398285Y-120518946D01*
X163830000Y-120405907D01*
X163463592Y-120478790D01*
X161827401Y-118842599D01*
X161580839Y-118677852D01*
X161290000Y-118620000D01*
X151444802Y-118620000D01*
X149969904Y-117145102D01*
X149974064Y-117124187D01*
X156044752Y-117124187D01*
X156262757Y-117651800D01*
X156666077Y-118055824D01*
X157193309Y-118274750D01*
X157764187Y-118275248D01*
X158291800Y-118057243D01*
X158695824Y-117653923D01*
X158888860Y-117189039D01*
X163708096Y-117189039D01*
X163868959Y-117577423D01*
X164244866Y-117992389D01*
X164750959Y-118231914D01*
X164973000Y-118110629D01*
X164973000Y-116967000D01*
X165227000Y-116967000D01*
X165227000Y-118110629D01*
X165449041Y-118231914D01*
X165955134Y-117992389D01*
X166331041Y-117577423D01*
X166491904Y-117189039D01*
X166369915Y-116967000D01*
X165227000Y-116967000D01*
X164973000Y-116967000D01*
X163830085Y-116967000D01*
X163708096Y-117189039D01*
X158888860Y-117189039D01*
X158914750Y-117126691D01*
X158915248Y-116555813D01*
X158888452Y-116490961D01*
X163708096Y-116490961D01*
X163830085Y-116713000D01*
X164973000Y-116713000D01*
X164973000Y-115569371D01*
X165227000Y-115569371D01*
X165227000Y-116713000D01*
X166369915Y-116713000D01*
X166491904Y-116490961D01*
X166331041Y-116102577D01*
X165955134Y-115687611D01*
X165449041Y-115448086D01*
X165227000Y-115569371D01*
X164973000Y-115569371D01*
X164750959Y-115448086D01*
X164244866Y-115687611D01*
X163868959Y-116102577D01*
X163708096Y-116490961D01*
X158888452Y-116490961D01*
X158697243Y-116028200D01*
X158293923Y-115624176D01*
X157766691Y-115405250D01*
X157195813Y-115404752D01*
X156668200Y-115622757D01*
X156264176Y-116026077D01*
X156045250Y-116553309D01*
X156044752Y-117124187D01*
X149974064Y-117124187D01*
X150025000Y-116868113D01*
X150025000Y-116811887D01*
X149915767Y-116262736D01*
X149604698Y-115797189D01*
X149139151Y-115486120D01*
X148590000Y-115376887D01*
X148040849Y-115486120D01*
X147575302Y-115797189D01*
X147320000Y-116179275D01*
X147064698Y-115797189D01*
X146599151Y-115486120D01*
X146050000Y-115376887D01*
X145500849Y-115486120D01*
X145035302Y-115797189D01*
X144780000Y-116179275D01*
X144524698Y-115797189D01*
X144059151Y-115486120D01*
X143510000Y-115376887D01*
X142960849Y-115486120D01*
X142495302Y-115797189D01*
X142240000Y-116179275D01*
X141984698Y-115797189D01*
X141519151Y-115486120D01*
X140970000Y-115376887D01*
X140420849Y-115486120D01*
X139955302Y-115797189D01*
X139644233Y-116262736D01*
X139535000Y-116811887D01*
X135305000Y-116811887D01*
X135305000Y-110766661D01*
X138302758Y-110766661D01*
X138514990Y-111280303D01*
X138907630Y-111673629D01*
X139420900Y-111886757D01*
X139976661Y-111887242D01*
X140490303Y-111675010D01*
X140883629Y-111282370D01*
X140969949Y-111074488D01*
X141054990Y-111280303D01*
X141447630Y-111673629D01*
X141480000Y-111687070D01*
X141480000Y-113030000D01*
X141537852Y-113320839D01*
X141702599Y-113567401D01*
X142972599Y-114837401D01*
X143219160Y-115002148D01*
X143510000Y-115060000D01*
X147320000Y-115060000D01*
X147610839Y-115002148D01*
X147857401Y-114837401D01*
X148787362Y-113907440D01*
X150090000Y-113907440D01*
X150325317Y-113863162D01*
X150541441Y-113724090D01*
X150686431Y-113511890D01*
X150734611Y-113273970D01*
X167745635Y-113273970D01*
X167905418Y-113592739D01*
X168696187Y-113902723D01*
X169545387Y-113886497D01*
X170254582Y-113592739D01*
X170414365Y-113273970D01*
X169080000Y-111939605D01*
X167745635Y-113273970D01*
X150734611Y-113273970D01*
X150737440Y-113260000D01*
X150737440Y-111376187D01*
X166937277Y-111376187D01*
X166953503Y-112225387D01*
X167247261Y-112934582D01*
X167566030Y-113094365D01*
X168900395Y-111760000D01*
X169259605Y-111760000D01*
X170593970Y-113094365D01*
X170912739Y-112934582D01*
X171222723Y-112143813D01*
X171206497Y-111294613D01*
X170912739Y-110585418D01*
X170593970Y-110425635D01*
X169259605Y-111760000D01*
X168900395Y-111760000D01*
X167566030Y-110425635D01*
X167247261Y-110585418D01*
X166937277Y-111376187D01*
X150737440Y-111376187D01*
X150737440Y-110260000D01*
X150693162Y-110024683D01*
X150554090Y-109808559D01*
X150341890Y-109663569D01*
X150090000Y-109612560D01*
X147090000Y-109612560D01*
X146854683Y-109656838D01*
X146638559Y-109795910D01*
X146493569Y-110008110D01*
X146442560Y-110260000D01*
X146442560Y-113260000D01*
X146486838Y-113495317D01*
X146515591Y-113540000D01*
X143824802Y-113540000D01*
X143000000Y-112715198D01*
X143000000Y-111687531D01*
X143030303Y-111675010D01*
X143423629Y-111282370D01*
X143509949Y-111074488D01*
X143594990Y-111280303D01*
X143987630Y-111673629D01*
X144500900Y-111886757D01*
X145056661Y-111887242D01*
X145570303Y-111675010D01*
X145963629Y-111282370D01*
X146176757Y-110769100D01*
X146177242Y-110213339D01*
X145965010Y-109699697D01*
X145809380Y-109543795D01*
X151884716Y-109543795D01*
X152133106Y-110144943D01*
X152592637Y-110605278D01*
X153193352Y-110854716D01*
X153843795Y-110855284D01*
X154444943Y-110606894D01*
X154905278Y-110147363D01*
X155154716Y-109546648D01*
X155154718Y-109543795D01*
X158384716Y-109543795D01*
X158633106Y-110144943D01*
X159092637Y-110605278D01*
X159693352Y-110854716D01*
X160343795Y-110855284D01*
X160944943Y-110606894D01*
X161405278Y-110147363D01*
X161654716Y-109546648D01*
X161654753Y-109504187D01*
X164934752Y-109504187D01*
X165152757Y-110031800D01*
X165556077Y-110435824D01*
X166083309Y-110654750D01*
X166654187Y-110655248D01*
X167181800Y-110437243D01*
X167373346Y-110246030D01*
X167745635Y-110246030D01*
X169080000Y-111580395D01*
X170414365Y-110246030D01*
X170254582Y-109927261D01*
X169463813Y-109617277D01*
X168614613Y-109633503D01*
X167905418Y-109927261D01*
X167745635Y-110246030D01*
X167373346Y-110246030D01*
X167585824Y-110033923D01*
X167804750Y-109506691D01*
X167805248Y-108935813D01*
X167587243Y-108408200D01*
X167413534Y-108234187D01*
X168744752Y-108234187D01*
X168962757Y-108761800D01*
X169366077Y-109165824D01*
X169893309Y-109384750D01*
X170464187Y-109385248D01*
X170991800Y-109167243D01*
X171395824Y-108763923D01*
X171614750Y-108236691D01*
X171615248Y-107665813D01*
X171397243Y-107138200D01*
X171223534Y-106964187D01*
X172554752Y-106964187D01*
X172772757Y-107491800D01*
X173176077Y-107895824D01*
X173703309Y-108114750D01*
X174274187Y-108115248D01*
X174801800Y-107897243D01*
X175205824Y-107493923D01*
X175424750Y-106966691D01*
X175425248Y-106395813D01*
X175207243Y-105868200D01*
X174803923Y-105464176D01*
X174276691Y-105245250D01*
X173705813Y-105244752D01*
X173178200Y-105462757D01*
X172774176Y-105866077D01*
X172555250Y-106393309D01*
X172554752Y-106964187D01*
X171223534Y-106964187D01*
X170993923Y-106734176D01*
X170466691Y-106515250D01*
X169895813Y-106514752D01*
X169368200Y-106732757D01*
X168964176Y-107136077D01*
X168745250Y-107663309D01*
X168744752Y-108234187D01*
X167413534Y-108234187D01*
X167183923Y-108004176D01*
X166656691Y-107785250D01*
X166085813Y-107784752D01*
X165558200Y-108002757D01*
X165154176Y-108406077D01*
X164935250Y-108933309D01*
X164934752Y-109504187D01*
X161654753Y-109504187D01*
X161655284Y-108896205D01*
X161406894Y-108295057D01*
X160947363Y-107834722D01*
X160346648Y-107585284D01*
X159696205Y-107584716D01*
X159095057Y-107833106D01*
X158634722Y-108292637D01*
X158385284Y-108893352D01*
X158384716Y-109543795D01*
X155154718Y-109543795D01*
X155155284Y-108896205D01*
X154906894Y-108295057D01*
X154447363Y-107834722D01*
X153846648Y-107585284D01*
X153196205Y-107584716D01*
X152595057Y-107833106D01*
X152134722Y-108292637D01*
X151885284Y-108893352D01*
X151884716Y-109543795D01*
X145809380Y-109543795D01*
X145572370Y-109306371D01*
X145059100Y-109093243D01*
X144503339Y-109092758D01*
X143989697Y-109304990D01*
X143596371Y-109697630D01*
X143510051Y-109905512D01*
X143425010Y-109699697D01*
X143032370Y-109306371D01*
X142519100Y-109093243D01*
X141963339Y-109092758D01*
X141449697Y-109304990D01*
X141056371Y-109697630D01*
X140970051Y-109905512D01*
X140885010Y-109699697D01*
X140492370Y-109306371D01*
X139979100Y-109093243D01*
X139423339Y-109092758D01*
X138909697Y-109304990D01*
X138516371Y-109697630D01*
X138303243Y-110210900D01*
X138302758Y-110766661D01*
X135305000Y-110766661D01*
X135305000Y-104610000D01*
X138252560Y-104610000D01*
X138252560Y-106210000D01*
X138296838Y-106445317D01*
X138435910Y-106661441D01*
X138648110Y-106806431D01*
X138900000Y-106857440D01*
X140500000Y-106857440D01*
X140735317Y-106813162D01*
X140951441Y-106674090D01*
X141096431Y-106461890D01*
X141147440Y-106210000D01*
X141147440Y-105043795D01*
X151884716Y-105043795D01*
X152133106Y-105644943D01*
X152592637Y-106105278D01*
X153193352Y-106354716D01*
X153843795Y-106355284D01*
X154444943Y-106106894D01*
X154905278Y-105647363D01*
X155154716Y-105046648D01*
X155154718Y-105043795D01*
X158384716Y-105043795D01*
X158633106Y-105644943D01*
X159092637Y-106105278D01*
X159693352Y-106354716D01*
X160343795Y-106355284D01*
X160944943Y-106106894D01*
X161405278Y-105647363D01*
X161654716Y-105046648D01*
X161655284Y-104396205D01*
X161406894Y-103795057D01*
X160947363Y-103334722D01*
X160346648Y-103085284D01*
X159696205Y-103084716D01*
X159095057Y-103333106D01*
X158634722Y-103792637D01*
X158385284Y-104393352D01*
X158384716Y-105043795D01*
X155154718Y-105043795D01*
X155155284Y-104396205D01*
X154906894Y-103795057D01*
X154447363Y-103334722D01*
X153846648Y-103085284D01*
X153196205Y-103084716D01*
X152595057Y-103333106D01*
X152134722Y-103792637D01*
X151885284Y-104393352D01*
X151884716Y-105043795D01*
X141147440Y-105043795D01*
X141147440Y-104610000D01*
X141103162Y-104374683D01*
X140964090Y-104158559D01*
X140751890Y-104013569D01*
X140513799Y-103965354D01*
X140528139Y-103917745D01*
X139700000Y-103089605D01*
X138871861Y-103917745D01*
X138886145Y-103965167D01*
X138664683Y-104006838D01*
X138448559Y-104145910D01*
X138303569Y-104358110D01*
X138252560Y-104610000D01*
X135305000Y-104610000D01*
X135305000Y-102693223D01*
X138253035Y-102693223D01*
X138280222Y-103263454D01*
X138446136Y-103664005D01*
X138692255Y-103738139D01*
X139520395Y-102910000D01*
X139879605Y-102910000D01*
X140707745Y-103738139D01*
X140953864Y-103664005D01*
X141146965Y-103126777D01*
X141119778Y-102556546D01*
X140953864Y-102155995D01*
X140707745Y-102081861D01*
X139879605Y-102910000D01*
X139520395Y-102910000D01*
X138692255Y-102081861D01*
X138446136Y-102155995D01*
X138253035Y-102693223D01*
X135305000Y-102693223D01*
X135305000Y-101902255D01*
X138871861Y-101902255D01*
X139700000Y-102730395D01*
X140528139Y-101902255D01*
X140454005Y-101656136D01*
X140219616Y-101571887D01*
X164935000Y-101571887D01*
X164935000Y-101628113D01*
X165044233Y-102177264D01*
X165355302Y-102642811D01*
X165820849Y-102953880D01*
X166370000Y-103063113D01*
X166919151Y-102953880D01*
X167384698Y-102642811D01*
X167695767Y-102177264D01*
X167805000Y-101628113D01*
X167805000Y-101571887D01*
X167695767Y-101022736D01*
X167384698Y-100557189D01*
X167002613Y-100301887D01*
X168745000Y-100301887D01*
X168745000Y-100358113D01*
X168854233Y-100907264D01*
X169165302Y-101372811D01*
X169630849Y-101683880D01*
X170180000Y-101793113D01*
X170729151Y-101683880D01*
X171194698Y-101372811D01*
X171505767Y-100907264D01*
X171615000Y-100358113D01*
X171615000Y-100301887D01*
X171505767Y-99752736D01*
X171194698Y-99287189D01*
X170812613Y-99031887D01*
X172555000Y-99031887D01*
X172555000Y-99088113D01*
X172664233Y-99637264D01*
X172975302Y-100102811D01*
X173440849Y-100413880D01*
X173990000Y-100523113D01*
X174539151Y-100413880D01*
X175004698Y-100102811D01*
X175315767Y-99637264D01*
X175425000Y-99088113D01*
X175425000Y-99031887D01*
X175315767Y-98482736D01*
X175004698Y-98017189D01*
X174539151Y-97706120D01*
X173990000Y-97596887D01*
X173440849Y-97706120D01*
X172975302Y-98017189D01*
X172664233Y-98482736D01*
X172555000Y-99031887D01*
X170812613Y-99031887D01*
X170729151Y-98976120D01*
X170180000Y-98866887D01*
X169630849Y-98976120D01*
X169165302Y-99287189D01*
X168854233Y-99752736D01*
X168745000Y-100301887D01*
X167002613Y-100301887D01*
X166919151Y-100246120D01*
X166370000Y-100136887D01*
X165820849Y-100246120D01*
X165355302Y-100557189D01*
X165044233Y-101022736D01*
X164935000Y-101571887D01*
X140219616Y-101571887D01*
X139916777Y-101463035D01*
X139346546Y-101490222D01*
X138945995Y-101656136D01*
X138871861Y-101902255D01*
X135305000Y-101902255D01*
X135305000Y-94508172D01*
X135762538Y-94508172D01*
X136167709Y-95488761D01*
X136917293Y-96239655D01*
X137897173Y-96646536D01*
X138958172Y-96647462D01*
X139938761Y-96242291D01*
X140646536Y-95535750D01*
X144515000Y-95535750D01*
X144515000Y-96276310D01*
X144611673Y-96509699D01*
X144790302Y-96688327D01*
X145023691Y-96785000D01*
X145764250Y-96785000D01*
X145923000Y-96626250D01*
X145923000Y-95377000D01*
X144673750Y-95377000D01*
X144515000Y-95535750D01*
X140646536Y-95535750D01*
X140689655Y-95492707D01*
X141096536Y-94512827D01*
X141096788Y-94223690D01*
X144515000Y-94223690D01*
X144515000Y-94964250D01*
X144673750Y-95123000D01*
X145923000Y-95123000D01*
X145923000Y-93873750D01*
X146177000Y-93873750D01*
X146177000Y-95123000D01*
X146197000Y-95123000D01*
X146197000Y-95377000D01*
X146177000Y-95377000D01*
X146177000Y-96626250D01*
X146335750Y-96785000D01*
X147076309Y-96785000D01*
X147309698Y-96688327D01*
X147488327Y-96509699D01*
X147544119Y-96375006D01*
X147719357Y-96550551D01*
X148283330Y-96784733D01*
X148893991Y-96785265D01*
X149458371Y-96552068D01*
X149890551Y-96120643D01*
X150124733Y-95556670D01*
X150124751Y-95535750D01*
X153405000Y-95535750D01*
X153405000Y-96276310D01*
X153501673Y-96509699D01*
X153680302Y-96688327D01*
X153913691Y-96785000D01*
X154654250Y-96785000D01*
X154813000Y-96626250D01*
X154813000Y-95377000D01*
X153563750Y-95377000D01*
X153405000Y-95535750D01*
X150124751Y-95535750D01*
X150125265Y-94946009D01*
X149892068Y-94381629D01*
X149734405Y-94223690D01*
X153405000Y-94223690D01*
X153405000Y-94964250D01*
X153563750Y-95123000D01*
X154813000Y-95123000D01*
X154813000Y-93873750D01*
X155067000Y-93873750D01*
X155067000Y-95123000D01*
X155087000Y-95123000D01*
X155087000Y-95377000D01*
X155067000Y-95377000D01*
X155067000Y-96626250D01*
X155225750Y-96785000D01*
X155966309Y-96785000D01*
X156199698Y-96688327D01*
X156378327Y-96509699D01*
X156434119Y-96375006D01*
X156609357Y-96550551D01*
X157173330Y-96784733D01*
X157783991Y-96785265D01*
X158348371Y-96552068D01*
X158780551Y-96120643D01*
X159014733Y-95556670D01*
X159014751Y-95535750D01*
X162295000Y-95535750D01*
X162295000Y-96276310D01*
X162391673Y-96509699D01*
X162570302Y-96688327D01*
X162803691Y-96785000D01*
X163544250Y-96785000D01*
X163703000Y-96626250D01*
X163703000Y-95377000D01*
X162453750Y-95377000D01*
X162295000Y-95535750D01*
X159014751Y-95535750D01*
X159015265Y-94946009D01*
X158782068Y-94381629D01*
X158624405Y-94223690D01*
X162295000Y-94223690D01*
X162295000Y-94964250D01*
X162453750Y-95123000D01*
X163703000Y-95123000D01*
X163703000Y-93873750D01*
X163957000Y-93873750D01*
X163957000Y-95123000D01*
X163977000Y-95123000D01*
X163977000Y-95377000D01*
X163957000Y-95377000D01*
X163957000Y-96626250D01*
X164115750Y-96785000D01*
X164856309Y-96785000D01*
X165089698Y-96688327D01*
X165268327Y-96509699D01*
X165324119Y-96375006D01*
X165499357Y-96550551D01*
X166063330Y-96784733D01*
X166673991Y-96785265D01*
X167238371Y-96552068D01*
X167670551Y-96120643D01*
X167904733Y-95556670D01*
X167905265Y-94946009D01*
X167724355Y-94508172D01*
X171322538Y-94508172D01*
X171727709Y-95488761D01*
X172477293Y-96239655D01*
X173457173Y-96646536D01*
X174518172Y-96647462D01*
X175498761Y-96242291D01*
X176249655Y-95492707D01*
X176656536Y-94512827D01*
X176657462Y-93451828D01*
X176252291Y-92471239D01*
X175502707Y-91720345D01*
X174522827Y-91313464D01*
X173461828Y-91312538D01*
X172481239Y-91717709D01*
X171730345Y-92467293D01*
X171323464Y-93447173D01*
X171322538Y-94508172D01*
X167724355Y-94508172D01*
X167672068Y-94381629D01*
X167240643Y-93949449D01*
X166676670Y-93715267D01*
X166066009Y-93714735D01*
X165501629Y-93947932D01*
X165324159Y-94125092D01*
X165268327Y-93990301D01*
X165089698Y-93811673D01*
X164856309Y-93715000D01*
X164115750Y-93715000D01*
X163957000Y-93873750D01*
X163703000Y-93873750D01*
X163544250Y-93715000D01*
X162803691Y-93715000D01*
X162570302Y-93811673D01*
X162391673Y-93990301D01*
X162295000Y-94223690D01*
X158624405Y-94223690D01*
X158350643Y-93949449D01*
X157786670Y-93715267D01*
X157176009Y-93714735D01*
X156611629Y-93947932D01*
X156434159Y-94125092D01*
X156378327Y-93990301D01*
X156199698Y-93811673D01*
X155966309Y-93715000D01*
X155225750Y-93715000D01*
X155067000Y-93873750D01*
X154813000Y-93873750D01*
X154654250Y-93715000D01*
X153913691Y-93715000D01*
X153680302Y-93811673D01*
X153501673Y-93990301D01*
X153405000Y-94223690D01*
X149734405Y-94223690D01*
X149460643Y-93949449D01*
X148896670Y-93715267D01*
X148286009Y-93714735D01*
X147721629Y-93947932D01*
X147544159Y-94125092D01*
X147488327Y-93990301D01*
X147309698Y-93811673D01*
X147076309Y-93715000D01*
X146335750Y-93715000D01*
X146177000Y-93873750D01*
X145923000Y-93873750D01*
X145764250Y-93715000D01*
X145023691Y-93715000D01*
X144790302Y-93811673D01*
X144611673Y-93990301D01*
X144515000Y-94223690D01*
X141096788Y-94223690D01*
X141097462Y-93451828D01*
X140692291Y-92471239D01*
X139942707Y-91720345D01*
X138962827Y-91313464D01*
X137901828Y-91312538D01*
X136921239Y-91717709D01*
X136170345Y-92467293D01*
X135763464Y-93447173D01*
X135762538Y-94508172D01*
X135305000Y-94508172D01*
X135305000Y-94047467D01*
X135555275Y-92789251D01*
X136229781Y-91779781D01*
X137239249Y-91105275D01*
X138497466Y-90855000D01*
X173922533Y-90855000D01*
X175180749Y-91105275D01*
M02*
