M48
;DRILL file {KiCad 4.0.7-e2-6376~61~ubuntu18.04.1} date Mon Jul  2 18:51:09 2018
;FORMAT={-:-/ absolute / inch / decimal}
FMAT,2
INCH,TZ
T1C0.030
T2C0.031
T3C0.035
T4C0.039
T5C0.043
T6C0.059
%
G90
G05
M72
T1
X5.5Y-4.35
X5.6Y-4.35
X5.7Y-4.35
T2
X5.55Y-4.6
X5.55Y-4.9
X5.65Y-4.6
X5.65Y-4.9
X5.75Y-4.6
X5.75Y-4.9
X5.85Y-4.6
X5.85Y-4.9
X6.2Y-4.5
X6.5Y-4.5
X6.55Y-4.
X6.55Y-4.3
X6.7Y-3.95
X6.7Y-4.25
X6.85Y-3.9
X6.85Y-4.2
T3
X5.75Y-3.75
X5.85Y-3.75
X6.1Y-3.75
X6.2Y-3.75
X6.45Y-3.75
X6.55Y-3.75
T4
X5.75Y-3.95
X5.75Y-4.05
X5.75Y-4.15
X6.15Y-4.8
X6.25Y-4.8
X6.35Y-4.8
X6.45Y-4.8
X6.55Y-4.8
X6.65Y-4.8
T5
X6.0441Y-4.1228
X6.0441Y-4.3
X6.3Y-4.1228
X6.3Y-4.3
T6
X5.85Y-4.4
X6.6567Y-4.4
T0
M30
