G04 #@! TF.FileFunction,Legend,Bot*
%FSLAX46Y46*%
G04 Gerber Fmt 4.6, Leading zero omitted, Abs format (unit mm)*
G04 Created by KiCad (PCBNEW 4.0.7-e2-6376~61~ubuntu18.04.1) date Mon Jul  2 18:50:52 2018*
%MOMM*%
%LPD*%
G01*
G04 APERTURE LIST*
%ADD10C,0.100000*%
%ADD11C,0.300000*%
%ADD12C,0.120000*%
%ADD13C,0.010000*%
%ADD14C,0.150000*%
G04 APERTURE END LIST*
D10*
D11*
X168475714Y-98397143D02*
X168618571Y-98468571D01*
X168904285Y-98468571D01*
X169047143Y-98397143D01*
X169118571Y-98325714D01*
X169190000Y-98182857D01*
X169190000Y-97754286D01*
X169118571Y-97611429D01*
X169047143Y-97540000D01*
X168904285Y-97468571D01*
X168618571Y-97468571D01*
X168475714Y-97540000D01*
X167190000Y-98397143D02*
X167332857Y-98468571D01*
X167618571Y-98468571D01*
X167761429Y-98397143D01*
X167832857Y-98325714D01*
X167904286Y-98182857D01*
X167904286Y-97754286D01*
X167832857Y-97611429D01*
X167761429Y-97540000D01*
X167618571Y-97468571D01*
X167332857Y-97468571D01*
X167190000Y-97540000D01*
X166547143Y-97897143D02*
X165404286Y-97897143D01*
X164690000Y-98468571D02*
X164690000Y-96968571D01*
X164690000Y-97540000D02*
X164547143Y-97468571D01*
X164261429Y-97468571D01*
X164118572Y-97540000D01*
X164047143Y-97611429D01*
X163975714Y-97754286D01*
X163975714Y-98182857D01*
X164047143Y-98325714D01*
X164118572Y-98397143D01*
X164261429Y-98468571D01*
X164547143Y-98468571D01*
X164690000Y-98397143D01*
X163475714Y-97468571D02*
X163118571Y-98468571D01*
X162761429Y-97468571D02*
X163118571Y-98468571D01*
X163261429Y-98825714D01*
X163332857Y-98897143D01*
X163475714Y-98968571D01*
X162190000Y-97897143D02*
X161047143Y-97897143D01*
X160404286Y-98397143D02*
X160261429Y-98468571D01*
X159975714Y-98468571D01*
X159832857Y-98397143D01*
X159761429Y-98254286D01*
X159761429Y-98182857D01*
X159832857Y-98040000D01*
X159975714Y-97968571D01*
X160190000Y-97968571D01*
X160332857Y-97897143D01*
X160404286Y-97754286D01*
X160404286Y-97682857D01*
X160332857Y-97540000D01*
X160190000Y-97468571D01*
X159975714Y-97468571D01*
X159832857Y-97540000D01*
X158475714Y-98468571D02*
X158475714Y-97682857D01*
X158547143Y-97540000D01*
X158690000Y-97468571D01*
X158975714Y-97468571D01*
X159118571Y-97540000D01*
X158475714Y-98397143D02*
X158618571Y-98468571D01*
X158975714Y-98468571D01*
X159118571Y-98397143D01*
X159190000Y-98254286D01*
X159190000Y-98111429D01*
X159118571Y-97968571D01*
X158975714Y-97897143D01*
X158618571Y-97897143D01*
X158475714Y-97825714D01*
X157761428Y-98325714D02*
X157690000Y-98397143D01*
X157761428Y-98468571D01*
X157832857Y-98397143D01*
X157761428Y-98325714D01*
X157761428Y-98468571D01*
X157761428Y-97540000D02*
X157690000Y-97611429D01*
X157761428Y-97682857D01*
X157832857Y-97611429D01*
X157761428Y-97540000D01*
X157761428Y-97682857D01*
X156118571Y-97468571D02*
X155547142Y-97468571D01*
X155904285Y-96968571D02*
X155904285Y-98254286D01*
X155832857Y-98397143D01*
X155689999Y-98468571D01*
X155547142Y-98468571D01*
X154404285Y-97468571D02*
X154404285Y-98468571D01*
X155047142Y-97468571D02*
X155047142Y-98254286D01*
X154975714Y-98397143D01*
X154832856Y-98468571D01*
X154618571Y-98468571D01*
X154475714Y-98397143D01*
X154404285Y-98325714D01*
X153047142Y-98397143D02*
X153189999Y-98468571D01*
X153475713Y-98468571D01*
X153618571Y-98397143D01*
X153689999Y-98325714D01*
X153761428Y-98182857D01*
X153761428Y-97754286D01*
X153689999Y-97611429D01*
X153618571Y-97540000D01*
X153475713Y-97468571D01*
X153189999Y-97468571D01*
X153047142Y-97540000D01*
X152404285Y-98468571D02*
X152404285Y-96968571D01*
X151761428Y-98468571D02*
X151761428Y-97682857D01*
X151832857Y-97540000D01*
X151975714Y-97468571D01*
X152189999Y-97468571D01*
X152332857Y-97540000D01*
X152404285Y-97611429D01*
X150832856Y-98468571D02*
X150975714Y-98397143D01*
X151047142Y-98325714D01*
X151118571Y-98182857D01*
X151118571Y-97754286D01*
X151047142Y-97611429D01*
X150975714Y-97540000D01*
X150832856Y-97468571D01*
X150618571Y-97468571D01*
X150475714Y-97540000D01*
X150404285Y-97611429D01*
X150332856Y-97754286D01*
X150332856Y-98182857D01*
X150404285Y-98325714D01*
X150475714Y-98397143D01*
X150618571Y-98468571D01*
X150832856Y-98468571D01*
X148547142Y-98468571D02*
X148547142Y-97468571D01*
X148547142Y-97611429D02*
X148475714Y-97540000D01*
X148332856Y-97468571D01*
X148118571Y-97468571D01*
X147975714Y-97540000D01*
X147904285Y-97682857D01*
X147904285Y-98468571D01*
X147904285Y-97682857D02*
X147832856Y-97540000D01*
X147689999Y-97468571D01*
X147475714Y-97468571D01*
X147332856Y-97540000D01*
X147261428Y-97682857D01*
X147261428Y-98468571D01*
X145975714Y-98397143D02*
X146118571Y-98468571D01*
X146404285Y-98468571D01*
X146547142Y-98397143D01*
X146618571Y-98254286D01*
X146618571Y-97682857D01*
X146547142Y-97540000D01*
X146404285Y-97468571D01*
X146118571Y-97468571D01*
X145975714Y-97540000D01*
X145904285Y-97682857D01*
X145904285Y-97825714D01*
X146618571Y-97968571D01*
X145261428Y-97468571D02*
X145261428Y-98468571D01*
X145261428Y-97611429D02*
X145190000Y-97540000D01*
X145047142Y-97468571D01*
X144832857Y-97468571D01*
X144690000Y-97540000D01*
X144618571Y-97682857D01*
X144618571Y-98468571D01*
X143261428Y-98468571D02*
X143261428Y-96968571D01*
X143261428Y-98397143D02*
X143404285Y-98468571D01*
X143689999Y-98468571D01*
X143832857Y-98397143D01*
X143904285Y-98325714D01*
X143975714Y-98182857D01*
X143975714Y-97754286D01*
X143904285Y-97611429D01*
X143832857Y-97540000D01*
X143689999Y-97468571D01*
X143404285Y-97468571D01*
X143261428Y-97540000D01*
X141975714Y-98397143D02*
X142118571Y-98468571D01*
X142404285Y-98468571D01*
X142547142Y-98397143D01*
X142618571Y-98254286D01*
X142618571Y-97682857D01*
X142547142Y-97540000D01*
X142404285Y-97468571D01*
X142118571Y-97468571D01*
X141975714Y-97540000D01*
X141904285Y-97682857D01*
X141904285Y-97825714D01*
X142618571Y-97968571D01*
X141404285Y-97468571D02*
X140618571Y-97468571D01*
X141404285Y-98468571D01*
X140618571Y-98468571D01*
D12*
X175285671Y-111805281D02*
G75*
G03X152840000Y-108260000I-11495671J45281D01*
G01*
X152841754Y-108233616D02*
G75*
G02X152090000Y-108760000I-751754J273616D01*
G01*
X175285671Y-111714719D02*
G75*
G02X152840000Y-115260000I-11495671J-45281D01*
G01*
X152841754Y-115286384D02*
G75*
G03X152090000Y-114760000I-751754J-273616D01*
G01*
X146390000Y-114760000D02*
X152090000Y-114760000D01*
X146390000Y-108760000D02*
X146390000Y-114760000D01*
X146390000Y-108760000D02*
X152090000Y-108760000D01*
D13*
G36*
X142100256Y-104789918D02*
X142044799Y-104817568D01*
X141995852Y-104868480D01*
X141982371Y-104887338D01*
X141967686Y-104912015D01*
X141958158Y-104938816D01*
X141952707Y-104974587D01*
X141950253Y-105026169D01*
X141949714Y-105094267D01*
X141952148Y-105187588D01*
X141960606Y-105257657D01*
X141976826Y-105309931D01*
X142002546Y-105349869D01*
X142039503Y-105382929D01*
X142042218Y-105384886D01*
X142078640Y-105404908D01*
X142122498Y-105414815D01*
X142178276Y-105417257D01*
X142268952Y-105417257D01*
X142268990Y-105505283D01*
X142269834Y-105554308D01*
X142274976Y-105583065D01*
X142288413Y-105600311D01*
X142314142Y-105614808D01*
X142320321Y-105617769D01*
X142349236Y-105631648D01*
X142371624Y-105640414D01*
X142388271Y-105641171D01*
X142399964Y-105631023D01*
X142407490Y-105607073D01*
X142411634Y-105566426D01*
X142413185Y-105506186D01*
X142412929Y-105423455D01*
X142411651Y-105315339D01*
X142411252Y-105283000D01*
X142409815Y-105171524D01*
X142408528Y-105098603D01*
X142269029Y-105098603D01*
X142268245Y-105160499D01*
X142264760Y-105200997D01*
X142256876Y-105227708D01*
X142242895Y-105248244D01*
X142233403Y-105258260D01*
X142194596Y-105287567D01*
X142160237Y-105289952D01*
X142124784Y-105265750D01*
X142123886Y-105264857D01*
X142109461Y-105246153D01*
X142100687Y-105220732D01*
X142096261Y-105181584D01*
X142094882Y-105121697D01*
X142094857Y-105108430D01*
X142098188Y-105025901D01*
X142109031Y-104968691D01*
X142128660Y-104933766D01*
X142158350Y-104918094D01*
X142175509Y-104916514D01*
X142216234Y-104923926D01*
X142244168Y-104948330D01*
X142260983Y-104992980D01*
X142268350Y-105061130D01*
X142269029Y-105098603D01*
X142408528Y-105098603D01*
X142408292Y-105085245D01*
X142406323Y-105020333D01*
X142403550Y-104972958D01*
X142399612Y-104939290D01*
X142394151Y-104915498D01*
X142386808Y-104897753D01*
X142377223Y-104882224D01*
X142373113Y-104876381D01*
X142318595Y-104821185D01*
X142249664Y-104789890D01*
X142169928Y-104781165D01*
X142100256Y-104789918D01*
X142100256Y-104789918D01*
G37*
X142100256Y-104789918D02*
X142044799Y-104817568D01*
X141995852Y-104868480D01*
X141982371Y-104887338D01*
X141967686Y-104912015D01*
X141958158Y-104938816D01*
X141952707Y-104974587D01*
X141950253Y-105026169D01*
X141949714Y-105094267D01*
X141952148Y-105187588D01*
X141960606Y-105257657D01*
X141976826Y-105309931D01*
X142002546Y-105349869D01*
X142039503Y-105382929D01*
X142042218Y-105384886D01*
X142078640Y-105404908D01*
X142122498Y-105414815D01*
X142178276Y-105417257D01*
X142268952Y-105417257D01*
X142268990Y-105505283D01*
X142269834Y-105554308D01*
X142274976Y-105583065D01*
X142288413Y-105600311D01*
X142314142Y-105614808D01*
X142320321Y-105617769D01*
X142349236Y-105631648D01*
X142371624Y-105640414D01*
X142388271Y-105641171D01*
X142399964Y-105631023D01*
X142407490Y-105607073D01*
X142411634Y-105566426D01*
X142413185Y-105506186D01*
X142412929Y-105423455D01*
X142411651Y-105315339D01*
X142411252Y-105283000D01*
X142409815Y-105171524D01*
X142408528Y-105098603D01*
X142269029Y-105098603D01*
X142268245Y-105160499D01*
X142264760Y-105200997D01*
X142256876Y-105227708D01*
X142242895Y-105248244D01*
X142233403Y-105258260D01*
X142194596Y-105287567D01*
X142160237Y-105289952D01*
X142124784Y-105265750D01*
X142123886Y-105264857D01*
X142109461Y-105246153D01*
X142100687Y-105220732D01*
X142096261Y-105181584D01*
X142094882Y-105121697D01*
X142094857Y-105108430D01*
X142098188Y-105025901D01*
X142109031Y-104968691D01*
X142128660Y-104933766D01*
X142158350Y-104918094D01*
X142175509Y-104916514D01*
X142216234Y-104923926D01*
X142244168Y-104948330D01*
X142260983Y-104992980D01*
X142268350Y-105061130D01*
X142269029Y-105098603D01*
X142408528Y-105098603D01*
X142408292Y-105085245D01*
X142406323Y-105020333D01*
X142403550Y-104972958D01*
X142399612Y-104939290D01*
X142394151Y-104915498D01*
X142386808Y-104897753D01*
X142377223Y-104882224D01*
X142373113Y-104876381D01*
X142318595Y-104821185D01*
X142249664Y-104789890D01*
X142169928Y-104781165D01*
X142100256Y-104789918D01*
G36*
X140983907Y-104797780D02*
X140937328Y-104824723D01*
X140904943Y-104851466D01*
X140881258Y-104879484D01*
X140864941Y-104913748D01*
X140854661Y-104959227D01*
X140849086Y-105020892D01*
X140846884Y-105103711D01*
X140846629Y-105163246D01*
X140846629Y-105382391D01*
X140908314Y-105410044D01*
X140970000Y-105437697D01*
X140977257Y-105197670D01*
X140980256Y-105108028D01*
X140983402Y-105042962D01*
X140987299Y-104998026D01*
X140992553Y-104968770D01*
X140999769Y-104950748D01*
X141009550Y-104939511D01*
X141012688Y-104937079D01*
X141060239Y-104918083D01*
X141108303Y-104925600D01*
X141136914Y-104945543D01*
X141148553Y-104959675D01*
X141156609Y-104978220D01*
X141161729Y-105006334D01*
X141164559Y-105049173D01*
X141165744Y-105111895D01*
X141165943Y-105177261D01*
X141165982Y-105259268D01*
X141167386Y-105317316D01*
X141172086Y-105356465D01*
X141182013Y-105381780D01*
X141199097Y-105398323D01*
X141225268Y-105411156D01*
X141260225Y-105424491D01*
X141298404Y-105439007D01*
X141293859Y-105181389D01*
X141292029Y-105088519D01*
X141289888Y-105019889D01*
X141286819Y-104970711D01*
X141282206Y-104936198D01*
X141275432Y-104911562D01*
X141265881Y-104892016D01*
X141254366Y-104874770D01*
X141198810Y-104819680D01*
X141131020Y-104787822D01*
X141057287Y-104780191D01*
X140983907Y-104797780D01*
X140983907Y-104797780D01*
G37*
X140983907Y-104797780D02*
X140937328Y-104824723D01*
X140904943Y-104851466D01*
X140881258Y-104879484D01*
X140864941Y-104913748D01*
X140854661Y-104959227D01*
X140849086Y-105020892D01*
X140846884Y-105103711D01*
X140846629Y-105163246D01*
X140846629Y-105382391D01*
X140908314Y-105410044D01*
X140970000Y-105437697D01*
X140977257Y-105197670D01*
X140980256Y-105108028D01*
X140983402Y-105042962D01*
X140987299Y-104998026D01*
X140992553Y-104968770D01*
X140999769Y-104950748D01*
X141009550Y-104939511D01*
X141012688Y-104937079D01*
X141060239Y-104918083D01*
X141108303Y-104925600D01*
X141136914Y-104945543D01*
X141148553Y-104959675D01*
X141156609Y-104978220D01*
X141161729Y-105006334D01*
X141164559Y-105049173D01*
X141165744Y-105111895D01*
X141165943Y-105177261D01*
X141165982Y-105259268D01*
X141167386Y-105317316D01*
X141172086Y-105356465D01*
X141182013Y-105381780D01*
X141199097Y-105398323D01*
X141225268Y-105411156D01*
X141260225Y-105424491D01*
X141298404Y-105439007D01*
X141293859Y-105181389D01*
X141292029Y-105088519D01*
X141289888Y-105019889D01*
X141286819Y-104970711D01*
X141282206Y-104936198D01*
X141275432Y-104911562D01*
X141265881Y-104892016D01*
X141254366Y-104874770D01*
X141198810Y-104819680D01*
X141131020Y-104787822D01*
X141057287Y-104780191D01*
X140983907Y-104797780D01*
G36*
X142658885Y-104791962D02*
X142590855Y-104827733D01*
X142540649Y-104885301D01*
X142522815Y-104922312D01*
X142508937Y-104977882D01*
X142501833Y-105048096D01*
X142501160Y-105124727D01*
X142506573Y-105199552D01*
X142517730Y-105264342D01*
X142534286Y-105310873D01*
X142539374Y-105318887D01*
X142599645Y-105378707D01*
X142671231Y-105414535D01*
X142748908Y-105425020D01*
X142827452Y-105408810D01*
X142849311Y-105399092D01*
X142891878Y-105369143D01*
X142929237Y-105329433D01*
X142932768Y-105324397D01*
X142947119Y-105300124D01*
X142956606Y-105274178D01*
X142962210Y-105240022D01*
X142964914Y-105191119D01*
X142965701Y-105120935D01*
X142965714Y-105105200D01*
X142965678Y-105100192D01*
X142820571Y-105100192D01*
X142819727Y-105166430D01*
X142816404Y-105210386D01*
X142809417Y-105238779D01*
X142797584Y-105258325D01*
X142791543Y-105264857D01*
X142756814Y-105289680D01*
X142723097Y-105288548D01*
X142689005Y-105267016D01*
X142668671Y-105244029D01*
X142656629Y-105210478D01*
X142649866Y-105157569D01*
X142649402Y-105151399D01*
X142648248Y-105055513D01*
X142660312Y-104984299D01*
X142685430Y-104938194D01*
X142723440Y-104917635D01*
X142737008Y-104916514D01*
X142772636Y-104922152D01*
X142797006Y-104941686D01*
X142811907Y-104979042D01*
X142819125Y-105038150D01*
X142820571Y-105100192D01*
X142965678Y-105100192D01*
X142965174Y-105030413D01*
X142962904Y-104978159D01*
X142957932Y-104941949D01*
X142949287Y-104915299D01*
X142935995Y-104891722D01*
X142933057Y-104887338D01*
X142883687Y-104828249D01*
X142829891Y-104793947D01*
X142764398Y-104780331D01*
X142742158Y-104779665D01*
X142658885Y-104791962D01*
X142658885Y-104791962D01*
G37*
X142658885Y-104791962D02*
X142590855Y-104827733D01*
X142540649Y-104885301D01*
X142522815Y-104922312D01*
X142508937Y-104977882D01*
X142501833Y-105048096D01*
X142501160Y-105124727D01*
X142506573Y-105199552D01*
X142517730Y-105264342D01*
X142534286Y-105310873D01*
X142539374Y-105318887D01*
X142599645Y-105378707D01*
X142671231Y-105414535D01*
X142748908Y-105425020D01*
X142827452Y-105408810D01*
X142849311Y-105399092D01*
X142891878Y-105369143D01*
X142929237Y-105329433D01*
X142932768Y-105324397D01*
X142947119Y-105300124D01*
X142956606Y-105274178D01*
X142962210Y-105240022D01*
X142964914Y-105191119D01*
X142965701Y-105120935D01*
X142965714Y-105105200D01*
X142965678Y-105100192D01*
X142820571Y-105100192D01*
X142819727Y-105166430D01*
X142816404Y-105210386D01*
X142809417Y-105238779D01*
X142797584Y-105258325D01*
X142791543Y-105264857D01*
X142756814Y-105289680D01*
X142723097Y-105288548D01*
X142689005Y-105267016D01*
X142668671Y-105244029D01*
X142656629Y-105210478D01*
X142649866Y-105157569D01*
X142649402Y-105151399D01*
X142648248Y-105055513D01*
X142660312Y-104984299D01*
X142685430Y-104938194D01*
X142723440Y-104917635D01*
X142737008Y-104916514D01*
X142772636Y-104922152D01*
X142797006Y-104941686D01*
X142811907Y-104979042D01*
X142819125Y-105038150D01*
X142820571Y-105100192D01*
X142965678Y-105100192D01*
X142965174Y-105030413D01*
X142962904Y-104978159D01*
X142957932Y-104941949D01*
X142949287Y-104915299D01*
X142935995Y-104891722D01*
X142933057Y-104887338D01*
X142883687Y-104828249D01*
X142829891Y-104793947D01*
X142764398Y-104780331D01*
X142742158Y-104779665D01*
X142658885Y-104791962D01*
G36*
X141531697Y-104801239D02*
X141474473Y-104839735D01*
X141430251Y-104895335D01*
X141403833Y-104966086D01*
X141398490Y-105018162D01*
X141399097Y-105039893D01*
X141404178Y-105056531D01*
X141418145Y-105071437D01*
X141445411Y-105087973D01*
X141490388Y-105109498D01*
X141557489Y-105139374D01*
X141557829Y-105139524D01*
X141619593Y-105167813D01*
X141670241Y-105192933D01*
X141704596Y-105212179D01*
X141717482Y-105222848D01*
X141717486Y-105222934D01*
X141706128Y-105246166D01*
X141679569Y-105271774D01*
X141649077Y-105290221D01*
X141633630Y-105293886D01*
X141591485Y-105281212D01*
X141555192Y-105249471D01*
X141537483Y-105214572D01*
X141520448Y-105188845D01*
X141487078Y-105159546D01*
X141447851Y-105134235D01*
X141413244Y-105120471D01*
X141406007Y-105119714D01*
X141397861Y-105132160D01*
X141397370Y-105163972D01*
X141403357Y-105206866D01*
X141414643Y-105252558D01*
X141430050Y-105292761D01*
X141430829Y-105294322D01*
X141477196Y-105359062D01*
X141537289Y-105403097D01*
X141605535Y-105424711D01*
X141676362Y-105422185D01*
X141744196Y-105393804D01*
X141747212Y-105391808D01*
X141800573Y-105343448D01*
X141835660Y-105280352D01*
X141855078Y-105197387D01*
X141857684Y-105174078D01*
X141862299Y-105064055D01*
X141856767Y-105012748D01*
X141717486Y-105012748D01*
X141715676Y-105044753D01*
X141705778Y-105054093D01*
X141681102Y-105047105D01*
X141642205Y-105030587D01*
X141598725Y-105009881D01*
X141597644Y-105009333D01*
X141560791Y-104989949D01*
X141546000Y-104977013D01*
X141549647Y-104963451D01*
X141565005Y-104945632D01*
X141604077Y-104919845D01*
X141646154Y-104917950D01*
X141683897Y-104936717D01*
X141709966Y-104972915D01*
X141717486Y-105012748D01*
X141856767Y-105012748D01*
X141852806Y-104976027D01*
X141828450Y-104906212D01*
X141794544Y-104857302D01*
X141733347Y-104807878D01*
X141665937Y-104783359D01*
X141597120Y-104781797D01*
X141531697Y-104801239D01*
X141531697Y-104801239D01*
G37*
X141531697Y-104801239D02*
X141474473Y-104839735D01*
X141430251Y-104895335D01*
X141403833Y-104966086D01*
X141398490Y-105018162D01*
X141399097Y-105039893D01*
X141404178Y-105056531D01*
X141418145Y-105071437D01*
X141445411Y-105087973D01*
X141490388Y-105109498D01*
X141557489Y-105139374D01*
X141557829Y-105139524D01*
X141619593Y-105167813D01*
X141670241Y-105192933D01*
X141704596Y-105212179D01*
X141717482Y-105222848D01*
X141717486Y-105222934D01*
X141706128Y-105246166D01*
X141679569Y-105271774D01*
X141649077Y-105290221D01*
X141633630Y-105293886D01*
X141591485Y-105281212D01*
X141555192Y-105249471D01*
X141537483Y-105214572D01*
X141520448Y-105188845D01*
X141487078Y-105159546D01*
X141447851Y-105134235D01*
X141413244Y-105120471D01*
X141406007Y-105119714D01*
X141397861Y-105132160D01*
X141397370Y-105163972D01*
X141403357Y-105206866D01*
X141414643Y-105252558D01*
X141430050Y-105292761D01*
X141430829Y-105294322D01*
X141477196Y-105359062D01*
X141537289Y-105403097D01*
X141605535Y-105424711D01*
X141676362Y-105422185D01*
X141744196Y-105393804D01*
X141747212Y-105391808D01*
X141800573Y-105343448D01*
X141835660Y-105280352D01*
X141855078Y-105197387D01*
X141857684Y-105174078D01*
X141862299Y-105064055D01*
X141856767Y-105012748D01*
X141717486Y-105012748D01*
X141715676Y-105044753D01*
X141705778Y-105054093D01*
X141681102Y-105047105D01*
X141642205Y-105030587D01*
X141598725Y-105009881D01*
X141597644Y-105009333D01*
X141560791Y-104989949D01*
X141546000Y-104977013D01*
X141549647Y-104963451D01*
X141565005Y-104945632D01*
X141604077Y-104919845D01*
X141646154Y-104917950D01*
X141683897Y-104936717D01*
X141709966Y-104972915D01*
X141717486Y-105012748D01*
X141856767Y-105012748D01*
X141852806Y-104976027D01*
X141828450Y-104906212D01*
X141794544Y-104857302D01*
X141733347Y-104807878D01*
X141665937Y-104783359D01*
X141597120Y-104781797D01*
X141531697Y-104801239D01*
G36*
X140324114Y-104721289D02*
X140319861Y-104780613D01*
X140314975Y-104815572D01*
X140308205Y-104830820D01*
X140298298Y-104831015D01*
X140295086Y-104829195D01*
X140252356Y-104816015D01*
X140196773Y-104816785D01*
X140140263Y-104830333D01*
X140104918Y-104847861D01*
X140068679Y-104875861D01*
X140042187Y-104907549D01*
X140024001Y-104947813D01*
X140012678Y-105001543D01*
X140006778Y-105073626D01*
X140004857Y-105168951D01*
X140004823Y-105187237D01*
X140004800Y-105392646D01*
X140050509Y-105408580D01*
X140082973Y-105419420D01*
X140100785Y-105424468D01*
X140101309Y-105424514D01*
X140103063Y-105410828D01*
X140104556Y-105373076D01*
X140105674Y-105316224D01*
X140106303Y-105245234D01*
X140106400Y-105202073D01*
X140106602Y-105116973D01*
X140107642Y-105055981D01*
X140110169Y-105014177D01*
X140114836Y-104986642D01*
X140122293Y-104968456D01*
X140133189Y-104954698D01*
X140139993Y-104948073D01*
X140186728Y-104921375D01*
X140237728Y-104919375D01*
X140283999Y-104941955D01*
X140292556Y-104950107D01*
X140305107Y-104965436D01*
X140313812Y-104983618D01*
X140319369Y-105009909D01*
X140322474Y-105049562D01*
X140323824Y-105107832D01*
X140324114Y-105188173D01*
X140324114Y-105392646D01*
X140369823Y-105408580D01*
X140402287Y-105419420D01*
X140420099Y-105424468D01*
X140420623Y-105424514D01*
X140421963Y-105410623D01*
X140423172Y-105371439D01*
X140424199Y-105310700D01*
X140424998Y-105232141D01*
X140425519Y-105139498D01*
X140425714Y-105036509D01*
X140425714Y-104639342D01*
X140378543Y-104619444D01*
X140331371Y-104599547D01*
X140324114Y-104721289D01*
X140324114Y-104721289D01*
G37*
X140324114Y-104721289D02*
X140319861Y-104780613D01*
X140314975Y-104815572D01*
X140308205Y-104830820D01*
X140298298Y-104831015D01*
X140295086Y-104829195D01*
X140252356Y-104816015D01*
X140196773Y-104816785D01*
X140140263Y-104830333D01*
X140104918Y-104847861D01*
X140068679Y-104875861D01*
X140042187Y-104907549D01*
X140024001Y-104947813D01*
X140012678Y-105001543D01*
X140006778Y-105073626D01*
X140004857Y-105168951D01*
X140004823Y-105187237D01*
X140004800Y-105392646D01*
X140050509Y-105408580D01*
X140082973Y-105419420D01*
X140100785Y-105424468D01*
X140101309Y-105424514D01*
X140103063Y-105410828D01*
X140104556Y-105373076D01*
X140105674Y-105316224D01*
X140106303Y-105245234D01*
X140106400Y-105202073D01*
X140106602Y-105116973D01*
X140107642Y-105055981D01*
X140110169Y-105014177D01*
X140114836Y-104986642D01*
X140122293Y-104968456D01*
X140133189Y-104954698D01*
X140139993Y-104948073D01*
X140186728Y-104921375D01*
X140237728Y-104919375D01*
X140283999Y-104941955D01*
X140292556Y-104950107D01*
X140305107Y-104965436D01*
X140313812Y-104983618D01*
X140319369Y-105009909D01*
X140322474Y-105049562D01*
X140323824Y-105107832D01*
X140324114Y-105188173D01*
X140324114Y-105392646D01*
X140369823Y-105408580D01*
X140402287Y-105419420D01*
X140420099Y-105424468D01*
X140420623Y-105424514D01*
X140421963Y-105410623D01*
X140423172Y-105371439D01*
X140424199Y-105310700D01*
X140424998Y-105232141D01*
X140425519Y-105139498D01*
X140425714Y-105036509D01*
X140425714Y-104639342D01*
X140378543Y-104619444D01*
X140331371Y-104599547D01*
X140324114Y-104721289D01*
G36*
X139660256Y-104820968D02*
X139603384Y-104842087D01*
X139602733Y-104842493D01*
X139567560Y-104868380D01*
X139541593Y-104898633D01*
X139523330Y-104938058D01*
X139511268Y-104991462D01*
X139503904Y-105063651D01*
X139499736Y-105159432D01*
X139499371Y-105173078D01*
X139494124Y-105378842D01*
X139538284Y-105401678D01*
X139570237Y-105417110D01*
X139589530Y-105424423D01*
X139590422Y-105424514D01*
X139593761Y-105411022D01*
X139596413Y-105374626D01*
X139598044Y-105321452D01*
X139598400Y-105278393D01*
X139598408Y-105208641D01*
X139601597Y-105164837D01*
X139612712Y-105143944D01*
X139636499Y-105142925D01*
X139677704Y-105158741D01*
X139739914Y-105187815D01*
X139785659Y-105211963D01*
X139809187Y-105232913D01*
X139816104Y-105255747D01*
X139816114Y-105256877D01*
X139804701Y-105296212D01*
X139770908Y-105317462D01*
X139719191Y-105320539D01*
X139681939Y-105320006D01*
X139662297Y-105330735D01*
X139650048Y-105356505D01*
X139642998Y-105389337D01*
X139653158Y-105407966D01*
X139656983Y-105410632D01*
X139692999Y-105421340D01*
X139743434Y-105422856D01*
X139795374Y-105415759D01*
X139832178Y-105402788D01*
X139883062Y-105359585D01*
X139911986Y-105299446D01*
X139917714Y-105252462D01*
X139913343Y-105210082D01*
X139897525Y-105175488D01*
X139866203Y-105144763D01*
X139815322Y-105113990D01*
X139740824Y-105079252D01*
X139736286Y-105077288D01*
X139669179Y-105046287D01*
X139627768Y-105020862D01*
X139610019Y-104998014D01*
X139613893Y-104974745D01*
X139637357Y-104948056D01*
X139644373Y-104941914D01*
X139691370Y-104918100D01*
X139740067Y-104919103D01*
X139782478Y-104942451D01*
X139810616Y-104985675D01*
X139813231Y-104994160D01*
X139838692Y-105035308D01*
X139870999Y-105055128D01*
X139917714Y-105074770D01*
X139917714Y-105023950D01*
X139903504Y-104950082D01*
X139861325Y-104882327D01*
X139839376Y-104859661D01*
X139789483Y-104830569D01*
X139726033Y-104817400D01*
X139660256Y-104820968D01*
X139660256Y-104820968D01*
G37*
X139660256Y-104820968D02*
X139603384Y-104842087D01*
X139602733Y-104842493D01*
X139567560Y-104868380D01*
X139541593Y-104898633D01*
X139523330Y-104938058D01*
X139511268Y-104991462D01*
X139503904Y-105063651D01*
X139499736Y-105159432D01*
X139499371Y-105173078D01*
X139494124Y-105378842D01*
X139538284Y-105401678D01*
X139570237Y-105417110D01*
X139589530Y-105424423D01*
X139590422Y-105424514D01*
X139593761Y-105411022D01*
X139596413Y-105374626D01*
X139598044Y-105321452D01*
X139598400Y-105278393D01*
X139598408Y-105208641D01*
X139601597Y-105164837D01*
X139612712Y-105143944D01*
X139636499Y-105142925D01*
X139677704Y-105158741D01*
X139739914Y-105187815D01*
X139785659Y-105211963D01*
X139809187Y-105232913D01*
X139816104Y-105255747D01*
X139816114Y-105256877D01*
X139804701Y-105296212D01*
X139770908Y-105317462D01*
X139719191Y-105320539D01*
X139681939Y-105320006D01*
X139662297Y-105330735D01*
X139650048Y-105356505D01*
X139642998Y-105389337D01*
X139653158Y-105407966D01*
X139656983Y-105410632D01*
X139692999Y-105421340D01*
X139743434Y-105422856D01*
X139795374Y-105415759D01*
X139832178Y-105402788D01*
X139883062Y-105359585D01*
X139911986Y-105299446D01*
X139917714Y-105252462D01*
X139913343Y-105210082D01*
X139897525Y-105175488D01*
X139866203Y-105144763D01*
X139815322Y-105113990D01*
X139740824Y-105079252D01*
X139736286Y-105077288D01*
X139669179Y-105046287D01*
X139627768Y-105020862D01*
X139610019Y-104998014D01*
X139613893Y-104974745D01*
X139637357Y-104948056D01*
X139644373Y-104941914D01*
X139691370Y-104918100D01*
X139740067Y-104919103D01*
X139782478Y-104942451D01*
X139810616Y-104985675D01*
X139813231Y-104994160D01*
X139838692Y-105035308D01*
X139870999Y-105055128D01*
X139917714Y-105074770D01*
X139917714Y-105023950D01*
X139903504Y-104950082D01*
X139861325Y-104882327D01*
X139839376Y-104859661D01*
X139789483Y-104830569D01*
X139726033Y-104817400D01*
X139660256Y-104820968D01*
G36*
X139170074Y-104819755D02*
X139104142Y-104844084D01*
X139050727Y-104887117D01*
X139029836Y-104917409D01*
X139007061Y-104972994D01*
X139007534Y-105013186D01*
X139031438Y-105040217D01*
X139040283Y-105044813D01*
X139078470Y-105059144D01*
X139097972Y-105055472D01*
X139104578Y-105031407D01*
X139104914Y-105018114D01*
X139117008Y-104969210D01*
X139148529Y-104934999D01*
X139192341Y-104918476D01*
X139241305Y-104922634D01*
X139281106Y-104944227D01*
X139294550Y-104956544D01*
X139304079Y-104971487D01*
X139310515Y-104994075D01*
X139314683Y-105029328D01*
X139317403Y-105082266D01*
X139319498Y-105157907D01*
X139320040Y-105181857D01*
X139322019Y-105263790D01*
X139324269Y-105321455D01*
X139327643Y-105359608D01*
X139332994Y-105383004D01*
X139341176Y-105396398D01*
X139353041Y-105404545D01*
X139360638Y-105408144D01*
X139392898Y-105420452D01*
X139411889Y-105424514D01*
X139418164Y-105410948D01*
X139421994Y-105369934D01*
X139423400Y-105300999D01*
X139422402Y-105203669D01*
X139422092Y-105188657D01*
X139419899Y-105099859D01*
X139417307Y-105035019D01*
X139413618Y-104989067D01*
X139408136Y-104956935D01*
X139400165Y-104933553D01*
X139389007Y-104913852D01*
X139383170Y-104905410D01*
X139349704Y-104868057D01*
X139312273Y-104839003D01*
X139307691Y-104836467D01*
X139240574Y-104816443D01*
X139170074Y-104819755D01*
X139170074Y-104819755D01*
G37*
X139170074Y-104819755D02*
X139104142Y-104844084D01*
X139050727Y-104887117D01*
X139029836Y-104917409D01*
X139007061Y-104972994D01*
X139007534Y-105013186D01*
X139031438Y-105040217D01*
X139040283Y-105044813D01*
X139078470Y-105059144D01*
X139097972Y-105055472D01*
X139104578Y-105031407D01*
X139104914Y-105018114D01*
X139117008Y-104969210D01*
X139148529Y-104934999D01*
X139192341Y-104918476D01*
X139241305Y-104922634D01*
X139281106Y-104944227D01*
X139294550Y-104956544D01*
X139304079Y-104971487D01*
X139310515Y-104994075D01*
X139314683Y-105029328D01*
X139317403Y-105082266D01*
X139319498Y-105157907D01*
X139320040Y-105181857D01*
X139322019Y-105263790D01*
X139324269Y-105321455D01*
X139327643Y-105359608D01*
X139332994Y-105383004D01*
X139341176Y-105396398D01*
X139353041Y-105404545D01*
X139360638Y-105408144D01*
X139392898Y-105420452D01*
X139411889Y-105424514D01*
X139418164Y-105410948D01*
X139421994Y-105369934D01*
X139423400Y-105300999D01*
X139422402Y-105203669D01*
X139422092Y-105188657D01*
X139419899Y-105099859D01*
X139417307Y-105035019D01*
X139413618Y-104989067D01*
X139408136Y-104956935D01*
X139400165Y-104933553D01*
X139389007Y-104913852D01*
X139383170Y-104905410D01*
X139349704Y-104868057D01*
X139312273Y-104839003D01*
X139307691Y-104836467D01*
X139240574Y-104816443D01*
X139170074Y-104819755D01*
G36*
X138509883Y-104935358D02*
X138510067Y-105043837D01*
X138510781Y-105127287D01*
X138512325Y-105189704D01*
X138514999Y-105235085D01*
X138519106Y-105267429D01*
X138524945Y-105290733D01*
X138532818Y-105308995D01*
X138538779Y-105319418D01*
X138588145Y-105375945D01*
X138650736Y-105411377D01*
X138719987Y-105424090D01*
X138789332Y-105412463D01*
X138830625Y-105391568D01*
X138873975Y-105355422D01*
X138903519Y-105311276D01*
X138921345Y-105253462D01*
X138929537Y-105176313D01*
X138930698Y-105119714D01*
X138930542Y-105115647D01*
X138829143Y-105115647D01*
X138828524Y-105180550D01*
X138825686Y-105223514D01*
X138819160Y-105251622D01*
X138807477Y-105271953D01*
X138793517Y-105287288D01*
X138746635Y-105316890D01*
X138696299Y-105319419D01*
X138648724Y-105294705D01*
X138645021Y-105291356D01*
X138629217Y-105273935D01*
X138619307Y-105253209D01*
X138613942Y-105222362D01*
X138611772Y-105174577D01*
X138611429Y-105121748D01*
X138612173Y-105055381D01*
X138615252Y-105011106D01*
X138621939Y-104982009D01*
X138633504Y-104961173D01*
X138642987Y-104950107D01*
X138687040Y-104922198D01*
X138737776Y-104918843D01*
X138786204Y-104940159D01*
X138795550Y-104948073D01*
X138811460Y-104965647D01*
X138821390Y-104986587D01*
X138826722Y-105017782D01*
X138828837Y-105066122D01*
X138829143Y-105115647D01*
X138930542Y-105115647D01*
X138927190Y-105028568D01*
X138915274Y-104960086D01*
X138892865Y-104908600D01*
X138857876Y-104868443D01*
X138830625Y-104847861D01*
X138781093Y-104825625D01*
X138723684Y-104815304D01*
X138670318Y-104818067D01*
X138640457Y-104829212D01*
X138628739Y-104832383D01*
X138620963Y-104820557D01*
X138615535Y-104788866D01*
X138611429Y-104740593D01*
X138606933Y-104686829D01*
X138600687Y-104654482D01*
X138589324Y-104635985D01*
X138569472Y-104623770D01*
X138557000Y-104618362D01*
X138509829Y-104598601D01*
X138509883Y-104935358D01*
X138509883Y-104935358D01*
G37*
X138509883Y-104935358D02*
X138510067Y-105043837D01*
X138510781Y-105127287D01*
X138512325Y-105189704D01*
X138514999Y-105235085D01*
X138519106Y-105267429D01*
X138524945Y-105290733D01*
X138532818Y-105308995D01*
X138538779Y-105319418D01*
X138588145Y-105375945D01*
X138650736Y-105411377D01*
X138719987Y-105424090D01*
X138789332Y-105412463D01*
X138830625Y-105391568D01*
X138873975Y-105355422D01*
X138903519Y-105311276D01*
X138921345Y-105253462D01*
X138929537Y-105176313D01*
X138930698Y-105119714D01*
X138930542Y-105115647D01*
X138829143Y-105115647D01*
X138828524Y-105180550D01*
X138825686Y-105223514D01*
X138819160Y-105251622D01*
X138807477Y-105271953D01*
X138793517Y-105287288D01*
X138746635Y-105316890D01*
X138696299Y-105319419D01*
X138648724Y-105294705D01*
X138645021Y-105291356D01*
X138629217Y-105273935D01*
X138619307Y-105253209D01*
X138613942Y-105222362D01*
X138611772Y-105174577D01*
X138611429Y-105121748D01*
X138612173Y-105055381D01*
X138615252Y-105011106D01*
X138621939Y-104982009D01*
X138633504Y-104961173D01*
X138642987Y-104950107D01*
X138687040Y-104922198D01*
X138737776Y-104918843D01*
X138786204Y-104940159D01*
X138795550Y-104948073D01*
X138811460Y-104965647D01*
X138821390Y-104986587D01*
X138826722Y-105017782D01*
X138828837Y-105066122D01*
X138829143Y-105115647D01*
X138930542Y-105115647D01*
X138927190Y-105028568D01*
X138915274Y-104960086D01*
X138892865Y-104908600D01*
X138857876Y-104868443D01*
X138830625Y-104847861D01*
X138781093Y-104825625D01*
X138723684Y-104815304D01*
X138670318Y-104818067D01*
X138640457Y-104829212D01*
X138628739Y-104832383D01*
X138620963Y-104820557D01*
X138615535Y-104788866D01*
X138611429Y-104740593D01*
X138606933Y-104686829D01*
X138600687Y-104654482D01*
X138589324Y-104635985D01*
X138569472Y-104623770D01*
X138557000Y-104618362D01*
X138509829Y-104598601D01*
X138509883Y-104935358D01*
G36*
X137920167Y-104828663D02*
X137917952Y-104866850D01*
X137916216Y-104924886D01*
X137915101Y-104998180D01*
X137914743Y-105075055D01*
X137914743Y-105335196D01*
X137960674Y-105381127D01*
X137992325Y-105409429D01*
X138020110Y-105420893D01*
X138058085Y-105420168D01*
X138073160Y-105418321D01*
X138120274Y-105412948D01*
X138159244Y-105409869D01*
X138168743Y-105409585D01*
X138200767Y-105411445D01*
X138246568Y-105416114D01*
X138264326Y-105418321D01*
X138307943Y-105421735D01*
X138337255Y-105414320D01*
X138366320Y-105391427D01*
X138376812Y-105381127D01*
X138422743Y-105335196D01*
X138422743Y-104848602D01*
X138385774Y-104831758D01*
X138353941Y-104819282D01*
X138335317Y-104814914D01*
X138330542Y-104828718D01*
X138326079Y-104867286D01*
X138322225Y-104926356D01*
X138319278Y-105001663D01*
X138317857Y-105065286D01*
X138313886Y-105315657D01*
X138279241Y-105320556D01*
X138247732Y-105317131D01*
X138232292Y-105306041D01*
X138227977Y-105285308D01*
X138224292Y-105241145D01*
X138221531Y-105179146D01*
X138219988Y-105104909D01*
X138219765Y-105066706D01*
X138219543Y-104846783D01*
X138173834Y-104830849D01*
X138141482Y-104820015D01*
X138123885Y-104814962D01*
X138123377Y-104814914D01*
X138121612Y-104828648D01*
X138119671Y-104866730D01*
X138117718Y-104924482D01*
X138115916Y-104997227D01*
X138114657Y-105065286D01*
X138110686Y-105315657D01*
X138023600Y-105315657D01*
X138019604Y-105087240D01*
X138015608Y-104858822D01*
X137973153Y-104836868D01*
X137941808Y-104821793D01*
X137923256Y-104814951D01*
X137922721Y-104814914D01*
X137920167Y-104828663D01*
X137920167Y-104828663D01*
G37*
X137920167Y-104828663D02*
X137917952Y-104866850D01*
X137916216Y-104924886D01*
X137915101Y-104998180D01*
X137914743Y-105075055D01*
X137914743Y-105335196D01*
X137960674Y-105381127D01*
X137992325Y-105409429D01*
X138020110Y-105420893D01*
X138058085Y-105420168D01*
X138073160Y-105418321D01*
X138120274Y-105412948D01*
X138159244Y-105409869D01*
X138168743Y-105409585D01*
X138200767Y-105411445D01*
X138246568Y-105416114D01*
X138264326Y-105418321D01*
X138307943Y-105421735D01*
X138337255Y-105414320D01*
X138366320Y-105391427D01*
X138376812Y-105381127D01*
X138422743Y-105335196D01*
X138422743Y-104848602D01*
X138385774Y-104831758D01*
X138353941Y-104819282D01*
X138335317Y-104814914D01*
X138330542Y-104828718D01*
X138326079Y-104867286D01*
X138322225Y-104926356D01*
X138319278Y-105001663D01*
X138317857Y-105065286D01*
X138313886Y-105315657D01*
X138279241Y-105320556D01*
X138247732Y-105317131D01*
X138232292Y-105306041D01*
X138227977Y-105285308D01*
X138224292Y-105241145D01*
X138221531Y-105179146D01*
X138219988Y-105104909D01*
X138219765Y-105066706D01*
X138219543Y-104846783D01*
X138173834Y-104830849D01*
X138141482Y-104820015D01*
X138123885Y-104814962D01*
X138123377Y-104814914D01*
X138121612Y-104828648D01*
X138119671Y-104866730D01*
X138117718Y-104924482D01*
X138115916Y-104997227D01*
X138114657Y-105065286D01*
X138110686Y-105315657D01*
X138023600Y-105315657D01*
X138019604Y-105087240D01*
X138015608Y-104858822D01*
X137973153Y-104836868D01*
X137941808Y-104821793D01*
X137923256Y-104814951D01*
X137922721Y-104814914D01*
X137920167Y-104828663D01*
G36*
X137555124Y-104826335D02*
X137513333Y-104845344D01*
X137480531Y-104868378D01*
X137456497Y-104894133D01*
X137439903Y-104927358D01*
X137429423Y-104972800D01*
X137423729Y-105035207D01*
X137421493Y-105119327D01*
X137421257Y-105174721D01*
X137421257Y-105390826D01*
X137458226Y-105407670D01*
X137487344Y-105419981D01*
X137501769Y-105424514D01*
X137504528Y-105411025D01*
X137506718Y-105374653D01*
X137508058Y-105321542D01*
X137508343Y-105279372D01*
X137509566Y-105218447D01*
X137512864Y-105170115D01*
X137517679Y-105140518D01*
X137521504Y-105134229D01*
X137547217Y-105140652D01*
X137587582Y-105157125D01*
X137634321Y-105179458D01*
X137679155Y-105203457D01*
X137713807Y-105224930D01*
X137729998Y-105239685D01*
X137730062Y-105239845D01*
X137728670Y-105267152D01*
X137716182Y-105293219D01*
X137694257Y-105314392D01*
X137662257Y-105321474D01*
X137634908Y-105320649D01*
X137596174Y-105320042D01*
X137575842Y-105329116D01*
X137563631Y-105353092D01*
X137562091Y-105357613D01*
X137556797Y-105391806D01*
X137570953Y-105412568D01*
X137607852Y-105422462D01*
X137647711Y-105424292D01*
X137719438Y-105410727D01*
X137756568Y-105391355D01*
X137802424Y-105345845D01*
X137826744Y-105289983D01*
X137828927Y-105230957D01*
X137808371Y-105175953D01*
X137777451Y-105141486D01*
X137746580Y-105122189D01*
X137698058Y-105097759D01*
X137641515Y-105072985D01*
X137632090Y-105069199D01*
X137569981Y-105041791D01*
X137534178Y-105017634D01*
X137522663Y-104993619D01*
X137533420Y-104966635D01*
X137551886Y-104945543D01*
X137595531Y-104919572D01*
X137643554Y-104917624D01*
X137687594Y-104937637D01*
X137719291Y-104977551D01*
X137723451Y-104987848D01*
X137747673Y-105025724D01*
X137783035Y-105053842D01*
X137827657Y-105076917D01*
X137827657Y-105011485D01*
X137825031Y-104971506D01*
X137813770Y-104939997D01*
X137788801Y-104906378D01*
X137764831Y-104880484D01*
X137727559Y-104843817D01*
X137698599Y-104824121D01*
X137667495Y-104816220D01*
X137632287Y-104814914D01*
X137555124Y-104826335D01*
X137555124Y-104826335D01*
G37*
X137555124Y-104826335D02*
X137513333Y-104845344D01*
X137480531Y-104868378D01*
X137456497Y-104894133D01*
X137439903Y-104927358D01*
X137429423Y-104972800D01*
X137423729Y-105035207D01*
X137421493Y-105119327D01*
X137421257Y-105174721D01*
X137421257Y-105390826D01*
X137458226Y-105407670D01*
X137487344Y-105419981D01*
X137501769Y-105424514D01*
X137504528Y-105411025D01*
X137506718Y-105374653D01*
X137508058Y-105321542D01*
X137508343Y-105279372D01*
X137509566Y-105218447D01*
X137512864Y-105170115D01*
X137517679Y-105140518D01*
X137521504Y-105134229D01*
X137547217Y-105140652D01*
X137587582Y-105157125D01*
X137634321Y-105179458D01*
X137679155Y-105203457D01*
X137713807Y-105224930D01*
X137729998Y-105239685D01*
X137730062Y-105239845D01*
X137728670Y-105267152D01*
X137716182Y-105293219D01*
X137694257Y-105314392D01*
X137662257Y-105321474D01*
X137634908Y-105320649D01*
X137596174Y-105320042D01*
X137575842Y-105329116D01*
X137563631Y-105353092D01*
X137562091Y-105357613D01*
X137556797Y-105391806D01*
X137570953Y-105412568D01*
X137607852Y-105422462D01*
X137647711Y-105424292D01*
X137719438Y-105410727D01*
X137756568Y-105391355D01*
X137802424Y-105345845D01*
X137826744Y-105289983D01*
X137828927Y-105230957D01*
X137808371Y-105175953D01*
X137777451Y-105141486D01*
X137746580Y-105122189D01*
X137698058Y-105097759D01*
X137641515Y-105072985D01*
X137632090Y-105069199D01*
X137569981Y-105041791D01*
X137534178Y-105017634D01*
X137522663Y-104993619D01*
X137533420Y-104966635D01*
X137551886Y-104945543D01*
X137595531Y-104919572D01*
X137643554Y-104917624D01*
X137687594Y-104937637D01*
X137719291Y-104977551D01*
X137723451Y-104987848D01*
X137747673Y-105025724D01*
X137783035Y-105053842D01*
X137827657Y-105076917D01*
X137827657Y-105011485D01*
X137825031Y-104971506D01*
X137813770Y-104939997D01*
X137788801Y-104906378D01*
X137764831Y-104880484D01*
X137727559Y-104843817D01*
X137698599Y-104824121D01*
X137667495Y-104816220D01*
X137632287Y-104814914D01*
X137555124Y-104826335D01*
G36*
X137047400Y-104828752D02*
X137030052Y-104836334D01*
X136988644Y-104869128D01*
X136953235Y-104916547D01*
X136931336Y-104967151D01*
X136927771Y-104992098D01*
X136939721Y-105026927D01*
X136965933Y-105045357D01*
X136994036Y-105056516D01*
X137006905Y-105058572D01*
X137013171Y-105043649D01*
X137025544Y-105011175D01*
X137030972Y-104996502D01*
X137061410Y-104945744D01*
X137105480Y-104920427D01*
X137161990Y-104921206D01*
X137166175Y-104922203D01*
X137196345Y-104936507D01*
X137218524Y-104964393D01*
X137233673Y-105009287D01*
X137242750Y-105074615D01*
X137246714Y-105163804D01*
X137247086Y-105211261D01*
X137247270Y-105286071D01*
X137248478Y-105337069D01*
X137251691Y-105369471D01*
X137257891Y-105388495D01*
X137268060Y-105399356D01*
X137283181Y-105407272D01*
X137284054Y-105407670D01*
X137313172Y-105419981D01*
X137327597Y-105424514D01*
X137329814Y-105410809D01*
X137331711Y-105372925D01*
X137333153Y-105315715D01*
X137334002Y-105244027D01*
X137334171Y-105191565D01*
X137333308Y-105090047D01*
X137329930Y-105013032D01*
X137322858Y-104956023D01*
X137310912Y-104914526D01*
X137292910Y-104884043D01*
X137267673Y-104860080D01*
X137242753Y-104843355D01*
X137182829Y-104821097D01*
X137113089Y-104816076D01*
X137047400Y-104828752D01*
X137047400Y-104828752D01*
G37*
X137047400Y-104828752D02*
X137030052Y-104836334D01*
X136988644Y-104869128D01*
X136953235Y-104916547D01*
X136931336Y-104967151D01*
X136927771Y-104992098D01*
X136939721Y-105026927D01*
X136965933Y-105045357D01*
X136994036Y-105056516D01*
X137006905Y-105058572D01*
X137013171Y-105043649D01*
X137025544Y-105011175D01*
X137030972Y-104996502D01*
X137061410Y-104945744D01*
X137105480Y-104920427D01*
X137161990Y-104921206D01*
X137166175Y-104922203D01*
X137196345Y-104936507D01*
X137218524Y-104964393D01*
X137233673Y-105009287D01*
X137242750Y-105074615D01*
X137246714Y-105163804D01*
X137247086Y-105211261D01*
X137247270Y-105286071D01*
X137248478Y-105337069D01*
X137251691Y-105369471D01*
X137257891Y-105388495D01*
X137268060Y-105399356D01*
X137283181Y-105407272D01*
X137284054Y-105407670D01*
X137313172Y-105419981D01*
X137327597Y-105424514D01*
X137329814Y-105410809D01*
X137331711Y-105372925D01*
X137333153Y-105315715D01*
X137334002Y-105244027D01*
X137334171Y-105191565D01*
X137333308Y-105090047D01*
X137329930Y-105013032D01*
X137322858Y-104956023D01*
X137310912Y-104914526D01*
X137292910Y-104884043D01*
X137267673Y-104860080D01*
X137242753Y-104843355D01*
X137182829Y-104821097D01*
X137113089Y-104816076D01*
X137047400Y-104828752D01*
G36*
X136546405Y-104836966D02*
X136488979Y-104874497D01*
X136461281Y-104908096D01*
X136439338Y-104969064D01*
X136437595Y-105017308D01*
X136441543Y-105081816D01*
X136590314Y-105146934D01*
X136662651Y-105180202D01*
X136709916Y-105206964D01*
X136734493Y-105230144D01*
X136738763Y-105252667D01*
X136725111Y-105277455D01*
X136710057Y-105293886D01*
X136666254Y-105320235D01*
X136618611Y-105322081D01*
X136574855Y-105301546D01*
X136542711Y-105260752D01*
X136536962Y-105246347D01*
X136509424Y-105201356D01*
X136477742Y-105182182D01*
X136434286Y-105165779D01*
X136434286Y-105227966D01*
X136438128Y-105270283D01*
X136453177Y-105305969D01*
X136484720Y-105346943D01*
X136489408Y-105352267D01*
X136524494Y-105388720D01*
X136554653Y-105408283D01*
X136592385Y-105417283D01*
X136623665Y-105420230D01*
X136679615Y-105420965D01*
X136719445Y-105411660D01*
X136744292Y-105397846D01*
X136783344Y-105367467D01*
X136810375Y-105334613D01*
X136827483Y-105293294D01*
X136836762Y-105237521D01*
X136840307Y-105161305D01*
X136840590Y-105122622D01*
X136839628Y-105076247D01*
X136751993Y-105076247D01*
X136750977Y-105101126D01*
X136748444Y-105105200D01*
X136731726Y-105099665D01*
X136695751Y-105085017D01*
X136647669Y-105064190D01*
X136637614Y-105059714D01*
X136576848Y-105028814D01*
X136543368Y-105001657D01*
X136536010Y-104976220D01*
X136553609Y-104950481D01*
X136568144Y-104939109D01*
X136620590Y-104916364D01*
X136669678Y-104920122D01*
X136710773Y-104947884D01*
X136739242Y-104997152D01*
X136748369Y-105036257D01*
X136751993Y-105076247D01*
X136839628Y-105076247D01*
X136838715Y-105032249D01*
X136831804Y-104965384D01*
X136818116Y-104916695D01*
X136795904Y-104880849D01*
X136763426Y-104852513D01*
X136749267Y-104843355D01*
X136684947Y-104819507D01*
X136614527Y-104818006D01*
X136546405Y-104836966D01*
X136546405Y-104836966D01*
G37*
X136546405Y-104836966D02*
X136488979Y-104874497D01*
X136461281Y-104908096D01*
X136439338Y-104969064D01*
X136437595Y-105017308D01*
X136441543Y-105081816D01*
X136590314Y-105146934D01*
X136662651Y-105180202D01*
X136709916Y-105206964D01*
X136734493Y-105230144D01*
X136738763Y-105252667D01*
X136725111Y-105277455D01*
X136710057Y-105293886D01*
X136666254Y-105320235D01*
X136618611Y-105322081D01*
X136574855Y-105301546D01*
X136542711Y-105260752D01*
X136536962Y-105246347D01*
X136509424Y-105201356D01*
X136477742Y-105182182D01*
X136434286Y-105165779D01*
X136434286Y-105227966D01*
X136438128Y-105270283D01*
X136453177Y-105305969D01*
X136484720Y-105346943D01*
X136489408Y-105352267D01*
X136524494Y-105388720D01*
X136554653Y-105408283D01*
X136592385Y-105417283D01*
X136623665Y-105420230D01*
X136679615Y-105420965D01*
X136719445Y-105411660D01*
X136744292Y-105397846D01*
X136783344Y-105367467D01*
X136810375Y-105334613D01*
X136827483Y-105293294D01*
X136836762Y-105237521D01*
X136840307Y-105161305D01*
X136840590Y-105122622D01*
X136839628Y-105076247D01*
X136751993Y-105076247D01*
X136750977Y-105101126D01*
X136748444Y-105105200D01*
X136731726Y-105099665D01*
X136695751Y-105085017D01*
X136647669Y-105064190D01*
X136637614Y-105059714D01*
X136576848Y-105028814D01*
X136543368Y-105001657D01*
X136536010Y-104976220D01*
X136553609Y-104950481D01*
X136568144Y-104939109D01*
X136620590Y-104916364D01*
X136669678Y-104920122D01*
X136710773Y-104947884D01*
X136739242Y-104997152D01*
X136748369Y-105036257D01*
X136751993Y-105076247D01*
X136839628Y-105076247D01*
X136838715Y-105032249D01*
X136831804Y-104965384D01*
X136818116Y-104916695D01*
X136795904Y-104880849D01*
X136763426Y-104852513D01*
X136749267Y-104843355D01*
X136684947Y-104819507D01*
X136614527Y-104818006D01*
X136546405Y-104836966D01*
G36*
X139596090Y-100112348D02*
X139517546Y-100112778D01*
X139460702Y-100113942D01*
X139421895Y-100116207D01*
X139397462Y-100119940D01*
X139383738Y-100125506D01*
X139377060Y-100133273D01*
X139373764Y-100143605D01*
X139373444Y-100144943D01*
X139368438Y-100169079D01*
X139359171Y-100216701D01*
X139346608Y-100282741D01*
X139331713Y-100362128D01*
X139315449Y-100449796D01*
X139314881Y-100452875D01*
X139298590Y-100538789D01*
X139283348Y-100614696D01*
X139270139Y-100676045D01*
X139259946Y-100718282D01*
X139253752Y-100736855D01*
X139253457Y-100737184D01*
X139235212Y-100746253D01*
X139197595Y-100761367D01*
X139148729Y-100779262D01*
X139148457Y-100779358D01*
X139086907Y-100802493D01*
X139014343Y-100831965D01*
X138945943Y-100861597D01*
X138942706Y-100863062D01*
X138831298Y-100913626D01*
X138584601Y-100745160D01*
X138508923Y-100693803D01*
X138440369Y-100647889D01*
X138382912Y-100610030D01*
X138340524Y-100582837D01*
X138317175Y-100568921D01*
X138314958Y-100567889D01*
X138297990Y-100572484D01*
X138266299Y-100594655D01*
X138218648Y-100635447D01*
X138153802Y-100695905D01*
X138087603Y-100760227D01*
X138023786Y-100823612D01*
X137966671Y-100881451D01*
X137919695Y-100930175D01*
X137886297Y-100966210D01*
X137869915Y-100985984D01*
X137869306Y-100987002D01*
X137867495Y-101000572D01*
X137874317Y-101022733D01*
X137891460Y-101056478D01*
X137920607Y-101104800D01*
X137963445Y-101170692D01*
X138020552Y-101255517D01*
X138071234Y-101330177D01*
X138116539Y-101397140D01*
X138153850Y-101452516D01*
X138180548Y-101492420D01*
X138194015Y-101512962D01*
X138194863Y-101514356D01*
X138193219Y-101534038D01*
X138180755Y-101572293D01*
X138159952Y-101621889D01*
X138152538Y-101637728D01*
X138120186Y-101708290D01*
X138085672Y-101788353D01*
X138057635Y-101857629D01*
X138037432Y-101909045D01*
X138021385Y-101948119D01*
X138012112Y-101968541D01*
X138010959Y-101970114D01*
X137993904Y-101972721D01*
X137953702Y-101979863D01*
X137895698Y-101990523D01*
X137825237Y-102003685D01*
X137747665Y-102018333D01*
X137668328Y-102033449D01*
X137592569Y-102048018D01*
X137525736Y-102061022D01*
X137473172Y-102071445D01*
X137440224Y-102078270D01*
X137432143Y-102080199D01*
X137423795Y-102084962D01*
X137417494Y-102095718D01*
X137412955Y-102116098D01*
X137409896Y-102149734D01*
X137408033Y-102200255D01*
X137407082Y-102271292D01*
X137406760Y-102366476D01*
X137406743Y-102405492D01*
X137406743Y-102722799D01*
X137482943Y-102737839D01*
X137525337Y-102745995D01*
X137588600Y-102757899D01*
X137665038Y-102772116D01*
X137746957Y-102787210D01*
X137769600Y-102791355D01*
X137845194Y-102806053D01*
X137911047Y-102820505D01*
X137961634Y-102833375D01*
X137991426Y-102843322D01*
X137996388Y-102846287D01*
X138008574Y-102867283D01*
X138026047Y-102907967D01*
X138045423Y-102960322D01*
X138049266Y-102971600D01*
X138074661Y-103041523D01*
X138106183Y-103120418D01*
X138137031Y-103191266D01*
X138137183Y-103191595D01*
X138188553Y-103302733D01*
X138019601Y-103551253D01*
X137850648Y-103799772D01*
X138067571Y-104017058D01*
X138133181Y-104081726D01*
X138193021Y-104138733D01*
X138243733Y-104185033D01*
X138281954Y-104217584D01*
X138304325Y-104233343D01*
X138307534Y-104234343D01*
X138326374Y-104226469D01*
X138364820Y-104204578D01*
X138418670Y-104171267D01*
X138483724Y-104129131D01*
X138554060Y-104081943D01*
X138625445Y-104033810D01*
X138689092Y-103991928D01*
X138740959Y-103958871D01*
X138777005Y-103937218D01*
X138793133Y-103929543D01*
X138812811Y-103936037D01*
X138850125Y-103953150D01*
X138897379Y-103977326D01*
X138902388Y-103980013D01*
X138966023Y-104011927D01*
X139009659Y-104027579D01*
X139036798Y-104027745D01*
X139050943Y-104013204D01*
X139051025Y-104013000D01*
X139058095Y-103995779D01*
X139074958Y-103954899D01*
X139100305Y-103893525D01*
X139132829Y-103814819D01*
X139171222Y-103721947D01*
X139214178Y-103618072D01*
X139255778Y-103517502D01*
X139301496Y-103406516D01*
X139343474Y-103303703D01*
X139380452Y-103212215D01*
X139411173Y-103135201D01*
X139434378Y-103075815D01*
X139448810Y-103037209D01*
X139453257Y-103022800D01*
X139442104Y-103006272D01*
X139412931Y-102979930D01*
X139374029Y-102950887D01*
X139263243Y-102859039D01*
X139176649Y-102753759D01*
X139115284Y-102637266D01*
X139080185Y-102511776D01*
X139072392Y-102379507D01*
X139078057Y-102318457D01*
X139108922Y-102191795D01*
X139162080Y-102079941D01*
X139234233Y-101984001D01*
X139322083Y-101905076D01*
X139422335Y-101844270D01*
X139531690Y-101802687D01*
X139646853Y-101781428D01*
X139764525Y-101781599D01*
X139881410Y-101804301D01*
X139994211Y-101850638D01*
X140099631Y-101921713D01*
X140143632Y-101961911D01*
X140228021Y-102065129D01*
X140286778Y-102177925D01*
X140320296Y-102297010D01*
X140328965Y-102419095D01*
X140313177Y-102540893D01*
X140273322Y-102659116D01*
X140209793Y-102770475D01*
X140122979Y-102871684D01*
X140025971Y-102950887D01*
X139985563Y-102981162D01*
X139957018Y-103007219D01*
X139946743Y-103022825D01*
X139952123Y-103039843D01*
X139967425Y-103080500D01*
X139991388Y-103141642D01*
X140022756Y-103220119D01*
X140060268Y-103312780D01*
X140102667Y-103416472D01*
X140144337Y-103517526D01*
X140190310Y-103628607D01*
X140232893Y-103731541D01*
X140270779Y-103823165D01*
X140302660Y-103900316D01*
X140327229Y-103959831D01*
X140343180Y-103998544D01*
X140349090Y-104013000D01*
X140363052Y-104027685D01*
X140390060Y-104027642D01*
X140433587Y-104012099D01*
X140497110Y-103980284D01*
X140497612Y-103980013D01*
X140545440Y-103955323D01*
X140584103Y-103937338D01*
X140605905Y-103929614D01*
X140606867Y-103929543D01*
X140623279Y-103937378D01*
X140659513Y-103959165D01*
X140711526Y-103992328D01*
X140775275Y-104034291D01*
X140845940Y-104081943D01*
X140917884Y-104130191D01*
X140982726Y-104172151D01*
X141036265Y-104205227D01*
X141074303Y-104226821D01*
X141092467Y-104234343D01*
X141109192Y-104224457D01*
X141142820Y-104196826D01*
X141189990Y-104154495D01*
X141247342Y-104100505D01*
X141311516Y-104037899D01*
X141332503Y-104016983D01*
X141549501Y-103799623D01*
X141384332Y-103557220D01*
X141334136Y-103482781D01*
X141290081Y-103415972D01*
X141254638Y-103360665D01*
X141230281Y-103320729D01*
X141219478Y-103300036D01*
X141219162Y-103298563D01*
X141224857Y-103279058D01*
X141240174Y-103239822D01*
X141262463Y-103187430D01*
X141278107Y-103152355D01*
X141307359Y-103085201D01*
X141334906Y-103017358D01*
X141356263Y-102960034D01*
X141362065Y-102942572D01*
X141378548Y-102895938D01*
X141394660Y-102859905D01*
X141403510Y-102846287D01*
X141423040Y-102837952D01*
X141465666Y-102826137D01*
X141525855Y-102812181D01*
X141598078Y-102797422D01*
X141630400Y-102791355D01*
X141712478Y-102776273D01*
X141791205Y-102761669D01*
X141858891Y-102748980D01*
X141907840Y-102739642D01*
X141917057Y-102737839D01*
X141993257Y-102722799D01*
X141993257Y-102405492D01*
X141993086Y-102301154D01*
X141992384Y-102222213D01*
X141990866Y-102165038D01*
X141988251Y-102125999D01*
X141984254Y-102101465D01*
X141978591Y-102087805D01*
X141970980Y-102081389D01*
X141967857Y-102080199D01*
X141949022Y-102075980D01*
X141907412Y-102067562D01*
X141848370Y-102055961D01*
X141777243Y-102042195D01*
X141699375Y-102027280D01*
X141620113Y-102012232D01*
X141544802Y-101998069D01*
X141478787Y-101985806D01*
X141427413Y-101976461D01*
X141396025Y-101971050D01*
X141389041Y-101970114D01*
X141382715Y-101957596D01*
X141368710Y-101924246D01*
X141349645Y-101876377D01*
X141342366Y-101857629D01*
X141313004Y-101785195D01*
X141278429Y-101705170D01*
X141247463Y-101637728D01*
X141224677Y-101586159D01*
X141209518Y-101543785D01*
X141204458Y-101517834D01*
X141205264Y-101514356D01*
X141215959Y-101497936D01*
X141240380Y-101461417D01*
X141275905Y-101408687D01*
X141319913Y-101343635D01*
X141369783Y-101270151D01*
X141379644Y-101255645D01*
X141437508Y-101169704D01*
X141480044Y-101104261D01*
X141508946Y-101056304D01*
X141525910Y-101022820D01*
X141532633Y-101000795D01*
X141530810Y-100987217D01*
X141530764Y-100987131D01*
X141516414Y-100969297D01*
X141484677Y-100934817D01*
X141438990Y-100887268D01*
X141382796Y-100830222D01*
X141319532Y-100767255D01*
X141312398Y-100760227D01*
X141232670Y-100683020D01*
X141171143Y-100626330D01*
X141126579Y-100589110D01*
X141097743Y-100570315D01*
X141085042Y-100567889D01*
X141066506Y-100578471D01*
X141028039Y-100602916D01*
X140973614Y-100638612D01*
X140907202Y-100682947D01*
X140832775Y-100733311D01*
X140815399Y-100745160D01*
X140568703Y-100913626D01*
X140457294Y-100863062D01*
X140389543Y-100833595D01*
X140316817Y-100803959D01*
X140254297Y-100780330D01*
X140251543Y-100779358D01*
X140202640Y-100761457D01*
X140164943Y-100746320D01*
X140146575Y-100737210D01*
X140146544Y-100737184D01*
X140140715Y-100720717D01*
X140130808Y-100680219D01*
X140117805Y-100620242D01*
X140102691Y-100545340D01*
X140086448Y-100460064D01*
X140085119Y-100452875D01*
X140068825Y-100365014D01*
X140053867Y-100285260D01*
X140041209Y-100218681D01*
X140031814Y-100170347D01*
X140026646Y-100145325D01*
X140026556Y-100144943D01*
X140023411Y-100134299D01*
X140017296Y-100126262D01*
X140004547Y-100120467D01*
X139981500Y-100116547D01*
X139944491Y-100114135D01*
X139889856Y-100112865D01*
X139813933Y-100112371D01*
X139713056Y-100112286D01*
X139700000Y-100112286D01*
X139596090Y-100112348D01*
X139596090Y-100112348D01*
G37*
X139596090Y-100112348D02*
X139517546Y-100112778D01*
X139460702Y-100113942D01*
X139421895Y-100116207D01*
X139397462Y-100119940D01*
X139383738Y-100125506D01*
X139377060Y-100133273D01*
X139373764Y-100143605D01*
X139373444Y-100144943D01*
X139368438Y-100169079D01*
X139359171Y-100216701D01*
X139346608Y-100282741D01*
X139331713Y-100362128D01*
X139315449Y-100449796D01*
X139314881Y-100452875D01*
X139298590Y-100538789D01*
X139283348Y-100614696D01*
X139270139Y-100676045D01*
X139259946Y-100718282D01*
X139253752Y-100736855D01*
X139253457Y-100737184D01*
X139235212Y-100746253D01*
X139197595Y-100761367D01*
X139148729Y-100779262D01*
X139148457Y-100779358D01*
X139086907Y-100802493D01*
X139014343Y-100831965D01*
X138945943Y-100861597D01*
X138942706Y-100863062D01*
X138831298Y-100913626D01*
X138584601Y-100745160D01*
X138508923Y-100693803D01*
X138440369Y-100647889D01*
X138382912Y-100610030D01*
X138340524Y-100582837D01*
X138317175Y-100568921D01*
X138314958Y-100567889D01*
X138297990Y-100572484D01*
X138266299Y-100594655D01*
X138218648Y-100635447D01*
X138153802Y-100695905D01*
X138087603Y-100760227D01*
X138023786Y-100823612D01*
X137966671Y-100881451D01*
X137919695Y-100930175D01*
X137886297Y-100966210D01*
X137869915Y-100985984D01*
X137869306Y-100987002D01*
X137867495Y-101000572D01*
X137874317Y-101022733D01*
X137891460Y-101056478D01*
X137920607Y-101104800D01*
X137963445Y-101170692D01*
X138020552Y-101255517D01*
X138071234Y-101330177D01*
X138116539Y-101397140D01*
X138153850Y-101452516D01*
X138180548Y-101492420D01*
X138194015Y-101512962D01*
X138194863Y-101514356D01*
X138193219Y-101534038D01*
X138180755Y-101572293D01*
X138159952Y-101621889D01*
X138152538Y-101637728D01*
X138120186Y-101708290D01*
X138085672Y-101788353D01*
X138057635Y-101857629D01*
X138037432Y-101909045D01*
X138021385Y-101948119D01*
X138012112Y-101968541D01*
X138010959Y-101970114D01*
X137993904Y-101972721D01*
X137953702Y-101979863D01*
X137895698Y-101990523D01*
X137825237Y-102003685D01*
X137747665Y-102018333D01*
X137668328Y-102033449D01*
X137592569Y-102048018D01*
X137525736Y-102061022D01*
X137473172Y-102071445D01*
X137440224Y-102078270D01*
X137432143Y-102080199D01*
X137423795Y-102084962D01*
X137417494Y-102095718D01*
X137412955Y-102116098D01*
X137409896Y-102149734D01*
X137408033Y-102200255D01*
X137407082Y-102271292D01*
X137406760Y-102366476D01*
X137406743Y-102405492D01*
X137406743Y-102722799D01*
X137482943Y-102737839D01*
X137525337Y-102745995D01*
X137588600Y-102757899D01*
X137665038Y-102772116D01*
X137746957Y-102787210D01*
X137769600Y-102791355D01*
X137845194Y-102806053D01*
X137911047Y-102820505D01*
X137961634Y-102833375D01*
X137991426Y-102843322D01*
X137996388Y-102846287D01*
X138008574Y-102867283D01*
X138026047Y-102907967D01*
X138045423Y-102960322D01*
X138049266Y-102971600D01*
X138074661Y-103041523D01*
X138106183Y-103120418D01*
X138137031Y-103191266D01*
X138137183Y-103191595D01*
X138188553Y-103302733D01*
X138019601Y-103551253D01*
X137850648Y-103799772D01*
X138067571Y-104017058D01*
X138133181Y-104081726D01*
X138193021Y-104138733D01*
X138243733Y-104185033D01*
X138281954Y-104217584D01*
X138304325Y-104233343D01*
X138307534Y-104234343D01*
X138326374Y-104226469D01*
X138364820Y-104204578D01*
X138418670Y-104171267D01*
X138483724Y-104129131D01*
X138554060Y-104081943D01*
X138625445Y-104033810D01*
X138689092Y-103991928D01*
X138740959Y-103958871D01*
X138777005Y-103937218D01*
X138793133Y-103929543D01*
X138812811Y-103936037D01*
X138850125Y-103953150D01*
X138897379Y-103977326D01*
X138902388Y-103980013D01*
X138966023Y-104011927D01*
X139009659Y-104027579D01*
X139036798Y-104027745D01*
X139050943Y-104013204D01*
X139051025Y-104013000D01*
X139058095Y-103995779D01*
X139074958Y-103954899D01*
X139100305Y-103893525D01*
X139132829Y-103814819D01*
X139171222Y-103721947D01*
X139214178Y-103618072D01*
X139255778Y-103517502D01*
X139301496Y-103406516D01*
X139343474Y-103303703D01*
X139380452Y-103212215D01*
X139411173Y-103135201D01*
X139434378Y-103075815D01*
X139448810Y-103037209D01*
X139453257Y-103022800D01*
X139442104Y-103006272D01*
X139412931Y-102979930D01*
X139374029Y-102950887D01*
X139263243Y-102859039D01*
X139176649Y-102753759D01*
X139115284Y-102637266D01*
X139080185Y-102511776D01*
X139072392Y-102379507D01*
X139078057Y-102318457D01*
X139108922Y-102191795D01*
X139162080Y-102079941D01*
X139234233Y-101984001D01*
X139322083Y-101905076D01*
X139422335Y-101844270D01*
X139531690Y-101802687D01*
X139646853Y-101781428D01*
X139764525Y-101781599D01*
X139881410Y-101804301D01*
X139994211Y-101850638D01*
X140099631Y-101921713D01*
X140143632Y-101961911D01*
X140228021Y-102065129D01*
X140286778Y-102177925D01*
X140320296Y-102297010D01*
X140328965Y-102419095D01*
X140313177Y-102540893D01*
X140273322Y-102659116D01*
X140209793Y-102770475D01*
X140122979Y-102871684D01*
X140025971Y-102950887D01*
X139985563Y-102981162D01*
X139957018Y-103007219D01*
X139946743Y-103022825D01*
X139952123Y-103039843D01*
X139967425Y-103080500D01*
X139991388Y-103141642D01*
X140022756Y-103220119D01*
X140060268Y-103312780D01*
X140102667Y-103416472D01*
X140144337Y-103517526D01*
X140190310Y-103628607D01*
X140232893Y-103731541D01*
X140270779Y-103823165D01*
X140302660Y-103900316D01*
X140327229Y-103959831D01*
X140343180Y-103998544D01*
X140349090Y-104013000D01*
X140363052Y-104027685D01*
X140390060Y-104027642D01*
X140433587Y-104012099D01*
X140497110Y-103980284D01*
X140497612Y-103980013D01*
X140545440Y-103955323D01*
X140584103Y-103937338D01*
X140605905Y-103929614D01*
X140606867Y-103929543D01*
X140623279Y-103937378D01*
X140659513Y-103959165D01*
X140711526Y-103992328D01*
X140775275Y-104034291D01*
X140845940Y-104081943D01*
X140917884Y-104130191D01*
X140982726Y-104172151D01*
X141036265Y-104205227D01*
X141074303Y-104226821D01*
X141092467Y-104234343D01*
X141109192Y-104224457D01*
X141142820Y-104196826D01*
X141189990Y-104154495D01*
X141247342Y-104100505D01*
X141311516Y-104037899D01*
X141332503Y-104016983D01*
X141549501Y-103799623D01*
X141384332Y-103557220D01*
X141334136Y-103482781D01*
X141290081Y-103415972D01*
X141254638Y-103360665D01*
X141230281Y-103320729D01*
X141219478Y-103300036D01*
X141219162Y-103298563D01*
X141224857Y-103279058D01*
X141240174Y-103239822D01*
X141262463Y-103187430D01*
X141278107Y-103152355D01*
X141307359Y-103085201D01*
X141334906Y-103017358D01*
X141356263Y-102960034D01*
X141362065Y-102942572D01*
X141378548Y-102895938D01*
X141394660Y-102859905D01*
X141403510Y-102846287D01*
X141423040Y-102837952D01*
X141465666Y-102826137D01*
X141525855Y-102812181D01*
X141598078Y-102797422D01*
X141630400Y-102791355D01*
X141712478Y-102776273D01*
X141791205Y-102761669D01*
X141858891Y-102748980D01*
X141907840Y-102739642D01*
X141917057Y-102737839D01*
X141993257Y-102722799D01*
X141993257Y-102405492D01*
X141993086Y-102301154D01*
X141992384Y-102222213D01*
X141990866Y-102165038D01*
X141988251Y-102125999D01*
X141984254Y-102101465D01*
X141978591Y-102087805D01*
X141970980Y-102081389D01*
X141967857Y-102080199D01*
X141949022Y-102075980D01*
X141907412Y-102067562D01*
X141848370Y-102055961D01*
X141777243Y-102042195D01*
X141699375Y-102027280D01*
X141620113Y-102012232D01*
X141544802Y-101998069D01*
X141478787Y-101985806D01*
X141427413Y-101976461D01*
X141396025Y-101971050D01*
X141389041Y-101970114D01*
X141382715Y-101957596D01*
X141368710Y-101924246D01*
X141349645Y-101876377D01*
X141342366Y-101857629D01*
X141313004Y-101785195D01*
X141278429Y-101705170D01*
X141247463Y-101637728D01*
X141224677Y-101586159D01*
X141209518Y-101543785D01*
X141204458Y-101517834D01*
X141205264Y-101514356D01*
X141215959Y-101497936D01*
X141240380Y-101461417D01*
X141275905Y-101408687D01*
X141319913Y-101343635D01*
X141369783Y-101270151D01*
X141379644Y-101255645D01*
X141437508Y-101169704D01*
X141480044Y-101104261D01*
X141508946Y-101056304D01*
X141525910Y-101022820D01*
X141532633Y-101000795D01*
X141530810Y-100987217D01*
X141530764Y-100987131D01*
X141516414Y-100969297D01*
X141484677Y-100934817D01*
X141438990Y-100887268D01*
X141382796Y-100830222D01*
X141319532Y-100767255D01*
X141312398Y-100760227D01*
X141232670Y-100683020D01*
X141171143Y-100626330D01*
X141126579Y-100589110D01*
X141097743Y-100570315D01*
X141085042Y-100567889D01*
X141066506Y-100578471D01*
X141028039Y-100602916D01*
X140973614Y-100638612D01*
X140907202Y-100682947D01*
X140832775Y-100733311D01*
X140815399Y-100745160D01*
X140568703Y-100913626D01*
X140457294Y-100863062D01*
X140389543Y-100833595D01*
X140316817Y-100803959D01*
X140254297Y-100780330D01*
X140251543Y-100779358D01*
X140202640Y-100761457D01*
X140164943Y-100746320D01*
X140146575Y-100737210D01*
X140146544Y-100737184D01*
X140140715Y-100720717D01*
X140130808Y-100680219D01*
X140117805Y-100620242D01*
X140102691Y-100545340D01*
X140086448Y-100460064D01*
X140085119Y-100452875D01*
X140068825Y-100365014D01*
X140053867Y-100285260D01*
X140041209Y-100218681D01*
X140031814Y-100170347D01*
X140026646Y-100145325D01*
X140026556Y-100144943D01*
X140023411Y-100134299D01*
X140017296Y-100126262D01*
X140004547Y-100120467D01*
X139981500Y-100116547D01*
X139944491Y-100114135D01*
X139889856Y-100112865D01*
X139813933Y-100112371D01*
X139713056Y-100112286D01*
X139700000Y-100112286D01*
X139596090Y-100112348D01*
D14*
X149375714Y-115988571D02*
X149232857Y-116036190D01*
X149185238Y-116083810D01*
X149137619Y-116179048D01*
X149137619Y-116321905D01*
X149185238Y-116417143D01*
X149232857Y-116464762D01*
X149328095Y-116512381D01*
X149709048Y-116512381D01*
X149709048Y-115512381D01*
X149375714Y-115512381D01*
X149280476Y-115560000D01*
X149232857Y-115607619D01*
X149185238Y-115702857D01*
X149185238Y-115798095D01*
X149232857Y-115893333D01*
X149280476Y-115940952D01*
X149375714Y-115988571D01*
X149709048Y-115988571D01*
X148851905Y-115512381D02*
X148280476Y-115512381D01*
X148566191Y-116512381D02*
X148566191Y-115512381D01*
X147423333Y-116512381D02*
X147994762Y-116512381D01*
X147709048Y-116512381D02*
X147709048Y-115512381D01*
X147804286Y-115655238D01*
X147899524Y-115750476D01*
X147994762Y-115798095D01*
X151911428Y-111867143D02*
X150768571Y-111867143D01*
X151340000Y-112438571D02*
X151340000Y-111295714D01*
M02*
