M48
;DRILL file {KiCad 4.0.7-e2-6376~58~ubuntu17.04.1} date Wed May 23 19:22:42 2018
;FORMAT={-:-/ absolute / inch / decimal}
FMAT,2
INCH,TZ
T1C0.016
T2C0.030
T3C0.031
T4C0.035
T5C0.039
T6C0.043
T7C0.059
T8C0.120
%
G90
G05
M72
T1
X5.85Y-4.5
X6.4Y-4.45
X6.45Y-4.7
T2
X6.7Y-4.8
X6.7Y-4.9
X6.7Y-5.
T3
X5.5Y-4.05
X5.8Y-4.05
X5.95Y-4.8
X6.Y-4.05
X6.25Y-4.8
X6.3Y-4.05
X6.5Y-4.05
X6.5Y-4.3
X6.5Y-4.6
X6.5Y-4.8
X6.5Y-4.8984
X6.6Y-4.3
X6.6Y-4.6
X6.7Y-4.3
X6.7Y-4.6
X6.8Y-4.05
X6.8Y-4.3
X6.8Y-4.6
T4
X5.7Y-3.75
X5.8Y-3.75
X6.1Y-3.75
X6.2Y-3.75
X6.5Y-3.75
X6.6Y-3.75
T5
X5.75Y-4.4
X5.75Y-4.5
X5.75Y-4.6
X5.75Y-4.7
X5.75Y-4.8
X5.75Y-4.9
T6
X6.Y-4.4
X6.Y-4.5772
X6.2559Y-4.4
X6.2559Y-4.5772
T7
X6.15Y-4.1933
X6.15Y-5.
T8
X5.45Y-3.7
X5.45Y-5.1
X6.85Y-3.7
X6.85Y-5.1
T0
M30
