G04 #@! TF.FileFunction,Legend,Bot*
%FSLAX46Y46*%
G04 Gerber Fmt 4.6, Leading zero omitted, Abs format (unit mm)*
G04 Created by KiCad (PCBNEW 4.0.7-e2-6376~58~ubuntu17.04.1) date Wed May 23 19:16:57 2018*
%MOMM*%
%LPD*%
G01*
G04 APERTURE LIST*
%ADD10C,0.100000*%
%ADD11C,0.300000*%
%ADD12C,0.120000*%
%ADD13C,0.150000*%
G04 APERTURE END LIST*
D10*
D11*
X161944286Y-94582143D02*
X161801429Y-94653571D01*
X161515714Y-94653571D01*
X161372857Y-94582143D01*
X161301429Y-94439286D01*
X161301429Y-94367857D01*
X161372857Y-94225000D01*
X161515714Y-94153571D01*
X161730000Y-94153571D01*
X161872857Y-94082143D01*
X161944286Y-93939286D01*
X161944286Y-93867857D01*
X161872857Y-93725000D01*
X161730000Y-93653571D01*
X161515714Y-93653571D01*
X161372857Y-93725000D01*
X160087143Y-94582143D02*
X160230000Y-94653571D01*
X160515714Y-94653571D01*
X160658571Y-94582143D01*
X160730000Y-94439286D01*
X160730000Y-93867857D01*
X160658571Y-93725000D01*
X160515714Y-93653571D01*
X160230000Y-93653571D01*
X160087143Y-93725000D01*
X160015714Y-93867857D01*
X160015714Y-94010714D01*
X160730000Y-94153571D01*
X159372857Y-93653571D02*
X159372857Y-94653571D01*
X159372857Y-93796429D02*
X159301429Y-93725000D01*
X159158571Y-93653571D01*
X158944286Y-93653571D01*
X158801429Y-93725000D01*
X158730000Y-93867857D01*
X158730000Y-94653571D01*
X158158571Y-93153571D02*
X157158571Y-94653571D01*
X157158571Y-93153571D02*
X158158571Y-94653571D01*
X156015715Y-94582143D02*
X156158572Y-94653571D01*
X156444286Y-94653571D01*
X156587143Y-94582143D01*
X156658572Y-94439286D01*
X156658572Y-93867857D01*
X156587143Y-93725000D01*
X156444286Y-93653571D01*
X156158572Y-93653571D01*
X156015715Y-93725000D01*
X155944286Y-93867857D01*
X155944286Y-94010714D01*
X156658572Y-94153571D01*
X155301429Y-94653571D02*
X155301429Y-93653571D01*
X155301429Y-93153571D02*
X155372858Y-93225000D01*
X155301429Y-93296429D01*
X155230001Y-93225000D01*
X155301429Y-93153571D01*
X155301429Y-93296429D01*
X154801429Y-93653571D02*
X154230000Y-93653571D01*
X154587143Y-93153571D02*
X154587143Y-94439286D01*
X154515715Y-94582143D01*
X154372857Y-94653571D01*
X154230000Y-94653571D01*
X153515714Y-94653571D02*
X153658572Y-94582143D01*
X153730000Y-94510714D01*
X153801429Y-94367857D01*
X153801429Y-93939286D01*
X153730000Y-93796429D01*
X153658572Y-93725000D01*
X153515714Y-93653571D01*
X153301429Y-93653571D01*
X153158572Y-93725000D01*
X153087143Y-93796429D01*
X153015714Y-93939286D01*
X153015714Y-94367857D01*
X153087143Y-94510714D01*
X153158572Y-94582143D01*
X153301429Y-94653571D01*
X153515714Y-94653571D01*
X171015714Y-97132143D02*
X171158571Y-97203571D01*
X171444285Y-97203571D01*
X171587143Y-97132143D01*
X171658571Y-97060714D01*
X171730000Y-96917857D01*
X171730000Y-96489286D01*
X171658571Y-96346429D01*
X171587143Y-96275000D01*
X171444285Y-96203571D01*
X171158571Y-96203571D01*
X171015714Y-96275000D01*
X169730000Y-97132143D02*
X169872857Y-97203571D01*
X170158571Y-97203571D01*
X170301429Y-97132143D01*
X170372857Y-97060714D01*
X170444286Y-96917857D01*
X170444286Y-96489286D01*
X170372857Y-96346429D01*
X170301429Y-96275000D01*
X170158571Y-96203571D01*
X169872857Y-96203571D01*
X169730000Y-96275000D01*
X169087143Y-96632143D02*
X167944286Y-96632143D01*
X167230000Y-97203571D02*
X167230000Y-95703571D01*
X167230000Y-96275000D02*
X167087143Y-96203571D01*
X166801429Y-96203571D01*
X166658572Y-96275000D01*
X166587143Y-96346429D01*
X166515714Y-96489286D01*
X166515714Y-96917857D01*
X166587143Y-97060714D01*
X166658572Y-97132143D01*
X166801429Y-97203571D01*
X167087143Y-97203571D01*
X167230000Y-97132143D01*
X166015714Y-96203571D02*
X165658571Y-97203571D01*
X165301429Y-96203571D02*
X165658571Y-97203571D01*
X165801429Y-97560714D01*
X165872857Y-97632143D01*
X166015714Y-97703571D01*
X164730000Y-96632143D02*
X163587143Y-96632143D01*
X162944286Y-97132143D02*
X162801429Y-97203571D01*
X162515714Y-97203571D01*
X162372857Y-97132143D01*
X162301429Y-96989286D01*
X162301429Y-96917857D01*
X162372857Y-96775000D01*
X162515714Y-96703571D01*
X162730000Y-96703571D01*
X162872857Y-96632143D01*
X162944286Y-96489286D01*
X162944286Y-96417857D01*
X162872857Y-96275000D01*
X162730000Y-96203571D01*
X162515714Y-96203571D01*
X162372857Y-96275000D01*
X161015714Y-97203571D02*
X161015714Y-96417857D01*
X161087143Y-96275000D01*
X161230000Y-96203571D01*
X161515714Y-96203571D01*
X161658571Y-96275000D01*
X161015714Y-97132143D02*
X161158571Y-97203571D01*
X161515714Y-97203571D01*
X161658571Y-97132143D01*
X161730000Y-96989286D01*
X161730000Y-96846429D01*
X161658571Y-96703571D01*
X161515714Y-96632143D01*
X161158571Y-96632143D01*
X161015714Y-96560714D01*
X160301428Y-97060714D02*
X160230000Y-97132143D01*
X160301428Y-97203571D01*
X160372857Y-97132143D01*
X160301428Y-97060714D01*
X160301428Y-97203571D01*
X160301428Y-96275000D02*
X160230000Y-96346429D01*
X160301428Y-96417857D01*
X160372857Y-96346429D01*
X160301428Y-96275000D01*
X160301428Y-96417857D01*
X158658571Y-96203571D02*
X158087142Y-96203571D01*
X158444285Y-95703571D02*
X158444285Y-96989286D01*
X158372857Y-97132143D01*
X158229999Y-97203571D01*
X158087142Y-97203571D01*
X156944285Y-96203571D02*
X156944285Y-97203571D01*
X157587142Y-96203571D02*
X157587142Y-96989286D01*
X157515714Y-97132143D01*
X157372856Y-97203571D01*
X157158571Y-97203571D01*
X157015714Y-97132143D01*
X156944285Y-97060714D01*
X155587142Y-97132143D02*
X155729999Y-97203571D01*
X156015713Y-97203571D01*
X156158571Y-97132143D01*
X156229999Y-97060714D01*
X156301428Y-96917857D01*
X156301428Y-96489286D01*
X156229999Y-96346429D01*
X156158571Y-96275000D01*
X156015713Y-96203571D01*
X155729999Y-96203571D01*
X155587142Y-96275000D01*
X154944285Y-97203571D02*
X154944285Y-95703571D01*
X154301428Y-97203571D02*
X154301428Y-96417857D01*
X154372857Y-96275000D01*
X154515714Y-96203571D01*
X154729999Y-96203571D01*
X154872857Y-96275000D01*
X154944285Y-96346429D01*
X153372856Y-97203571D02*
X153515714Y-97132143D01*
X153587142Y-97060714D01*
X153658571Y-96917857D01*
X153658571Y-96489286D01*
X153587142Y-96346429D01*
X153515714Y-96275000D01*
X153372856Y-96203571D01*
X153158571Y-96203571D01*
X153015714Y-96275000D01*
X152944285Y-96346429D01*
X152872856Y-96489286D01*
X152872856Y-96917857D01*
X152944285Y-97060714D01*
X153015714Y-97132143D01*
X153158571Y-97203571D01*
X153372856Y-97203571D01*
X151087142Y-97203571D02*
X151087142Y-96203571D01*
X151087142Y-96346429D02*
X151015714Y-96275000D01*
X150872856Y-96203571D01*
X150658571Y-96203571D01*
X150515714Y-96275000D01*
X150444285Y-96417857D01*
X150444285Y-97203571D01*
X150444285Y-96417857D02*
X150372856Y-96275000D01*
X150229999Y-96203571D01*
X150015714Y-96203571D01*
X149872856Y-96275000D01*
X149801428Y-96417857D01*
X149801428Y-97203571D01*
X148515714Y-97132143D02*
X148658571Y-97203571D01*
X148944285Y-97203571D01*
X149087142Y-97132143D01*
X149158571Y-96989286D01*
X149158571Y-96417857D01*
X149087142Y-96275000D01*
X148944285Y-96203571D01*
X148658571Y-96203571D01*
X148515714Y-96275000D01*
X148444285Y-96417857D01*
X148444285Y-96560714D01*
X149158571Y-96703571D01*
X147801428Y-96203571D02*
X147801428Y-97203571D01*
X147801428Y-96346429D02*
X147730000Y-96275000D01*
X147587142Y-96203571D01*
X147372857Y-96203571D01*
X147230000Y-96275000D01*
X147158571Y-96417857D01*
X147158571Y-97203571D01*
X145801428Y-97203571D02*
X145801428Y-95703571D01*
X145801428Y-97132143D02*
X145944285Y-97203571D01*
X146229999Y-97203571D01*
X146372857Y-97132143D01*
X146444285Y-97060714D01*
X146515714Y-96917857D01*
X146515714Y-96489286D01*
X146444285Y-96346429D01*
X146372857Y-96275000D01*
X146229999Y-96203571D01*
X145944285Y-96203571D01*
X145801428Y-96275000D01*
X144515714Y-97132143D02*
X144658571Y-97203571D01*
X144944285Y-97203571D01*
X145087142Y-97132143D01*
X145158571Y-96989286D01*
X145158571Y-96417857D01*
X145087142Y-96275000D01*
X144944285Y-96203571D01*
X144658571Y-96203571D01*
X144515714Y-96275000D01*
X144444285Y-96417857D01*
X144444285Y-96560714D01*
X145158571Y-96703571D01*
X143944285Y-96203571D02*
X143158571Y-96203571D01*
X143944285Y-97203571D01*
X143158571Y-97203571D01*
D12*
X156255281Y-100304329D02*
G75*
G03X152710000Y-122750000I-45281J-11495671D01*
G01*
X152683616Y-122748246D02*
G75*
G02X153210000Y-123500000I-273616J-751754D01*
G01*
X156164719Y-100304329D02*
G75*
G02X159710000Y-122750000I45281J-11495671D01*
G01*
X159736384Y-122748246D02*
G75*
G03X159210000Y-123500000I273616J-751754D01*
G01*
X159210000Y-129200000D02*
X159210000Y-123500000D01*
X153210000Y-129200000D02*
X159210000Y-129200000D01*
X153210000Y-129200000D02*
X153210000Y-123500000D01*
D13*
X160438571Y-126214286D02*
X160486190Y-126357143D01*
X160533810Y-126404762D01*
X160629048Y-126452381D01*
X160771905Y-126452381D01*
X160867143Y-126404762D01*
X160914762Y-126357143D01*
X160962381Y-126261905D01*
X160962381Y-125880952D01*
X159962381Y-125880952D01*
X159962381Y-126214286D01*
X160010000Y-126309524D01*
X160057619Y-126357143D01*
X160152857Y-126404762D01*
X160248095Y-126404762D01*
X160343333Y-126357143D01*
X160390952Y-126309524D01*
X160438571Y-126214286D01*
X160438571Y-125880952D01*
X159962381Y-126738095D02*
X159962381Y-127309524D01*
X160962381Y-127023809D02*
X159962381Y-127023809D01*
X160962381Y-128166667D02*
X160962381Y-127595238D01*
X160962381Y-127880952D02*
X159962381Y-127880952D01*
X160105238Y-127785714D01*
X160200476Y-127690476D01*
X160248095Y-127595238D01*
X156317143Y-123678572D02*
X156317143Y-124821429D01*
X156888571Y-124250000D02*
X155745714Y-124250000D01*
M02*
