G04 #@! TF.FileFunction,Soldermask,Top*
%FSLAX46Y46*%
G04 Gerber Fmt 4.6, Leading zero omitted, Abs format (unit mm)*
G04 Created by KiCad (PCBNEW 4.0.7-e2-6376~58~ubuntu17.04.1) date Thu Jun  7 00:03:39 2018*
%MOMM*%
%LPD*%
G01*
G04 APERTURE LIST*
%ADD10C,0.100000*%
%ADD11C,3.000000*%
%ADD12R,3.000000X3.000000*%
%ADD13R,1.600000X1.600000*%
%ADD14O,1.600000X1.600000*%
%ADD15C,1.600000*%
%ADD16R,1.800000X1.800000*%
%ADD17C,1.800000*%
%ADD18R,1.700000X1.700000*%
%ADD19O,1.700000X1.700000*%
%ADD20C,2.000000*%
%ADD21C,1.524000*%
%ADD22C,4.064000*%
G04 APERTURE END LIST*
D10*
D11*
X169080000Y-111760000D03*
D12*
X148590000Y-111760000D03*
D13*
X140970000Y-124460000D03*
D14*
X148590000Y-116840000D03*
X143510000Y-124460000D03*
X146050000Y-116840000D03*
X146050000Y-124460000D03*
X143510000Y-116840000D03*
X148590000Y-124460000D03*
X140970000Y-116840000D03*
D13*
X139700000Y-105410000D03*
D15*
X139700000Y-102910000D03*
D16*
X163830000Y-95250000D03*
D17*
X166370000Y-95250000D03*
D16*
X154940000Y-95250000D03*
D17*
X157480000Y-95250000D03*
D16*
X146050000Y-95250000D03*
D17*
X148590000Y-95250000D03*
D18*
X168910000Y-121920000D03*
D19*
X166370000Y-121920000D03*
X163830000Y-121920000D03*
X161290000Y-121920000D03*
X158750000Y-121920000D03*
X156210000Y-121920000D03*
D15*
X157480000Y-116840000D03*
D14*
X165100000Y-116840000D03*
D15*
X173990000Y-106680000D03*
D14*
X173990000Y-99060000D03*
D15*
X170180000Y-107950000D03*
D14*
X170180000Y-100330000D03*
D15*
X166370000Y-109220000D03*
D14*
X166370000Y-101600000D03*
D20*
X160020000Y-104720000D03*
X160020000Y-109220000D03*
X153520000Y-104720000D03*
X153520000Y-109220000D03*
D21*
X144780000Y-110490000D03*
X142240000Y-110490000D03*
X139700000Y-110490000D03*
D22*
X138430000Y-93980000D03*
X138430000Y-129540000D03*
X173990000Y-129540000D03*
X173990000Y-93980000D03*
M02*
