G04 #@! TF.FileFunction,Copper,L1,Top,Signal*
%FSLAX46Y46*%
G04 Gerber Fmt 4.6, Leading zero omitted, Abs format (unit mm)*
G04 Created by KiCad (PCBNEW 4.0.7-e2-6376~61~ubuntu18.04.1) date Mon Jul  2 18:50:52 2018*
%MOMM*%
%LPD*%
G01*
G04 APERTURE LIST*
%ADD10C,0.100000*%
%ADD11C,3.000000*%
%ADD12R,3.000000X3.000000*%
%ADD13R,1.600000X1.600000*%
%ADD14O,1.600000X1.600000*%
%ADD15R,1.800000X1.800000*%
%ADD16C,1.800000*%
%ADD17R,1.700000X1.700000*%
%ADD18O,1.700000X1.700000*%
%ADD19C,1.600000*%
%ADD20C,2.000000*%
%ADD21C,1.524000*%
%ADD22C,0.400000*%
%ADD23C,0.250000*%
%ADD24C,0.254000*%
G04 APERTURE END LIST*
D10*
D11*
X169080000Y-111760000D03*
D12*
X148590000Y-111760000D03*
D13*
X140970000Y-124460000D03*
D14*
X148590000Y-116840000D03*
X143510000Y-124460000D03*
X146050000Y-116840000D03*
X146050000Y-124460000D03*
X143510000Y-116840000D03*
X148590000Y-124460000D03*
X140970000Y-116840000D03*
D15*
X163830000Y-95250000D03*
D16*
X166370000Y-95250000D03*
D15*
X154940000Y-95250000D03*
D16*
X157480000Y-95250000D03*
D15*
X146050000Y-95250000D03*
D16*
X148590000Y-95250000D03*
D17*
X168910000Y-121920000D03*
D18*
X166370000Y-121920000D03*
X163830000Y-121920000D03*
X161290000Y-121920000D03*
X158750000Y-121920000D03*
X156210000Y-121920000D03*
D19*
X157480000Y-114300000D03*
D14*
X165100000Y-114300000D03*
D19*
X173990000Y-106680000D03*
D14*
X173990000Y-99060000D03*
D19*
X170180000Y-107950000D03*
D14*
X170180000Y-100330000D03*
D19*
X166370000Y-109220000D03*
D14*
X166370000Y-101600000D03*
D20*
X160020000Y-104720000D03*
X160020000Y-109220000D03*
X153520000Y-104720000D03*
X153520000Y-109220000D03*
D21*
X144780000Y-110490000D03*
X142240000Y-110490000D03*
X139700000Y-110490000D03*
D17*
X146050000Y-105410000D03*
D18*
X146050000Y-102870000D03*
X146050000Y-100330000D03*
D22*
X150495000Y-104775000D02*
X150495000Y-104720000D01*
X148590000Y-102870000D02*
X150495000Y-104775000D01*
X146050000Y-102870000D02*
X148590000Y-102870000D01*
X150495000Y-104720000D02*
X150550000Y-104720000D01*
X156210000Y-121920000D02*
X154940000Y-120650000D01*
X156210000Y-106680000D02*
X154250000Y-104720000D01*
X156210000Y-110490000D02*
X156210000Y-106680000D01*
X154940000Y-111760000D02*
X156210000Y-110490000D01*
X154940000Y-120650000D02*
X154940000Y-111760000D01*
X154250000Y-104720000D02*
X153520000Y-104720000D01*
D23*
X153520000Y-105260000D02*
X153520000Y-104720000D01*
D22*
X153520000Y-104720000D02*
X150495000Y-104720000D01*
X150550000Y-104720000D02*
X144780000Y-110490000D01*
X140970000Y-116840000D02*
X140970000Y-114300000D01*
X140970000Y-114300000D02*
X144780000Y-110490000D01*
X173990000Y-99060000D02*
X171450000Y-99060000D01*
X171450000Y-99060000D02*
X167640000Y-95250000D01*
X167640000Y-95250000D02*
X166370000Y-95250000D01*
X170180000Y-100330000D02*
X167640000Y-97790000D01*
X160020000Y-97790000D02*
X157480000Y-95250000D01*
X167640000Y-97790000D02*
X160020000Y-97790000D01*
X166370000Y-101600000D02*
X163830000Y-99060000D01*
X152400000Y-99060000D02*
X148590000Y-95250000D01*
X163830000Y-99060000D02*
X152400000Y-99060000D01*
X140970000Y-124460000D02*
X143510000Y-127000000D01*
X143510000Y-127000000D02*
X161290000Y-127000000D01*
X161290000Y-127000000D02*
X166370000Y-121920000D01*
X163830000Y-121920000D02*
X166370000Y-119380000D01*
X173990000Y-116840000D02*
X173990000Y-106680000D01*
X171450000Y-119380000D02*
X173990000Y-116840000D01*
X166370000Y-119380000D02*
X171450000Y-119380000D01*
X161290000Y-121920000D02*
X165100000Y-118110000D01*
X172720000Y-110490000D02*
X170180000Y-107950000D01*
X172720000Y-115570000D02*
X172720000Y-110490000D01*
X170180000Y-118110000D02*
X172720000Y-115570000D01*
X165100000Y-118110000D02*
X170180000Y-118110000D01*
X158750000Y-121920000D02*
X158750000Y-116840000D01*
X158750000Y-116840000D02*
X166370000Y-109220000D01*
X157480000Y-114300000D02*
X157480000Y-111760000D01*
X157480000Y-111760000D02*
X160020000Y-109220000D01*
X143510000Y-124460000D02*
X143510000Y-123190000D01*
X143510000Y-123190000D02*
X147320000Y-119380000D01*
X147320000Y-119380000D02*
X151130000Y-119380000D01*
X151130000Y-119380000D02*
X153520000Y-116990000D01*
X153520000Y-116990000D02*
X153520000Y-109220000D01*
D24*
G36*
X175180749Y-91105275D02*
X176190219Y-91779781D01*
X176864725Y-92789249D01*
X177115000Y-94047466D01*
X177115000Y-129472534D01*
X176864725Y-130730751D01*
X176190219Y-131740219D01*
X175180749Y-132414725D01*
X173922533Y-132665000D01*
X138497466Y-132665000D01*
X137239249Y-132414725D01*
X136229781Y-131740219D01*
X135555275Y-130730749D01*
X135406463Y-129982619D01*
X136194613Y-129982619D01*
X136534155Y-130804372D01*
X137162321Y-131433636D01*
X137983481Y-131774611D01*
X138872619Y-131775387D01*
X139694372Y-131435845D01*
X140323636Y-130807679D01*
X140664611Y-129986519D01*
X140664614Y-129982619D01*
X171754613Y-129982619D01*
X172094155Y-130804372D01*
X172722321Y-131433636D01*
X173543481Y-131774611D01*
X174432619Y-131775387D01*
X175254372Y-131435845D01*
X175883636Y-130807679D01*
X176224611Y-129986519D01*
X176225387Y-129097381D01*
X175885845Y-128275628D01*
X175257679Y-127646364D01*
X174436519Y-127305389D01*
X173547381Y-127304613D01*
X172725628Y-127644155D01*
X172096364Y-128272321D01*
X171755389Y-129093481D01*
X171754613Y-129982619D01*
X140664614Y-129982619D01*
X140665387Y-129097381D01*
X140325845Y-128275628D01*
X139697679Y-127646364D01*
X138876519Y-127305389D01*
X137987381Y-127304613D01*
X137165628Y-127644155D01*
X136536364Y-128272321D01*
X136195389Y-129093481D01*
X136194613Y-129982619D01*
X135406463Y-129982619D01*
X135305000Y-129472533D01*
X135305000Y-110766661D01*
X138302758Y-110766661D01*
X138514990Y-111280303D01*
X138907630Y-111673629D01*
X139420900Y-111886757D01*
X139976661Y-111887242D01*
X140490303Y-111675010D01*
X140883629Y-111282370D01*
X140969949Y-111074488D01*
X141054990Y-111280303D01*
X141447630Y-111673629D01*
X141960900Y-111886757D01*
X142202164Y-111886968D01*
X140379566Y-113709566D01*
X140198561Y-113980459D01*
X140135000Y-114300000D01*
X140135000Y-115677118D01*
X139955302Y-115797189D01*
X139644233Y-116262736D01*
X139535000Y-116811887D01*
X139535000Y-116868113D01*
X139644233Y-117417264D01*
X139955302Y-117882811D01*
X140420849Y-118193880D01*
X140970000Y-118303113D01*
X141519151Y-118193880D01*
X141984698Y-117882811D01*
X142240000Y-117500725D01*
X142495302Y-117882811D01*
X142960849Y-118193880D01*
X143510000Y-118303113D01*
X144059151Y-118193880D01*
X144524698Y-117882811D01*
X144780000Y-117500725D01*
X145035302Y-117882811D01*
X145500849Y-118193880D01*
X146050000Y-118303113D01*
X146599151Y-118193880D01*
X147064698Y-117882811D01*
X147320000Y-117500725D01*
X147575302Y-117882811D01*
X148040849Y-118193880D01*
X148590000Y-118303113D01*
X149139151Y-118193880D01*
X149604698Y-117882811D01*
X149915767Y-117417264D01*
X150025000Y-116868113D01*
X150025000Y-116811887D01*
X149915767Y-116262736D01*
X149604698Y-115797189D01*
X149139151Y-115486120D01*
X148590000Y-115376887D01*
X148040849Y-115486120D01*
X147575302Y-115797189D01*
X147320000Y-116179275D01*
X147064698Y-115797189D01*
X146599151Y-115486120D01*
X146050000Y-115376887D01*
X145500849Y-115486120D01*
X145035302Y-115797189D01*
X144780000Y-116179275D01*
X144524698Y-115797189D01*
X144059151Y-115486120D01*
X143510000Y-115376887D01*
X142960849Y-115486120D01*
X142495302Y-115797189D01*
X142240000Y-116179275D01*
X141984698Y-115797189D01*
X141805000Y-115677118D01*
X141805000Y-114645868D01*
X144564056Y-111886812D01*
X145056661Y-111887242D01*
X145570303Y-111675010D01*
X145963629Y-111282370D01*
X146176757Y-110769100D01*
X146177189Y-110273679D01*
X146603182Y-109847686D01*
X146493569Y-110008110D01*
X146442560Y-110260000D01*
X146442560Y-113260000D01*
X146486838Y-113495317D01*
X146625910Y-113711441D01*
X146838110Y-113856431D01*
X147090000Y-113907440D01*
X150090000Y-113907440D01*
X150325317Y-113863162D01*
X150541441Y-113724090D01*
X150686431Y-113511890D01*
X150737440Y-113260000D01*
X150737440Y-110260000D01*
X150693162Y-110024683D01*
X150554090Y-109808559D01*
X150341890Y-109663569D01*
X150090000Y-109612560D01*
X147090000Y-109612560D01*
X146854683Y-109656838D01*
X146684557Y-109766311D01*
X150895868Y-105555000D01*
X152095942Y-105555000D01*
X152133106Y-105644943D01*
X152592637Y-106105278D01*
X153193352Y-106354716D01*
X153843795Y-106355284D01*
X154444943Y-106106894D01*
X154450489Y-106101357D01*
X155375000Y-107025868D01*
X155375000Y-110144132D01*
X154355000Y-111164132D01*
X154355000Y-110644058D01*
X154444943Y-110606894D01*
X154905278Y-110147363D01*
X155154716Y-109546648D01*
X155155284Y-108896205D01*
X154906894Y-108295057D01*
X154447363Y-107834722D01*
X153846648Y-107585284D01*
X153196205Y-107584716D01*
X152595057Y-107833106D01*
X152134722Y-108292637D01*
X151885284Y-108893352D01*
X151884716Y-109543795D01*
X152133106Y-110144943D01*
X152592637Y-110605278D01*
X152685000Y-110643630D01*
X152685000Y-116644132D01*
X150784132Y-118545000D01*
X147320000Y-118545000D01*
X147000460Y-118608560D01*
X146729566Y-118789566D01*
X142919566Y-122599566D01*
X142738561Y-122870459D01*
X142675000Y-123190000D01*
X142675000Y-123297118D01*
X142495302Y-123417189D01*
X142398899Y-123561465D01*
X142373162Y-123424683D01*
X142234090Y-123208559D01*
X142021890Y-123063569D01*
X141770000Y-123012560D01*
X140170000Y-123012560D01*
X139934683Y-123056838D01*
X139718559Y-123195910D01*
X139573569Y-123408110D01*
X139522560Y-123660000D01*
X139522560Y-125260000D01*
X139566838Y-125495317D01*
X139705910Y-125711441D01*
X139918110Y-125856431D01*
X140170000Y-125907440D01*
X141236572Y-125907440D01*
X142919566Y-127590434D01*
X143190459Y-127771439D01*
X143510000Y-127835000D01*
X161290000Y-127835000D01*
X161609541Y-127771439D01*
X161880434Y-127590434D01*
X166092061Y-123378807D01*
X166370000Y-123434093D01*
X166938285Y-123321054D01*
X167420054Y-122999147D01*
X167449403Y-122955223D01*
X167521673Y-123129698D01*
X167700301Y-123308327D01*
X167933690Y-123405000D01*
X168624250Y-123405000D01*
X168783000Y-123246250D01*
X168783000Y-122047000D01*
X169037000Y-122047000D01*
X169037000Y-123246250D01*
X169195750Y-123405000D01*
X169886310Y-123405000D01*
X170119699Y-123308327D01*
X170298327Y-123129698D01*
X170395000Y-122896309D01*
X170395000Y-122205750D01*
X170236250Y-122047000D01*
X169037000Y-122047000D01*
X168783000Y-122047000D01*
X168763000Y-122047000D01*
X168763000Y-121793000D01*
X168783000Y-121793000D01*
X168783000Y-120593750D01*
X169037000Y-120593750D01*
X169037000Y-121793000D01*
X170236250Y-121793000D01*
X170395000Y-121634250D01*
X170395000Y-120943691D01*
X170298327Y-120710302D01*
X170119699Y-120531673D01*
X169886310Y-120435000D01*
X169195750Y-120435000D01*
X169037000Y-120593750D01*
X168783000Y-120593750D01*
X168624250Y-120435000D01*
X167933690Y-120435000D01*
X167700301Y-120531673D01*
X167521673Y-120710302D01*
X167449403Y-120884777D01*
X167420054Y-120840853D01*
X166938285Y-120518946D01*
X166499251Y-120431617D01*
X166715868Y-120215000D01*
X171450000Y-120215000D01*
X171769541Y-120151439D01*
X172040434Y-119970434D01*
X174580434Y-117430434D01*
X174589234Y-117417264D01*
X174761439Y-117159541D01*
X174825000Y-116840000D01*
X174825000Y-107874083D01*
X175205824Y-107493923D01*
X175424750Y-106966691D01*
X175425248Y-106395813D01*
X175207243Y-105868200D01*
X174803923Y-105464176D01*
X174276691Y-105245250D01*
X173705813Y-105244752D01*
X173178200Y-105462757D01*
X172774176Y-105866077D01*
X172555250Y-106393309D01*
X172554752Y-106964187D01*
X172772757Y-107491800D01*
X173155000Y-107874710D01*
X173155000Y-109744132D01*
X171614779Y-108203911D01*
X171615248Y-107665813D01*
X171397243Y-107138200D01*
X170993923Y-106734176D01*
X170466691Y-106515250D01*
X169895813Y-106514752D01*
X169368200Y-106732757D01*
X168964176Y-107136077D01*
X168745250Y-107663309D01*
X168744752Y-108234187D01*
X168962757Y-108761800D01*
X169366077Y-109165824D01*
X169893309Y-109384750D01*
X170434354Y-109385222D01*
X171885000Y-110835868D01*
X171885000Y-115224132D01*
X169834132Y-117275000D01*
X165100000Y-117275000D01*
X164780460Y-117338560D01*
X164509566Y-117519566D01*
X161567939Y-120461193D01*
X161290000Y-120405907D01*
X160721715Y-120518946D01*
X160239946Y-120840853D01*
X160020000Y-121170026D01*
X159800054Y-120840853D01*
X159585000Y-120697159D01*
X159585000Y-117185868D01*
X162121829Y-114649039D01*
X163708096Y-114649039D01*
X163868959Y-115037423D01*
X164244866Y-115452389D01*
X164750959Y-115691914D01*
X164973000Y-115570629D01*
X164973000Y-114427000D01*
X165227000Y-114427000D01*
X165227000Y-115570629D01*
X165449041Y-115691914D01*
X165955134Y-115452389D01*
X166331041Y-115037423D01*
X166491904Y-114649039D01*
X166369915Y-114427000D01*
X165227000Y-114427000D01*
X164973000Y-114427000D01*
X163830085Y-114427000D01*
X163708096Y-114649039D01*
X162121829Y-114649039D01*
X162819907Y-113950961D01*
X163708096Y-113950961D01*
X163830085Y-114173000D01*
X164973000Y-114173000D01*
X164973000Y-113029371D01*
X165227000Y-113029371D01*
X165227000Y-114173000D01*
X166369915Y-114173000D01*
X166491904Y-113950961D01*
X166331041Y-113562577D01*
X166069600Y-113273970D01*
X167745635Y-113273970D01*
X167905418Y-113592739D01*
X168696187Y-113902723D01*
X169545387Y-113886497D01*
X170254582Y-113592739D01*
X170414365Y-113273970D01*
X169080000Y-111939605D01*
X167745635Y-113273970D01*
X166069600Y-113273970D01*
X165955134Y-113147611D01*
X165449041Y-112908086D01*
X165227000Y-113029371D01*
X164973000Y-113029371D01*
X164750959Y-112908086D01*
X164244866Y-113147611D01*
X163868959Y-113562577D01*
X163708096Y-113950961D01*
X162819907Y-113950961D01*
X165394681Y-111376187D01*
X166937277Y-111376187D01*
X166953503Y-112225387D01*
X167247261Y-112934582D01*
X167566030Y-113094365D01*
X168900395Y-111760000D01*
X169259605Y-111760000D01*
X170593970Y-113094365D01*
X170912739Y-112934582D01*
X171222723Y-112143813D01*
X171206497Y-111294613D01*
X170912739Y-110585418D01*
X170593970Y-110425635D01*
X169259605Y-111760000D01*
X168900395Y-111760000D01*
X167566030Y-110425635D01*
X167247261Y-110585418D01*
X166937277Y-111376187D01*
X165394681Y-111376187D01*
X166116089Y-110654779D01*
X166654187Y-110655248D01*
X167181800Y-110437243D01*
X167373346Y-110246030D01*
X167745635Y-110246030D01*
X169080000Y-111580395D01*
X170414365Y-110246030D01*
X170254582Y-109927261D01*
X169463813Y-109617277D01*
X168614613Y-109633503D01*
X167905418Y-109927261D01*
X167745635Y-110246030D01*
X167373346Y-110246030D01*
X167585824Y-110033923D01*
X167804750Y-109506691D01*
X167805248Y-108935813D01*
X167587243Y-108408200D01*
X167183923Y-108004176D01*
X166656691Y-107785250D01*
X166085813Y-107784752D01*
X165558200Y-108002757D01*
X165154176Y-108406077D01*
X164935250Y-108933309D01*
X164934778Y-109474354D01*
X158159566Y-116249566D01*
X157978561Y-116520459D01*
X157915000Y-116840000D01*
X157915000Y-120697159D01*
X157699946Y-120840853D01*
X157480000Y-121170026D01*
X157260054Y-120840853D01*
X156778285Y-120518946D01*
X156210000Y-120405907D01*
X155932061Y-120461193D01*
X155775000Y-120304132D01*
X155775000Y-114584187D01*
X156044752Y-114584187D01*
X156262757Y-115111800D01*
X156666077Y-115515824D01*
X157193309Y-115734750D01*
X157764187Y-115735248D01*
X158291800Y-115517243D01*
X158695824Y-115113923D01*
X158914750Y-114586691D01*
X158915248Y-114015813D01*
X158697243Y-113488200D01*
X158315000Y-113105290D01*
X158315000Y-112105868D01*
X159603473Y-110817395D01*
X159693352Y-110854716D01*
X160343795Y-110855284D01*
X160944943Y-110606894D01*
X161405278Y-110147363D01*
X161654716Y-109546648D01*
X161655284Y-108896205D01*
X161406894Y-108295057D01*
X160947363Y-107834722D01*
X160346648Y-107585284D01*
X159696205Y-107584716D01*
X159095057Y-107833106D01*
X158634722Y-108292637D01*
X158385284Y-108893352D01*
X158384716Y-109543795D01*
X158422907Y-109636225D01*
X156889566Y-111169566D01*
X156708561Y-111440459D01*
X156645000Y-111760000D01*
X156645000Y-113105917D01*
X156264176Y-113486077D01*
X156045250Y-114013309D01*
X156044752Y-114584187D01*
X155775000Y-114584187D01*
X155775000Y-112105868D01*
X156800434Y-111080434D01*
X156981439Y-110809541D01*
X157045000Y-110490000D01*
X157045000Y-106680000D01*
X157012130Y-106514752D01*
X156981440Y-106360460D01*
X156800434Y-106089566D01*
X155754663Y-105043795D01*
X158384716Y-105043795D01*
X158633106Y-105644943D01*
X159092637Y-106105278D01*
X159693352Y-106354716D01*
X160343795Y-106355284D01*
X160944943Y-106106894D01*
X161405278Y-105647363D01*
X161654716Y-105046648D01*
X161655284Y-104396205D01*
X161406894Y-103795057D01*
X160947363Y-103334722D01*
X160346648Y-103085284D01*
X159696205Y-103084716D01*
X159095057Y-103333106D01*
X158634722Y-103792637D01*
X158385284Y-104393352D01*
X158384716Y-105043795D01*
X155754663Y-105043795D01*
X155155242Y-104444374D01*
X155155284Y-104396205D01*
X154906894Y-103795057D01*
X154447363Y-103334722D01*
X153846648Y-103085284D01*
X153196205Y-103084716D01*
X152595057Y-103333106D01*
X152134722Y-103792637D01*
X152096370Y-103885000D01*
X150785868Y-103885000D01*
X149180434Y-102279566D01*
X148909541Y-102098561D01*
X148590000Y-102035000D01*
X147272841Y-102035000D01*
X147129147Y-101819946D01*
X146799974Y-101600000D01*
X147129147Y-101380054D01*
X147451054Y-100898285D01*
X147564093Y-100330000D01*
X147451054Y-99761715D01*
X147129147Y-99279946D01*
X146647378Y-98958039D01*
X146079093Y-98845000D01*
X146020907Y-98845000D01*
X145452622Y-98958039D01*
X144970853Y-99279946D01*
X144648946Y-99761715D01*
X144535907Y-100330000D01*
X144648946Y-100898285D01*
X144970853Y-101380054D01*
X145300026Y-101600000D01*
X144970853Y-101819946D01*
X144648946Y-102301715D01*
X144535907Y-102870000D01*
X144648946Y-103438285D01*
X144970853Y-103920054D01*
X145014777Y-103949403D01*
X144840302Y-104021673D01*
X144661673Y-104200301D01*
X144565000Y-104433690D01*
X144565000Y-105124250D01*
X144723750Y-105283000D01*
X145923000Y-105283000D01*
X145923000Y-105263000D01*
X146177000Y-105263000D01*
X146177000Y-105283000D01*
X147376250Y-105283000D01*
X147535000Y-105124250D01*
X147535000Y-104433690D01*
X147438327Y-104200301D01*
X147259698Y-104021673D01*
X147085223Y-103949403D01*
X147129147Y-103920054D01*
X147272841Y-103705000D01*
X148244132Y-103705000D01*
X149314132Y-104775000D01*
X144995944Y-109093188D01*
X144503339Y-109092758D01*
X143989697Y-109304990D01*
X143596371Y-109697630D01*
X143510051Y-109905512D01*
X143425010Y-109699697D01*
X143032370Y-109306371D01*
X142519100Y-109093243D01*
X141963339Y-109092758D01*
X141449697Y-109304990D01*
X141056371Y-109697630D01*
X140970051Y-109905512D01*
X140885010Y-109699697D01*
X140492370Y-109306371D01*
X139979100Y-109093243D01*
X139423339Y-109092758D01*
X138909697Y-109304990D01*
X138516371Y-109697630D01*
X138303243Y-110210900D01*
X138302758Y-110766661D01*
X135305000Y-110766661D01*
X135305000Y-105695750D01*
X144565000Y-105695750D01*
X144565000Y-106386310D01*
X144661673Y-106619699D01*
X144840302Y-106798327D01*
X145073691Y-106895000D01*
X145764250Y-106895000D01*
X145923000Y-106736250D01*
X145923000Y-105537000D01*
X146177000Y-105537000D01*
X146177000Y-106736250D01*
X146335750Y-106895000D01*
X147026309Y-106895000D01*
X147259698Y-106798327D01*
X147438327Y-106619699D01*
X147535000Y-106386310D01*
X147535000Y-105695750D01*
X147376250Y-105537000D01*
X146177000Y-105537000D01*
X145923000Y-105537000D01*
X144723750Y-105537000D01*
X144565000Y-105695750D01*
X135305000Y-105695750D01*
X135305000Y-94422619D01*
X136194613Y-94422619D01*
X136534155Y-95244372D01*
X137162321Y-95873636D01*
X137983481Y-96214611D01*
X138872619Y-96215387D01*
X139694372Y-95875845D01*
X140035061Y-95535750D01*
X144515000Y-95535750D01*
X144515000Y-96276310D01*
X144611673Y-96509699D01*
X144790302Y-96688327D01*
X145023691Y-96785000D01*
X145764250Y-96785000D01*
X145923000Y-96626250D01*
X145923000Y-95377000D01*
X144673750Y-95377000D01*
X144515000Y-95535750D01*
X140035061Y-95535750D01*
X140323636Y-95247679D01*
X140664611Y-94426519D01*
X140664788Y-94223690D01*
X144515000Y-94223690D01*
X144515000Y-94964250D01*
X144673750Y-95123000D01*
X145923000Y-95123000D01*
X145923000Y-93873750D01*
X146177000Y-93873750D01*
X146177000Y-95123000D01*
X146197000Y-95123000D01*
X146197000Y-95377000D01*
X146177000Y-95377000D01*
X146177000Y-96626250D01*
X146335750Y-96785000D01*
X147076309Y-96785000D01*
X147309698Y-96688327D01*
X147488327Y-96509699D01*
X147544119Y-96375006D01*
X147719357Y-96550551D01*
X148283330Y-96784733D01*
X148893991Y-96785265D01*
X148929659Y-96770527D01*
X151809566Y-99650434D01*
X152080460Y-99831440D01*
X152400000Y-99895000D01*
X163484132Y-99895000D01*
X164972499Y-101383367D01*
X164935000Y-101571887D01*
X164935000Y-101628113D01*
X165044233Y-102177264D01*
X165355302Y-102642811D01*
X165820849Y-102953880D01*
X166370000Y-103063113D01*
X166919151Y-102953880D01*
X167384698Y-102642811D01*
X167695767Y-102177264D01*
X167805000Y-101628113D01*
X167805000Y-101571887D01*
X167695767Y-101022736D01*
X167384698Y-100557189D01*
X166919151Y-100246120D01*
X166370000Y-100136887D01*
X166134582Y-100183714D01*
X164575868Y-98625000D01*
X167294132Y-98625000D01*
X168782499Y-100113367D01*
X168745000Y-100301887D01*
X168745000Y-100358113D01*
X168854233Y-100907264D01*
X169165302Y-101372811D01*
X169630849Y-101683880D01*
X170180000Y-101793113D01*
X170729151Y-101683880D01*
X171194698Y-101372811D01*
X171505767Y-100907264D01*
X171615000Y-100358113D01*
X171615000Y-100301887D01*
X171534065Y-99895000D01*
X172836447Y-99895000D01*
X172975302Y-100102811D01*
X173440849Y-100413880D01*
X173990000Y-100523113D01*
X174539151Y-100413880D01*
X175004698Y-100102811D01*
X175315767Y-99637264D01*
X175425000Y-99088113D01*
X175425000Y-99031887D01*
X175315767Y-98482736D01*
X175004698Y-98017189D01*
X174539151Y-97706120D01*
X173990000Y-97596887D01*
X173440849Y-97706120D01*
X172975302Y-98017189D01*
X172836447Y-98225000D01*
X171795868Y-98225000D01*
X168230434Y-94659566D01*
X168218867Y-94651837D01*
X167959541Y-94478561D01*
X167689963Y-94424938D01*
X167689005Y-94422619D01*
X171754613Y-94422619D01*
X172094155Y-95244372D01*
X172722321Y-95873636D01*
X173543481Y-96214611D01*
X174432619Y-96215387D01*
X175254372Y-95875845D01*
X175883636Y-95247679D01*
X176224611Y-94426519D01*
X176225387Y-93537381D01*
X175885845Y-92715628D01*
X175257679Y-92086364D01*
X174436519Y-91745389D01*
X173547381Y-91744613D01*
X172725628Y-92084155D01*
X172096364Y-92712321D01*
X171755389Y-93533481D01*
X171754613Y-94422619D01*
X167689005Y-94422619D01*
X167672068Y-94381629D01*
X167240643Y-93949449D01*
X166676670Y-93715267D01*
X166066009Y-93714735D01*
X165501629Y-93947932D01*
X165324159Y-94125092D01*
X165268327Y-93990301D01*
X165089698Y-93811673D01*
X164856309Y-93715000D01*
X164115750Y-93715000D01*
X163957000Y-93873750D01*
X163957000Y-95123000D01*
X163977000Y-95123000D01*
X163977000Y-95377000D01*
X163957000Y-95377000D01*
X163957000Y-96626250D01*
X164115750Y-96785000D01*
X164856309Y-96785000D01*
X165089698Y-96688327D01*
X165268327Y-96509699D01*
X165324119Y-96375006D01*
X165499357Y-96550551D01*
X166063330Y-96784733D01*
X166673991Y-96785265D01*
X167238371Y-96552068D01*
X167500014Y-96290882D01*
X170093271Y-98884139D01*
X169944582Y-98913714D01*
X168230434Y-97199566D01*
X167959541Y-97018561D01*
X167640000Y-96955000D01*
X160365868Y-96955000D01*
X159000886Y-95590018D01*
X159014733Y-95556670D01*
X159014751Y-95535750D01*
X162295000Y-95535750D01*
X162295000Y-96276310D01*
X162391673Y-96509699D01*
X162570302Y-96688327D01*
X162803691Y-96785000D01*
X163544250Y-96785000D01*
X163703000Y-96626250D01*
X163703000Y-95377000D01*
X162453750Y-95377000D01*
X162295000Y-95535750D01*
X159014751Y-95535750D01*
X159015265Y-94946009D01*
X158782068Y-94381629D01*
X158624405Y-94223690D01*
X162295000Y-94223690D01*
X162295000Y-94964250D01*
X162453750Y-95123000D01*
X163703000Y-95123000D01*
X163703000Y-93873750D01*
X163544250Y-93715000D01*
X162803691Y-93715000D01*
X162570302Y-93811673D01*
X162391673Y-93990301D01*
X162295000Y-94223690D01*
X158624405Y-94223690D01*
X158350643Y-93949449D01*
X157786670Y-93715267D01*
X157176009Y-93714735D01*
X156611629Y-93947932D01*
X156434159Y-94125092D01*
X156378327Y-93990301D01*
X156199698Y-93811673D01*
X155966309Y-93715000D01*
X155225750Y-93715000D01*
X155067000Y-93873750D01*
X155067000Y-95123000D01*
X155087000Y-95123000D01*
X155087000Y-95377000D01*
X155067000Y-95377000D01*
X155067000Y-96626250D01*
X155225750Y-96785000D01*
X155966309Y-96785000D01*
X156199698Y-96688327D01*
X156378327Y-96509699D01*
X156434119Y-96375006D01*
X156609357Y-96550551D01*
X157173330Y-96784733D01*
X157783991Y-96785265D01*
X157819659Y-96770527D01*
X159274132Y-98225000D01*
X152745868Y-98225000D01*
X150110886Y-95590018D01*
X150124733Y-95556670D01*
X150124751Y-95535750D01*
X153405000Y-95535750D01*
X153405000Y-96276310D01*
X153501673Y-96509699D01*
X153680302Y-96688327D01*
X153913691Y-96785000D01*
X154654250Y-96785000D01*
X154813000Y-96626250D01*
X154813000Y-95377000D01*
X153563750Y-95377000D01*
X153405000Y-95535750D01*
X150124751Y-95535750D01*
X150125265Y-94946009D01*
X149892068Y-94381629D01*
X149734405Y-94223690D01*
X153405000Y-94223690D01*
X153405000Y-94964250D01*
X153563750Y-95123000D01*
X154813000Y-95123000D01*
X154813000Y-93873750D01*
X154654250Y-93715000D01*
X153913691Y-93715000D01*
X153680302Y-93811673D01*
X153501673Y-93990301D01*
X153405000Y-94223690D01*
X149734405Y-94223690D01*
X149460643Y-93949449D01*
X148896670Y-93715267D01*
X148286009Y-93714735D01*
X147721629Y-93947932D01*
X147544159Y-94125092D01*
X147488327Y-93990301D01*
X147309698Y-93811673D01*
X147076309Y-93715000D01*
X146335750Y-93715000D01*
X146177000Y-93873750D01*
X145923000Y-93873750D01*
X145764250Y-93715000D01*
X145023691Y-93715000D01*
X144790302Y-93811673D01*
X144611673Y-93990301D01*
X144515000Y-94223690D01*
X140664788Y-94223690D01*
X140665387Y-93537381D01*
X140325845Y-92715628D01*
X139697679Y-92086364D01*
X138876519Y-91745389D01*
X137987381Y-91744613D01*
X137165628Y-92084155D01*
X136536364Y-92712321D01*
X136195389Y-93533481D01*
X136194613Y-94422619D01*
X135305000Y-94422619D01*
X135305000Y-94047467D01*
X135555275Y-92789251D01*
X136229781Y-91779781D01*
X137239249Y-91105275D01*
X138497466Y-90855000D01*
X173922533Y-90855000D01*
X175180749Y-91105275D01*
X175180749Y-91105275D01*
G37*
X175180749Y-91105275D02*
X176190219Y-91779781D01*
X176864725Y-92789249D01*
X177115000Y-94047466D01*
X177115000Y-129472534D01*
X176864725Y-130730751D01*
X176190219Y-131740219D01*
X175180749Y-132414725D01*
X173922533Y-132665000D01*
X138497466Y-132665000D01*
X137239249Y-132414725D01*
X136229781Y-131740219D01*
X135555275Y-130730749D01*
X135406463Y-129982619D01*
X136194613Y-129982619D01*
X136534155Y-130804372D01*
X137162321Y-131433636D01*
X137983481Y-131774611D01*
X138872619Y-131775387D01*
X139694372Y-131435845D01*
X140323636Y-130807679D01*
X140664611Y-129986519D01*
X140664614Y-129982619D01*
X171754613Y-129982619D01*
X172094155Y-130804372D01*
X172722321Y-131433636D01*
X173543481Y-131774611D01*
X174432619Y-131775387D01*
X175254372Y-131435845D01*
X175883636Y-130807679D01*
X176224611Y-129986519D01*
X176225387Y-129097381D01*
X175885845Y-128275628D01*
X175257679Y-127646364D01*
X174436519Y-127305389D01*
X173547381Y-127304613D01*
X172725628Y-127644155D01*
X172096364Y-128272321D01*
X171755389Y-129093481D01*
X171754613Y-129982619D01*
X140664614Y-129982619D01*
X140665387Y-129097381D01*
X140325845Y-128275628D01*
X139697679Y-127646364D01*
X138876519Y-127305389D01*
X137987381Y-127304613D01*
X137165628Y-127644155D01*
X136536364Y-128272321D01*
X136195389Y-129093481D01*
X136194613Y-129982619D01*
X135406463Y-129982619D01*
X135305000Y-129472533D01*
X135305000Y-110766661D01*
X138302758Y-110766661D01*
X138514990Y-111280303D01*
X138907630Y-111673629D01*
X139420900Y-111886757D01*
X139976661Y-111887242D01*
X140490303Y-111675010D01*
X140883629Y-111282370D01*
X140969949Y-111074488D01*
X141054990Y-111280303D01*
X141447630Y-111673629D01*
X141960900Y-111886757D01*
X142202164Y-111886968D01*
X140379566Y-113709566D01*
X140198561Y-113980459D01*
X140135000Y-114300000D01*
X140135000Y-115677118D01*
X139955302Y-115797189D01*
X139644233Y-116262736D01*
X139535000Y-116811887D01*
X139535000Y-116868113D01*
X139644233Y-117417264D01*
X139955302Y-117882811D01*
X140420849Y-118193880D01*
X140970000Y-118303113D01*
X141519151Y-118193880D01*
X141984698Y-117882811D01*
X142240000Y-117500725D01*
X142495302Y-117882811D01*
X142960849Y-118193880D01*
X143510000Y-118303113D01*
X144059151Y-118193880D01*
X144524698Y-117882811D01*
X144780000Y-117500725D01*
X145035302Y-117882811D01*
X145500849Y-118193880D01*
X146050000Y-118303113D01*
X146599151Y-118193880D01*
X147064698Y-117882811D01*
X147320000Y-117500725D01*
X147575302Y-117882811D01*
X148040849Y-118193880D01*
X148590000Y-118303113D01*
X149139151Y-118193880D01*
X149604698Y-117882811D01*
X149915767Y-117417264D01*
X150025000Y-116868113D01*
X150025000Y-116811887D01*
X149915767Y-116262736D01*
X149604698Y-115797189D01*
X149139151Y-115486120D01*
X148590000Y-115376887D01*
X148040849Y-115486120D01*
X147575302Y-115797189D01*
X147320000Y-116179275D01*
X147064698Y-115797189D01*
X146599151Y-115486120D01*
X146050000Y-115376887D01*
X145500849Y-115486120D01*
X145035302Y-115797189D01*
X144780000Y-116179275D01*
X144524698Y-115797189D01*
X144059151Y-115486120D01*
X143510000Y-115376887D01*
X142960849Y-115486120D01*
X142495302Y-115797189D01*
X142240000Y-116179275D01*
X141984698Y-115797189D01*
X141805000Y-115677118D01*
X141805000Y-114645868D01*
X144564056Y-111886812D01*
X145056661Y-111887242D01*
X145570303Y-111675010D01*
X145963629Y-111282370D01*
X146176757Y-110769100D01*
X146177189Y-110273679D01*
X146603182Y-109847686D01*
X146493569Y-110008110D01*
X146442560Y-110260000D01*
X146442560Y-113260000D01*
X146486838Y-113495317D01*
X146625910Y-113711441D01*
X146838110Y-113856431D01*
X147090000Y-113907440D01*
X150090000Y-113907440D01*
X150325317Y-113863162D01*
X150541441Y-113724090D01*
X150686431Y-113511890D01*
X150737440Y-113260000D01*
X150737440Y-110260000D01*
X150693162Y-110024683D01*
X150554090Y-109808559D01*
X150341890Y-109663569D01*
X150090000Y-109612560D01*
X147090000Y-109612560D01*
X146854683Y-109656838D01*
X146684557Y-109766311D01*
X150895868Y-105555000D01*
X152095942Y-105555000D01*
X152133106Y-105644943D01*
X152592637Y-106105278D01*
X153193352Y-106354716D01*
X153843795Y-106355284D01*
X154444943Y-106106894D01*
X154450489Y-106101357D01*
X155375000Y-107025868D01*
X155375000Y-110144132D01*
X154355000Y-111164132D01*
X154355000Y-110644058D01*
X154444943Y-110606894D01*
X154905278Y-110147363D01*
X155154716Y-109546648D01*
X155155284Y-108896205D01*
X154906894Y-108295057D01*
X154447363Y-107834722D01*
X153846648Y-107585284D01*
X153196205Y-107584716D01*
X152595057Y-107833106D01*
X152134722Y-108292637D01*
X151885284Y-108893352D01*
X151884716Y-109543795D01*
X152133106Y-110144943D01*
X152592637Y-110605278D01*
X152685000Y-110643630D01*
X152685000Y-116644132D01*
X150784132Y-118545000D01*
X147320000Y-118545000D01*
X147000460Y-118608560D01*
X146729566Y-118789566D01*
X142919566Y-122599566D01*
X142738561Y-122870459D01*
X142675000Y-123190000D01*
X142675000Y-123297118D01*
X142495302Y-123417189D01*
X142398899Y-123561465D01*
X142373162Y-123424683D01*
X142234090Y-123208559D01*
X142021890Y-123063569D01*
X141770000Y-123012560D01*
X140170000Y-123012560D01*
X139934683Y-123056838D01*
X139718559Y-123195910D01*
X139573569Y-123408110D01*
X139522560Y-123660000D01*
X139522560Y-125260000D01*
X139566838Y-125495317D01*
X139705910Y-125711441D01*
X139918110Y-125856431D01*
X140170000Y-125907440D01*
X141236572Y-125907440D01*
X142919566Y-127590434D01*
X143190459Y-127771439D01*
X143510000Y-127835000D01*
X161290000Y-127835000D01*
X161609541Y-127771439D01*
X161880434Y-127590434D01*
X166092061Y-123378807D01*
X166370000Y-123434093D01*
X166938285Y-123321054D01*
X167420054Y-122999147D01*
X167449403Y-122955223D01*
X167521673Y-123129698D01*
X167700301Y-123308327D01*
X167933690Y-123405000D01*
X168624250Y-123405000D01*
X168783000Y-123246250D01*
X168783000Y-122047000D01*
X169037000Y-122047000D01*
X169037000Y-123246250D01*
X169195750Y-123405000D01*
X169886310Y-123405000D01*
X170119699Y-123308327D01*
X170298327Y-123129698D01*
X170395000Y-122896309D01*
X170395000Y-122205750D01*
X170236250Y-122047000D01*
X169037000Y-122047000D01*
X168783000Y-122047000D01*
X168763000Y-122047000D01*
X168763000Y-121793000D01*
X168783000Y-121793000D01*
X168783000Y-120593750D01*
X169037000Y-120593750D01*
X169037000Y-121793000D01*
X170236250Y-121793000D01*
X170395000Y-121634250D01*
X170395000Y-120943691D01*
X170298327Y-120710302D01*
X170119699Y-120531673D01*
X169886310Y-120435000D01*
X169195750Y-120435000D01*
X169037000Y-120593750D01*
X168783000Y-120593750D01*
X168624250Y-120435000D01*
X167933690Y-120435000D01*
X167700301Y-120531673D01*
X167521673Y-120710302D01*
X167449403Y-120884777D01*
X167420054Y-120840853D01*
X166938285Y-120518946D01*
X166499251Y-120431617D01*
X166715868Y-120215000D01*
X171450000Y-120215000D01*
X171769541Y-120151439D01*
X172040434Y-119970434D01*
X174580434Y-117430434D01*
X174589234Y-117417264D01*
X174761439Y-117159541D01*
X174825000Y-116840000D01*
X174825000Y-107874083D01*
X175205824Y-107493923D01*
X175424750Y-106966691D01*
X175425248Y-106395813D01*
X175207243Y-105868200D01*
X174803923Y-105464176D01*
X174276691Y-105245250D01*
X173705813Y-105244752D01*
X173178200Y-105462757D01*
X172774176Y-105866077D01*
X172555250Y-106393309D01*
X172554752Y-106964187D01*
X172772757Y-107491800D01*
X173155000Y-107874710D01*
X173155000Y-109744132D01*
X171614779Y-108203911D01*
X171615248Y-107665813D01*
X171397243Y-107138200D01*
X170993923Y-106734176D01*
X170466691Y-106515250D01*
X169895813Y-106514752D01*
X169368200Y-106732757D01*
X168964176Y-107136077D01*
X168745250Y-107663309D01*
X168744752Y-108234187D01*
X168962757Y-108761800D01*
X169366077Y-109165824D01*
X169893309Y-109384750D01*
X170434354Y-109385222D01*
X171885000Y-110835868D01*
X171885000Y-115224132D01*
X169834132Y-117275000D01*
X165100000Y-117275000D01*
X164780460Y-117338560D01*
X164509566Y-117519566D01*
X161567939Y-120461193D01*
X161290000Y-120405907D01*
X160721715Y-120518946D01*
X160239946Y-120840853D01*
X160020000Y-121170026D01*
X159800054Y-120840853D01*
X159585000Y-120697159D01*
X159585000Y-117185868D01*
X162121829Y-114649039D01*
X163708096Y-114649039D01*
X163868959Y-115037423D01*
X164244866Y-115452389D01*
X164750959Y-115691914D01*
X164973000Y-115570629D01*
X164973000Y-114427000D01*
X165227000Y-114427000D01*
X165227000Y-115570629D01*
X165449041Y-115691914D01*
X165955134Y-115452389D01*
X166331041Y-115037423D01*
X166491904Y-114649039D01*
X166369915Y-114427000D01*
X165227000Y-114427000D01*
X164973000Y-114427000D01*
X163830085Y-114427000D01*
X163708096Y-114649039D01*
X162121829Y-114649039D01*
X162819907Y-113950961D01*
X163708096Y-113950961D01*
X163830085Y-114173000D01*
X164973000Y-114173000D01*
X164973000Y-113029371D01*
X165227000Y-113029371D01*
X165227000Y-114173000D01*
X166369915Y-114173000D01*
X166491904Y-113950961D01*
X166331041Y-113562577D01*
X166069600Y-113273970D01*
X167745635Y-113273970D01*
X167905418Y-113592739D01*
X168696187Y-113902723D01*
X169545387Y-113886497D01*
X170254582Y-113592739D01*
X170414365Y-113273970D01*
X169080000Y-111939605D01*
X167745635Y-113273970D01*
X166069600Y-113273970D01*
X165955134Y-113147611D01*
X165449041Y-112908086D01*
X165227000Y-113029371D01*
X164973000Y-113029371D01*
X164750959Y-112908086D01*
X164244866Y-113147611D01*
X163868959Y-113562577D01*
X163708096Y-113950961D01*
X162819907Y-113950961D01*
X165394681Y-111376187D01*
X166937277Y-111376187D01*
X166953503Y-112225387D01*
X167247261Y-112934582D01*
X167566030Y-113094365D01*
X168900395Y-111760000D01*
X169259605Y-111760000D01*
X170593970Y-113094365D01*
X170912739Y-112934582D01*
X171222723Y-112143813D01*
X171206497Y-111294613D01*
X170912739Y-110585418D01*
X170593970Y-110425635D01*
X169259605Y-111760000D01*
X168900395Y-111760000D01*
X167566030Y-110425635D01*
X167247261Y-110585418D01*
X166937277Y-111376187D01*
X165394681Y-111376187D01*
X166116089Y-110654779D01*
X166654187Y-110655248D01*
X167181800Y-110437243D01*
X167373346Y-110246030D01*
X167745635Y-110246030D01*
X169080000Y-111580395D01*
X170414365Y-110246030D01*
X170254582Y-109927261D01*
X169463813Y-109617277D01*
X168614613Y-109633503D01*
X167905418Y-109927261D01*
X167745635Y-110246030D01*
X167373346Y-110246030D01*
X167585824Y-110033923D01*
X167804750Y-109506691D01*
X167805248Y-108935813D01*
X167587243Y-108408200D01*
X167183923Y-108004176D01*
X166656691Y-107785250D01*
X166085813Y-107784752D01*
X165558200Y-108002757D01*
X165154176Y-108406077D01*
X164935250Y-108933309D01*
X164934778Y-109474354D01*
X158159566Y-116249566D01*
X157978561Y-116520459D01*
X157915000Y-116840000D01*
X157915000Y-120697159D01*
X157699946Y-120840853D01*
X157480000Y-121170026D01*
X157260054Y-120840853D01*
X156778285Y-120518946D01*
X156210000Y-120405907D01*
X155932061Y-120461193D01*
X155775000Y-120304132D01*
X155775000Y-114584187D01*
X156044752Y-114584187D01*
X156262757Y-115111800D01*
X156666077Y-115515824D01*
X157193309Y-115734750D01*
X157764187Y-115735248D01*
X158291800Y-115517243D01*
X158695824Y-115113923D01*
X158914750Y-114586691D01*
X158915248Y-114015813D01*
X158697243Y-113488200D01*
X158315000Y-113105290D01*
X158315000Y-112105868D01*
X159603473Y-110817395D01*
X159693352Y-110854716D01*
X160343795Y-110855284D01*
X160944943Y-110606894D01*
X161405278Y-110147363D01*
X161654716Y-109546648D01*
X161655284Y-108896205D01*
X161406894Y-108295057D01*
X160947363Y-107834722D01*
X160346648Y-107585284D01*
X159696205Y-107584716D01*
X159095057Y-107833106D01*
X158634722Y-108292637D01*
X158385284Y-108893352D01*
X158384716Y-109543795D01*
X158422907Y-109636225D01*
X156889566Y-111169566D01*
X156708561Y-111440459D01*
X156645000Y-111760000D01*
X156645000Y-113105917D01*
X156264176Y-113486077D01*
X156045250Y-114013309D01*
X156044752Y-114584187D01*
X155775000Y-114584187D01*
X155775000Y-112105868D01*
X156800434Y-111080434D01*
X156981439Y-110809541D01*
X157045000Y-110490000D01*
X157045000Y-106680000D01*
X157012130Y-106514752D01*
X156981440Y-106360460D01*
X156800434Y-106089566D01*
X155754663Y-105043795D01*
X158384716Y-105043795D01*
X158633106Y-105644943D01*
X159092637Y-106105278D01*
X159693352Y-106354716D01*
X160343795Y-106355284D01*
X160944943Y-106106894D01*
X161405278Y-105647363D01*
X161654716Y-105046648D01*
X161655284Y-104396205D01*
X161406894Y-103795057D01*
X160947363Y-103334722D01*
X160346648Y-103085284D01*
X159696205Y-103084716D01*
X159095057Y-103333106D01*
X158634722Y-103792637D01*
X158385284Y-104393352D01*
X158384716Y-105043795D01*
X155754663Y-105043795D01*
X155155242Y-104444374D01*
X155155284Y-104396205D01*
X154906894Y-103795057D01*
X154447363Y-103334722D01*
X153846648Y-103085284D01*
X153196205Y-103084716D01*
X152595057Y-103333106D01*
X152134722Y-103792637D01*
X152096370Y-103885000D01*
X150785868Y-103885000D01*
X149180434Y-102279566D01*
X148909541Y-102098561D01*
X148590000Y-102035000D01*
X147272841Y-102035000D01*
X147129147Y-101819946D01*
X146799974Y-101600000D01*
X147129147Y-101380054D01*
X147451054Y-100898285D01*
X147564093Y-100330000D01*
X147451054Y-99761715D01*
X147129147Y-99279946D01*
X146647378Y-98958039D01*
X146079093Y-98845000D01*
X146020907Y-98845000D01*
X145452622Y-98958039D01*
X144970853Y-99279946D01*
X144648946Y-99761715D01*
X144535907Y-100330000D01*
X144648946Y-100898285D01*
X144970853Y-101380054D01*
X145300026Y-101600000D01*
X144970853Y-101819946D01*
X144648946Y-102301715D01*
X144535907Y-102870000D01*
X144648946Y-103438285D01*
X144970853Y-103920054D01*
X145014777Y-103949403D01*
X144840302Y-104021673D01*
X144661673Y-104200301D01*
X144565000Y-104433690D01*
X144565000Y-105124250D01*
X144723750Y-105283000D01*
X145923000Y-105283000D01*
X145923000Y-105263000D01*
X146177000Y-105263000D01*
X146177000Y-105283000D01*
X147376250Y-105283000D01*
X147535000Y-105124250D01*
X147535000Y-104433690D01*
X147438327Y-104200301D01*
X147259698Y-104021673D01*
X147085223Y-103949403D01*
X147129147Y-103920054D01*
X147272841Y-103705000D01*
X148244132Y-103705000D01*
X149314132Y-104775000D01*
X144995944Y-109093188D01*
X144503339Y-109092758D01*
X143989697Y-109304990D01*
X143596371Y-109697630D01*
X143510051Y-109905512D01*
X143425010Y-109699697D01*
X143032370Y-109306371D01*
X142519100Y-109093243D01*
X141963339Y-109092758D01*
X141449697Y-109304990D01*
X141056371Y-109697630D01*
X140970051Y-109905512D01*
X140885010Y-109699697D01*
X140492370Y-109306371D01*
X139979100Y-109093243D01*
X139423339Y-109092758D01*
X138909697Y-109304990D01*
X138516371Y-109697630D01*
X138303243Y-110210900D01*
X138302758Y-110766661D01*
X135305000Y-110766661D01*
X135305000Y-105695750D01*
X144565000Y-105695750D01*
X144565000Y-106386310D01*
X144661673Y-106619699D01*
X144840302Y-106798327D01*
X145073691Y-106895000D01*
X145764250Y-106895000D01*
X145923000Y-106736250D01*
X145923000Y-105537000D01*
X146177000Y-105537000D01*
X146177000Y-106736250D01*
X146335750Y-106895000D01*
X147026309Y-106895000D01*
X147259698Y-106798327D01*
X147438327Y-106619699D01*
X147535000Y-106386310D01*
X147535000Y-105695750D01*
X147376250Y-105537000D01*
X146177000Y-105537000D01*
X145923000Y-105537000D01*
X144723750Y-105537000D01*
X144565000Y-105695750D01*
X135305000Y-105695750D01*
X135305000Y-94422619D01*
X136194613Y-94422619D01*
X136534155Y-95244372D01*
X137162321Y-95873636D01*
X137983481Y-96214611D01*
X138872619Y-96215387D01*
X139694372Y-95875845D01*
X140035061Y-95535750D01*
X144515000Y-95535750D01*
X144515000Y-96276310D01*
X144611673Y-96509699D01*
X144790302Y-96688327D01*
X145023691Y-96785000D01*
X145764250Y-96785000D01*
X145923000Y-96626250D01*
X145923000Y-95377000D01*
X144673750Y-95377000D01*
X144515000Y-95535750D01*
X140035061Y-95535750D01*
X140323636Y-95247679D01*
X140664611Y-94426519D01*
X140664788Y-94223690D01*
X144515000Y-94223690D01*
X144515000Y-94964250D01*
X144673750Y-95123000D01*
X145923000Y-95123000D01*
X145923000Y-93873750D01*
X146177000Y-93873750D01*
X146177000Y-95123000D01*
X146197000Y-95123000D01*
X146197000Y-95377000D01*
X146177000Y-95377000D01*
X146177000Y-96626250D01*
X146335750Y-96785000D01*
X147076309Y-96785000D01*
X147309698Y-96688327D01*
X147488327Y-96509699D01*
X147544119Y-96375006D01*
X147719357Y-96550551D01*
X148283330Y-96784733D01*
X148893991Y-96785265D01*
X148929659Y-96770527D01*
X151809566Y-99650434D01*
X152080460Y-99831440D01*
X152400000Y-99895000D01*
X163484132Y-99895000D01*
X164972499Y-101383367D01*
X164935000Y-101571887D01*
X164935000Y-101628113D01*
X165044233Y-102177264D01*
X165355302Y-102642811D01*
X165820849Y-102953880D01*
X166370000Y-103063113D01*
X166919151Y-102953880D01*
X167384698Y-102642811D01*
X167695767Y-102177264D01*
X167805000Y-101628113D01*
X167805000Y-101571887D01*
X167695767Y-101022736D01*
X167384698Y-100557189D01*
X166919151Y-100246120D01*
X166370000Y-100136887D01*
X166134582Y-100183714D01*
X164575868Y-98625000D01*
X167294132Y-98625000D01*
X168782499Y-100113367D01*
X168745000Y-100301887D01*
X168745000Y-100358113D01*
X168854233Y-100907264D01*
X169165302Y-101372811D01*
X169630849Y-101683880D01*
X170180000Y-101793113D01*
X170729151Y-101683880D01*
X171194698Y-101372811D01*
X171505767Y-100907264D01*
X171615000Y-100358113D01*
X171615000Y-100301887D01*
X171534065Y-99895000D01*
X172836447Y-99895000D01*
X172975302Y-100102811D01*
X173440849Y-100413880D01*
X173990000Y-100523113D01*
X174539151Y-100413880D01*
X175004698Y-100102811D01*
X175315767Y-99637264D01*
X175425000Y-99088113D01*
X175425000Y-99031887D01*
X175315767Y-98482736D01*
X175004698Y-98017189D01*
X174539151Y-97706120D01*
X173990000Y-97596887D01*
X173440849Y-97706120D01*
X172975302Y-98017189D01*
X172836447Y-98225000D01*
X171795868Y-98225000D01*
X168230434Y-94659566D01*
X168218867Y-94651837D01*
X167959541Y-94478561D01*
X167689963Y-94424938D01*
X167689005Y-94422619D01*
X171754613Y-94422619D01*
X172094155Y-95244372D01*
X172722321Y-95873636D01*
X173543481Y-96214611D01*
X174432619Y-96215387D01*
X175254372Y-95875845D01*
X175883636Y-95247679D01*
X176224611Y-94426519D01*
X176225387Y-93537381D01*
X175885845Y-92715628D01*
X175257679Y-92086364D01*
X174436519Y-91745389D01*
X173547381Y-91744613D01*
X172725628Y-92084155D01*
X172096364Y-92712321D01*
X171755389Y-93533481D01*
X171754613Y-94422619D01*
X167689005Y-94422619D01*
X167672068Y-94381629D01*
X167240643Y-93949449D01*
X166676670Y-93715267D01*
X166066009Y-93714735D01*
X165501629Y-93947932D01*
X165324159Y-94125092D01*
X165268327Y-93990301D01*
X165089698Y-93811673D01*
X164856309Y-93715000D01*
X164115750Y-93715000D01*
X163957000Y-93873750D01*
X163957000Y-95123000D01*
X163977000Y-95123000D01*
X163977000Y-95377000D01*
X163957000Y-95377000D01*
X163957000Y-96626250D01*
X164115750Y-96785000D01*
X164856309Y-96785000D01*
X165089698Y-96688327D01*
X165268327Y-96509699D01*
X165324119Y-96375006D01*
X165499357Y-96550551D01*
X166063330Y-96784733D01*
X166673991Y-96785265D01*
X167238371Y-96552068D01*
X167500014Y-96290882D01*
X170093271Y-98884139D01*
X169944582Y-98913714D01*
X168230434Y-97199566D01*
X167959541Y-97018561D01*
X167640000Y-96955000D01*
X160365868Y-96955000D01*
X159000886Y-95590018D01*
X159014733Y-95556670D01*
X159014751Y-95535750D01*
X162295000Y-95535750D01*
X162295000Y-96276310D01*
X162391673Y-96509699D01*
X162570302Y-96688327D01*
X162803691Y-96785000D01*
X163544250Y-96785000D01*
X163703000Y-96626250D01*
X163703000Y-95377000D01*
X162453750Y-95377000D01*
X162295000Y-95535750D01*
X159014751Y-95535750D01*
X159015265Y-94946009D01*
X158782068Y-94381629D01*
X158624405Y-94223690D01*
X162295000Y-94223690D01*
X162295000Y-94964250D01*
X162453750Y-95123000D01*
X163703000Y-95123000D01*
X163703000Y-93873750D01*
X163544250Y-93715000D01*
X162803691Y-93715000D01*
X162570302Y-93811673D01*
X162391673Y-93990301D01*
X162295000Y-94223690D01*
X158624405Y-94223690D01*
X158350643Y-93949449D01*
X157786670Y-93715267D01*
X157176009Y-93714735D01*
X156611629Y-93947932D01*
X156434159Y-94125092D01*
X156378327Y-93990301D01*
X156199698Y-93811673D01*
X155966309Y-93715000D01*
X155225750Y-93715000D01*
X155067000Y-93873750D01*
X155067000Y-95123000D01*
X155087000Y-95123000D01*
X155087000Y-95377000D01*
X155067000Y-95377000D01*
X155067000Y-96626250D01*
X155225750Y-96785000D01*
X155966309Y-96785000D01*
X156199698Y-96688327D01*
X156378327Y-96509699D01*
X156434119Y-96375006D01*
X156609357Y-96550551D01*
X157173330Y-96784733D01*
X157783991Y-96785265D01*
X157819659Y-96770527D01*
X159274132Y-98225000D01*
X152745868Y-98225000D01*
X150110886Y-95590018D01*
X150124733Y-95556670D01*
X150124751Y-95535750D01*
X153405000Y-95535750D01*
X153405000Y-96276310D01*
X153501673Y-96509699D01*
X153680302Y-96688327D01*
X153913691Y-96785000D01*
X154654250Y-96785000D01*
X154813000Y-96626250D01*
X154813000Y-95377000D01*
X153563750Y-95377000D01*
X153405000Y-95535750D01*
X150124751Y-95535750D01*
X150125265Y-94946009D01*
X149892068Y-94381629D01*
X149734405Y-94223690D01*
X153405000Y-94223690D01*
X153405000Y-94964250D01*
X153563750Y-95123000D01*
X154813000Y-95123000D01*
X154813000Y-93873750D01*
X154654250Y-93715000D01*
X153913691Y-93715000D01*
X153680302Y-93811673D01*
X153501673Y-93990301D01*
X153405000Y-94223690D01*
X149734405Y-94223690D01*
X149460643Y-93949449D01*
X148896670Y-93715267D01*
X148286009Y-93714735D01*
X147721629Y-93947932D01*
X147544159Y-94125092D01*
X147488327Y-93990301D01*
X147309698Y-93811673D01*
X147076309Y-93715000D01*
X146335750Y-93715000D01*
X146177000Y-93873750D01*
X145923000Y-93873750D01*
X145764250Y-93715000D01*
X145023691Y-93715000D01*
X144790302Y-93811673D01*
X144611673Y-93990301D01*
X144515000Y-94223690D01*
X140664788Y-94223690D01*
X140665387Y-93537381D01*
X140325845Y-92715628D01*
X139697679Y-92086364D01*
X138876519Y-91745389D01*
X137987381Y-91744613D01*
X137165628Y-92084155D01*
X136536364Y-92712321D01*
X136195389Y-93533481D01*
X136194613Y-94422619D01*
X135305000Y-94422619D01*
X135305000Y-94047467D01*
X135555275Y-92789251D01*
X136229781Y-91779781D01*
X137239249Y-91105275D01*
X138497466Y-90855000D01*
X173922533Y-90855000D01*
X175180749Y-91105275D01*
G36*
X154105000Y-120650000D02*
X154168561Y-120969541D01*
X154349566Y-121240434D01*
X154770632Y-121661500D01*
X154725000Y-121890907D01*
X154725000Y-121949093D01*
X154838039Y-122517378D01*
X155159946Y-122999147D01*
X155641715Y-123321054D01*
X156210000Y-123434093D01*
X156778285Y-123321054D01*
X157260054Y-122999147D01*
X157480000Y-122669974D01*
X157699946Y-122999147D01*
X158181715Y-123321054D01*
X158750000Y-123434093D01*
X159318285Y-123321054D01*
X159800054Y-122999147D01*
X160020000Y-122669974D01*
X160239946Y-122999147D01*
X160721715Y-123321054D01*
X161290000Y-123434093D01*
X161858285Y-123321054D01*
X162340054Y-122999147D01*
X162560000Y-122669974D01*
X162779946Y-122999147D01*
X163261715Y-123321054D01*
X163700749Y-123408383D01*
X160944132Y-126165000D01*
X143855868Y-126165000D01*
X143596729Y-125905861D01*
X144059151Y-125813880D01*
X144524698Y-125502811D01*
X144780000Y-125120725D01*
X145035302Y-125502811D01*
X145500849Y-125813880D01*
X146050000Y-125923113D01*
X146599151Y-125813880D01*
X147064698Y-125502811D01*
X147334986Y-125098297D01*
X147437611Y-125315134D01*
X147852577Y-125691041D01*
X148240961Y-125851904D01*
X148463000Y-125729915D01*
X148463000Y-124587000D01*
X148717000Y-124587000D01*
X148717000Y-125729915D01*
X148939039Y-125851904D01*
X149327423Y-125691041D01*
X149742389Y-125315134D01*
X149981914Y-124809041D01*
X149860629Y-124587000D01*
X148717000Y-124587000D01*
X148463000Y-124587000D01*
X148443000Y-124587000D01*
X148443000Y-124333000D01*
X148463000Y-124333000D01*
X148463000Y-123190085D01*
X148717000Y-123190085D01*
X148717000Y-124333000D01*
X149860629Y-124333000D01*
X149981914Y-124110959D01*
X149742389Y-123604866D01*
X149327423Y-123228959D01*
X148939039Y-123068096D01*
X148717000Y-123190085D01*
X148463000Y-123190085D01*
X148240961Y-123068096D01*
X147852577Y-123228959D01*
X147437611Y-123604866D01*
X147334986Y-123821703D01*
X147064698Y-123417189D01*
X146599151Y-123106120D01*
X146050000Y-122996887D01*
X145500849Y-123106120D01*
X145035302Y-123417189D01*
X144780000Y-123799275D01*
X144524698Y-123417189D01*
X144488120Y-123392748D01*
X147665868Y-120215000D01*
X151130000Y-120215000D01*
X151449541Y-120151439D01*
X151720434Y-119970434D01*
X154105000Y-117585868D01*
X154105000Y-120650000D01*
X154105000Y-120650000D01*
G37*
X154105000Y-120650000D02*
X154168561Y-120969541D01*
X154349566Y-121240434D01*
X154770632Y-121661500D01*
X154725000Y-121890907D01*
X154725000Y-121949093D01*
X154838039Y-122517378D01*
X155159946Y-122999147D01*
X155641715Y-123321054D01*
X156210000Y-123434093D01*
X156778285Y-123321054D01*
X157260054Y-122999147D01*
X157480000Y-122669974D01*
X157699946Y-122999147D01*
X158181715Y-123321054D01*
X158750000Y-123434093D01*
X159318285Y-123321054D01*
X159800054Y-122999147D01*
X160020000Y-122669974D01*
X160239946Y-122999147D01*
X160721715Y-123321054D01*
X161290000Y-123434093D01*
X161858285Y-123321054D01*
X162340054Y-122999147D01*
X162560000Y-122669974D01*
X162779946Y-122999147D01*
X163261715Y-123321054D01*
X163700749Y-123408383D01*
X160944132Y-126165000D01*
X143855868Y-126165000D01*
X143596729Y-125905861D01*
X144059151Y-125813880D01*
X144524698Y-125502811D01*
X144780000Y-125120725D01*
X145035302Y-125502811D01*
X145500849Y-125813880D01*
X146050000Y-125923113D01*
X146599151Y-125813880D01*
X147064698Y-125502811D01*
X147334986Y-125098297D01*
X147437611Y-125315134D01*
X147852577Y-125691041D01*
X148240961Y-125851904D01*
X148463000Y-125729915D01*
X148463000Y-124587000D01*
X148717000Y-124587000D01*
X148717000Y-125729915D01*
X148939039Y-125851904D01*
X149327423Y-125691041D01*
X149742389Y-125315134D01*
X149981914Y-124809041D01*
X149860629Y-124587000D01*
X148717000Y-124587000D01*
X148463000Y-124587000D01*
X148443000Y-124587000D01*
X148443000Y-124333000D01*
X148463000Y-124333000D01*
X148463000Y-123190085D01*
X148717000Y-123190085D01*
X148717000Y-124333000D01*
X149860629Y-124333000D01*
X149981914Y-124110959D01*
X149742389Y-123604866D01*
X149327423Y-123228959D01*
X148939039Y-123068096D01*
X148717000Y-123190085D01*
X148463000Y-123190085D01*
X148240961Y-123068096D01*
X147852577Y-123228959D01*
X147437611Y-123604866D01*
X147334986Y-123821703D01*
X147064698Y-123417189D01*
X146599151Y-123106120D01*
X146050000Y-122996887D01*
X145500849Y-123106120D01*
X145035302Y-123417189D01*
X144780000Y-123799275D01*
X144524698Y-123417189D01*
X144488120Y-123392748D01*
X147665868Y-120215000D01*
X151130000Y-120215000D01*
X151449541Y-120151439D01*
X151720434Y-119970434D01*
X154105000Y-117585868D01*
X154105000Y-120650000D01*
M02*
